<svg xmlns="http://www.w3.org/2000/svg" width="57" height="16.065" viewBox="0 0 57 16.065">
  <g id="logo" transform="translate(-304 -44.003)">
    <g id="Group_4" data-name="Group 4" transform="translate(304 44.003)">
      <g id="Group_2" data-name="Group 2" transform="translate(0)">
        <g id="LOGO-2" data-name="LOGO">
          <g id="Middle_circle" data-name="Middle circle" transform="translate(5.797 7.256)">
            <path id="Path_1" data-name="Path 1" d="M282.062,372.912a.222.222,0,0,0-.042.016.238.238,0,0,0-.038.026l-.016.012h-.01a.321.321,0,0,0-.092.022.305.305,0,0,0-.041.02.25.25,0,0,0-.041.031.2.2,0,0,0-.028.033.227.227,0,0,0-.021.041.488.488,0,0,0-.029.1c0,.007,0,.014,0,.021h0a.126.126,0,0,0-.009.026.146.146,0,0,0,0,.045c0,.013,0,.026,0,.039v.006a.568.568,0,0,0-.011.095.575.575,0,0,0,.005.1.828.828,0,0,0,.019.1.744.744,0,0,0,.035.1.616.616,0,0,0,.1.17.341.341,0,0,0,.071.058A.238.238,0,0,0,282,374a.2.2,0,0,0,.044,0,.225.225,0,0,0,.044-.008.2.2,0,0,0,.04-.016h.005l.014,0,.02.024a.264.264,0,0,0,.067.054.155.155,0,0,0,.041.015l.021,0a.09.09,0,0,0,.028,0l.022-.006.019-.009a.107.107,0,0,0,.016-.012.1.1,0,0,0,.014-.016.11.11,0,0,0,.012-.019c0-.006.005-.013.008-.02a.524.524,0,0,0,.03-.146c0-.018,0-.035,0-.053s0-.007,0-.011l0-.007.007-.021c0-.008.005-.017.007-.025l.01-.041,0-.013.005-.026c0-.009,0-.019.005-.028.005-.033.011-.067.015-.1a.973.973,0,0,0,.008-.1.725.725,0,0,0-.005-.109.68.68,0,0,0-.019-.1.472.472,0,0,0-.037-.1l-.008-.013a.393.393,0,0,0-.018-.037.3.3,0,0,0-.053-.07.263.263,0,0,0-.034-.027.2.2,0,0,0-.045-.024.245.245,0,0,0-.087-.014h-.013a.194.194,0,0,0-.036-.016.2.2,0,0,0-.043-.009H282.1a.166.166,0,0,0-.04.006Zm-.013.05-.013.009h0l.016-.009Zm.2.015h.007l.024.008.025.013-.013,0h-.022l-.021-.021Zm-.1,0,.008,0,.025.007.016.009.007,0,.011.012-.012.006H282.2a.035.035,0,0,0-.015,0l0,0,0,0-.016-.008a.117.117,0,0,0-.038-.01h0l-.013-.007.016-.007.028-.01Zm-.171.024h.011l-.021.012a.507.507,0,0,0-.046.031l-.013.01.03-.024.04-.029Zm-.094.016a.8.8,0,0,0-.062.057.539.539,0,0,0-.062.078l-.01.007c0-.011.008-.022.012-.033l.008-.017a.157.157,0,0,1,.015-.026.217.217,0,0,1,.033-.032.289.289,0,0,1,.05-.028l.016-.006Zm.416.021h.005l.017.006a.223.223,0,0,1,.031.019.209.209,0,0,1,.026.027.343.343,0,0,1,.024.037.558.558,0,0,1,.026.107v0a.637.637,0,0,1,0,.094l0-.011a.273.273,0,0,0-.015-.044l-.01-.022,0-.01a.347.347,0,0,0-.013-.055.309.309,0,0,0-.016-.039.2.2,0,0,0-.024-.034.1.1,0,0,0-.021-.019l-.009-.012c-.007-.015-.014-.03-.022-.044Zm.051.024h0Zm-.552.115,0,0,0,0,0,0Zm.218,0,0,0,0,0v0Zm.085.006.008,0-.008.01,0,0,0-.009Zm-.264.039-.007.017,0-.009,0-.007Zm.2.006h0c0,.011-.005.022-.008.033l0,.011,0-.012,0-.011a.14.14,0,0,1,.006-.017l0,0Zm.07.057.014.018h0l0,.023c0,.005,0,.011,0,.016s-.007.027-.009.04a1.167,1.167,0,0,0-.023.123l0-.009-.007-.016a.565.565,0,0,1,0-.112.392.392,0,0,1,.021-.083Zm-.349.01a.525.525,0,0,0-.018.059l0-.018,0-.006a.34.34,0,0,1,.018-.034Zm.149.036v0h0Zm-.127.039v0a.556.556,0,0,0,.016.1.343.343,0,0,0,.01.067c0,.01,0,.021,0,.031s0,.021,0,.031l-.014-.029v0l-.006-.015c-.007-.022-.014-.045-.02-.067l0-.012a.644.644,0,0,1,0-.07c0-.014,0-.028.008-.041Zm.654.008v0h0v0Zm-.661.028v0Zm.688.048c0-.009,0-.019.006-.029,0,.035,0,.07-.01.1v-.006c0,.02-.006.04-.01.06l0,.025c0,.007,0,.014,0,.021v.006c0-.024,0-.047,0-.071,0-.006,0-.012,0-.017a.846.846,0,0,0,.029-.094Zm-.592-.023v0h0Zm.488.19-.01.019h0l0-.01,0-.006,0,0Zm-.293,0a.319.319,0,0,0,.021.029l0,.008h0l-.019-.021,0-.008v-.007Zm-.209.026h0a.281.281,0,0,0,.035.04c.007.017.015.033.023.049a.461.461,0,0,1-.05-.052c0-.013-.006-.026-.009-.039Zm.523.028,0,0c0,.01,0,.019-.006.028a.277.277,0,0,1-.012.035l0,0,0,0,0,0h-.01l-.007,0,0,0v0a.475.475,0,0,0,.038-.059l.006,0Zm-.6.047v0h0Zm.586.019h0Zm-.028,0h0Zm.005,0h0Zm.016,0h0Zm0,0h0Zm.019.039a.059.059,0,0,0,.017-.011l.005-.005.006-.009,0-.005v.006a.134.134,0,0,1-.01.017l0,0h0l0,0-.01,0h0Zm-.557-.014a.3.3,0,0,0,.048.038q.016.024.035.047a.466.466,0,0,0,.069.07l.027.019h-.005l-.017-.006a.294.294,0,0,1-.047-.029.428.428,0,0,1-.064-.066.57.57,0,0,1-.045-.072Zm.573.013,0,0,0,0Zm-.093,0,.011.012a.131.131,0,0,0,.034.024.079.079,0,0,0,.037.008.073.073,0,0,0,.018,0l.007,0c0,.013,0,.026,0,.039a.48.48,0,0,1-.031.114l0-.005-.007.014a.066.066,0,0,1-.009.012l0,0-.013.013-.014.008-.018.005h-.011l-.015,0h.006l-.027-.008a.185.185,0,0,1-.032-.019.336.336,0,0,1-.047-.047l.014-.014a.149.149,0,0,0,.022-.033.4.4,0,0,0,.018-.04.278.278,0,0,0,.038-.058v0l.013-.014Zm-.353.056.021.005a.184.184,0,0,0,.033,0,.244.244,0,0,0,.069.048l.022.008-.021.021,0,0-.013,0a.284.284,0,0,1-.057-.035l0,0a.444.444,0,0,1-.054-.052Zm.457.024h0Zm-.278.063h0Zm.314-.7h0Z" transform="translate(-281.512 -372.663)" fill="#ffe032"/>
            <path id="Path_2" data-name="Path 2" d="M278.561,367.519a.6.6,0,0,0-.155.065l-.06.046a.155.155,0,0,0-.05.05.66.66,0,0,0-.068.1c-.006.012-.012.025-.018.039a.383.383,0,0,0-.027.03.457.457,0,0,0-.083.143.5.5,0,0,0-.021.3.786.786,0,0,0,.094.246l0,.007a.726.726,0,0,0,.074.147.832.832,0,0,0,.083.1.794.794,0,0,0,.1.08.529.529,0,0,0,.129.058l.025,0,.009,0a.3.3,0,0,0,.095.015.579.579,0,0,0,.143-.015.685.685,0,0,0,.1-.045.419.419,0,0,0,.14-.15.4.4,0,0,0,.086-.1.621.621,0,0,0,.07-.326,1.529,1.529,0,0,0-.043-.343.634.634,0,0,0-.249-.376.5.5,0,0,0-.256-.086h-.023a.47.47,0,0,0-.1.011Z" transform="translate(-278.065 -367.508)" fill="#ffe032"/>
          </g>
          <g id="Leaf_colors" data-name="Leaf colors" transform="translate(0.366 0.293)">
            <path id="Path_3" data-name="Path 3" d="M302.973,269.941a.366.366,0,0,0-.18.125h0c-.159-.152-.352.041-.472.146-.043.038-.084.078-.125.117s-.087.081-.129.123c-.081.083-.159.169-.235.257a3.319,3.319,0,0,0-.229.283c-.055.08-.105.162-.152.246s-.1.155-.147.236-.085.143-.126.215a1.188,1.188,0,0,0-.079.171c-.009.024-.018.048-.025.072s-.009.031-.013.048a.214.214,0,0,0,0,.022c-.018.044-.034.088-.049.133s-.024.067-.033.1l-.022.031c-.045.065-.088.131-.127.2a3.6,3.6,0,0,0-.235.48v0c-.027.053-.047.11-.07.165-.033.08-.064.162-.093.244-.019.051-.036.1-.053.153a.427.427,0,0,0-.06.094.783.783,0,0,0-.055.153l0,.019a.264.264,0,0,0-.093.141.455.455,0,0,0,0,.22.535.535,0,0,0,.042.112.7.7,0,0,0,.045.121.325.325,0,0,0,.115.129.238.238,0,0,0,.188.025.247.247,0,0,0,.146-.112l.008-.016a.225.225,0,0,0,.033-.031.409.409,0,0,0,.04-.031.223.223,0,0,0,.034-.038l.016-.014a.675.675,0,0,0,.053-.07.434.434,0,0,0,.048-.113.268.268,0,0,0,.11-.008.491.491,0,0,0,.195-.126c.042-.022.083-.047.121-.07.063-.038.125-.076.186-.118a2.124,2.124,0,0,0,.34-.3.365.365,0,0,0,.075-.009c.033-.007.065-.02.1-.03l.116-.035c.087-.027.173-.057.258-.089a2.012,2.012,0,0,0,.3-.141,1.325,1.325,0,0,0,.16-.117.547.547,0,0,0,.1-.108,1.614,1.614,0,0,0,.24-.138c.084-.06.166-.122.247-.186h0a3.76,3.76,0,0,0,.448-.332c.064-.056.129-.113.188-.175.031-.032.062-.065.092-.1s.059-.072.087-.109a.305.305,0,0,0,.034-.048.336.336,0,0,0,.044-.163s0-.009,0-.013l.026-.031a1.326,1.326,0,0,0,.128-.179.853.853,0,0,0,.041-.094.534.534,0,0,0,.022-.125.3.3,0,0,0-.041-.151.308.308,0,0,0-.432-.1.576.576,0,0,0-.1.092c-.035.039-.07.079-.107.116q-.141.143-.289.278l-.091.081c-.081.028-.162.057-.24.091l-.09.04-.023-.007a.34.34,0,0,0-.168,0,1.264,1.264,0,0,0-.145.066l-.054.031a.25.25,0,0,0-.165-.27c.02-.046.039-.093.054-.139a.31.31,0,0,0,.007-.165l.057-.1c.126-.211.256-.42.389-.626a1.155,1.155,0,0,0,.134-.252.244.244,0,0,0-.063-.24.247.247,0,0,0-.109-.063.252.252,0,0,0-.131,0Z" transform="translate(-293.724 -267.356)" fill="#ffda00"/>
            <path id="Path_4" data-name="Path 4" d="M319.873,262.956a.817.817,0,0,0-.149.027.751.751,0,0,0-.118.05,1.054,1.054,0,0,0-.2.132c-.044.036-.086.073-.126.113l-.073.059a1.45,1.45,0,0,0-.121.107,3.12,3.12,0,0,0-.225.247,3.026,3.026,0,0,0-.219.311c-.1.153-.184.31-.268.469q-.064.12-.125.241c-.022.044-.044.087-.065.131-.01.022-.021.044-.03.066a.832.832,0,0,0-.052.132.317.317,0,0,0,.39.39.33.33,0,0,0,.209-.175c.013-.025.026-.05.04-.075.034-.061.072-.12.109-.179.081-.127.164-.253.244-.381s.152-.253.232-.377c.02-.03.04-.061.061-.09l-.018.045a.484.484,0,0,0-.036.156.266.266,0,0,0,.008.092c.009.024.019.047.03.07a.161.161,0,0,0,.02.033c-.009.026-.017.053-.024.08a1.714,1.714,0,0,0-.04.235.784.784,0,0,0,.008.268.47.47,0,0,0,.33.355.678.678,0,0,0,.158.025.321.321,0,0,0,.061,0,.842.842,0,0,0,.152-.026,1.35,1.35,0,0,0,.139-.054,1.4,1.4,0,0,0,.149-.074c.061-.036.122-.072.183-.11l-.023.018.007-.006-.017.013-.1.075c-.187.14-.38.272-.556.426a2.875,2.875,0,0,0-.262.264c-.088.1-.166.207-.252.309,0,0,0,0,0,0,.121-.076.24-.153.365-.221.11-.06.223-.113.337-.162.211-.084.427-.152.636-.239l-.036.015.048-.02-.01,0,.127-.053a4.358,4.358,0,0,0,.422-.2,2.839,2.839,0,0,0,.4-.292,1.122,1.122,0,0,0,.156-.146c.04-.048.078-.1.114-.149a1.02,1.02,0,0,0,.092-.191.684.684,0,0,0,.009-.462.673.673,0,0,0-.139-.246.526.526,0,0,0-.226-.143.489.489,0,0,0-.309,0,1.348,1.348,0,0,0-.193.085,2.03,2.03,0,0,0-.249.165c-.077.057-.156.11-.236.163s-.174.126-.258.193-.159.107-.24.158v0c.026-.093.053-.185.081-.277s.061-.188.08-.285a1.155,1.155,0,0,0,.025-.346,1.043,1.043,0,0,0-.03-.164.471.471,0,0,0-.021-.06l.012-.037a.628.628,0,0,0,.022-.124.292.292,0,0,0-.041-.16.394.394,0,0,0-.128-.132.355.355,0,0,0-.207-.059l-.044,0Z" transform="translate(-310.864 -260.692)" fill="#ffda00"/>
            <path id="Path_5" data-name="Path 5" d="M309.3,292.977a.674.674,0,0,0-.148.106.885.885,0,0,0-.092.12c-.076.106-.155.21-.228.318a3.066,3.066,0,0,0-.168.313c-.024.046-.05.092-.073.139s-.053.122-.078.184-.059.129-.085.2a1.3,1.3,0,0,0-.058.2c-.031.144-.065.288-.089.434-.029.174-.05.349-.066.524a4.167,4.167,0,0,0-.029.52h0c.013-.039.027-.078.041-.116.038-.088.083-.173.124-.26s.089-.206.128-.311.077-.2.109-.3.055-.171.078-.258a2.429,2.429,0,0,0,.057-.261,2.275,2.275,0,0,1,.057-.248c.024-.089.038-.179.061-.268s.043-.179.064-.269a1.7,1.7,0,0,1,.087-.267l0,.006c.032-.075.067-.15.1-.224a.931.931,0,0,1,.093-.173h0a.79.79,0,0,1,.116-.109s0,0,0,0Z" transform="translate(-301.402 -289.365)" fill="#ffda00"/>
            <path id="Path_6" data-name="Path 6" d="M299.894,393.527a.434.434,0,0,0-.115.117.844.844,0,0,0-.047.073h0a.094.094,0,0,0-.166-.009.351.351,0,0,0-.03.064c-.009.02-.016.042-.023.062a1.8,1.8,0,0,1-.131.231l-.084.13-.044.068-.016.028a.1.1,0,0,0-.013.07.062.062,0,0,0,.046.046l.014,0c0,.011,0,.023,0,.035a.1.1,0,0,0,.054.093l0,0a.107.107,0,0,0,.054.015.114.114,0,0,0,.057-.015l.016.037a.67.67,0,0,0,.055.086,1,1,0,0,1,.07.124c0,.021.009.041.015.061.014.048.032.094.05.14s.042.114.064.171c.014.037.03.073.046.109.02.081.037.162.051.244.011.1.016.194.02.292,0,.053,0,.105,0,.158a.365.365,0,0,0,.076.262.2.2,0,0,0,.165.057s0,.009,0,.013c0,.045,0,.091,0,.136a.764.764,0,0,0-.043.094.146.146,0,0,0,.015.116.151.151,0,0,0,.018.024c0,.064,0,.129,0,.193a.62.62,0,0,0-.069.154.162.162,0,0,0,.041.154.157.157,0,0,0,.076.042l0,.016c.015.065.028.13.038.2v.006a.65.65,0,0,0-.059.146.169.169,0,0,0,.042.16.179.179,0,0,0,.072.042l.01.043a.174.174,0,0,0,.046.152c.013.037.027.073.043.109q.034.077.072.151c0,.009,0,.018,0,.026a.159.159,0,0,0,.049.117.177.177,0,0,0,.046.033c.032.062.064.124.1.184a.2.2,0,0,0,.028.048c.033.056.066.113.1.167s.076.111.112.168c.016.025.031.051.046.077a.466.466,0,0,0,.062.089.189.189,0,0,0,.1.054q-.009.047-.015.1a.356.356,0,0,0,0,.047c0,.023.006.045.009.068a.22.22,0,0,0,.058.095.164.164,0,0,0,.12.05.167.167,0,0,0,.12-.05.343.343,0,0,0,.048-.063c.005-.009.009-.02.014-.029l.006-.011a.165.165,0,0,0,.079-.053l.012,0,.035,0a.154.154,0,0,0,.02.048.212.212,0,0,0,.066.069.162.162,0,0,0,.082.022.2.2,0,0,0,.052-.006.219.219,0,0,0,.081-.046.4.4,0,0,0,.05-.066l.006-.009a.612.612,0,0,0,.093-.13l.059-.1.047-.085.01-.019c.014-.023.027-.047.039-.071l0,0h0c.006-.012.012-.025.017-.037a.163.163,0,0,0,0-.084.16.16,0,0,0-.073-.095.163.163,0,0,0-.031-.014l.011-.023a.16.16,0,0,0-.138-.24.154.154,0,0,0-.113.047l-.007.009a.135.135,0,0,0-.008-.032.164.164,0,0,0-.2-.114l-.028.01c.013-.038.026-.076.036-.114a.271.271,0,0,0,.015-.1.163.163,0,0,0-.022-.082.2.2,0,0,0-.066-.065.181.181,0,0,0-.136-.02h-.005v0a.592.592,0,0,0,.049-.14.165.165,0,0,0-.115-.2l-.044-.006-.031,0c.024-.054.047-.109.068-.165a.241.241,0,0,0,.024-.088.17.17,0,0,0-.052-.135.162.162,0,0,0-.114-.047h-.017a.461.461,0,0,0,.027-.1.161.161,0,0,0,0-.086.16.16,0,0,0-.148-.118l.02-.038a.148.148,0,0,0,.028.021.151.151,0,0,0,.2-.054c.035-.055.071-.109.107-.162s.052-.081.081-.12l.073-.1a.146.146,0,0,0,.03.043.149.149,0,0,0,.067.039.146.146,0,0,0,.117-.015.574.574,0,0,0,.065-.054l.007-.008a.174.174,0,0,0,0,.022.158.158,0,0,0,.046.112.155.155,0,0,0,.07.041l.042.006a.156.156,0,0,0,.08-.021.264.264,0,0,0,.095-.087l.037-.046.005-.006a.227.227,0,0,0,.006.027.17.17,0,0,0,.247.1.35.35,0,0,0,.064-.045.18.18,0,0,0,.052.119l0,0-.006.019c0,.02-.006.041-.008.061a.177.177,0,0,0,.026.091.174.174,0,0,0,.238.063.184.184,0,0,0,.08-.1c.018-.051.037-.1.057-.153.013-.029.026-.059.036-.089a.362.362,0,0,0,.024-.111.2.2,0,0,0,0-.029l.006-.029a3.1,3.1,0,0,0,.049-.486c0-.073,0-.146,0-.218a.875.875,0,0,0-.037-.241.6.6,0,0,0-.064-.144.919.919,0,0,0-.1-.126c-.094-.1-.2-.2-.288-.308-.047-.054-.092-.11-.143-.16s-.113-.1-.172-.153a2.272,2.272,0,0,0-.185-.14l0-.007a.148.148,0,0,0-.126-.073l-.079-.042a1.239,1.239,0,0,0-.123-.055c-.038-.014-.076-.026-.114-.037a1.2,1.2,0,0,0-.235-.036l-.04,0,0-.016a.149.149,0,0,0-.072-.093.161.161,0,0,0-.12-.016l-.033.01a.119.119,0,0,0-.03-.038l-.006-.005a.162.162,0,0,0-.181-.033.15.15,0,0,0-.072-.07.16.16,0,0,0-.162,0,.232.232,0,0,0-.069.051.167.167,0,0,0-.154-.113.178.178,0,0,0-.138.062.164.164,0,0,0-.132-.054,1.069,1.069,0,0,0-.011-.208.189.189,0,0,0-.086-.135.182.182,0,0,0-.091-.024.158.158,0,0,0-.086.024Zm2.347,1.58v0l.033.039c-.024.02-.048.041-.071.063a.937.937,0,0,0,.037-.1Zm-1.567.214.017,0-.006.01-.011-.015Zm1.827.052.025.025a.162.162,0,0,0-.035-.011l.009-.014Zm.109.208a.192.192,0,0,0,0-.089.088.088,0,0,0,0-.011l.022.026a.474.474,0,0,1,.029.047q.008.022.014.044a.176.176,0,0,0-.064,0l.005-.018Zm-1.926.256a.166.166,0,0,0-.018-.08.161.161,0,0,0,.085,0l-.034.056a.15.15,0,0,0-.017.043l-.017,0a.1.1,0,0,0,0-.018Zm-.015.51.061-.116a.591.591,0,0,0,.078-.185.167.167,0,0,0,.073.005l-.058.119c-.024.05-.051.1-.073.149l-.016.036a.157.157,0,0,0-.005.04.132.132,0,0,0-.045-.037l-.009,0-.008,0,0,0Zm.3.264a.155.155,0,0,0,.068-.04.332.332,0,0,0,.064-.074c.017-.024.031-.048.048-.072l.019-.026-.033.058-.053.095c-.018.033-.039.066-.057.1l-.006-.006a.163.163,0,0,0-.051-.034Z" transform="translate(-292.839 -385.372)" fill="#ffda00"/>
            <path id="Path_7" data-name="Path 7" d="M297.186,391.745a.155.155,0,0,0-.045.117v.012h-.009a.183.183,0,0,0-.078.024.222.222,0,0,0-.036.025.874.874,0,0,0-.076.065.987.987,0,0,0-.1.105c-.025.031-.05.063-.073.1a.093.093,0,0,0-.06.03l-.021.027a.191.191,0,0,0-.016.04c-.005.018-.009.037-.014.056a.2.2,0,0,0,0,.1.111.111,0,0,0,.051.066l.027.011.025,0a.937.937,0,0,0,.039.1l.006.014a.1.1,0,0,0,.108.044.1.1,0,0,0,.063-.055.03.03,0,0,0,.016.007.021.021,0,0,0,.018-.031l0-.005a.061.061,0,0,0,.032-.041.121.121,0,0,0-.026-.09c-.014-.021-.029-.042-.044-.063l-.031-.043.006-.009c.028-.035.058-.069.087-.1a.21.21,0,0,0,.038.034.132.132,0,0,0,.067.018.137.137,0,0,0,.094-.039.366.366,0,0,0,.059-.084l.019.022a1.676,1.676,0,0,1,.109.186.877.877,0,0,0,.17.212c.059.057.109.121.165.182.029.032.06.064.092.094s.05.047.073.072a.35.35,0,0,1,.018.032c.011.03.021.061.032.092s.033.081.051.12a2.254,2.254,0,0,1,.089.315c.014.062.029.123.042.185.007.031.013.061.018.092a.936.936,0,0,0,.022.109.15.15,0,0,0,.021.043l0,.046c0,.02,0,.04,0,.061a.15.15,0,0,0-.094.1.505.505,0,0,0-.005.175l0,.038c0,.017,0,.034-.006.051a.614.614,0,0,0,0,.075c0,.061.008.121.017.181,0,.025.007.049.012.074a.562.562,0,0,0,.022.088.144.144,0,0,0,.139.106h.006a.163.163,0,0,0,.007.021.16.16,0,0,0,.041.071.207.207,0,0,0,.04.029.165.165,0,0,0,.163,0,.208.208,0,0,0,.074-.072c.034-.05.066-.1.1-.151.013-.015.026-.03.04-.045s.026-.024.04-.036a.433.433,0,0,1,.06-.033c.069-.027.14-.05.21-.073.041-.014.082-.028.124-.04a.742.742,0,0,1,.1-.02c.04,0,.08-.008.121-.009a.946.946,0,0,1,.14.008,1.092,1.092,0,0,1,.218.059c.073.034.142.077.219.1a.206.206,0,0,0,.17-.015.26.26,0,0,0,.088-.094c.009-.017.018-.035.026-.053a.357.357,0,0,0,.036-.1.518.518,0,0,0,.01-.1.66.66,0,0,0-.012-.1.689.689,0,0,0-.039-.138c-.035-.085-.081-.164-.12-.248-.016-.041-.029-.082-.044-.124a.975.975,0,0,0-.083-.173c-.057-.1-.124-.185-.187-.277l-.206-.3a2.908,2.908,0,0,0-.227-.286l-.066-.073.008-.005a.19.19,0,0,0,.054-.035.148.148,0,0,0,.047-.1.112.112,0,0,0-.008-.043.2.2,0,0,0-.039-.063.2.2,0,0,0-.047-.039.114.114,0,0,0-.049-.015l-.057-.025a.415.415,0,0,0-.144-.064,1.1,1.1,0,0,0-.167-.028.373.373,0,0,0-.12-.006l-.036.006-.056,0a.932.932,0,0,0-.2-.043.78.78,0,0,0-.1,0,.464.464,0,0,0-.052,0,.347.347,0,0,0-.075.014.178.178,0,0,0-.066.039.13.13,0,0,0-.067-.039h0l-.063-.029-.1-.085a2.274,2.274,0,0,0-.2-.155,1.1,1.1,0,0,0-.2-.1c-.018-.008-.037-.016-.055-.026s-.044-.025-.066-.037a.339.339,0,0,0-.051-.021.133.133,0,0,0-.052,0l-.006-.006-.005,0a.143.143,0,0,0-.2,0Zm.963,1.049a.658.658,0,0,0-.09-.1c-.027-.025-.053-.05-.079-.076-.053-.054-.1-.114-.151-.169l-.034-.035c.06.029.12.058.177.092l.105.062.046.024a.313.313,0,0,0,.06.027.141.141,0,0,0,.116-.015.153.153,0,0,0,.065-.082,1.929,1.929,0,0,0,.323.12.136.136,0,0,0-.006.051.157.157,0,0,0,.069.115.238.238,0,0,0,.18.039l.019,0a.184.184,0,0,0,.009.054.093.093,0,0,0,.02.028.1.1,0,0,0,.045.027.631.631,0,0,0,.1.022s0,0,0,0a1,1,0,0,1-.1-.028h0a.084.084,0,0,1-.027-.013.137.137,0,0,1-.02-.021h0a.082.082,0,0,1-.01-.017l0-.016a.253.253,0,0,1,0-.039l.006,0a.235.235,0,0,0,.1-.02.37.37,0,0,0,.05-.027l.032.033c.056.059.108.121.159.184s.092.126.134.191.09.138.133.208a3.819,3.819,0,0,1,.235.4c.012.032.021.065.03.1a1.006,1.006,0,0,0,.052.14c.026.059.059.115.086.173a.739.739,0,0,1,.03.117h0a1.042,1.042,0,0,0-.154-.07,1.228,1.228,0,0,0-.37-.071.913.913,0,0,0-.165.009,1.568,1.568,0,0,0-.2.037,1.391,1.391,0,0,0-.158.057c-.048.019-.1.037-.146.056s-.073.03-.109.047l-.036.018a.53.53,0,0,0-.082.059l-.012.01c-.007-.057-.015-.114-.023-.17l0-.018c0-.011,0-.023,0-.034s0-.052,0-.078c0-.01,0-.02,0-.03a.324.324,0,0,0-.006-.052.213.213,0,0,0-.019-.053h0c0-.039-.006-.078-.009-.117s-.007-.073-.011-.11-.006-.051-.011-.076a.225.225,0,0,0-.021-.059.158.158,0,0,0-.043-.05l-.012-.057c-.014-.068-.032-.136-.048-.2s-.032-.128-.054-.191-.053-.132-.083-.2a.833.833,0,0,0-.088-.2Zm-1.353-.186h0Zm2.126.081.01,0-.009,0v0Zm.045.188h0Z" transform="translate(-290.387 -383.652)" fill="#ffda00"/>
            <path id="Path_8" data-name="Path 8" d="M369.345,442.558a.1.1,0,0,0-.026.05c0,.01-.005.021-.008.032s-.009.041-.013.061c-.009.044-.018.089-.026.134-.017.094-.03.188-.047.282l-.03.167a.089.089,0,0,0-.111.032l-.008,0a.127.127,0,0,0-.062.076.207.207,0,0,0,0,.095.109.109,0,0,0,.035.064l.014.012c0,.035,0,.07.006.106s0,.052,0,.078a.264.264,0,0,0,.023.133.127.127,0,0,0,.218,0,.444.444,0,0,0,.051-.156c0-.029.01-.058.014-.087.009-.058.015-.117.021-.176s.01-.129.013-.194a1.073,1.073,0,0,0,.044-.166.8.8,0,0,0,.009-.276.444.444,0,0,0-.031-.12.246.246,0,0,0-.017-.033.351.351,0,0,0,0-.1.039.039,0,0,0-.064-.017Zm.065.16a.5.5,0,0,1,.013.062.781.781,0,0,1,0,.176q0,.035-.012.069c0-.05,0-.1,0-.15,0-.034,0-.068,0-.1,0-.018,0-.036,0-.054Zm-.028.22h0Zm.041.022h0Z" transform="translate(-359.487 -432.211)" fill="#ffda00"/>
            <path id="Path_9" data-name="Path 9" d="M196.1,398.832a.157.157,0,0,0-.064.038.242.242,0,0,0-.024.032.161.161,0,0,0-.019.073.158.158,0,0,0,.018.074c-.015.015-.03.033-.044.05l-.033.039-.006.006c-.032.027-.061.057-.09.087l0,0a.432.432,0,0,0-.045.039.61.61,0,0,0-.045.051l0,.005,0,0-.013.007a.232.232,0,0,0-.056.042l-.018.016-.019,0a.129.129,0,0,0-.087.036l-.076.067-.012.009c-.04.029-.081.058-.121.088l-.163.127c-.1.076-.191.153-.284.231l-.144.124c-.039.034-.077.069-.113.105a.9.9,0,0,0-.073.081.2.2,0,0,0-.071.156l-.009.007-.054.045a.1.1,0,0,0-.111,0c-.028.018-.055.037-.082.056-.051.032-.1.063-.153.1l-.168.117-.006-.012a.1.1,0,0,0-.116-.047.422.422,0,0,0-.123.065c-.026.017-.051.035-.076.053-.048.034-.095.07-.141.107l-.082.066c-.024.02-.047.042-.07.062-.041.037-.08.077-.118.117l-.087.093a.285.285,0,0,0-.071.023.72.72,0,0,0-.182.131,1.611,1.611,0,0,0-.177.2,1.5,1.5,0,0,0-.205.353l0,.007-.018.019-.01.011a.681.681,0,0,0-.182.184.768.768,0,0,0-.1.231,1.2,1.2,0,0,0-.035.195c0,.021,0,.041-.006.061l-.015.037-.016.04a.477.477,0,0,0-.033.133c0,.015,0,.029,0,.044a.24.24,0,0,0,.006.067.51.51,0,0,0,.021.052.2.2,0,0,0,.035.046l.015.014c0,.011,0,.023,0,.034a.284.284,0,0,0,.066.216.261.261,0,0,0,.092.068.326.326,0,0,0,.11.026.252.252,0,0,0,.062-.006l.053-.011a.573.573,0,0,0,.126-.053.448.448,0,0,0,.092-.072.552.552,0,0,0,.054-.06l.011-.014a1.073,1.073,0,0,0,.092-.092l.02-.023.02,0a.262.262,0,0,0,.1-.058.653.653,0,0,0,.064-.062c.044-.048.086-.1.125-.149l.019-.025v0l0,.03c0,.036,0,.071-.005.107s0,.062,0,.093c0,.015,0,.031,0,.046s0,.014,0,.021,0,.031.007.046c-.012.029-.024.059-.035.089-.022.063-.044.125-.069.186s-.041.1-.059.146-.026.1-.042.149-.032.1-.048.148a1.175,1.175,0,0,0-.042.144c-.01.054-.02.109-.031.163s-.025.1-.037.151a1.657,1.657,0,0,0-.03.355,1.356,1.356,0,0,0,.048.409c.018.061.038.122.056.182.009.029.02.057.031.085s.019.046.03.068l.012.023a.377.377,0,0,0,.013.043.147.147,0,0,0,.038.065.144.144,0,0,0,.021.018.465.465,0,0,0,.069.061l.05.035.02.012a.173.173,0,0,0,.075.049.239.239,0,0,0,.1.01.494.494,0,0,0,.11.059.314.314,0,0,0,.093.02.209.209,0,0,0,.063-.006.655.655,0,0,0,.062-.025.3.3,0,0,0,.084-.062l.023-.023.014-.017h.02a.473.473,0,0,0,.34-.192,1.754,1.754,0,0,0,.2-.289c.057-.106.112-.211.161-.321l.081-.184c.031-.07.058-.141.087-.212.092-.226.177-.454.261-.683l.1-.268,0-.009.011-.03c.021-.057.043-.115.062-.173l.035-.1c.009-.025.016-.051.023-.077s.008-.035.011-.052a.215.215,0,0,0,0-.091.131.131,0,0,0-.07-.092l-.027-.01.006-.019c.04-.124.079-.248.116-.373s.068-.241.1-.363c.02-.073.033-.149.049-.224l0-.007q.011-.038.02-.076c.016-.062.035-.125.048-.188l.043-.2q.011-.05.02-.1l.093-.3c.033-.107.064-.214.1-.321.009-.03.017-.06.026-.09h0a.169.169,0,0,0,.053-.055l0-.008.007-.007a1.412,1.412,0,0,0,.105-.154l.081-.125c.056-.084.113-.167.17-.25l.045-.05.183-.2.173-.185c.027-.029.053-.06.079-.09s.049-.058.072-.088l.027-.033a.148.148,0,0,0,.036-.073.17.17,0,0,0,.007-.034c.054-.018.137-.052.148-.113a.11.11,0,0,0-.011-.08.1.1,0,0,0-.062-.048.208.208,0,0,0-.086,0h0a.273.273,0,0,0,.061-.021h0l0,.007h0c0-.006,0-.01-.006-.011a.076.076,0,0,0-.022,0c-.036,0-.073,0-.109,0h-.075a1.227,1.227,0,0,1-.12-.038l-.005,0a.486.486,0,0,0-.085-.041l-.025-.01c-.04-.023-.079-.048-.119-.07l-.033-.017a.253.253,0,0,0-.047-.018.276.276,0,0,0-.063-.008l-.046.007Zm.727.195h0Zm-3.078,2.21.057-.035-.037.052-.016-.006-.016,0,.012-.007Zm.251.3v0c-.019.037-.036.075-.054.113a.1.1,0,0,0-.036.02l0,0,.093-.13Z" transform="translate(-190.473 -390.454)" fill="#ffda00"/>
            <path id="Path_10" data-name="Path 10" d="M206.863,249.242c-.012.057-.018.115-.024.173s-.011.1-.016.152-.009.1-.012.144-.006.1-.008.144,0,.1-.007.15-.006.1-.008.153,0,.1,0,.152,0,.111,0,.167,0,.092.005.137a.57.57,0,0,0,.018.118.111.111,0,0,0,.01.027.089.089,0,0,0,.027.028.08.08,0,0,0,.063.011c.042-.011.061-.056.072-.094a.06.06,0,0,0,.021,0,.058.058,0,0,0,.055-.042l.006-.018a.171.171,0,0,0,.005-.03c0-.017,0-.035,0-.052s0-.025,0-.037,0-.051,0-.077c0-.047,0-.094,0-.14s-.007-.1-.011-.157c0-.152,0-.3.005-.456,0-.03,0-.06,0-.09.007-.075.013-.149.018-.224,0-.02,0-.04,0-.059s.01-.069-.018-.091a.045.045,0,0,0-.02-.012.048.048,0,0,0-.024,0,.045.045,0,0,0-.032.032c0,.014,0,.028-.006.042,0-.019,0-.037-.005-.056a.061.061,0,0,0-.059-.045.061.061,0,0,0-.059.045Z" transform="translate(-204.557 -247.553)" fill="#ffda00"/>
            <path id="Path_11" data-name="Path 11" d="M161.056,212.636a.415.415,0,0,0-.113.038,1.42,1.42,0,0,0-.312.193l-.018.015-.049.026a1.471,1.471,0,0,0-.176.115,1.617,1.617,0,0,0-.345.359l-.008,0a.5.5,0,0,0-.069.041.971.971,0,0,0-.128.107,1.156,1.156,0,0,0-.115.141,1.431,1.431,0,0,0-.105.172,1.636,1.636,0,0,0-.178.572,2.1,2.1,0,0,0-.08.336,1.777,1.777,0,0,0-.016.389,1.329,1.329,0,0,0,.048.273.408.408,0,0,0-.027.066.347.347,0,0,0-.008.047.827.827,0,0,0-.009.093.978.978,0,0,0,.015.172,5.033,5.033,0,0,0,.133.585c.009.034.022.066.032.1s.021.065.033.1c.034.09.069.178.108.266.031.07.068.136.1.2.019.034.039.067.059.1l.025.04c.011.017.022.033.035.05l.008.01c-.027-.017-.055-.033-.083-.047l.006.008h0l.016.02.01.013,0,.006a.017.017,0,0,1,0,.006.011.011,0,0,1,0,.008l0,0,0,.008.013.02.025.04.013.021,0,.008,0,.005v0h0l0,.006a.012.012,0,0,1,0,.014l.01.014.01.014h0a.1.1,0,0,1,.017.02l.007.01a.016.016,0,0,1,0,.007.015.015,0,0,1,0,.006.011.011,0,0,1-.007.005.012.012,0,0,1-.009,0l-.006,0-.006-.006-.012-.015-.015-.02,0,0-.015-.017-.021-.024h-.005c-.006,0-.01-.008-.014-.013l-.009-.011-.006-.009,0,0c-.011.007-.021-.006-.028-.012l-.025-.024-.029-.03-.014-.015-.012-.011-.031-.026-.031-.025-.005,0h0l-.033-.024-.033-.022c-.022-.015-.045-.03-.068-.044l-.043-.027-.041-.031-.008-.007h0a.013.013,0,0,1-.009,0l-.006,0,0,0-.007-.007,0,0h0l-.012-.008-.014-.013-.02-.021-.02-.023-.01-.008-.041-.031h0c-.02-.015-.039-.031-.057-.047l-.027-.025-.016-.017a.046.046,0,0,1-.012-.019.008.008,0,0,1,0,0l-.01-.01-.032-.033-.012-.012-.016-.015-.022-.021-.041-.028-.051-.037-.024-.017-.006,0a.863.863,0,0,0-.351-.052.745.745,0,0,0-.437.181h0a1.006,1.006,0,0,0-.2.073.841.841,0,0,0-.264.2.692.692,0,0,0-.119.184l-.025.032a1.131,1.131,0,0,0-.1.147,1.615,1.615,0,0,0-.088.205,1.7,1.7,0,0,0-.082.363,2.462,2.462,0,0,0-.023.427,1.653,1.653,0,0,0,.061.382,1.167,1.167,0,0,0,.121.28c.011.032.023.063.036.094a.187.187,0,0,0-.026.056.33.33,0,0,0,0,.19l.012.029v0a.646.646,0,0,0,.024.159.823.823,0,0,0,.081.185.841.841,0,0,0,.249.268.513.513,0,0,0,.081.049.765.765,0,0,0,.147.084.915.915,0,0,0,.186.06.744.744,0,0,0,.214.009l.019,0a.309.309,0,0,0,.155,0,.274.274,0,0,0,.135-.086l.035-.02a.434.434,0,0,0,.15-.143.271.271,0,0,0,.035-.127s0-.009,0-.013a.715.715,0,0,0,.1.011.216.216,0,0,0,.161-.062.2.2,0,0,0,.052-.14c.02-.018.04-.036.059-.055a.787.787,0,0,0,.077-.094l.021.007a.46.46,0,0,0,.111.021l.039-.005a.46.46,0,0,0,.1.063c.025.012.051.022.077.033a.457.457,0,0,0,.107.019l.025,0h.005a.705.705,0,0,0,.139.09.6.6,0,0,0,.1.039.371.371,0,0,0,.158,0l.02-.008a.3.3,0,0,0,.066-.031l.015-.009.03,0a.321.321,0,0,0,.064.019.806.806,0,0,0,.091.01.2.2,0,0,0,.088-.017.281.281,0,0,0,.1-.062.55.55,0,0,0,.079-.111c.022.028.045.054.07.079a.278.278,0,0,0,.071.051.229.229,0,0,0,.109.029l.025,0h.021a.694.694,0,0,0,.075.055,1.338,1.338,0,0,0,.259.135.373.373,0,0,0,.323,0c.05.019.1.037.152.055a.156.156,0,0,0,.054.008l.005.012h0l0,.01,0,0,.058.136,0-.005.021.046,0-.009a.238.238,0,0,0,.054.081.188.188,0,0,0,.122.053.239.239,0,0,0,.069.031.187.187,0,0,0,.144-.019.185.185,0,0,0,.093-.162c0-.022,0-.044-.008-.066a.49.49,0,0,0-.021-.058l-.008-.019a.271.271,0,0,0,.021-.093l.011-.009h.011a.183.183,0,0,0,.135-.056l0,0,.014,0a.206.206,0,0,0,.147-.186.209.209,0,0,0,0-.033.246.246,0,0,0-.044-.139c-.01-.019-.021-.036-.032-.054a1.5,1.5,0,0,0-.106-.143c-.06-.072-.121-.142-.184-.211s-.126-.127-.189-.189l-.048-.046a.3.3,0,0,0,0-.058,1.047,1.047,0,0,0-.02-.147c-.009-.049-.02-.1-.031-.147-.019-.085-.041-.169-.065-.253s-.056-.195-.087-.292q-.019-.061-.039-.122c-.008-.024-.018-.048-.028-.072l-.006-.015.01-.014a.238.238,0,0,0,.031-.087c0-.026.009-.051.014-.077.009-.047.015-.095.022-.142.014-.093.024-.187.033-.28,0-.006,0-.013,0-.02l0,0,.009-.015a1,1,0,0,0,.08-.174,1.494,1.494,0,0,0,.061-.215c.027-.118.045-.238.066-.358.014-.081.027-.161.037-.243l.045-.365c.005-.041.008-.083.01-.125.034-.161.071-.322.1-.483l.005-.028a.212.212,0,0,0,.08-.05c.094-.094.062-.234.052-.351-.007-.084-.012-.169-.02-.253,0-.048-.008-.1-.013-.146s-.008-.088-.015-.131c0-.023-.008-.046-.013-.069l-.026-.061a.361.361,0,0,0-.045-.054.176.176,0,0,0-.079-.046.2.2,0,0,0-.074,0c0-.014-.01-.028-.016-.042a.235.235,0,0,0-.016-.031c0-.027-.008-.055-.012-.082a1.811,1.811,0,0,0-.239-.7.81.81,0,0,0-.248-.242.647.647,0,0,0-.366-.081.663.663,0,0,0-.1.012.478.478,0,0,0-.074-.071.326.326,0,0,0-.149-.061l-.043-.006H161.1a.2.2,0,0,0-.047.006Z" transform="translate(-157.26 -212.63)" fill="#ffda00"/>
            <path id="Path_12" data-name="Path 12" d="M206.714,311.1l.029.018.012.007-.034-.027h0l0,0h-.009l.009.006Z" transform="translate(-204.482 -306.664)" fill="#ffda00"/>
            <path id="Path_13" data-name="Path 13" d="M209.642,312.959l.019.013.024.018,0,0,0,0h0l0,0,.013.01.019.015-.02-.02h0l-.015-.011-.013-.01-.027-.021,0,0Z" transform="translate(-207.287 -308.448)" fill="#ffda00"/>
            <path id="Path_14" data-name="Path 14" d="M213.228,314.768l.019.028,0,0,0,0v0l-.017-.034-.005,0Z" transform="translate(-210.712 -310.174)" fill="#ffda00"/>
            <path id="Path_15" data-name="Path 15" d="M263.273,376.158l0-.006,0,.006Z" transform="translate(-258.505 -368.802)" fill="#ffda00"/>
            <path id="Path_16" data-name="Path 16" d="M172.108,350.972a.314.314,0,0,0-.064.008c-.02.008-.04.016-.06.026a.265.265,0,0,0-.07.059.715.715,0,0,0-.055.073l-.039.061c-.03.047-.058.094-.089.14-.012.014-.024.027-.037.039v0c-.04-.059-.075-.123-.12-.177a.23.23,0,0,0-.287-.057.139.139,0,0,0-.048.04.209.209,0,0,0-.054.092l-.009.024-.007.013a.344.344,0,0,0-.034-.04.257.257,0,0,0-.105-.061l-.074-.01a.346.346,0,0,0-.1.017.3.3,0,0,0-.065.031.631.631,0,0,0-.284.2.784.784,0,0,0-.071.1l0,0h-.009a.549.549,0,0,0-.059,0,.48.48,0,0,0-.114.022.254.254,0,0,0-.172.165.224.224,0,0,0,.1.255l.01.006a.31.31,0,0,0,.014.029c-.078-.014-.155-.031-.232-.05s-.177-.05-.265-.077-.149-.047-.221-.077a1.2,1.2,0,0,1-.215-.127l.007.005a.176.176,0,0,1-.03-.026l-.006-.009a.276.276,0,0,1-.014-.054.233.233,0,0,1,0-.038c.016-.111.04-.221.062-.331h0l-.063.181a.925.925,0,0,0-.052.188.183.183,0,0,0,.02.1.232.232,0,0,0,.058.061,1.222,1.222,0,0,0,.113.09,1.56,1.56,0,0,0,.243.134c.083.04.167.079.251.118a4.462,4.462,0,0,0,.52.2c.039.012.078.022.119.031a.67.67,0,0,0,.222.006.954.954,0,0,0,.147-.025c.047-.014.094-.028.14-.045.113-.039.22-.092.328-.142a1.742,1.742,0,0,0,.221-.014c.06-.007.121-.016.18-.028a.582.582,0,0,0,.1-.025h0a.25.25,0,0,0,.174-.307.263.263,0,0,0-.034-.074c.013-.012.025-.025.036-.038a.3.3,0,0,0,.035.127.17.17,0,0,0,.015.026.1.1,0,0,0,.024.112.2.2,0,0,0,.048.034.116.116,0,0,0,.08.02.1.1,0,0,0,.056-.044.2.2,0,0,0,.063-.007.24.24,0,0,0,.095-.056.206.206,0,0,0,.055-.006.156.156,0,0,0,.086-.065.127.127,0,0,0,.013-.1.144.144,0,0,0-.061-.079l0,0c0-.042,0-.083,0-.125a.337.337,0,0,0-.013-.1.231.231,0,0,0-.095-.123.183.183,0,0,0-.05-.023c-.01-.026-.019-.052-.029-.078a.335.335,0,0,0-.12-.165.2.2,0,0,0-.107-.035Zm.232.266,0,0,0,0Zm.019.008h0Zm-.629.161.013.006-.013-.006Zm-2.5.181v0Z" transform="translate(-168.641 -344.753)" fill="#ffda00"/>
            <path id="Path_17" data-name="Path 17" d="M269.017,364.991a.02.02,0,0,0-.005.02l0,.006a.027.027,0,0,0,.012.01l.014.006.029.012c.019.008.039.014.059.02l.013,0h-.008l-.014,0-.007,0-.01.006a.021.021,0,0,0-.009.012.022.022,0,0,0,0,.015l0,0a.021.021,0,0,0,.007.007l.008,0,0,0-.023.007-.034.011-.037.014-.018.008,0-.008a.054.054,0,0,0-.006-.012l-.005-.005a.015.015,0,0,0-.012,0,.015.015,0,0,0-.011.015.037.037,0,0,0,0,.013l.005.013-.024.014-.011.007h-.007a.017.017,0,0,0-.01.009h0a.021.021,0,0,0-.011,0,.019.019,0,0,0-.011,0,.026.026,0,0,0-.008.009v0a.053.053,0,0,0,0,.012.07.07,0,0,0,0,.013l-.007.006,0,0,0,0a.811.811,0,0,0-.062.074.865.865,0,0,0-.058.087c-.009.015-.018.031-.026.047l-.024.047-.02.041-.02-.055c-.007-.02-.014-.04-.022-.059l-.024-.063-.013-.034-.011-.031-.007-.024,0-.007a.084.084,0,0,1,0-.014v-.009h0l.012,0h0l.094.043s0,0,0,0l-.069-.037-.021-.011-.013-.005h-.007s-.007.007-.008.011a.021.021,0,0,0,0,.01c0,.01,0,.021.007.031a.61.61,0,0,0,.017.059l.014.045.021.061q.018.056.038.111h-.005a.02.02,0,0,0-.015,0l-.008.006-.009-.012-.016-.021-.016-.018a.084.084,0,0,0-.013-.011.034.034,0,0,0-.014-.006.026.026,0,0,0-.012,0h0l-.008,0a.03.03,0,0,0-.01.013.067.067,0,0,0,0,.014c0,.006,0,.012,0,.018a.211.211,0,0,0,0,.04.708.708,0,0,0,.02.08c.008.023.015.047.023.07l.016.042c0,.011.009.021.014.032h0a.191.191,0,0,0,.02.063.069.069,0,0,0,.018.021l0,0v0l.009.017h0l.018.043c.016.039.033.078.05.117l.024.051.013.026.011.02.009.012a.028.028,0,0,0,.012.006.021.021,0,0,0,.025-.014.039.039,0,0,0,0-.016.025.025,0,0,0,.005-.014h0c0-.018.006-.036.009-.054a.021.021,0,0,0,.023-.009l0-.01a.027.027,0,0,0,0-.011.035.035,0,0,0,0-.011l-.007-.018-.006-.013v-.007l.01-.056,0,0a.015.015,0,0,0,.01,0,.007.007,0,0,0,.008,0,.046.046,0,0,0,0-.015s0-.011,0-.015,0-.009,0-.014h0a.02.02,0,0,0,.022-.007v.005l0,.01a.028.028,0,0,0,.01.009.021.021,0,0,0,.03-.013l0-.006a.082.082,0,0,0,0-.012s0-.009,0-.014a.013.013,0,0,0,0,0c0-.009,0-.017,0-.026s0-.025,0-.037,0-.033-.006-.049,0-.027-.006-.041v0l.006-.016c.007-.021.015-.04.024-.06l0,0c.01-.022.02-.044.031-.065s.021-.041.032-.062.024-.043.036-.064l.037-.061c.012-.019.023-.038.036-.056l.028-.042,0-.008,0,0,.033-.023.013-.009a.051.051,0,0,0,.012-.012.026.026,0,0,0,0-.013.042.042,0,0,0,0-.008l0,0a.059.059,0,0,0,.008-.014.015.015,0,0,0,0-.008.023.023,0,0,0,0-.01.049.049,0,0,0,0-.009l0-.005a.021.021,0,0,0-.008-.008l-.015-.009-.014-.006-.019-.007h0l.019-.007.028-.009h.012a.189.189,0,0,0,.042,0l.013,0a.065.065,0,0,0,.022-.007.02.02,0,0,0,.007-.027h0l.006,0h.006l.01,0a.021.021,0,0,0,.009-.012.02.02,0,0,0,0-.015.022.022,0,0,0-.012-.009l-.017-.007,0,0-.02-.009a.019.019,0,0,0,0-.006.02.02,0,0,0-.01-.017l-.01-.006-.01,0-.011,0-.024-.01-.027-.01-.014,0a.053.053,0,0,0-.02,0l-.01,0a.02.02,0,0,0-.009.012.025.025,0,0,0,0,.015l-.041-.013-.047-.014-.023-.007a.281.281,0,0,0-.029-.008h-.005a.02.02,0,0,0-.015.006Zm.27.052h0Zm-.047.057h.015l.028,0h0l-.033.007h-.017l.008-.01Zm.051,0h0Zm-.173.063-.027.021h0v0a.038.038,0,0,0-.009-.008l.04-.013Zm.075,0h0Zm-.041.022.015,0,.012,0,.022.008,0,0,.021.011,0,0h0l0,0-.008.008h0a.193.193,0,0,0-.071.015v-.007l0-.028a.087.087,0,0,1,0-.013l0,0,0,0Zm-.113,0v0c0,.006,0,.012-.007.018h0l0,0,0,0-.01-.013.01,0,.008,0Zm.026.016h0Zm0,0h0Zm.151,0h0Zm0,0h0Zm-.233.006,0,.017c0,.007,0,.015,0,.023a.24.24,0,0,1,0,.036.1.1,0,0,1,0,.014v0l-.01-.017-.006-.013c-.005-.013-.01-.027-.015-.04v0l.028-.018Zm.121,0h0Zm.112,0,0,0,0,0Zm-.149.038.014-.015,0,.006,0,.01h0l-.005,0-.016.008-.015.006.014-.018Zm-.047-.006v-.007l.008,0,0,.005,0,0v0Zm-.1.015,0,.01h0l-.005,0,0-.008.007-.006Zm.121.091.027-.016.047-.026.007,0-.033.034-.026.03c-.008.01-.016.019-.023.03l-.021.029-.016.023-.005.008-.01.016c0-.008,0-.017,0-.025l0-.036v0l0,0,.009-.024c.016-.012.032-.022.049-.032Zm-.056-.044h0Zm-.111,0h0l-.018.022a.345.345,0,0,0-.021.031l-.01.018-.018.033-.013.028c-.006.013-.012.025-.017.038s-.018.042-.025.063l0,.011-.012-.023v0l.012-.023c.009-.018.018-.037.029-.055a.93.93,0,0,1,.071-.11h0l0,0h0l.025-.03Zm.065,0h0Zm-.008,0v.008c0,.015.005.03.007.044l0,0-.008-.038,0-.015.005,0Zm-.046.049.01.04.007.024-.016.021-.007,0,0-.009,0-.009a.04.04,0,0,0-.008-.011.013.013,0,0,0-.008,0,.521.521,0,0,1,.03-.049Zm-.046.082v0c0,.008,0,.017,0,.025a.23.23,0,0,0-.006.026v.006l0-.014,0-.012,0-.006.014-.03Zm-.065.162.008-.022.012-.036c0-.008.006-.016.01-.024l0,0,.006.017.007.02-.012.021-.019.035-.006.012-.008-.016v0Zm-.209-.077h0l.01.007,0,0a.251.251,0,0,1,.03.035l.017.024h-.009a.011.011,0,0,0-.008.011c0,.008,0,.016,0,.024a.375.375,0,0,0,.008.037l.008.03v0h-.006a.02.02,0,0,0-.015.006l0,0a.02.02,0,0,0,0,.01v0l0-.007-.014-.045a.652.652,0,0,1-.022-.093v0a.2.2,0,0,1,0-.039v0h0a.036.036,0,0,1,0-.007v0l0,0h0Zm.154.038.013.04,0,.011,0,.016-.006-.009-.016-.022.006-.014,0,.005.013-.027Zm.083.093.014-.029.008-.016v.008l0,.011-.014.034,0-.008Zm-.173-.037h0Zm.183.115,0,.005h0v.011l0-.007,0-.006v0Zm.046,0h0l0,.018,0,0v-.015Zm-.206.047.008.025.014.038h0l0-.009c0-.009-.007-.018-.01-.027l-.009-.027Zm.129,0,.006.009c0,.014.007.028.009.042l-.006-.006a.01.01,0,0,0,0-.008l-.007-.016,0,0,0-.015Zm.161.055v0Zm-.147.062,0-.034,0,0a.023.023,0,0,0,.011,0h0l0,.028c0,.01,0,.019,0,.029l-.007-.012,0-.018Zm.106-.018h0Zm-.027.032.008,0c0,.01,0,.021,0,.031h0v0l0-.008v0l0-.011,0-.023Zm0,.036h0Zm-.172,0h0Zm.089.1a.042.042,0,0,0,0-.009v0h0v.028l0-.011a.011.011,0,0,0,0-.005Zm.036.105v0Zm-.275-.618h0Zm.292-.2h0l0,0,0,0Z" transform="translate(-263.532 -358.136)" fill="#ffda00"/>
            <path id="Path_18" data-name="Path 18" d="M275.45,363.954a0,0,0,0,0,0,0l.01.009.016.012.029.019.018.011h0a.015.015,0,0,0-.01.014.014.014,0,0,0,0,.007.016.016,0,0,0,.009.007l.006,0a.08.08,0,0,0,.014.011l.012.007.02.011.041.025.036.023-.015-.006-.045-.02-.044-.021-.048-.023-.044-.021h0a.068.068,0,0,0-.016-.006.013.013,0,0,0-.013,0h0a.014.014,0,0,0,0,.017.094.094,0,0,0,.017.02l.016.016.034.035.032.035.019.022.012.013h0l-.011,0-.016-.006-.037-.015-.018-.008-.017-.006-.017,0h-.02a.034.034,0,0,0-.012.005l-.007.007,0,.007a.042.042,0,0,0,0,.012.04.04,0,0,0,0,.012.068.068,0,0,0,0,.01.117.117,0,0,0,0,.015l0,.013.012.035c0,.013.009.025.012.038s0,.016.006.024l-.01.018-.017.032h-.023a.116.116,0,0,0-.027,0l-.015,0a.041.041,0,0,0-.013.008.054.054,0,0,0-.014.022.153.153,0,0,0-.007.041c0,.014,0,.027,0,.041s0,.051,0,.077l0,.01,0,.011-.005.017a.32.32,0,0,0-.009.039.448.448,0,0,0,0,.051c0,.01,0,.021,0,.031s0,.049,0,.073h0c0-.045.008-.089.014-.134v0a.011.011,0,0,0,.007.005.011.011,0,0,0,.011,0l0,0,0-.007,0-.012,0-.011c0-.01,0-.02,0-.03s0-.028,0-.042l0-.012.009-.017.011-.019.013-.023c0,.015,0,.03,0,.046l0,.054c0,.009,0,.018,0,.026a.224.224,0,0,0,0,.023v.02a.009.009,0,0,0,0,.006c0,.008,0,.016,0,.024a.2.2,0,0,0,0,.065.011.011,0,0,0,.019,0l0,0a.02.02,0,0,0,0-.009s0-.009,0-.013l0-.025c0-.017,0-.034.006-.051v0l0-.015,0-.005.006-.015.013-.033.027-.067v0c.016-.037.033-.073.048-.11l.012-.029.012-.032c0-.008.006-.017.008-.025l0-.014.005-.018,0-.006a.03.03,0,0,0,0-.008.011.011,0,0,0-.005-.01h0a.012.012,0,0,0-.014,0l-.005.005-.008.012-.006.013-.011.025-.019.046,0,.009,0,0a.072.072,0,0,0-.008.012l-.013.021-.01.017-.011.023-.008.019v0c0-.013.006-.027.009-.04s.009-.034.013-.051l.008-.006,0,0a.025.025,0,0,0,.005-.009.033.033,0,0,0,0-.012.091.091,0,0,0,0-.013.106.106,0,0,0,0-.018l.011-.033a.011.011,0,0,0-.005-.013.011.011,0,0,0-.014,0h0l0-.006c0-.01-.007-.02-.01-.03l-.01-.029a.343.343,0,0,1-.013-.04.039.039,0,0,1,0-.008v0h0l0,0h.011l.017,0,.012,0,.015.006h0l.07.029.012,0,.012,0h.01a.019.019,0,0,0,.01,0l0-.005a.014.014,0,0,0,0-.007.021.021,0,0,0,0-.011.037.037,0,0,0-.006-.009l-.009-.011-.015-.017-.055-.062-.013-.014.008,0,.058.028c.038.019.076.036.115.051l.012,0,.01,0h.005l.011,0a.028.028,0,0,0,.012,0,.024.024,0,0,0,.007-.007.016.016,0,0,0,0-.012.019.019,0,0,0,0-.01.132.132,0,0,0-.022-.018l-.014-.009-.026-.017,0,0,0,0,.017.009.008,0,.011,0h.005a.012.012,0,0,0,.008,0l.012,0,.01,0,.006,0,.009,0a.016.016,0,0,0,.015-.011.016.016,0,0,0,0-.012.018.018,0,0,0-.009-.007h0l-.05-.021-.061-.023-.057-.018h0l-.033-.017-.027-.013a.611.611,0,0,1-.061-.033l.006,0,.022.007s0,0,0,0l-.018-.008-.019-.007h0a0,0,0,0,0,0,0Zm.282.121h0Zm-.048.017h0Zm-.271.085v0Zm.1.144h0Zm-.127.066-.015.027v0a.019.019,0,0,0-.008-.011.017.017,0,0,0-.015,0,.025.025,0,0,0-.008.008.13.13,0,0,0-.008.016.28.28,0,0,0-.01.03c0-.01,0-.02,0-.03s0-.008,0-.012a.064.064,0,0,1,0-.011v0a.033.033,0,0,1,.005-.008l0,0,0,0,.006,0,.011,0a.191.191,0,0,1,.034,0Zm0,.05.027-.048v.005c-.01.039-.02.079-.027.119l0,.024c0-.011,0-.023,0-.034s0-.035,0-.053l.008-.013Zm-.059-.011h0Zm.028.01s0,.008,0,.013l-.012.021c0-.011.007-.023.011-.034Zm-.068.219h0Zm.466-.572h0l0,0Zm-.3-.059h0Z" transform="translate(-269.967 -357.148)" fill="#ffda00"/>
            <path id="Path_19" data-name="Path 19" d="M271.5,362.113a.017.017,0,0,0-.011,0,.029.029,0,0,0-.006.009v0a.018.018,0,0,0,0,.008v.005l0,.009.011.02.007.01-.01,0a.182.182,0,0,0-.041-.01h-.018l-.007,0-.026-.018s0,0,0,0l.024.018h0a.014.014,0,0,0-.007.009h0l-.018-.008-.015-.005h-.009a.013.013,0,0,0-.009.012.013.013,0,0,0,0,.006.013.013,0,0,0-.006.008.014.014,0,0,0,.006.015l.039.026.008,0,0,0-.006.009a.03.03,0,0,0,0,.013.033.033,0,0,0,.005.013l0,0,.006.007a.137.137,0,0,0,.024.017l.014.007.02.01a.107.107,0,0,0-.029.009l-.011.006-.026.01-.017.009-.013.009-.01.01,0,0,0,.009a.073.073,0,0,0,0,.034v0c-.018.032-.033.065-.05.1l-.074.139-.044.084c-.017.033-.033.067-.049.1l-.042.089-.021.044-.012.027a.111.111,0,0,0-.006.017l0,.008v.006a.025.025,0,0,0,0,.006.013.013,0,0,0,.012.009.014.014,0,0,0,.008,0,.019.019,0,0,0,.007-.007l.009-.016c0-.01.009-.019.014-.029l.015-.034.016-.036.014-.026.016-.03c.012-.021.024-.042.037-.063l.039-.064.043-.066.041-.062c.013-.019.027-.038.04-.057l.019-.023h0l.006.007a.031.031,0,0,0,.01.006l-.009.021c-.005.011-.01.023-.015.034s-.017.045-.025.068-.014.042-.02.063l-.014.044c0,.011-.007.023-.01.035s-.007.023-.01.034l-.011.044c-.006.023-.011.046-.015.069l0,.018c0,.006,0,.012,0,.018s0,.011,0,.017a.054.054,0,0,0,0,.022.012.012,0,0,0,.023,0c0-.009,0-.018.005-.026l0-.015.008-.035c0-.021.01-.041.016-.061l.011-.035c0-.012.008-.024.012-.036s.014-.039.022-.058l0,0,.006-.009.036-.045.048-.06c.017-.021.034-.041.053-.061l.007-.007h.015a.043.043,0,0,0,.015,0,.072.072,0,0,0,.023-.017l0-.006.009-.006.025-.019.02-.016,0,0h.006l.014,0,.011,0,.012,0-.027.017-.056.034-.029.016-.013.008-.009.005-.012.009a0,0,0,0,0,0,0l0,0h.008a0,0,0,0,0,0,0h-.008l.011-.006.01,0,.014-.006.031-.013.06-.028.054-.028.027-.015.023-.013a.013.013,0,0,0,.006-.015.012.012,0,0,0-.006-.008.014.014,0,0,0-.01,0l-.008,0h-.007l-.013,0a.015.015,0,0,0-.011-.012h-.008a.42.42,0,0,0,.037-.041l.007,0a.012.012,0,0,0,.014-.008.013.013,0,0,0,0-.011l0-.006a.133.133,0,0,0,.015-.033v-.015a.015.015,0,0,0,0-.008l0-.005-.006-.006,0,0-.008,0h-.01l-.008,0-.008,0-.019.011-.007,0,0,0a.014.014,0,0,0,0-.007.016.016,0,0,0,.005-.016.024.024,0,0,0,0-.01l0,0-.007-.005-.015-.009-.024-.015v0a.016.016,0,0,0,0-.007l-.006-.006,0,0-.01-.02-.011-.018-.008-.012a.351.351,0,0,0-.041-.049l-.021-.019-.015-.011a.069.069,0,0,0-.016-.007H271.5Zm.025.044a.286.286,0,0,1,.028.027l.013.015,0,0-.011-.01a.17.17,0,0,1-.017-.018l-.007-.011Zm-.022.062-.022-.014,0,0,.017.006a.424.424,0,0,1,.05.026l.011.007-.05-.02Zm-.06.038h0l.033.016.016.007.034.018-.016.008h0l-.009,0a.365.365,0,0,1-.062-.032l-.008-.008h0l.01,0Zm.119.06,0,0,.012.007h0l-.018,0h-.007l0,0,0,0,.011,0Zm.184.027,0,.008,0,0-.011-.005.012-.007Zm0,0h0Zm-.263.024.018-.016h.012a.4.4,0,0,1,.041.008l.047.014.032.012-.042.032,0,0-.054.042-.031.022-.03.019-.011.007a.075.075,0,0,0-.008-.013.03.03,0,0,0-.011-.008l-.007,0h-.007a.035.035,0,0,0-.012,0h0l0,0a.269.269,0,0,1,.011-.037l.011-.023a.229.229,0,0,1,.018-.029l.021-.024Zm-.038,0-.017.023a.266.266,0,0,0-.021.038c0,.007-.006.014-.008.021l-.005-.011,0,0,.007-.011a.32.32,0,0,1,.021-.032v0l.011-.013.011-.009,0,0Zm-.006,0h0Zm.024.022h0Zm.068.11.025-.018.027-.021.05-.039.031-.023.01,0,.016.008.01,0-.012.011-.017.016-.017.016-.038.031-.008.006-.019.011h-.013l-.009,0-.006,0-.008.007-.011.011-.024.025-.018-.006h0l-.025-.015a.563.563,0,0,0,.057-.036Zm-.137-.064h0Zm.293.022h0l0,0Zm-.328.036.013-.025,0-.009,0,0,.008.015,0,0a.167.167,0,0,0,0,.027v0c-.008.008-.015.018-.022.027l-.024.032c-.014.019-.027.039-.041.059l-.065.1c.041-.078.084-.156.124-.234Zm.081.013h0Zm-.024.012h0Zm0,0h0v0Zm0,0,0,0,0,0,0,0,0,0h0v0h0Zm.019.034.007,0h0c0,.014-.008.027-.012.04l-.018.036-.03.06,0,.009,0-.01c.011-.033.023-.065.036-.1.005-.012.01-.024.017-.035Zm.025.027.007-.017.013.008.014.006h0l-.018.02-.03.035-.019.024c.008-.02.016-.041.023-.062l.007-.016Zm-.165.423h0Zm.2-.452h0Z" transform="translate(-265.943 -355.392)" fill="#ffda00"/>
            <path id="Path_20" data-name="Path 20" d="M271.99,380.1c0,.013,0,.026,0,.039v.034c0,.022,0,.045,0,.068v.043l-.008-.049,0-.026s0-.008,0-.012a.178.178,0,0,0,0-.02.02.02,0,0,0,0-.008.014.014,0,0,0-.016-.007.017.017,0,0,0-.009,0,.015.015,0,0,0,0,.006l0,0h0c0-.006,0-.011,0-.017l0-.012a.038.038,0,0,0,0-.012l0-.007a.013.013,0,0,0-.024.007c0,.028,0,.056,0,.084,0,.011,0,.021,0,.032l0,.021c0,.015,0,.03-.005.046s0,.017,0,.025,0,.008,0,.011h0a.008.008,0,0,0-.006.008.365.365,0,0,0,0,.037v.022c0,.015,0,.029,0,.044v0l0,.016-.006-.013h0c-.014-.034-.027-.069-.04-.1l-.009-.021-.007-.012,0,0a.029.029,0,0,0-.008-.008l-.008,0a.018.018,0,0,0-.011,0l-.005,0,0,0a.025.025,0,0,0-.006.01.085.085,0,0,0-.006.025s0,.009,0,.014l0,0,0,0,0,.006,0,0a.024.024,0,0,0,0,.009.1.1,0,0,0,0,.017.25.25,0,0,0,0,.032c0,.005,0,.01,0,.015s0,.011,0,.016l0,.02c0,.007,0,.013.005.02s.007.021.01.032l0,.035v.005l-.012-.027-.009-.024,0-.014c0-.006,0-.012-.005-.018s0-.018-.006-.026l0-.01,0-.017a.429.429,0,0,1,0-.051c0-.01,0-.02,0-.03s0-.05.006-.074h0a.594.594,0,0,1,.012-.06.544.544,0,0,1,.026-.069h0l.006-.015h0c-.01.019-.02.039-.03.058a.323.323,0,0,0-.018.053.589.589,0,0,0-.015.09l0,.03a.364.364,0,0,0,0,.046c0,.012,0,.024,0,.036s0,.015,0,.022a.419.419,0,0,0,.01.043c0,.014.009.029.015.043s.013.029.019.044l.009.018c0,.008.007.017.012.024a.012.012,0,0,0,.022-.006c0-.008,0-.016,0-.024a.169.169,0,0,0,.013.022l.006.007.008.006.008,0a.019.019,0,0,0,.012,0c.015-.009.012-.03.009-.044s0-.016-.006-.024l-.006-.023c-.009-.033-.018-.066-.025-.1v0l0,0,.017.037c.008.016.015.032.024.047l.005.007.008.006a.02.02,0,0,0,.015,0l0,0,0,0,.02.028.011.016.005.01.006.009a.049.049,0,0,0,.008.011.016.016,0,0,0,.028-.011.02.02,0,0,0,0-.01.234.234,0,0,0-.012-.02l-.009-.013,0,0,0,0-.008-.018c0-.007-.005-.015-.008-.022s0-.015-.007-.022l0-.01a.016.016,0,0,0,0-.007l0-.005,0-.01c0-.005,0-.01,0-.016s0-.017,0-.026,0-.027,0-.041,0-.05,0-.074,0-.027,0-.041l0,.01c0,.014,0,.028.007.043s0,.017,0,.025l0,.016h0a.041.041,0,0,0,0,.013v0l.006.006a.015.015,0,0,0,.014,0h0c0,.012.008.024.012.036l0,.008h0c0,.011,0,.023,0,.034s.006.032.008.047a.015.015,0,0,0,.015.011.016.016,0,0,0,.011,0,.016.016,0,0,0,0-.011.126.126,0,0,0,0-.023l0-.016c0-.014,0-.028,0-.041s0-.045-.006-.067v0a.111.111,0,0,0,0-.019c0-.008,0-.017,0-.025s0-.034,0-.051l-.005-.053c0-.021,0-.042-.007-.063a.014.014,0,0,0-.01-.01.016.016,0,0,0-.01,0l0-.029v-.014c0-.006,0-.012,0-.018a.192.192,0,0,0,0-.028.014.014,0,0,0-.014-.011.015.015,0,0,0-.014.014Zm-.076.052v0Zm-.157.147h0Zm.053.049a.155.155,0,0,1,.01.018l.018.045h0a.178.178,0,0,0-.026-.029l0,0c0-.008,0-.015,0-.023v0a.078.078,0,0,1,0-.01Zm0,.167q0-.037-.005-.074v-.013l0,.005a.054.054,0,0,0,0,.009.18.18,0,0,0,0,.046l0,.021c0,.014.006.028.01.043l.009.033-.01-.025-.006-.015-.008-.023v-.006Zm.073-.044h0Zm-.091-.3h0Z" transform="translate(-266.587 -372.555)" fill="#ffda00"/>
            <path id="Path_21" data-name="Path 21" d="M277.775,365.878a.009.009,0,0,0-.007,0l0,0a.017.017,0,0,0,0,.008l0,.007.006.013a.112.112,0,0,0,.012.015l.01.01-.021.01a.478.478,0,0,0-.05.029c-.016.011-.032.022-.048.034l-.024.02-.015.013a.088.088,0,0,0-.009.011l0,0a.014.014,0,0,0,0,.007s0,.007,0,.01a.024.024,0,0,0,.006.009l.006,0,.014.005.023.005.012,0h0a.2.2,0,0,0-.014.039.005.005,0,0,0,0,.006.006.006,0,0,0,.005,0l.01-.008.018-.014h0l.013-.009.008-.005.012,0h0l0,0-.012.008-.022.009a.19.19,0,0,0-.057.042.288.288,0,0,0-.042.06l-.007.011v-.009a.018.018,0,0,0,0-.008.013.013,0,0,0,0-.006l-.007,0a.014.014,0,0,0-.011,0,.014.014,0,0,0-.01.01l0,.012a.106.106,0,0,0,0,.019c0,.006,0,.012,0,.018s0,.021,0,.032,0,.043,0,.064v.006c0,.009,0,.018-.007.027a.354.354,0,0,0-.006.042c0,.012,0,.023,0,.035s0,.047,0,.07v.08c0,.01,0,.02,0,.03s0,.048-.006.072,0,.027,0,.041,0,.012,0,.019,0,.007,0,.01v.01l0,.007a.015.015,0,0,0,.028,0,.294.294,0,0,0,0-.041v0a.016.016,0,0,0,.007-.009.109.109,0,0,0,0-.024v-.016c0-.009,0-.019,0-.028s0-.03.005-.046l.005-.035c0-.014,0-.027.007-.041l0-.014.006-.026a.53.53,0,0,1,.026-.082l.013-.026a.328.328,0,0,1,.018-.028l.014-.019c.029-.037.06-.072.091-.108l.044-.053.032-.041a.363.363,0,0,0,.026-.044l.006-.011h0l.008,0,0,0a.015.015,0,0,0,0-.024.013.013,0,0,0,0-.009.015.015,0,0,0-.012-.007h-.009l-.008,0-.01.007-.005,0h-.015l.009-.007.01-.008,0-.005a.009.009,0,0,0,0-.01h0a.009.009,0,0,0-.008,0,.048.048,0,0,0-.015,0l-.011,0-.019.008a.392.392,0,0,0-.037.018h0l-.039-.007h0l.022-.053h0l-.026.052-.013,0-.034-.008.017-.016.015-.013.029-.023h0l0,0h0l.036-.025a.405.405,0,0,1,.041-.024l.02-.01.008.006.034.027h0l.012.01h0c-.012-.013-.026-.025-.039-.038l-.008-.008.007,0,0,0,0,0,.009-.006,0,0,0-.006a.014.014,0,0,0,0-.005.021.021,0,0,0-.005-.008l-.007,0-.006,0-.011-.006-.02-.012-.009-.005-.01,0-.007,0Zm.008.019.011.007.011.008.013.008.009.006h0l-.019.008-.011-.014,0,0v0a.069.069,0,0,1-.007-.014h0v0Zm.013.023h0Zm-.144.143h0Zm.006,0h0Zm0,0h0Zm0,0h0Zm.139.017-.009.006h-.006l.014-.006Zm-.1.023.018,0h0l-.025.022a.245.245,0,0,1,.009-.027Zm.014.022h0Zm.123,0-.006.01a.41.41,0,0,1-.027.039h0l-.024.03-.02.023-.045.052c-.015.018-.031.035-.045.053l-.022.027-.013.018a.293.293,0,0,0-.022.036.326.326,0,0,0-.017.039l-.008.025q.006-.043.011-.086c0-.011,0-.021,0-.032s0-.022,0-.032v-.006l0-.009.005-.013.006-.014c0-.009.009-.019.014-.028l.011-.019a.318.318,0,0,1,.02-.031l.017-.019,0,0h.007a.076.076,0,0,0,.021-.009l.015-.007.021-.008.023-.007-.02.026-.032.041,0,0-.014.018-.007.008,0,.008s0,0,0,.006a.012.012,0,0,0,0,.009.013.013,0,0,0,.013,0l.006,0,0,0,.007-.006.01-.01.02-.02.02-.023a.142.142,0,0,0,.027-.04.034.034,0,0,0,0-.008v0s0,0,0,0l0,0,.014-.015,0,0,.008,0Zm-.054.031h0Zm-.2.487v0Zm.136-.637h0Z" transform="translate(-272.12 -358.989)" fill="#ffda00"/>
            <path id="Path_22" data-name="Path 22" d="M319.49,362.084l-.091.017h0l-.019,0h-.046s0,0,0,0l.036,0h.018a.21.21,0,0,0,.034,0l.015,0,.013,0,.042-.012a0,0,0,0,0,0,0Z" transform="translate(-312.046 -355.365)" fill="#ffda00"/>
            <path id="Path_23" data-name="Path 23" d="M309.225,360.011l-.007.006a.162.162,0,0,0-.013.022c-.005.011-.01.022-.014.033a.391.391,0,0,0-.014.046c0,.014-.006.028-.01.042s-.009.048-.013.072,0,.02,0,.03l0,.02v-.023c0-.007,0-.015,0-.022s0-.009,0-.013a.08.08,0,0,0,0-.015.028.028,0,0,0,0-.01.011.011,0,0,0-.011-.008.011.011,0,0,0-.008,0,.012.012,0,0,0,0,.008c0,.011,0,.022,0,.034v.023a.012.012,0,0,0-.009,0l0-.01a.013.013,0,0,0-.011-.006.013.013,0,0,0-.011.006.037.037,0,0,0-.006.01l0,.007v.011c0,.015,0,.03,0,.045s0,.029,0,.044,0,.049,0,.074c0,.005,0,.01,0,.015s0,.012,0,.018,0,.014,0,.022,0,.014,0,.02,0,.023,0,.034a.252.252,0,0,0,.006.026.059.059,0,0,0,.006.015.02.02,0,0,0,.01.008.013.013,0,0,0,.01,0l.005,0h0a.636.636,0,0,0,.019.136c0,.008,0,.017.007.025a.024.024,0,0,0,.014.016h.011a.014.014,0,0,0,.008-.006l0,0a.013.013,0,0,0,0-.007.057.057,0,0,0,0-.015v0c0-.013,0-.026,0-.039s0-.008,0-.012,0-.017,0-.026,0-.045,0-.068,0-.037,0-.055l0-.009h0v-.013c0-.006,0-.012,0-.018s0-.021,0-.031,0-.008,0-.012,0-.013,0-.02v-.009a.053.053,0,0,0,0-.014v0c.007-.058.015-.116.022-.173v0l.006-.037c0-.01,0-.02,0-.031l.009-.048c0-.011.005-.022.008-.034a.357.357,0,0,1,.016-.046v0a.182.182,0,0,1,.012-.022l0,0h0l0,0,.008.006.007,0h0l.028.023.029.023.071.056h0l-.058-.053-.053-.048-.011-.009-.006-.005-.007-.005-.007,0h0l-.01,0Zm-.134.506V360.5s0-.01,0-.015c0-.02,0-.041,0-.061s0-.035,0-.053,0-.03,0-.045c0,.007,0,.014,0,.021l0,.043,0,.042c0,.009,0,.018,0,.027v.006c0,.031,0,.061-.007.092v0l0-.012c0-.009,0-.017,0-.026Zm.006.041h0Zm.052.039h0Zm-.008.047v.02c0,.011,0,.023,0,.034,0-.01,0-.021-.005-.032l0-.02,0,0Z" transform="translate(-302.239 -353.383)" fill="#ffda00"/>
            <path id="Path_24" data-name="Path 24" d="M343.1,438.641c-.016.072.031.135.046.2a.411.411,0,0,1,0,.069c-.021.13-.059.259-.09.387l0,.019-.019,0a.9.9,0,0,0-.2-.009,1.4,1.4,0,0,1-.152,0,1.5,1.5,0,0,1-.2-.052l-.033-.02c-.02-.016-.04-.031-.06-.044a.453.453,0,0,0-.36-.054.444.444,0,0,0-.31.546l.045.106a.453.453,0,0,0,.066.087.786.786,0,0,0,.068.082,1.279,1.279,0,0,0,.158.128,1.5,1.5,0,0,0,.33.156,1.125,1.125,0,0,0,.383.067.834.834,0,0,0,.122-.008,1.662,1.662,0,0,0,.167-.024l.021-.005.011,0a.52.52,0,0,0,.373-.241.824.824,0,0,0,.077-.166.567.567,0,0,0,.019-.061c0-.016.007-.032.01-.048a.656.656,0,0,0,.017-.163.336.336,0,0,0-.092-.222.315.315,0,0,0-.114-.072c-.01-.059-.02-.117-.031-.175a1.124,1.124,0,0,0-.081-.28c-.034-.067-.1-.1-.147-.153a.178.178,0,0,1-.02-.033h0l0-.013h0Zm.005.013h0Z" transform="translate(-333.415 -428.48)" fill="#ffda00"/>
            <path id="Path_25" data-name="Path 25" d="M348.346,411.568c-.067,0-.132,0-.2,0,0,0,0,0,0,0a1.84,1.84,0,0,0,.19.068.315.315,0,0,0,.039.017.268.268,0,0,1,.043.025,1.234,1.234,0,0,1,.193.19q.035.049.066.1l.026.057a1.4,1.4,0,0,1,.054.218,1.271,1.271,0,0,0,.075.222c.005.028.011.056.016.084a2.5,2.5,0,0,1,.009.379c0,.077-.012.154-.015.232a.667.667,0,0,0,.025.206.468.468,0,0,0,.441.349.522.522,0,0,0,.454-.321,1.328,1.328,0,0,0,.118-.44.773.773,0,0,0-.037-.334c-.021-.063-.05-.124-.076-.185a.424.424,0,0,0-.281-.235.593.593,0,0,0-.142-.012c-.035-.054-.07-.107-.107-.159a1.252,1.252,0,0,0-.682-.434.26.26,0,0,0-.048-.022s0,0,0,0l.006.01-.031-.008a.386.386,0,0,0-.088-.012.237.237,0,0,0-.048,0Zm.309.347,0,.008,0-.008Z" transform="translate(-339.565 -402.62)" fill="#ffda00"/>
            <path id="Path_26" data-name="Path 26" d="M317.225,454.342a.479.479,0,0,0-.334.334.483.483,0,0,0-.005.232c0,.02.006.04.009.059.015.124.034.248.061.369s.063.256.1.382.085.227.123.341c.02.059.039.117.061.174.014.035.028.073.043.111a.557.557,0,0,0-.193-.193.544.544,0,0,0-.272-.075.521.521,0,0,0-.27.074l-.107.082a.525.525,0,0,0-.135.232.8.8,0,0,0-.024.26,1.4,1.4,0,0,0,.036.266,1.564,1.564,0,0,0,.1.259,1.245,1.245,0,0,0,.144.255,1.62,1.62,0,0,0,.17.205c.042.04.086.077.13.114.1.086.2.17.308.248a1.032,1.032,0,0,0,.219.1.532.532,0,0,0,.115.034,1.047,1.047,0,0,0,.192.022.861.861,0,0,0,.216-.035.932.932,0,0,0,.179-.078.748.748,0,0,0,.089-.04,1.074,1.074,0,0,0,.2-.154c.024-.021.046-.043.071-.063a.79.79,0,0,0,.134-.163.338.338,0,0,0,.026-.045.941.941,0,0,0,.162-.319,2.031,2.031,0,0,0,.05-.412,1.631,1.631,0,0,0-.029-.478.934.934,0,0,0-.06-.147.745.745,0,0,0-.088-.121.342.342,0,0,0-.035-.036c-.006-.021-.013-.043-.021-.064-.046-.132-.1-.26-.16-.388a2.167,2.167,0,0,0-.14-.267c-.053-.083-.1-.171-.142-.258a.81.81,0,0,0-.29-.4l-.031-.016c0-.016,0-.033-.008-.049a.472.472,0,0,0-.343-.357.481.481,0,0,0-.254,0Zm.2,2.236.016.015a.655.655,0,0,0,.158.106c0,.04.008.079.01.119-.032-.031-.063-.063-.094-.1s-.062-.1-.091-.144Zm.174.121h0l.01.082-.011-.082Z" transform="translate(-309.135 -443.459)" fill="#ffda00"/>
            <path id="Path_27" data-name="Path 27" d="M230.339,454.959a.227.227,0,0,0-.105.087,1,1,0,0,0-.06.085.186.186,0,0,0-.07.067h0l0,0a.175.175,0,0,0-.021.057.384.384,0,0,0-.009.038c0,.015-.005.03-.007.045s-.031.081-.014.11a.588.588,0,0,0,0,.068.348.348,0,0,0,.051.174,2,2,0,0,0-.043.211c-.005.038-.01.077-.013.115a.51.51,0,0,0,0,.054.238.238,0,0,0,.029.118.186.186,0,0,0,.079.075.148.148,0,0,0,.076.02h.018a.333.333,0,0,0,.034.094.117.117,0,0,0,.11.062.115.115,0,0,0,.071-.031.153.153,0,0,0,.034-.076.763.763,0,0,0,.008-.194c0-.065-.005-.13-.005-.195h0l-.033.082a.128.128,0,0,0-.064-.09l.025-.079c.014-.043.029-.086.045-.128l.028-.078a.2.2,0,0,0-.011-.176.185.185,0,0,0-.053-.058V455.4c0-.02,0-.04,0-.06s0-.033,0-.05a.2.2,0,0,0,0-.029l.114-.062s0,0,0,0l-.115.057a.184.184,0,0,0-.007-.024l.008-.026c.005-.017.009-.034.013-.051a.266.266,0,0,0,.01-.126.1.1,0,0,0-.09-.079.077.077,0,0,0-.024,0Z" transform="translate(-226.77 -444.061)" fill="#ffda00"/>
            <path id="Path_28" data-name="Path 28" d="M270.372,365.253a.461.461,0,0,0-.075.03.431.431,0,0,0-.049.028.421.421,0,0,0-.1.084.653.653,0,0,0-.058.08.272.272,0,0,0-.017.038.142.142,0,0,0-.006.017.149.149,0,0,0-.049.032.188.188,0,0,0-.027.035.155.155,0,0,0-.018.069.223.223,0,0,0,.008.058l0,.014c0,.036,0,.074,0,.11,0,.014,0,.027,0,.041a.076.076,0,0,0-.042.032l-.008,0a.082.082,0,0,0-.057-.007.074.074,0,0,0-.05.05.439.439,0,0,0,0,.1.038.038,0,0,0-.017-.021l-.012,0,0-.016h0v0h0c-.005-.053-.008-.105-.011-.158h0c0,.059-.008.118-.006.178a.026.026,0,0,0-.014.014.123.123,0,0,0,0,.068.349.349,0,0,0,.011.052.432.432,0,0,0,.019.051c.014.029.039.072.079.06a.067.067,0,0,0,.039-.029l.008-.019a.249.249,0,0,0,.01-.036c0-.01,0-.02.006-.031l.006.008a.064.064,0,0,0,.051.021l.006.017v.014a.325.325,0,0,0,.012.077.1.1,0,0,0,.1.076.1.1,0,0,0,.1-.076.156.156,0,0,0,0-.029h0v-.008c0-.015,0-.03,0-.045s0-.051,0-.077a.1.1,0,0,0,0-.027v-.008c0-.049,0-.1,0-.146s0-.094,0-.14q0-.019,0-.038a.192.192,0,0,0,.077-.083.05.05,0,0,0,.019-.009l.015,0a.1.1,0,0,0,.062-.048.1.1,0,0,0,.013-.055l.025-.025a1.082,1.082,0,0,0,.072-.084c.011-.014.022-.028.032-.042a.141.141,0,0,0,.024-.079.111.111,0,0,0-.114-.11.2.2,0,0,0-.048.007Zm.074.118h0Zm-.652.642h0Z" transform="translate(-264.698 -358.385)" fill="#ffda00"/>
            <path id="Path_29" data-name="Path 29" d="M160.486,345.614a.5.5,0,0,0-.088.145.729.729,0,0,0-.025.171c0,.027,0,.054,0,.08s0,.059.008.089.01.084.014.126l-.04-.047c-.008-.057-.018-.114-.029-.17s-.035-.152-.117-.152a.094.094,0,0,0-.071.033.191.191,0,0,0-.032.061.286.286,0,0,0,0,.152.229.229,0,0,0,.038.078l.017.022c0,.017.006.035.009.052a.245.245,0,0,0,.049.1l.028.034a.175.175,0,0,0,.046.043.065.065,0,0,0,.092-.029.132.132,0,0,0,.062.018.078.078,0,0,0,.074-.088.2.2,0,0,0-.027-.081c-.011-.039-.02-.079-.03-.118s-.022-.087-.029-.132-.007-.07-.008-.106a.893.893,0,0,1,0-.12.028.028,0,0,1,0,0,.37.37,0,0,1,.02-.072c.014-.031.03-.061.046-.091h0Zm-.046.092h0Zm-.241.272h0Zm.129.169.007.009-.006-.008v0Z" transform="translate(-159.962 -339.636)" fill="#ffda00"/>
          </g>
          <g id="Outline">
            <path id="Path_30" data-name="Path 30" d="M302.836,249.9a1.993,1.993,0,0,0-.254.031,1.23,1.23,0,0,0-.366.133,1.931,1.931,0,0,0-.267.161c-.111.083-.224.166-.327.258a4.391,4.391,0,0,0-.455.478,4,4,0,0,0-.443.635,4.124,4.124,0,0,0-.291.691,4.065,4.065,0,0,0-.147.608c-.032.2-.069.395-.1.594-.01.07-.02.139-.03.208v-.007c-.028.2-.054.4-.081.6-.022.151-.044.3-.059.452-.008.082-.014.164-.016.246,0,.028,0,.055,0,.083s0,.036.014.043a.005.005,0,0,0,.005,0c.009-.007.011-.022.015-.033.01-.03.018-.061.026-.091h0c-.01.032-.019.065-.032.1a.148.148,0,0,1-.008.016h0a.144.144,0,0,1,0-.029h0a2.3,2.3,0,0,1,.163-.546c.069-.168.132-.339.2-.507s.155-.366.23-.55c.035-.082.073-.162.11-.244.046-.1.088-.209.13-.314a7.114,7.114,0,0,1,.314-.645,5.978,5.978,0,0,1,.41-.632c.1-.132.212-.26.326-.384l0,0a.75.75,0,0,1,.053-.066c.029-.032.055-.067.087-.1a.83.83,0,0,0,.075-.077c.021-.025.045-.05.068-.073l.05-.045a.5.5,0,0,1,.061-.048c.034-.021.067-.044.1-.064l.027-.016a.417.417,0,0,1,.04-.018h0a.62.62,0,0,1,.06-.034.382.382,0,0,1,.063-.029.319.319,0,0,1,.05-.011.539.539,0,0,1,.076-.007h.017l.035-.007c.035,0,.071,0,.106,0a1.291,1.291,0,0,1,.029.129s0,.009,0,.013a.467.467,0,0,1,.023.047.253.253,0,0,1,.014.068,1.061,1.061,0,0,1,.005.115,1.079,1.079,0,0,1,0,.136c0,.025,0,.05-.01.075s-.007.033-.009.05a1.414,1.414,0,0,1-.021.14c-.011.049-.03.1-.045.143a2.794,2.794,0,0,1-.1.262,1.326,1.326,0,0,0-.084.3c-.005.049-.006.1-.007.146a1.446,1.446,0,0,0,0,.15c0,.016.007.032.011.048l.03.022h0c.015-.018.03-.037.047-.055s.035-.037.052-.057.047-.065.072-.1c.049-.06.1-.116.158-.171s.126-.119.19-.177a2.163,2.163,0,0,1,.21-.181c.035-.024.072-.046.107-.07s.071-.047.106-.072a.742.742,0,0,1,.078-.054l.064-.037a1.5,1.5,0,0,1,.161-.075l-.021.009a.693.693,0,0,1,.211-.063h.014a.407.407,0,0,1,.06.006l.044.008c.033.008.065.019.1.029a.091.091,0,0,1,.063.111.086.086,0,0,1-.014.029.6.6,0,0,1,.07.059c.012.012.024.026.035.04a.594.594,0,0,1,.047.06.4.4,0,0,1,.06.123c.009.043.017.087.022.13a.733.733,0,0,1-.012.253c-.021.088-.06.17-.084.257a.09.09,0,0,1-.173-.048c.016-.058.039-.114.059-.171a.823.823,0,0,0,.033-.13.763.763,0,0,0,0-.158v0a2.092,2.092,0,0,1-.075.222,2.015,2.015,0,0,1-.167.288c-.061.071-.125.14-.189.208a2.614,2.614,0,0,1-.267.247q-.111.087-.219.176c-.117.082-.239.156-.357.237-.135.094-.271.185-.412.272a7.883,7.883,0,0,1-.827.447c-.089.036-.179.07-.267.109s-.157.087-.235.13a2.288,2.288,0,0,0-.442.323,2.74,2.74,0,0,0-.366.408,1,1,0,0,0-.186.572h0a1.414,1.414,0,0,1,.083-.125,1.054,1.054,0,0,1,.152-.146,1.252,1.252,0,0,1,.22-.119c.115-.046.234-.085.353-.12a2.68,2.68,0,0,1,.326-.08l.257-.032c.1-.011.2-.005.3-.015a4.155,4.155,0,0,0,.42-.067c.1-.021.207-.044.309-.074s.2-.066.3-.1a5.664,5.664,0,0,0,.709-.318c.1-.053.205-.1.3-.161a3.233,3.233,0,0,0,.386-.3,2.549,2.549,0,0,0,.224-.21c.036-.038.068-.08.1-.121.065-.085.131-.169.192-.256a2.488,2.488,0,0,0,.155-.246c.047-.087.082-.18.12-.272.021-.051.041-.1.06-.154a1.784,1.784,0,0,0,.085-.436c0-.048.008-.1.01-.146a1.513,1.513,0,0,0-.031-.277,1.7,1.7,0,0,0-.065-.318c-.021-.057-.045-.113-.071-.169a.868.868,0,0,0-.131-.187.506.506,0,0,0-.076-.071.98.98,0,0,0-.175-.119,1.885,1.885,0,0,0-.323-.127,1.067,1.067,0,0,0-.463-.005,1.493,1.493,0,0,0-.244.057c-.065.022-.129.048-.192.074,0-.018,0-.035,0-.053a1.194,1.194,0,0,0-.025-.257,1.208,1.208,0,0,0-.129-.368.771.771,0,0,0-.258-.283.749.749,0,0,0-.073-.039.783.783,0,0,0-.218-.076,1.338,1.338,0,0,0-.2-.018Zm-1.951,2.96-.015.036.015-.036Zm-.028.065h0l-.019.046.019-.045Z" transform="translate(-293.222 -247.933)" fill="#ffa700"/>
            <path id="Path_31" data-name="Path 31" d="M370.49,288.592a.584.584,0,0,0-.083.02c-.027.009-.054.016-.08.026a.806.806,0,0,0-.073.036c-.028.016-.054.034-.082.049a1.308,1.308,0,0,0-.129.074c-.03.025-.057.053-.084.08a.906.906,0,0,0-.078.084c-.053.071-.1.142-.158.212l-.023.03,0,0,0,0-.026.034c-.018.024-.034.049-.05.073s-.039.055-.06.081-.038.051-.058.076a.627.627,0,0,0,.188-.138,1.83,1.83,0,0,0,.128-.149,2.273,2.273,0,0,1,.272-.286c.044-.032.088-.063.134-.092a1.282,1.282,0,0,1,.168-.09,1.5,1.5,0,0,1,.253-.074h0l-.009-.007a.354.354,0,0,0-.053-.033.374.374,0,0,0-.045-.013h-.01l-.04,0Zm-.8.617,0,0,0,0Z" transform="translate(-359.592 -284.881)" fill="#ffa700"/>
            <path id="Path_32" data-name="Path 32" d="M373.859,302.226l0,0,0,0Z" transform="translate(-363.755 -297.901)" fill="#ffa700"/>
            <path id="Path_33" data-name="Path 33" d="M373.039,303.26l0-.006,0,.006Z" transform="translate(-362.972 -298.887)" fill="#ffa700"/>
            <path id="Path_34" data-name="Path 34" d="M300.472,365.094h0Z" transform="translate(-293.668 -357.946)" fill="#ffa700"/>
            <path id="Path_35" data-name="Path 35" d="M300.472,365.1h0Z" transform="translate(-293.668 -357.953)" fill="#ffa700"/>
            <path id="Path_36" data-name="Path 36" d="M279.2,364.37a1.536,1.536,0,0,0-.194.132.922.922,0,0,0-.155.125.728.728,0,0,0-.17.346.9.9,0,0,0,.048.434h0a1.066,1.066,0,0,1-.007-.253h0a.551.551,0,0,1,.031-.113.487.487,0,0,1,.15-.191.545.545,0,0,1,.075-.044,1.152,1.152,0,0,1,.12-.032c.055-.013.109-.032.164-.044a.568.568,0,0,1,.072,0,.606.606,0,0,1,.067.017l.015.009.016.016c.021.033.04.067.059.1s.053.1.077.145a1.333,1.333,0,0,1,.049.19,1.112,1.112,0,0,1,0,.176.807.807,0,0,1-.041.131.755.755,0,0,1-.056.105.574.574,0,0,1-.055.052.829.829,0,0,1-.132.083.654.654,0,0,1-.1.027.7.7,0,0,1-.127,0,.55.55,0,0,1-.1-.024.418.418,0,0,1-.059-.034.232.232,0,0,1-.04-.045l0,0c-.014-.021-.028-.041-.041-.062h0a.341.341,0,0,0,.051.223.491.491,0,0,0,.121.114.578.578,0,0,0,.29.1.82.82,0,0,0,.428-.1.717.717,0,0,0,.142-.113.876.876,0,0,0,.221-.345,1.058,1.058,0,0,0,.036-.146,1.157,1.157,0,0,0,.017-.14.775.775,0,0,0-.013-.156,1.081,1.081,0,0,0-.123-.355.927.927,0,0,0-.267-.3.543.543,0,0,0-.318-.1.552.552,0,0,0-.256.063Z" transform="translate(-272.843 -357.195)" fill="#ffa700"/>
            <path id="Path_37" data-name="Path 37" d="M300.264,389.089a.814.814,0,0,0,.129.185,1.2,1.2,0,0,0,.2.162c.065.044.126.094.194.133a1.205,1.205,0,0,0,.27.106,4.849,4.849,0,0,0,.591.114,2.586,2.586,0,0,1,.532.118,1.849,1.849,0,0,1,.295.175,2.963,2.963,0,0,1,.409.407,2.835,2.835,0,0,1,.255.434,3.947,3.947,0,0,1,.158.508c.033.141.057.283.078.425.01.1.02.191.025.286a1.776,1.776,0,0,1-.005.23l0,.009a.207.207,0,0,1,0,.034.358.358,0,0,1-.012.068c0,.014-.011.027-.017.04s-.009.026-.015.039a.116.116,0,0,1-.033.041.205.205,0,0,0-.026.024.361.361,0,0,1-.035.032l.01-.008a.332.332,0,0,1-.045.033.213.213,0,0,1-.06.023.5.5,0,0,1-.067.008.353.353,0,0,1-.067-.005h-.008a.347.347,0,0,1-.09,0,.582.582,0,0,1-.118-.026c-.041-.014-.083-.025-.125-.037s-.087-.032-.13-.048c-.028-.011-.057-.021-.084-.034l-.056-.029-.016-.008a.774.774,0,0,1-.095-.029c-.035-.013-.068-.029-.1-.044l-.119-.05c-.039-.016-.078-.032-.116-.049l.021.009c-.058-.025-.115-.053-.17-.084-.021-.011-.04-.025-.059-.038s-.046-.031-.068-.048l.018.014-.023-.018-.021-.014q-.017.025-.032.052l.014.028c.018.036.04.07.059.105s.036.064.055.1.032.062.051.092a.734.734,0,0,1,.049.088c.016.035.033.071.051.105.029.056.07.1.1.158s.069.111.1.169.059.118.092.174c.017.029.032.058.05.087s.029.048.043.073a.877.877,0,0,1,.044.089c.013.031.025.064.038.1l.02.049.028.065-.009-.022c.015.035.028.07.041.106s.017.051.027.075l.01.022h0l.008.018.019.037c.01.02.018.04.026.061s.022.055.031.084a1.293,1.293,0,0,1,.049.146c.007.036.016.071.024.107s.015.056.024.083.019.064.028.1.01.036.014.054,0,.024.006.036h0a.788.788,0,0,1,.007.3c-.007.031-.015.062-.023.093l-.012.047a.366.366,0,0,1-.02.051l0,.01h0a.415.415,0,0,0-.018.055.437.437,0,0,1-.022.06.218.218,0,0,1-.045.075.352.352,0,0,1-.038.031c-.012.011-.023.023-.034.034a.245.245,0,0,1-.059.042c-.017.009-.032.021-.048.03a.693.693,0,0,1-.078.036h0a.772.772,0,0,1-.111.049c-.033.009-.066.02-.1.027a.742.742,0,0,1-.116.016.421.421,0,0,1-.074-.007.476.476,0,0,1-.052-.01.463.463,0,0,1-.057-.016.549.549,0,0,1-.07-.033l-.1-.057-.073-.043a.681.681,0,0,1-.064-.045c-.02-.015-.04-.029-.059-.045s-.033-.032-.049-.049a1.421,1.421,0,0,1-.1-.125l.014.018-.017-.021h0a.553.553,0,0,1-.064-.085c-.015-.028-.031-.055-.045-.083s-.032-.064-.047-.1-.035-.075-.052-.113A1.405,1.405,0,0,1,301,394.5c-.01-.047-.011-.1-.017-.144,0-.032-.007-.064-.01-.1-.007-.047-.015-.095-.021-.142s-.011-.072-.014-.109,0-.066-.005-.1a1.455,1.455,0,0,0-.009-.155c-.014-.1-.034-.191-.051-.286-.008-.042-.017-.083-.027-.124s-.019-.09-.027-.135a.1.1,0,0,1,.009-.069.09.09,0,0,1,.054-.041h0c0-.035-.007-.071-.01-.106-.011-.113-.01-.227-.018-.34-.018-.244-.021-.49-.059-.733-.016-.1-.04-.2-.061-.3a2.69,2.69,0,0,0-.069-.282c-.039-.12-.093-.238-.144-.354-.039-.09-.082-.177-.128-.264a1.09,1.09,0,0,0-.234-.325c-.1-.085-.227-.133-.333-.209h0c.042.11.1.216.147.322a.55.55,0,0,1,.024.1c.014.124.013.25.019.375.006.148,0,.3.008.445a4.188,4.188,0,0,1-.029.429c-.008.135-.016.268-.032.4a7.6,7.6,0,0,0-.116,1.2c0,.094.01.188.019.281a3.563,3.563,0,0,0,.06.423,3.42,3.42,0,0,0,.237.625c.052.131.1.263.169.387a2.564,2.564,0,0,0,.277.4c.066.084.135.167.206.247a1.944,1.944,0,0,0,.358.318,2.534,2.534,0,0,0,.277.153c.093.048.192.086.289.125a.683.683,0,0,0,.1.03,1.684,1.684,0,0,0,.264.033,1.1,1.1,0,0,0,.142,0l.081-.007c.072-.008.137-.017.206-.029a1.124,1.124,0,0,0,.243-.09,1.608,1.608,0,0,0,.411-.283,1.726,1.726,0,0,0,.32-.383,1.007,1.007,0,0,0,.073-.135,1.991,1.991,0,0,0,.123-.321,1.451,1.451,0,0,0,.03-.522,3.851,3.851,0,0,0-.086-.507,2.166,2.166,0,0,0-.118-.334l.035-.008a.915.915,0,0,0,.352-.158,2.061,2.061,0,0,0,.238-.2,1.377,1.377,0,0,0,.184-.243,1.077,1.077,0,0,0,.135-.337c.011-.052.02-.1.029-.156a3.622,3.622,0,0,0,.059-.488,2.367,2.367,0,0,0-.042-.466c-.018-.114-.046-.224-.073-.335a4.385,4.385,0,0,0-.187-.652c-.038-.092-.077-.183-.119-.274-.011-.024-.023-.047-.034-.07a1.276,1.276,0,0,0-.153-.214c-.066-.084-.136-.167-.211-.244a2.087,2.087,0,0,0-.619-.439,2.124,2.124,0,0,0-.92-.253,2.973,2.973,0,0,0-.414.049l-.364.053a2.169,2.169,0,0,1-.5.013,1.412,1.412,0,0,1-.308-.095,1.01,1.01,0,0,1-.211-.115h0a.708.708,0,0,1-.12-.12l-.024-.031h0Z" transform="translate(-293.046 -380.862)" fill="#ffa700"/>
            <path id="Path_38" data-name="Path 38" d="M359.281,495.776h0Z" transform="translate(-349.832 -482.752)" fill="#ffa700"/>
            <path id="Path_39" data-name="Path 39" d="M332.647,523.374h0Z" transform="translate(-324.395 -509.11)" fill="#ffa700"/>
            <path id="Path_40" data-name="Path 40" d="M332.675,523.415l0,0,0,0Z" transform="translate(-324.421 -509.147)" fill="#ffa700"/>
            <path id="Path_41" data-name="Path 41" d="M325.362,504.289l0-.013,0,.013Z" transform="translate(-317.437 -490.871)" fill="#ffa700"/>
            <path id="Path_42" data-name="Path 42" d="M332.673,523.409h0Z" transform="translate(-324.421 -509.144)" fill="#ffa700"/>
            <path id="Path_43" data-name="Path 43" d="M340.123,525.37l-.006,0,.006,0Z" transform="translate(-331.53 -511.012)" fill="#ffa700"/>
            <path id="Path_44" data-name="Path 44" d="M355.61,530.767l.018-.007-.018.007Z" transform="translate(-346.327 -516.165)" fill="#ffa700"/>
            <path id="Path_45" data-name="Path 45" d="M310.219,389.793h0Z" transform="translate(-302.975 -381.534)" fill="#ffa700"/>
            <path id="Path_46" data-name="Path 46" d="M188.819,401.39a.974.974,0,0,0-.1.077c-.041.04-.081.082-.121.122a2.733,2.733,0,0,1-.264.224l.01-.008a7.372,7.372,0,0,1-.731.469c-.134.074-.271.141-.408.209s-.246.119-.371.175c-.208.085-.42.161-.63.242-.125.048-.248.1-.37.154a2.672,2.672,0,0,0-.3.176,3.14,3.14,0,0,0-.327.25,2.013,2.013,0,0,0-.231.22c-.092.107-.178.217-.259.332a1.7,1.7,0,0,0-.17.292c-.032.072-.062.144-.089.218a1.387,1.387,0,0,0-.046.175,2.721,2.721,0,0,0-.052.395,2.376,2.376,0,0,0,.006.337,1.585,1.585,0,0,0,.028.207.55.55,0,0,0,.052.155.8.8,0,0,0,.1.138.584.584,0,0,0,.365.164.622.622,0,0,0,.226.007.514.514,0,0,0,.172-.071.639.639,0,0,0,.131-.12,6.175,6.175,0,0,0,.4-.568c.029-.043.058-.085.089-.126a.9.9,0,0,1,.108-.11h0l.022-.016s0,0,0,0a1.475,1.475,0,0,0-.368.332,3.423,3.423,0,0,1-.372.359.823.823,0,0,1-.1.058.355.355,0,0,1-.052.013h-.045a.732.732,0,0,1-.106-.033.978.978,0,0,1-.141-.08l-.014-.014a.715.715,0,0,1-.044-.074c0-.013-.007-.025-.011-.039a1.519,1.519,0,0,1,.014-.294c.018-.12.04-.239.068-.357a2.9,2.9,0,0,1,.1-.341c.025-.051.05-.1.077-.151a1.234,1.234,0,0,1,.1-.148,4.1,4.1,0,0,1,.272-.31,3.446,3.446,0,0,1,.312-.272,5.35,5.35,0,0,1,.548-.375c.2-.115.407-.217.608-.332s.392-.24.58-.375c.1-.073.2-.148.3-.227s.178-.15.265-.228c.066-.058.129-.12.193-.181s.12-.112.176-.172.122-.127.175-.2.1-.133.147-.2h0c.024-.029.05-.057.076-.085,0,0,0,0,0,0Zm-2.893,3.842,0,0,0,0Zm-1.049.532.02.015-.02-.015Zm1.155-.639h0Z" transform="translate(-182.772 -392.611)" fill="#ffa700"/>
            <path id="Path_47" data-name="Path 47" d="M211.14,409.247c-.106.053-.209.111-.312.168a1.178,1.178,0,0,0-.24.18,1.784,1.784,0,0,0-.226.258,2.517,2.517,0,0,0-.176.295,2.4,2.4,0,0,0-.137.318c-.148.412-.247.84-.366,1.261-.06.213-.106.429-.164.642s-.133.438-.19.66c-.027.106-.051.213-.072.321s-.043.21-.071.313-.061.2-.094.3-.065.193-.1.287q-.09.229-.181.457c-.044.1-.088.2-.141.3a2.546,2.546,0,0,1-.183.288,1.915,1.915,0,0,1-.2.2,1.944,1.944,0,0,1-.334.2.843.843,0,0,1-.115.033.553.553,0,0,1-.067,0,1.1,1.1,0,0,1-.182-.046.891.891,0,0,1-.132-.076.921.921,0,0,1-.1-.1.527.527,0,0,1-.038-.065,1.951,1.951,0,0,1-.092-.393,2.424,2.424,0,0,1,0-.492c.046-.284.12-.561.187-.84a3.851,3.851,0,0,0,.073-.4,3.483,3.483,0,0,0,.02-.439h0c-.005.041-.01.082-.015.124v0l-.008.058v0a3.119,3.119,0,0,1-.161.629c-.078.217-.164.431-.238.649a2.517,2.517,0,0,0-.091.317,2.665,2.665,0,0,0-.041.347,1.986,1.986,0,0,0,.009.315c.006.062.016.123.026.184a.725.725,0,0,0,.1.264.948.948,0,0,0,.084.109.809.809,0,0,0,.075.08.859.859,0,0,0,.26.159,1.081,1.081,0,0,0,.265.067.871.871,0,0,0,.449-.093,2.13,2.13,0,0,0,.266-.139,1.275,1.275,0,0,0,.261-.214,2.358,2.358,0,0,0,.211-.271c.057-.081.118-.161.168-.247a4.351,4.351,0,0,0,.246-.581c.036-.081.074-.161.112-.24a3.086,3.086,0,0,0,.134-.333,6.188,6.188,0,0,0,.173-.609c.051-.221.116-.438.178-.656.033-.114.064-.229.091-.345s.039-.211.056-.317c.031-.19.07-.38.1-.57s.06-.406.083-.61c.023-.167.049-.332.083-.5a3.109,3.109,0,0,1,.156-.512,1.809,1.809,0,0,1,.2-.331,1.475,1.475,0,0,1,.228-.218c.049-.04.1-.08.148-.119h0l.034-.026a0,0,0,0,0,0,0Z" transform="translate(-204.346 -400.115)" fill="#ffa700"/>
            <path id="Path_48" data-name="Path 48" d="M194.451,206.107a1.754,1.754,0,0,0-.515.123c-.071.028-.144.059-.213.093-.11.055-.22.111-.328.17a1.647,1.647,0,0,0-.222.155c-.058.045-.119.089-.175.137l-.107.094a1.557,1.557,0,0,0-.215.254c-.079.1-.158.2-.236.3a2.058,2.058,0,0,0-.256.509,1.862,1.862,0,0,0-.1.333,2.294,2.294,0,0,0-.047.418q0,.05,0,.1a1.452,1.452,0,0,0,.022.23,1.414,1.414,0,0,0,.044.187c.036.119.077.236.122.351s.109.254.169.379a3.049,3.049,0,0,0,.164.3c.056.089.114.175.174.262.031.044.064.087.1.131s.06.088.09.132.054.09.081.134.049.091.073.136c.047.087.085.178.125.269.1.237.183.478.273.717h0q-.041-.257-.079-.514a5.189,5.189,0,0,0-.1-.516c-.018-.069-.036-.139-.061-.206l-.049-.133c-.019-.053-.046-.1-.068-.155-.033-.073-.071-.143-.106-.215s-.065-.14-.1-.211c-.073-.193-.137-.387-.193-.585a4.374,4.374,0,0,1-.111-.53,2.064,2.064,0,0,1,.012-.375c.007-.044.014-.088.024-.131.015-.067.033-.133.051-.2s.044-.13.068-.193c.014-.036.028-.072.043-.108a1.843,1.843,0,0,1,.125-.223c.015-.023.032-.044.048-.066.065-.081.13-.162.193-.244a1.689,1.689,0,0,1,.248-.235c.071-.058.141-.117.211-.176a2.346,2.346,0,0,1,.335-.176l.106-.04a1.584,1.584,0,0,1,.294-.076,1.425,1.425,0,0,1,.271,0,2.169,2.169,0,0,1,.238.055,1.534,1.534,0,0,1,.147.052,1.091,1.091,0,0,1,.124.068,1.319,1.319,0,0,1,.156.157,1.807,1.807,0,0,1,.152.264c.015.033.029.066.043.1l-.021-.05c.035.1.071.191.1.289a3.626,3.626,0,0,1,.08.368,2.967,2.967,0,0,1,.006.506c-.009.15-.025.3-.043.448q-.017.127-.034.254a4.641,4.641,0,0,1-.138.681c-.036.116-.074.231-.11.348-.018.058-.038.116-.053.175s-.035.123-.047.185a2.719,2.719,0,0,0-.057.4c0,.058-.006.115,0,.173s0,.137.008.206a6.98,6.98,0,0,0,.059.73,1.27,1.27,0,0,0,.141.417,1.02,1.02,0,0,0,.211.253c.048.043.094.088.141.133a1.6,1.6,0,0,0,.152.136,2.566,2.566,0,0,0,.3.182c.041.022.081.048.125.067a1.176,1.176,0,0,0,.155.051s0,0,0,0a.934.934,0,0,1-.183-.1,2.13,2.13,0,0,1-.357-.327c-.044-.062-.087-.125-.129-.188a2.066,2.066,0,0,1-.169-.284,1.136,1.136,0,0,1-.054-.216,3.771,3.771,0,0,1,.015-.663c.006-.094.012-.189.018-.283s.014-.169.024-.254a2.9,2.9,0,0,1,.071-.324c.036-.119.072-.239.112-.357s.078-.237.115-.357a3.472,3.472,0,0,0,.078-.353c.045-.232.081-.466.12-.7.023-.14.041-.28.055-.421.011-.117.013-.235.015-.352a2.01,2.01,0,0,0-.044-.408c-.011-.059-.021-.118-.036-.176-.032-.125-.069-.247-.108-.37-.019-.058-.04-.115-.062-.171a2.163,2.163,0,0,0-.117-.252,1.514,1.514,0,0,0-.183-.252.974.974,0,0,0-.338-.262c-.08-.035-.161-.069-.243-.1a1.306,1.306,0,0,0-.161-.046,1.66,1.66,0,0,0-.374-.048l-.081,0Zm1.132,3.152,0,.022,0-.022Z" transform="translate(-190.109 -206.104)" fill="#ffa700"/>
            <path id="Path_49" data-name="Path 49" d="M150.6,299.713a1.377,1.377,0,0,0-.461.082,1.7,1.7,0,0,0-.5.336,1.519,1.519,0,0,0-.154.158,1.261,1.261,0,0,0-.219.4,2.033,2.033,0,0,0-.08.33,3.607,3.607,0,0,0-.044.4c-.012.2-.013.4-.017.6a1.631,1.631,0,0,0,.028.279c.007.047.017.094.029.14.025.1.057.2.086.293a1.781,1.781,0,0,0,.147.353,1.086,1.086,0,0,0,.231.264,1.643,1.643,0,0,0,.156.12c.051.034.1.067.156.1a1.128,1.128,0,0,0,.349.111c.115.019.231.032.346.045s.237.038.356.053a2.036,2.036,0,0,0,.3.024,1.993,1.993,0,0,0,.535-.078c.11-.034.22-.069.33-.106s.213-.071.321-.1.2-.055.3-.082c.2-.054.4-.112.6-.147a1.556,1.556,0,0,1,.232-.012c.061,0,.121.008.181.015l.013,0a1.65,1.65,0,0,1,.31.076,1.115,1.115,0,0,1,.2.121,1.55,1.55,0,0,1,.228.23l-.005-.007c.038.05.074.1.107.155h0a1.261,1.261,0,0,0-.082-.282,1.2,1.2,0,0,0-.174-.277,1.121,1.121,0,0,0-.118-.118.951.951,0,0,0-.2-.126,1.663,1.663,0,0,0-.342-.126,1.59,1.59,0,0,0-.242-.035,1.667,1.667,0,0,0-.231,0,3.228,3.228,0,0,0-.365.044c-.234.039-.47.078-.7.132-.2.048-.4.1-.608.134a2.382,2.382,0,0,1-.5-.01l.046.006-.066-.009c-.108-.016-.216-.033-.324-.047-.085-.011-.171-.02-.257-.03a1.446,1.446,0,0,1-.272-.063,1.607,1.607,0,0,1-.249-.151,1.022,1.022,0,0,1-.105-.1,1.2,1.2,0,0,1-.085-.16,3.118,3.118,0,0,1-.191-.595c-.009-.091-.01-.183-.01-.274s0-.212,0-.318,0-.208,0-.312c0-.084.011-.168.021-.251a1.748,1.748,0,0,1,.077-.305,1.119,1.119,0,0,1,.1-.176,2.142,2.142,0,0,1,.317-.319,1.3,1.3,0,0,1,.219-.131,1.707,1.707,0,0,1,.346-.094,1.475,1.475,0,0,1,.3-.011.625.625,0,0,1,.111.029,1.552,1.552,0,0,1,.254.162.819.819,0,0,1,.126.114.212.212,0,0,1,.028.051v0l.009.033c0,.067-.01.134,0,.2a.949.949,0,0,0,.028.148h0c0-.025-.008-.05-.012-.075h0a.781.781,0,0,1,0-.15l.009-.064a.247.247,0,0,0-.015-.138.518.518,0,0,0-.136-.16c-.037-.036-.077-.068-.116-.1a.79.79,0,0,0-.18-.124.838.838,0,0,0-.314-.057l-.116,0Zm.923.649h0Zm2.306,2.918.038,0-.038,0Zm-3.248.424.037,0-.037,0Zm.941-3.193h0Z" transform="translate(-149.116 -295.504)" fill="#ffa700"/>
          </g>
          <g id="Highlights" transform="translate(1.951 0.753)">
            <path id="Path_50" data-name="Path 50" d="M239.016,222.859a.985.985,0,0,0,.191.036.141.141,0,0,1,.028.007c.029.013.059.023.089.035l-.008,0a.7.7,0,0,0,.132.053,1.119,1.119,0,0,1,.144.036.46.46,0,0,1,.075.043.635.635,0,0,1,.081.09,1.036,1.036,0,0,1,.112.165,1.466,1.466,0,0,1,.066.273,1.762,1.762,0,0,1,.01.237c0,.091-.015.183-.026.275-.008.051-.017.1-.024.154-.01.074-.018.149-.027.224-.006.04-.013.08-.02.12-.011.064-.018.128-.026.192a2.165,2.165,0,0,1-.094.374c-.026.075-.048.151-.071.227s-.04.156-.062.233c-.043.151-.1.3-.153.445-.022.07-.041.139-.057.211s-.033.129-.042.195c-.007.047-.014.094-.022.14-.011.061-.019.123-.026.185a2.254,2.254,0,0,0-.035.269,1.507,1.507,0,0,0,.005.212,2.244,2.244,0,0,0,.052.317c.018.069.033.139.053.207s.032.132.054.2.041.141.062.211a1.166,1.166,0,0,0,.109.242,1.254,1.254,0,0,0,.126.165,1.145,1.145,0,0,0,.125.155c.037.036.077.069.111.108a.945.945,0,0,0,.169.146c.03.021.061.041.093.059a.515.515,0,0,0,.22.056.443.443,0,0,1,.066.018c.061.028.121.058.181.087a1.286,1.286,0,0,0,.2.074s0,0,0,0l-.034-.025h0a1.326,1.326,0,0,1-.169-.162c-.038-.042-.073-.086-.114-.125a1.051,1.051,0,0,0-.136-.093l-.031-.032a1.161,1.161,0,0,1-.133-.224c-.028-.065-.067-.123-.1-.185s-.043-.109-.067-.163a1.321,1.321,0,0,1-.056-.224c-.006-.056-.012-.113-.024-.168-.008-.039-.017-.077-.023-.116s-.008-.065-.012-.1c-.008-.073-.016-.145-.025-.217,0,.029.008.058.012.087-.011-.091-.014-.182-.017-.274a1.634,1.634,0,0,1,.006-.205c0-.021.008-.042.013-.062.012-.061.021-.123.03-.186s.021-.13.03-.2l-.009.067q.006-.041.012-.083l0,.013a1.881,1.881,0,0,1,.051-.193c.019-.071.04-.142.062-.213.047-.15.1-.3.144-.448.021-.077.036-.156.056-.233s.038-.153.058-.229a3.324,3.324,0,0,0,.094-.5c0-.044.005-.088.008-.131s.008-.1.009-.156c0-.1-.008-.207-.013-.31a2.31,2.31,0,0,0-.049-.368,1.462,1.462,0,0,0-.086-.263,1.812,1.812,0,0,0-.258-.458.78.78,0,0,0-.159-.13,1.026,1.026,0,0,0-.132-.085.55.55,0,0,0-.314-.052.55.55,0,0,1-.1,0c-.042-.007-.083-.016-.125-.022h.007a.305.305,0,0,0-.088-.008.852.852,0,0,1-.181,0,0,0,0,0,0,0,0Zm.187.036h0Zm.784,4.872,0,.031v0l0-.034Zm.858,1.536h0Z" transform="translate(-236.925 -222.858)" fill="#fff100" opacity="0.91"/>
            <path id="Path_51" data-name="Path 51" d="M316.966,284.784a.619.619,0,0,0-.161.022.889.889,0,0,0-.254.13l-.039.026c-.038.025-.076.05-.112.076s-.074.057-.11.087l-.068.055.009-.006-.009.006.009-.006a2.556,2.556,0,0,0-.274.268c-.032.035-.061.07-.087.1a1.243,1.243,0,0,1-.159.171.4.4,0,0,1-.061.036.257.257,0,0,1-.04.011.769.769,0,0,1-.084,0,.487.487,0,0,1-.056,0l-.029-.008-.013-.008a.243.243,0,0,1-.031-.031.218.218,0,0,1-.019-.033.091.091,0,0,1-.005-.019.291.291,0,0,1,0-.058c0-.031.011-.062.018-.092l-.009.016,0,0a.576.576,0,0,0-.035.093.17.17,0,0,0,.007.111.232.232,0,0,0,.041.066.225.225,0,0,0,.11.058.524.524,0,0,0,.148.029h.023a.508.508,0,0,0,.184-.057,1.549,1.549,0,0,0,.194-.124l.082-.058.05-.034.01-.007.095-.065.034-.023c.03-.02.063-.043.1-.062l.065-.036c.056-.031.114-.064.174-.091l.116-.05a.723.723,0,0,1,.121-.038h.051l.007.006.012.021a.631.631,0,0,1,.023.082.935.935,0,0,1,0,.122.8.8,0,0,1-.023.086.86.86,0,0,1-.064.113c-.047.057-.1.112-.143.163a2.059,2.059,0,0,1-.2.2c-.044.032-.091.065-.143.1l-.06.038-.012.007c-.036.022-.072.045-.107.07l-.048.035,0,0c-.028.021-.058.043-.088.062s-.059.033-.087.048l-.008,0-.057.031c-.046.026-.095.049-.142.071s-.1.045-.145.073l-.017.01c-.045.026-.086.049-.128.069l-.092.041c-.089.034-.185.071-.281.113-.047.02-.093.044-.138.067l-.01.005-.061.031a3.082,3.082,0,0,0-.369.221,1.213,1.213,0,0,1-.118.068l-.058.031a1.659,1.659,0,0,0-.175.11l-.056.04-.008.006c-.041.029-.083.059-.122.091l-.066.055-.071.059,0,0,0,0-.029.022a2.073,2.073,0,0,0-.157.138,1.3,1.3,0,0,0-.18.209c-.018.027-.034.056-.047.082l-.024.044a.887.887,0,0,0-.08.183.854.854,0,0,0-.005.383c.011.073.024.152.039.231l0-.007a2.084,2.084,0,0,1,.1-.434.579.579,0,0,1,.049-.082.87.87,0,0,1,.108-.108l.039-.034.056-.048a1.216,1.216,0,0,1,.114-.068l.04-.023c.057-.032.116-.061.181-.093l.009,0,.044-.021.019-.009.007,0c.033-.016.065-.031.1-.048.051-.027.1-.052.162-.077l-.006,0,.006,0h0l.01,0,.045-.02.017-.008c.063-.025.128-.048.19-.07l.013,0a1.979,1.979,0,0,0,.185-.08l.094-.044.08-.034.154-.067.01,0,.1-.046.02-.009.115-.051h0l.049-.02c.068-.029.143-.063.235-.107s.17-.089.26-.143c.036-.021.074-.04.11-.058l0,0c.041-.02.084-.041.123-.066l.07-.042.012-.007.044-.026a1.387,1.387,0,0,0,.14-.1c.049-.036.1-.07.15-.1l.037-.024a2.853,2.853,0,0,0,.288-.217,1.73,1.73,0,0,0,.2-.209,2.884,2.884,0,0,0,.186-.249.989.989,0,0,0,.131-.73.725.725,0,0,0-.114-.258.539.539,0,0,0-.294-.223.49.49,0,0,0-.138-.019Z" transform="translate(-307.919 -282)" fill="#fff100" opacity="0.91"/>
            <path id="Path_52" data-name="Path 52" d="M309.3,356.156a1.877,1.877,0,0,0-.109.2l-.028.052a.506.506,0,0,0-.033.081,1.139,1.139,0,0,0-.046.129c-.011.039-.02.079-.028.119l-.011.061a.3.3,0,0,0-.008.09.137.137,0,0,0,.017.06.114.114,0,0,0,.066.051.116.116,0,0,0,.121-.045.158.158,0,0,0,.034-.014.136.136,0,0,0,.037-.031.157.157,0,0,0,.052-.073c.008-.018.015-.037.023-.056l.006-.017a.912.912,0,0,0,.04-.094.146.146,0,0,0-.067-.165l0,0q.02-.045.041-.089c.014-.021.028-.043.042-.065a.579.579,0,0,0,.056-.107.11.11,0,0,0-.051-.125.107.107,0,0,0-.054-.015.118.118,0,0,0-.1.055Zm.088.058Z" transform="translate(-303.802 -350.111)" fill="#fff100" opacity="0.91"/>
            <path id="Path_53" data-name="Path 53" d="M198.142,399.007a.9.9,0,0,1-.006.132h0a.512.512,0,0,1-.037.124,1,1,0,0,1-.1.186,1.255,1.255,0,0,1-.19.2c-.038.028-.077.054-.113.083l.016-.013-.022.017c-.042.031-.089.053-.133.081s-.085.059-.127.089-.088.064-.135.092a1.376,1.376,0,0,1-.14.08l.034-.014a1.434,1.434,0,0,0-.245.137,1.5,1.5,0,0,1-.22.119l.042-.018a2.265,2.265,0,0,0-.248.127c-.041.023-.079.048-.118.074l-.134.088c-.163.111-.327.221-.482.343l-.118.085c-.047.035-.093.071-.141.1s-.108.076-.162.115-.083.064-.124.1c-.085.063-.177.114-.26.178a.944.944,0,0,0-.134.125l-.107.124a1.206,1.206,0,0,0-.122.166c-.029.048-.057.1-.085.145s-.067.111-.1.167a1.675,1.675,0,0,0-.08.169c-.037.084-.073.169-.1.256-.009.026-.017.053-.025.08a.923.923,0,0,0-.03.156.482.482,0,0,0,0,.128.322.322,0,0,0,.042.126.378.378,0,0,0,.154.14.532.532,0,0,0,.176.047.377.377,0,0,0,.233-.064c.024-.014.048-.027.071-.043s.049-.037.072-.056a.95.95,0,0,0,.116-.112,2.467,2.467,0,0,0,.173-.226c.056-.082.1-.172.163-.251l0,0a.339.339,0,0,1,.028-.031c.01-.01.018-.021.028-.03a.189.189,0,0,1,.033-.018l.013,0h0l.024,0s0,0,0,0a.082.082,0,0,0-.06,0,.109.109,0,0,0-.029.013c-.016.01-.032.022-.047.034a1.307,1.307,0,0,0-.142.14,2.912,2.912,0,0,1-.278.265,1.016,1.016,0,0,1-.188.113.72.72,0,0,1-.121.038h-.024l-.023-.007a.388.388,0,0,1-.048-.026.323.323,0,0,1-.028-.027l-.015-.025,0-.005c0-.012,0-.023,0-.035a.729.729,0,0,1,.034-.114c.028-.062.059-.122.09-.182s.077-.146.12-.216.1-.145.146-.219c.035-.055.07-.112.109-.165s.083-.1.124-.145a.9.9,0,0,1,.108-.113c.053-.039.11-.074.162-.114s.079-.06.115-.093l.061-.053c.08-.059.161-.117.239-.179l.025-.02.058-.045-.04.031.059-.046.1-.07.07-.056c.072-.053.146-.1.219-.156.1-.067.191-.136.285-.205.041-.03.083-.06.126-.087s.08-.053.12-.078c.067-.042.132-.085.194-.133l.049-.038-.033.025c.062-.048.121-.1.182-.147l.017-.013.017-.013.06-.044-.006,0,.007-.005.021-.016-.016.012a2.29,2.29,0,0,0,.231-.2c.032-.032.063-.065.1-.1s.073-.065.107-.1.067-.076.1-.113a.9.9,0,0,0,.1-.133c.031-.049.061-.1.087-.151a1.083,1.083,0,0,0,.073-.2.787.787,0,0,0,.026-.13.639.639,0,0,0-.01-.159h0Zm-.849,1.311-.009.007.009-.007Zm-1.518.621h0l-.025.019.026-.021Zm.055.444-.013.01.013-.01Zm-.214.16-.012.009.012-.009Zm-.032.025h0Zm-.134.962h0Zm.568-1.288-.023.018.04-.031-.016.013Z" transform="translate(-194.114 -391.087)" fill="#fff100" opacity="0.91"/>
            <path id="Path_54" data-name="Path 54" d="M192.618,483.553a.14.14,0,0,0-.026.059l-.006.026c-.007.021-.013.042-.019.064a.506.506,0,0,0-.013.059l-.008.02a.537.537,0,0,0-.024.19.472.472,0,0,0,.048.2.225.225,0,0,0,.015.027.1.1,0,0,0,.048.038l.011,0a.256.256,0,0,0,.026.03.2.2,0,0,0,.179.113.241.241,0,0,0,.079-.026.386.386,0,0,0,.091-.018.308.308,0,0,0,.119-.07.417.417,0,0,0,.076-.107l.007-.014c.023-.026.045-.053.066-.08l.035-.046c.012-.016.03-.036.029-.058a.034.034,0,0,0-.033-.033.079.079,0,0,0-.046.025l-.026.022a.09.09,0,0,0-.021-.034.1.1,0,0,0-.068-.027.115.115,0,0,0-.074.032l-.024.021-.037.034a.139.139,0,0,0-.035-.075.11.11,0,0,0-.044-.025.1.1,0,0,0-.075.01.265.265,0,0,0-.047.041l-.026.026-.006,0,0-.008a.5.5,0,0,1-.024-.088.418.418,0,0,1,0-.077.478.478,0,0,0,.007-.048.1.1,0,0,0-.046-.092.089.089,0,0,0-.051-.012l0-.01c0-.011,0-.021.006-.032s.01-.037,0-.052a.045.045,0,0,0-.035-.019.032.032,0,0,0-.025.011Zm.185.422-.006,0,.006,0Zm.488.041h0Zm-.431,0h0Zm0,0v0h0v0Zm0,0h0Zm.008,0h0Zm0,0h0Zm0,0h0Z" transform="translate(-192.522 -471.823)" fill="#fff100" opacity="0.91"/>
            <path id="Path_55" data-name="Path 55" d="M297.806,405.572c.023.027.046.054.067.082.035.048.059.1.092.151a.564.564,0,0,0,.12.126l0,0c.043.034.089.062.132.095a.6.6,0,0,1,.088.089c.019.025.037.05.055.076a.992.992,0,0,1,.061.111c.037.073.072.147.1.222a1.848,1.848,0,0,1,.066.225c.019.079.04.16.053.241v0l0,.034c0,.036.009.072.014.108l-.006-.047c.01.082.008.165.011.247s.015.15.026.225c.005.041.011.082.017.124s.007.058.011.087l0-.027c.009.073.011.147.018.221s.015.142.021.213.009.143.018.214.022.167.034.25.014.141.02.212c.008.088.02.176.033.263.013.107.027.213.043.319l-.009-.064.021.152c.008.064.016.129.028.193s.026.118.041.177.026.111.042.166.042.139.064.208a2.244,2.244,0,0,0,.09.234c.025.057.056.111.086.165.014.025.027.051.04.076a.715.715,0,0,0,.076.114.671.671,0,0,0,.136.122.809.809,0,0,0,.162.114l.079.035a.676.676,0,0,0,.12.046.481.481,0,0,0,.106.01c0-.016,0-.032,0-.048s0-.035,0-.052,0-.037,0-.055a.306.306,0,0,1,.009-.072.1.1,0,0,1,.028-.043l.007-.052-.026-.007a.759.759,0,0,1-.067-.044l-.062-.043c-.023-.021-.043-.045-.064-.068l-.054-.061a.615.615,0,0,1-.043-.077c-.021-.053-.042-.106-.065-.158l0-.008c-.062-.158-.107-.323-.156-.485-.021-.069-.036-.139-.054-.208s-.029-.131-.039-.2l-.017-.121c-.007-.049-.014-.1-.021-.147-.013-.108-.025-.216-.038-.324-.008-.066-.015-.133-.021-.2s-.013-.123-.021-.185c-.021-.166-.033-.334-.055-.5l0,.029c-.008-.06-.016-.121-.024-.181s-.012-.1-.02-.144-.019-.086-.028-.128c-.014-.066-.032-.131-.05-.2s-.035-.129-.052-.194c-.01-.041-.02-.082-.032-.123s-.027-.083-.042-.125c-.029-.083-.066-.162-.1-.241s-.061-.139-.1-.206a1.469,1.469,0,0,0-.136-.2c-.051-.067-.1-.135-.157-.2a.927.927,0,0,0-.153-.129.908.908,0,0,0-.171-.085l.009,0a.665.665,0,0,1-.121-.065.694.694,0,0,1-.1-.1c-.017-.022-.033-.045-.051-.066s-.061-.062-.092-.092h0Zm.72.954.009.02-.009-.02Z" transform="translate(-293.073 -397.357)" fill="#fff100" opacity="0.91"/>
            <path id="Path_56" data-name="Path 56" d="M349.129,492.8h0Z" transform="translate(-342.088 -480.666)" fill="#fff100" opacity="0.91"/>
            <path id="Path_57" data-name="Path 57" d="M347.25,498.26s0,0,0,0l.052.013c0-.005,0-.01,0-.016h-.051Z" transform="translate(-340.293 -485.878)" fill="#fff100" opacity="0.91"/>
            <path id="Path_58" data-name="Path 58" d="M347.034,495.287l.031.021,0-.013-.028-.01h0s0,0,0,0Z" transform="translate(-340.087 -483.039)" fill="#fff100" opacity="0.91"/>
            <path id="Path_59" data-name="Path 59" d="M346.98,495.932s0,0,0,0l.036,0,0-.009-.034,0Z" transform="translate(-340.036 -483.651)" fill="#fff100" opacity="0.91"/>
            <path id="Path_60" data-name="Path 60" d="M347.135,492.329s0,0,0,0c.026.008.051.016.076.026a.105.105,0,0,1,.024-.007.74.74,0,0,0-.1-.02Z" transform="translate(-340.183 -480.214)" fill="#fff100" opacity="0.91"/>
            <path id="Path_61" data-name="Path 61" d="M355.927,499.19l0,0-.01-.017.005.021Z" transform="translate(-348.576 -486.747)" fill="#fff100" opacity="0.91"/>
            <path id="Path_62" data-name="Path 62" d="M347.351,495.33l.015.014,0-.011-.013,0h0s0,0,0,0Z" transform="translate(-340.39 -483.08)" fill="#fff100" opacity="0.91"/>
            <path id="Path_63" data-name="Path 63" d="M347.457,492.49l.03.042a.078.078,0,0,1,.025-.02l.005,0-.06-.021Z" transform="translate(-340.491 -480.367)" fill="#fff100" opacity="0.91"/>
            <path id="Path_64" data-name="Path 64" d="M346.714,493.231s0,0,0,0l.049.03a.1.1,0,0,1,.015-.023c-.021,0-.043-.006-.064-.008Z" transform="translate(-339.782 -481.076)" fill="#fff100" opacity="0.91"/>
            <path id="Path_65" data-name="Path 65" d="M346.173,494.533l.017.007h0a.505.505,0,0,1,.049.024v-.008a.1.1,0,0,1,0-.02.546.546,0,0,0-.065,0,0,0,0,0,0,0,0Z" transform="translate(-339.265 -482.319)" fill="#fff100" opacity="0.91"/>
            <path id="Path_66" data-name="Path 66" d="M279.488,373.566l-.023,0-.031.006-.037.011-.029.011-.02.009-.018.009a.27.27,0,0,0-.029.018.319.319,0,0,0-.047.039.293.293,0,0,0-.039.05.335.335,0,0,0-.026.056.443.443,0,0,0-.014.044l0,.011,0,.012c0,.01,0,.02,0,.03a.39.39,0,0,0,0,.054c0,.009,0,.019,0,.028s0,.015,0,.023l0,.015c0,.011,0,.022,0,.033s0,.023,0,.034,0,.022,0,.033a.339.339,0,0,0,.005.042.262.262,0,0,0,.008.033c0,.011.007.022.011.033s.013.036.02.053,0,.022.006.033a.291.291,0,0,0,.008.032c0,.011.008.022.013.034a.472.472,0,0,0,.031.063.377.377,0,0,0,.07.089.358.358,0,0,0,.033.041.215.215,0,0,0,.028.025l.016.012.016.011.014.008a.278.278,0,0,0,.035.017.433.433,0,0,0,.1.031l.043,0a.341.341,0,0,0,.095.014.175.175,0,0,0,.042-.007.224.224,0,0,0,.035-.014.308.308,0,0,0,.042-.025l.029-.022a.258.258,0,0,0,.024-.025l.014-.017.009-.013c.006-.01.012-.021.018-.031s.013-.029.019-.044l0-.008c.01-.017.019-.034.028-.052s.009-.02.013-.031l0-.009.008-.012a.586.586,0,0,0,.03-.05.211.211,0,0,0,.032-.088.025.025,0,0,0,0-.011.032.032,0,0,0-.013-.017.035.035,0,0,0-.035,0l-.01.008-.01.01-.009.01-.023.027a.037.037,0,0,0-.015-.007.033.033,0,0,0-.02,0l-.007,0-.011.008a.214.214,0,0,0-.018.021c-.006.008-.011.017-.017.026l-.018.031-.016.027-.019.031,0,0h0a.365.365,0,0,1-.044.027l-.009,0a.184.184,0,0,1-.034,0h.008l-.017,0-.024-.005-.039-.012-.018-.008-.022-.012a.405.405,0,0,1-.037-.024c-.02-.016-.04-.032-.059-.05s-.039-.037-.058-.056l-.052-.052c-.018-.019-.036-.038-.053-.058l-.015-.023a.174.174,0,0,1-.011-.023l-.008-.022c0-.009-.005-.017-.007-.026s0-.015,0-.022l0-.011,0-.009.007,0a.039.039,0,0,0,.009-.009.061.061,0,0,0,.011-.022.253.253,0,0,0,.007-.027.648.648,0,0,1,.026-.09c.006-.015.013-.03.021-.044a.429.429,0,0,1,.028-.044.319.319,0,0,1,.027-.029l.019-.016.01-.007.026-.006.016,0a.052.052,0,0,0,.026-.012h.1l.014,0,.01,0a.028.028,0,0,0,.01-.01.029.029,0,0,0,0-.021c0-.012-.012-.019-.022-.025l-.016-.009.007,0,.007,0,.007-.006a.021.021,0,0,0,0-.026c-.008-.015-.027-.014-.042-.014l-.035,0-.034.006h0a.122.122,0,0,0-.046-.008h0l-.022,0Zm.151.11,0,0,0,0Zm-.167.046h0Zm-.213.03v0h0v0Zm.084.471a.037.037,0,0,0,0-.016l.012.013.048.049.048.048c.016.017.033.033.051.049l.021.018a.4.4,0,0,1-.044-.016l-.034-.019c-.012-.007-.022-.016-.033-.024h0l-.028-.026h0a.323.323,0,0,0,.046.057.258.258,0,0,0,.053.042.489.489,0,0,0,.063.03l.056.02-.022,0-.033-.009-.025-.009-.015-.007-.024-.013-.024-.015-.014-.01-.037-.029c-.014-.019-.028-.038-.041-.058l-.015-.024-.01-.039a.029.029,0,0,0,0-.008Zm.071.141v0Zm.4.029,0,0,0,0Zm-.072.033h0Zm-.006.12a.374.374,0,0,0,.074-.022.318.318,0,0,1-.033.022l-.024.014-.021.01-.015.006a.252.252,0,0,1-.055.014h0a.031.031,0,0,0,0-.021l.022-.007.033-.013.018,0Zm-.328-.22h0Z" transform="translate(-275.262 -366.789)" fill="#fff100" opacity="0.91"/>
            <path id="Path_67" data-name="Path 67" d="M342,524.5l-.039.031a.308.308,0,0,0-.031.026.986.986,0,0,1-.111.069.784.784,0,0,1-.1.027c-.028,0-.055,0-.083.005a.672.672,0,0,1-.093-.008c-.03,0-.059-.006-.089-.008H341.4a.194.194,0,0,0-.066,0,.069.069,0,0,0-.049.065.068.068,0,0,0,.049.065.246.246,0,0,0,.042.007l.031,0,.058.006c.041,0,.083,0,.124.005a1.112,1.112,0,0,0,.243-.022.433.433,0,0,0,.094-.03.244.244,0,0,0,.076-.056.7.7,0,0,0,.068-.085.26.26,0,0,0,.032-.062c.011-.032,0-.079-.041-.079-.025,0-.044.021-.061.036Zm.028,0v0Zm-.069.03,0,0,0,0Zm.013.044h0Z" transform="translate(-334.601 -510.906)" fill="#ffda00"/>
            <path id="Path_68" data-name="Path 68" d="M346.817,522.991a.878.878,0,0,0,.13.078.511.511,0,0,0,.13.034.469.469,0,0,0,.156,0,.421.421,0,0,0,.064-.016l.037-.014-.01.012h0l.022-.012c.005,0,.012,0,.015-.01a.008.008,0,0,0,0-.009.022.022,0,0,0-.016,0l-.032,0a.589.589,0,0,0-.066.007.874.874,0,0,1-.141-.007h.007L347,523.04h0a1.658,1.658,0,0,1-.182-.05h0s0,0,0,0Zm.176.048h0Z" transform="translate(-339.88 -509.497)" fill="#ffda00"/>
            <path id="Path_69" data-name="Path 69" d="M335.671,522.037l-.019.011-.015.009-.034.018-.07.034-.071.037-.02.011a.033.033,0,0,0,0-.023.03.03,0,0,0-.034-.011l-.023.007-.021.007-.019.006-.012,0-.013,0a.411.411,0,0,1-.042.007h0l-.024,0h-.032l-.053,0-.044-.007-.045-.011-.039-.012-.046-.018h0l-.053-.023s0,0,0,0a.928.928,0,0,0,.119.06l.027.01.027.008.013,0,.014,0,.03.006h-.08l-.047-.016-.066-.022-.064-.022-.063-.022a.234.234,0,0,0-.054-.013h-.006a.023.023,0,0,0-.011,0,.037.037,0,0,0-.012.011.033.033,0,0,0,0,.015.032.032,0,0,0,0,.008h0a.028.028,0,0,0-.006.01.021.021,0,0,0,0,.01v.006a.022.022,0,0,0,0,.011l0,.007.006.008a.2.2,0,0,0,.017.018l.024.023c.016.014.031.028.048.041h-.021a.15.15,0,0,0-.027,0,.018.018,0,0,0-.012,0h-.011a.056.056,0,0,0-.024,0l-.031-.015-.043-.022-.049-.025-.048-.024c-.033-.017-.068-.032-.1-.051-.015-.009-.03-.019-.045-.029l-.022-.015-.012-.007a.022.022,0,0,0-.011,0,.02.02,0,0,0-.011,0,.022.022,0,0,0-.01.013.024.024,0,0,0,0,.017.052.052,0,0,0,.011.015l.01.01.019.018c.012.011.026.021.039.032l.043.031.04.028.023.019.013.013,0,0-.022-.017-.023-.02-.018-.013-.006,0-.011,0a.038.038,0,0,0-.032.009.058.058,0,0,0-.01.013l0,.005a.027.027,0,0,0,0,.011v.006a.108.108,0,0,0,0,.012l0,.012.008.011a.164.164,0,0,0,.04.031l.014.007.021.009.015.006.02.007.032.009.057.014.058.031v0a.017.017,0,0,0,0,.009.042.042,0,0,0,.014.028.133.133,0,0,0,.016.013l.011.007a.2.2,0,0,0,.035.015l.033.009a.3.3,0,0,0,.039.005.427.427,0,0,0,.067,0l.046,0H335l.037,0,.036,0c.024,0,.048-.006.072-.01h.008l.033,0h.019l.017,0a.061.061,0,0,0,.019-.005l.007,0,.008-.007a.027.027,0,0,0,.007-.014.023.023,0,0,0,0,0l.009,0,.057-.023a.023.023,0,0,0,.027,0l.009-.005.013-.006.031-.015a.59.59,0,0,0,.059-.035.625.625,0,0,0,.058-.045l.025-.023a.694.694,0,0,0,.055-.046l.044-.042.018-.02.009-.01a.026.026,0,0,0,.007-.024.022.022,0,0,0-.03-.013v0l.005-.005.021-.021.009-.009a.068.068,0,0,0,.012-.015.024.024,0,0,0,0-.028.022.022,0,0,0-.016-.007l-.012,0Zm-.116.11,0,0,0,0-.036.032a.023.023,0,0,0-.014,0H335.5l.055-.028Zm-.223,0h0Zm-.463.011-.017-.01.025.006.038.01.031.01h-.036l-.015-.005-.026-.012Zm.539-.009,0,.008-.007.014h-.011a.046.046,0,0,0,.01-.011.022.022,0,0,0,0-.009l.008,0Zm-.512.021,0,0,0,0Zm.492.006h0Zm-.736.1c-.015-.017-.028-.035-.044-.051l-.006-.007.037.019c.04.02.079.043.12.059l0,0a.147.147,0,0,0,.033.017l.009,0,0,0,.021.012-.046-.016-.041-.018-.019-.011c-.011-.006-.027-.016-.039-.007a.025.025,0,0,0-.008.008.024.024,0,0,0,0,.01l-.021-.024Zm.812-.048h0l-.007,0-.011.008-.006,0a.025.025,0,0,0,0-.01.027.027,0,0,0,0,0l.023,0Zm-.971.009,0,0h0l0,0Zm0,.009h0v0Zm0,0,.019.016-.008-.005-.011-.01Zm.44.006h0Zm.475.009h0Zm-.625.056.005,0-.005,0Zm.213-.209h0Z" transform="translate(-328.001 -508.584)" fill="#ffef00"/>
            <path id="Path_70" data-name="Path 70" d="M337.141,523.155s-.005,0-.007.006l-.007.008-.007.008-.008.01h0l-.014.017-.012.016-.026.036-.029.035c-.01.012-.022.023-.033.034l-.036.032-.039.032-.008.007h0l0,0h0l-.044.031-.018.01-.011.006-.014.006h0l-.02.008-.012,0-.013,0-.043.008h0c-.029,0-.059.007-.088.009s-.062,0-.094,0-.064,0-.1,0-.058,0-.087-.007l-.031-.005-.03-.007-.064-.02-.066-.02-.032-.011-.029-.012-.053-.027-.024-.014-.025-.017h0l-.019-.016a.187.187,0,0,1-.017-.018l-.006-.008a.13.13,0,0,1-.013-.024h0a.211.211,0,0,1-.008-.03l0-.017h0c0-.007,0-.014,0-.022s0-.024,0-.035h0c0,.012,0,.025,0,.037s0,.013,0,.019,0,.012,0,.018a.135.135,0,0,0,.019.057l.009.013.011.014.022.021.012.01.015.011.026.017.03.017.028.014.033.013.069.024.068.022.03.008.031.007a.651.651,0,0,0,.07.009l.069,0h.071l.068,0,.069-.006c.024,0,.048,0,.071-.01l.033-.008.016-.005.018-.008.027-.014.032-.022.036-.028.018-.016.017-.015.031-.03a.446.446,0,0,0,.031-.035c.009-.011.018-.023.026-.035s.017-.027.025-.041l.011-.018.013-.021c0-.006.008-.012.012-.018l.013-.019h0l0,0h0s0,0,0,0Zm-.082.1h0Zm-1.07.052h0Zm.924.088h0Zm-.888-.054h0Zm-.066-.112h0Zm1.179-.074h0Z" transform="translate(-329.504 -509.655)" fill="#ffef00"/>
            <path id="Path_71" data-name="Path 71" d="M354.431,521.89l-.025.02-.022.018-.043.04-.042.04-.038.033h0l-.01.008-.009.006-.011.006-.012.006-.011.005-.013,0-.011,0-.011,0-.019,0-.016,0h-.083l-.042,0s0,0,0,0l.041.006.028,0,.026,0h.047l.016,0,.016,0,.009,0,.006,0,.027-.011.014-.007.014-.009a.343.343,0,0,0,.043-.037l.018-.018.024-.025.046-.049.044-.044a0,0,0,0,0,0,0Zm-.223.182h0Zm-.07.018h0Zm.122-.049h0Z" transform="translate(-346.752 -508.447)" fill="#ffef00"/>
            <path id="Path_72" data-name="Path 72" d="M359.992,521.966a.194.194,0,0,0-.018.025l-.009.016-.017.033-.007.014-.007.014-.019.034-.017.028-.017.026-.046.063h0l.044-.048a.5.5,0,0,0,.033-.043l.013-.021.014-.024c.009-.017.016-.035.023-.052h0l.006-.014h0l.006-.014h0l.005-.012a.22.22,0,0,1,.015-.026h0Zm-.025.053h0Z" transform="translate(-352.312 -508.519)" fill="#ffef00"/>
            <path id="Path_73" data-name="Path 73" d="M362.073,521.547l-.016.016-.008.01-.015.02-.031.046-.027.04c-.013.019-.025.038-.037.057h0a.872.872,0,0,0,.073-.089c.01-.015.019-.03.028-.046l.012-.022.007-.012a.147.147,0,0,1,.014-.02h0Z" transform="translate(-354.323 -508.119)" fill="#ffef00"/>
            <path id="Path_74" data-name="Path 74" d="M362.316,521.2l-.017.013a.1.1,0,0,0-.015.017.248.248,0,0,0-.022.036c-.006.012-.011.025-.016.037-.012.032-.023.064-.032.1h0c.014-.026.026-.052.038-.078s.017-.041.025-.062v0a.226.226,0,0,1,.025-.046h0l.015-.016h0Z" transform="translate(-354.585 -507.788)" fill="#ffef00"/>
            <path id="Path_75" data-name="Path 75" d="M206.2,479.333l-.014.013-.025.024-.052.055c-.034.036-.066.073-.1.109l0,0-.014.012-.01.009-.01.01-.022.023-.091.1-.039.046c-.014.017-.028.034-.042.051l-.045.058-.024.032-.026.037-.011.02,0,.005-.034.04c-.014.017-.028.034-.041.051l-.021.029-.01.014-.011.017-.005.01a.015.015,0,0,0,0,.008.017.017,0,0,0,0,.011.02.02,0,0,0,.007.007l.01,0,.011,0a.141.141,0,0,0,.027-.016l.018-.014.01-.008v0l0,0a.021.021,0,0,0,0,.01v.005a.014.014,0,0,0,0,.008.02.02,0,0,0,.006.007l0,0,.007,0h.012l.013,0,.02-.01.013-.009a.706.706,0,0,0,.057-.045c.018-.016.035-.032.052-.049s.034-.035.051-.053l.048-.053.044-.051.027-.033L206,479.8l.018-.024.028-.039.022-.031.026-.039.031-.048.027-.044.022-.037.012-.021.011-.021.01-.02,0-.009.007-.016.007-.019,0-.013,0-.008a.082.082,0,0,0,0-.019.014.014,0,0,0-.011-.014h-.009l-.006,0h0l0-.007.005-.01a.1.1,0,0,0,.009-.019.014.014,0,0,0,0-.011.015.015,0,0,0-.008-.007h-.005a.022.022,0,0,0-.014.006Zm-.1.14.057-.061-.017.026-.021.031-.021.03a.168.168,0,0,0,0-.019v-.006Zm0,.128-.028.042-.024.036-.025.036-.033.045-.033.042-.031.038-.018.021-.013.015-.039.043c-.024.026-.048.053-.074.078l-.042.039c-.012.012-.026.022-.039.033l0,0a.357.357,0,0,1-.046.032.363.363,0,0,1,.022-.034l.024-.031.024-.029.015-.019.034-.035.07-.073.047-.046.023-.025.011-.013.014-.016.024-.031.008-.011,0,0,.056-.066.064-.064Zm-.112.044,0-.005-.011.013-.012.015,0,0h0l0,0,.019-.021Zm-.322.349a.014.014,0,0,0,0,.012.014.014,0,0,0,.007.006l-.023.022-.026.024-.026.021.005-.007.022-.029.04-.048Zm.017.067h0Z" transform="translate(-204.959 -467.797)" fill="#ffef00"/>
          </g>
        </g>
      </g>
    </g>
    <text id="Sunny" transform="translate(321 54)" fill="#ffa700" font-size="11" font-family="Multicolore, Multicolore " letter-spacing="0.02em"><tspan x="0" y="0">Sunny</tspan></text>
  </g>
</svg>
