<svg xmlns="http://www.w3.org/2000/svg" viewBox="0 0 1028 772"><defs><style>.cls-1{stroke:#000;}.cls-1,.cls-2,.cls-5,.cls-6,.cls-7{stroke-miterlimit:10;}.cls-1,.cls-6{stroke-width:4px;}.cls-2,.cls-5,.cls-6,.cls-7{stroke:#fff;}.cls-2{stroke-width:4.67px;}.cls-3{font-size:67.13px;font-family:Futura-CondensedExtraBold, Futura;font-weight:800;letter-spacing:0.2em;}.cls-3,.cls-4,.cls-7{fill:#fff;}.cls-5,.cls-6{fill:none;}.cls-5{stroke-width:7px;}.cls-7{stroke-width:7.73px;}</style></defs><title>comp2</title><g id="background"><rect class="cls-1" x="2" y="2" width="1024" height="768"/><path d="M324,221.1a1.5,1.5,0,0,0,0-3,1.5,1.5,0,0,0,0,3Z" transform="translate(2 2.5)"/></g><g id="hamburger"><line class="cls-2" x1="80.5" y1="36.5" x2="126" y2="36.5"/><line class="cls-2" x1="80.5" y1="54" x2="126" y2="54"/><line class="cls-2" x1="80.5" y1="71.5" x2="126" y2="71.5"/><path class="cls-2" d="M67.41,566.88a156.33,156.33,0,0,1,53.53,57.92" transform="translate(2 2.5)"/><path class="cls-2" d="M67,623.51a138.71,138.71,0,0,1,48.91-60" transform="translate(2 2.5)"/><text class="cls-3" transform="translate(400.45 78.24)">ca mer</text></g><g id="text_blurbs" data-name="text blurbs"><path class="cls-4" d="M327.42,227.26c5.79,0,5.8-9,0-9s-5.8,9,0,9Z" transform="translate(2 2.5)"/><path class="cls-4" d="M353.42,227.26c5.79,0,5.8-9,0-9s-5.8,9,0,9Z" transform="translate(2 2.5)"/><path class="cls-4" d="M378.42,227.26c5.79,0,5.8-9,0-9s-5.8,9,0,9Z" transform="translate(2 2.5)"/><path class="cls-5" d="M432.5,196c0,32.58-36.94,59-82.5,59-16.69,0-35.53-3.23-50-12.06-7-4.27-12.73-5.52-21.23-4.24a59,59,0,0,0-14.34,4,1.76,1.76,0,0,1-2.3-2.44l4-7.33c1.88-3.43,6.83-9.32,7.15-13.18s-3-7.92-4.05-11.6A43.21,43.21,0,0,1,267.5,196c0-32.58,36.94-59,82.5-59S432.5,163.42,432.5,196Z" transform="translate(2 2.5)"/><path class="cls-4" d="M692,227.26c5.79,0,5.8-9,0-9s-5.8,9,0,9Z" transform="translate(2 2.5)"/><path class="cls-4" d="M666,227.26c5.79,0,5.8-9,0-9s-5.8,9,0,9Z" transform="translate(2 2.5)"/><path class="cls-4" d="M641,227.26c5.79,0,5.8-9,0-9s-5.8,9,0,9Z" transform="translate(2 2.5)"/><path class="cls-5" d="M586.91,196c0,32.58,36.93,59,82.5,59,16.68,0,35.52-3.23,50-12.06,7-4.27,12.73-5.52,21.23-4.24a58.87,58.87,0,0,1,14.34,4,1.76,1.76,0,0,0,2.3-2.44l-4-7.33c-1.89-3.43-6.84-9.32-7.16-13.18s3-7.92,4.06-11.6A43.57,43.57,0,0,0,751.91,196c0-32.58-36.94-59-82.5-59S586.91,163.42,586.91,196Z" transform="translate(2 2.5)"/><path class="cls-4" d="M686,436.26c5.79,0,5.8-9,0-9s-5.8,9,0,9Z" transform="translate(2 2.5)"/><path class="cls-4" d="M660,436.26c5.79,0,5.8-9,0-9s-5.8,9,0,9Z" transform="translate(2 2.5)"/><path class="cls-4" d="M635,436.26c5.79,0,5.8-9,0-9s-5.8,9,0,9Z" transform="translate(2 2.5)"/><path class="cls-5" d="M580.91,405c0,32.58,36.93,59,82.5,59,16.68,0,35.52-3.23,50-12.06,7-4.27,12.73-5.52,21.23-4.24a58.87,58.87,0,0,1,14.34,4,1.76,1.76,0,0,0,2.3-2.44l-4-7.33c-1.89-3.43-6.84-9.32-7.16-13.18s3-7.92,4.06-11.6A43.57,43.57,0,0,0,745.91,405c0-32.58-36.94-59-82.5-59S580.91,372.42,580.91,405Z" transform="translate(2 2.5)"/><path class="cls-4" d="M692,621.26c5.79,0,5.8-9,0-9s-5.8,9,0,9Z" transform="translate(2 2.5)"/><path class="cls-4" d="M666,621.26c5.79,0,5.8-9,0-9s-5.8,9,0,9Z" transform="translate(2 2.5)"/><path class="cls-4" d="M641,621.26c5.79,0,5.8-9,0-9s-5.8,9,0,9Z" transform="translate(2 2.5)"/><path class="cls-5" d="M586.91,590c0,32.58,36.93,59,82.5,59,16.68,0,35.52-3.23,50-12.06,7-4.27,12.73-5.52,21.23-4.24a58.87,58.87,0,0,1,14.34,4,1.76,1.76,0,0,0,2.3-2.44l-4-7.33c-1.89-3.43-6.84-9.32-7.16-13.18s3-7.92,4.06-11.6A43.57,43.57,0,0,0,751.91,590c0-32.58-36.94-59-82.5-59S586.91,557.42,586.91,590Z" transform="translate(2 2.5)"/><path class="cls-4" d="M327.42,431.26c5.79,0,5.8-9,0-9s-5.8,9,0,9Z" transform="translate(2 2.5)"/><path class="cls-4" d="M353.42,431.26c5.79,0,5.8-9,0-9s-5.8,9,0,9Z" transform="translate(2 2.5)"/><path class="cls-4" d="M378.42,431.26c5.79,0,5.8-9,0-9s-5.8,9,0,9Z" transform="translate(2 2.5)"/><path class="cls-5" d="M432.5,400c0,32.58-36.94,59-82.5,59-16.69,0-35.53-3.23-50-12.06-7-4.27-12.73-5.52-21.23-4.24a59,59,0,0,0-14.34,4,1.76,1.76,0,0,1-2.3-2.44l4-7.33c1.88-3.43,6.83-9.32,7.15-13.18s-3-7.92-4.05-11.6A43.21,43.21,0,0,1,267.5,400c0-32.58,36.94-59,82.5-59S432.5,367.42,432.5,400Z" transform="translate(2 2.5)"/><path class="cls-4" d="M327.42,621.26c5.79,0,5.8-9,0-9s-5.8,9,0,9Z" transform="translate(2 2.5)"/><path class="cls-4" d="M353.42,621.26c5.79,0,5.8-9,0-9s-5.8,9,0,9Z" transform="translate(2 2.5)"/><path class="cls-4" d="M378.42,621.26c5.79,0,5.8-9,0-9s-5.8,9,0,9Z" transform="translate(2 2.5)"/><path class="cls-5" d="M432.5,590c0,32.58-36.94,59-82.5,59-16.69,0-35.53-3.23-50-12.06-7-4.27-12.73-5.52-21.23-4.24a59,59,0,0,0-14.34,4,1.76,1.76,0,0,1-2.3-2.44l4-7.33c1.88-3.43,6.83-9.32,7.15-13.18s-3-7.92-4.05-11.6A43.21,43.21,0,0,1,267.5,590c0-32.58,36.94-59,82.5-59S432.5,557.42,432.5,590Z" transform="translate(2 2.5)"/><path class="cls-6" d="M96.23,401.44c5.61,2.33,4.57,12-1.09,14.17s-12.36-2.33-13.9-8.2c-2-7.68,3.94-16.31,11.78-17.55s16,4.7,17.63,12.46-3.06,16.26-10.34,19.42-16.38,1-21.86-4.71c-9-9.43-6-27.08,5.26-33.56s27.58-.68,32.77,11.28-1.16,27.4-13,32.82-27.25.55-34.38-10.36" transform="translate(2 2.5)"/><path class="cls-6" d="M760.23,54.44c5.61,2.33,4.57,12-1.09,14.17s-12.36-2.33-13.9-8.2c-2-7.68,3.94-16.31,11.78-17.55s16,4.7,17.63,12.46-3.06,16.26-10.34,19.42-16.38,1-21.86-4.71c-9-9.43-6.05-27.08,5.26-33.56s27.58-.68,32.77,11.28-1.16,27.4-13,32.82-27.25.55-34.38-10.36" transform="translate(2 2.5)"/><path class="cls-6" d="M251.23,54.44c5.61,2.33,4.57,12-1.09,14.17s-12.36-2.33-13.9-8.2c-2-7.68,3.94-16.31,11.78-17.55s16,4.7,17.63,12.46-3.06,16.26-10.34,19.42-16.38,1-21.86-4.71c-9-9.43-6-27.08,5.26-33.56s27.58-.68,32.77,11.28-1.16,27.4-13,32.82-27.25.55-34.38-10.36" transform="translate(2 2.5)"/></g><g id="slices"><line class="cls-6" x1="202.5" y1="2.5" x2="202.5" y2="770.5"/><line class="cls-6" x1="502.5" y1="112.5" x2="502.5" y2="770.5"/><line class="cls-6" x1="526.5" y1="112.5" x2="526.5" y2="770.5"/><line class="cls-6" x1="801.5" y1="2.5" x2="801.5" y2="770.5"/><line class="cls-6" x1="1.5" y1="112.5" x2="1025.5" y2="112.5"/><line class="cls-6" x1="1.5" y1="301.5" x2="1025.5" y2="301.5"/><line class="cls-6" x1="1.5" y1="502.5" x2="1025.5" y2="502.5"/><line class="cls-6" x1="1.5" y1="701.5" x2="1025.5" y2="701.5"/><circle class="cls-7" cx="100.5" cy="198.5" r="29"/><path class="cls-6" d="M470.54,76.86c8.72,0,16.5-6.2,20.84-13.76s5.89-16.37,7.37-25c.33-2,.21-4.67-1.74-5.1-1.35-.29-2.56.85-3.4,1.95a26.87,26.87,0,0,0-.79,30.51A26.85,26.85,0,0,0,521.48,76" transform="translate(2 2.5)"/></g></svg>