<svg xmlns="http://www.w3.org/2000/svg" xmlns:xlink="http://www.w3.org/1999/xlink" viewBox="0 0 1193.24 2446.78"><defs><style>.cls-1,.cls-11,.cls-12,.cls-13,.cls-5,.cls-6,.cls-7,.cls-9{fill:none;}.cls-2{clip-path:url(#clip-path);}.cls-3{fill:#f79878;}.cls-19,.cls-22,.cls-3,.cls-4{stroke:#111212;}.cls-11,.cls-12,.cls-13,.cls-19,.cls-21,.cls-22,.cls-3,.cls-4,.cls-5,.cls-6,.cls-7,.cls-9{stroke-miterlimit:10;}.cls-4{fill:#f4f4f5;stroke-width:1.39px;}.cls-12,.cls-5{stroke:#93cd8c;}.cls-5{stroke-width:42.44px;}.cls-13,.cls-6{stroke:#00a14b;}.cls-6{stroke-width:26.94px;}.cls-11,.cls-7,.cls-9{stroke:#d5e279;}.cls-7{stroke-width:22.04px;}.cls-8{font-size:68.64px;fill:#231f20;font-family:Phosphate-Inline, Phosphate;letter-spacing:0.12em;}.cls-9{stroke-width:15.65px;}.cls-10{fill:#f0efef;}.cls-11{stroke-width:24.14px;}.cls-12{stroke-width:29px;}.cls-13{stroke-width:23.19px;}.cls-14{font-size:157.59px;font-family:Modish-Regular, Modish;}.cls-15{font-size:75.93px;}.cls-15,.cls-16,.cls-17,.cls-18{fill:#fee9e3;font-family:BodoniOrnamentsITCTT, Bodoni Ornaments;}.cls-16,.cls-17,.cls-18{opacity:0.5;}.cls-16{font-size:260.15px;}.cls-17{font-size:258.31px;}.cls-18{font-size:368.18px;}.cls-19{fill:#b7dec5;}.cls-19,.cls-22{stroke-width:13px;}.cls-20{fill:#111212;}.cls-21{fill:#d6e379;stroke:#000;stroke-width:10.2px;}.cls-22{fill:#c38f4c;}.cls-23{fill:#fff;}</style><clipPath id="clip-path" transform="translate(66.05 0.5)"><rect id="clipper" class="cls-1" x="-1" y="-2" width="1125" height="2436"/></clipPath></defs><title>comp1</title><g id="clip"><g class="cls-2"><rect id="background-2" data-name="background" class="cls-3" x="65.05" y="0.5" width="1125" height="2436"/><g id="logo"><rect class="cls-4" x="433.03" y="106.59" width="436.69" height="104.56" rx="42.51"/><rect class="cls-5" x="407.9" y="79.81" width="482.06" height="158.65" rx="73.45"/><rect class="cls-6" x="382.78" y="67.28" width="537.19" height="183.7" rx="83.44"/><rect class="cls-7" x="435.19" y="110.28" width="425.29" height="102.28" rx="51.14"/><text class="cls-8" transform="translate(484.88 187.54)">mindful</text></g><path class="cls-9" d="M198.49,120H84.5A2.55,2.55,0,0,1,82,117.44H97.29c0-1.41-14.19-2.55-12.79-2.55h114a2.55,2.55,0,0,1,2.55,2.55h0A2.55,2.55,0,0,1,198.49,120Z" transform="translate(66.05 0.5)"/><rect class="cls-9" x="148.01" y="158.87" width="119.09" height="5.1" rx="2.55"/><rect class="cls-9" x="148.01" y="202.35" width="119.09" height="5.1" rx="2.55"/><circle class="cls-10" cx="633.24" cy="2266.3" r="60.24"/><circle class="cls-11" cx="632.92" cy="2266.3" r="72.29"/><circle class="cls-12" cx="632.92" cy="2266.3" r="99.21"/><circle class="cls-13" cx="633.24" cy="2266.3" r="120.47"/><text id="create_post_button" data-name="create post button" class="cls-14" transform="translate(593.87 2325.76)">+</text><text class="cls-15" transform="translate(966.22 139.06)">+</text><text class="cls-15" transform="translate(966.22 265.67)">+</text><text class="cls-16" transform="translate(860.48 985.1)">+</text><text class="cls-16" transform="translate(782.53 1892.84)">+</text><text class="cls-16" transform="translate(207.55 2251.88)">+</text><text class="cls-16" transform="translate(933.1 2386.77)">+</text><text class="cls-17" transform="translate(66.05 1520.75)">+</text><text class="cls-17" transform="translate(467.88 1243.99)">+</text><text class="cls-18" transform="translate(0 687.87)">+</text><text class="cls-15" transform="translate(1073.33 192.65)">+</text><path class="cls-19" d="M848.12,768.25H687.51A118.87,118.87,0,0,1,568.64,649.39V634.76A118.87,118.87,0,0,1,687.51,515.89H846.72A118.87,118.87,0,0,1,965.59,634.76v16A118,118,0,0,1,933,732c-4.79,5-11.86,8.08-10.77,14.78s7.62,14.79,11.67,20a89.94,89.94,0,0,0,23.38,21.18,1.4,1.4,0,0,1-1.14,2.53l-34-9.64c-12.83-3.64-21.37-9-32.29-16-6-3.81-10.31-.62-17.7.92A118.07,118.07,0,0,1,848.12,768.25Z" transform="translate(66.05 0.5)"/><g id="TB1"><path class="cls-20" d="M699.15,700.17c16.47,0,16.5-25.6,0-25.6s-16.5,25.6,0,25.6Z" transform="translate(66.05 0.5)"/><path class="cls-20" d="M755.84,700.17c16.48,0,16.5-25.6,0-25.6s-16.5,25.6,0,25.6Z" transform="translate(66.05 0.5)"/><path class="cls-20" d="M813.71,700.17c16.47,0,16.5-25.6,0-25.6s-16.5,25.6,0,25.6Z" transform="translate(66.05 0.5)"/></g><path class="cls-21" d="M848.12,1462.33H687.51a118.86,118.86,0,0,1-118.87-118.86v-14.63A118.87,118.87,0,0,1,687.51,1210H846.72a118.87,118.87,0,0,1,118.87,118.87v16A118,118,0,0,1,933,1426c-4.79,5-11.86,8.08-10.77,14.78s7.62,14.79,11.67,20A89.76,89.76,0,0,0,957.31,1482a1.41,1.41,0,0,1-1.14,2.54l-34-9.65c-12.83-3.64-21.37-9-32.29-16-6-3.81-10.31-.61-17.7.92A118.07,118.07,0,0,1,848.12,1462.33Z" transform="translate(66.05 0.5)"/><g id="TB1-2" data-name="TB1"><path class="cls-20" d="M698.56,1425.54c16.48,0,16.5-25.6,0-25.6s-16.5,25.6,0,25.6Z" transform="translate(66.05 0.5)"/><path class="cls-20" d="M755.26,1425.54c16.47,0,16.5-25.6,0-25.6s-16.5,25.6,0,25.6Z" transform="translate(66.05 0.5)"/><path class="cls-20" d="M813.12,1425.54c16.47,0,16.5-25.6,0-25.6s-16.5,25.6,0,25.6Z" transform="translate(66.05 0.5)"/></g><path class="cls-22" d="M283.48,1099.64H432.09c65.65,0,130.87-53.22,130.87-118.87V966.15A118.87,118.87,0,0,0,444.09,847.28H284.88A118.87,118.87,0,0,0,166,966.15v16a118,118,0,0,0,32.56,81.17c4.79,5,11.86,8.08,10.77,14.77s-7.62,14.8-11.67,20a89.94,89.94,0,0,1-23.38,21.18,1.4,1.4,0,0,0,1.14,2.53l34-9.64c12.83-3.64,21.37-9,32.29-16,6-3.8,10.31-.61,17.7.93A118.07,118.07,0,0,0,283.48,1099.64Z" transform="translate(66.05 0.5)"/><g id="TB2"><path class="cls-23" d="M307.21,1033.66c16.47,0,16.5-25.6,0-25.6s-16.5,25.6,0,25.6Z" transform="translate(66.05 0.5)"/><path class="cls-23" d="M363.9,1033.66c16.47,0,16.5-25.6,0-25.6s-16.5,25.6,0,25.6Z" transform="translate(66.05 0.5)"/><path class="cls-23" d="M421.76,1033.66c16.48,0,16.5-25.6,0-25.6s-16.49,25.6,0,25.6Z" transform="translate(66.05 0.5)"/></g><path class="cls-19" d="M282.3,1824.36H430.92c65.65,0,130.87-53.22,130.87-118.87v-14.63A118.87,118.87,0,0,0,442.92,1572H283.71a118.87,118.87,0,0,0-118.87,118.87v16a118,118,0,0,0,32.56,81.18c4.78,5,11.86,8.07,10.77,14.77s-7.62,14.79-11.67,20a90.12,90.12,0,0,1-23.38,21.18,1.4,1.4,0,0,0,1.14,2.53l34-9.65c12.84-3.64,21.37-9,32.29-16,6-3.81,10.32-.61,17.71.92A118.05,118.05,0,0,0,282.3,1824.36Z" transform="translate(66.05 0.5)"/><g id="TB2-2" data-name="TB2"><path class="cls-23" d="M305.45,1770.8c16.47,0,16.5-25.6,0-25.6s-16.5,25.6,0,25.6Z" transform="translate(66.05 0.5)"/><path class="cls-23" d="M362.14,1770.8c16.47,0,16.5-25.6,0-25.6s-16.5,25.6,0,25.6Z" transform="translate(66.05 0.5)"/><path class="cls-23" d="M420,1770.8c16.47,0,16.5-25.6,0-25.6s-16.5,25.6,0,25.6Z" transform="translate(66.05 0.5)"/></g></g></g></svg>