<?xml version="1.0" encoding="utf-8"?>
<!-- Generator: Adobe Illustrator 22.0.1, SVG Export Plug-In . SVG Version: 6.00 Build 0)  -->
<svg version="1.1" xmlns="http://www.w3.org/2000/svg" xmlns:xlink="http://www.w3.org/1999/xlink" x="0px" y="0px"
	 viewBox="0 0 378.4 122.4" style="enable-background:new 0 0 378.4 122.4;" xml:space="preserve">
<style type="text/css">
	.st0{fill:none;stroke:#000000;stroke-width:0.285;stroke-miterlimit:10;}
</style>
<g id="SHEHREEN">
	<g>
		<path class="st0" d="M33.8,75.3c-2.7,0-4.9-0.6-6.5-1.9s-2.5-3-2.5-5.3v-0.6h5l0.1,0.5c0.1,0.8,0.3,1.4,0.6,1.7
			c0.6,0.7,1.6,1,3.1,1c0.7,0,1.5-0.1,2.2-0.3c0.9-0.3,1.4-0.9,1.4-1.7c0-0.4-0.2-0.8-0.6-1c-0.8-0.4-1.7-0.7-2.6-0.9l-2.1-0.5
			c-2.2-0.5-3.7-1-4.5-1.6c-1.5-1-2.3-2.6-2.3-4.7c0-1.9,0.7-3.6,2.1-4.8c1.4-1.3,3.4-1.9,6.1-1.9c2.2,0,4.1,0.6,5.7,1.8
			c1.6,1.2,2.5,3,2.6,5.2l0,0.6h-5.1l0-0.5c0-0.9-0.5-1.7-1.3-2.1c-0.7-0.3-1.5-0.5-2.2-0.4c-0.8,0-1.6,0.1-2.3,0.5
			c-0.5,0.3-0.7,0.8-0.7,1.3c0,0.5,0.3,0.9,0.7,1.1c0.3,0.1,0.9,0.4,2.5,0.8l3.4,0.8c1.6,0.4,2.8,0.9,3.6,1.5c1.3,1,2,2.5,2,4.5
			c0,1.9-0.8,3.7-2.3,4.9C38.5,74.6,36.4,75.3,33.8,75.3z"/>
		<polygon class="st0" points="61.3,74.8 61.3,66 54.8,66 54.8,74.8 49.5,74.8 49.5,53.9 54.8,53.9 54.8,61.4 61.3,61.4 61.3,53.9 
			66.5,53.9 66.5,74.8 		"/>
		<polygon class="st0" points="74.9,74.8 74.9,53.9 90.5,53.9 90.5,58.5 80.1,58.5 80.1,61.6 89.7,61.6 89.7,66.1 80.1,66.1 
			80.1,70.1 91,70.1 91,74.8 		"/>
		<polygon class="st0" points="110.3,74.8 110.3,66 103.8,66 103.8,74.8 98.5,74.8 98.5,53.9 103.8,53.9 103.8,61.4 110.3,61.4 
			110.3,53.9 115.5,53.9 115.5,74.8 		"/>
		<path class="st0" d="M135.6,74.8l-0.1-0.4c-0.1-0.5-0.2-0.8-0.3-1.1c-0.1-0.6-0.2-1.2-0.2-1.8l0-1.8c0-1.5-0.3-1.9-0.5-2.1
			s-0.7-0.5-1.9-0.5h-3.4v7.7h-5.2V53.9h10c1.5,0,2.5,0.2,3.3,0.6c0.8,0.3,1.5,0.9,2.1,1.5c0.5,0.5,0.8,1.2,1.1,1.8
			c0.3,0.7,0.4,1.5,0.4,2.3c0,1.1-0.3,2.1-0.8,3c-0.4,0.7-0.9,1.3-1.6,1.7c0.5,0.3,0.9,0.7,1.2,1.3c0.4,0.8,0.6,1.9,0.6,3.4v1.3
			c0,0.6,0,1.1,0.1,1.7c0.1,0.3,0.2,0.6,0.5,0.8l0.3,0.2v1.4L135.6,74.8z M132.9,62.6c1,0,1.5-0.1,1.7-0.3c0.4-0.2,0.9-0.5,0.9-1.7
			c0-1-0.3-1.6-0.8-1.9c-0.2-0.1-0.7-0.3-1.6-0.3h-4v4.2H132.9z"/>
		<polygon class="st0" points="149.2,74.8 149.2,53.9 164.8,53.9 164.8,58.5 154.4,58.5 154.4,61.6 164,61.6 164,66.1 154.4,66.1 
			154.4,70.1 165.3,70.1 165.3,74.8 		"/>
		<polygon class="st0" points="173,74.8 173,53.9 188.5,53.9 188.5,58.5 178.1,58.5 178.1,61.6 187.7,61.6 187.7,66.1 178.1,66.1 
			178.1,70.1 189,70.1 189,74.8 		"/>
		<polygon class="st0" points="208.6,74.8 201.5,62.3 201.5,74.8 196.5,74.8 196.5,53.9 201.7,53.9 208.7,66.1 208.7,53.9 
			213.6,53.9 213.6,74.8 		"/>
		<path class="st0" d="M36,77.8c-2.7,0-4.9-0.6-6.5-1.9c-1.6-1.3-2.5-3-2.5-5.3v-0.6h5l0.1,0.5c0.1,0.6,0.3,1.2,0.6,1.7
			c0.6,0.7,1.6,1,3.1,1c0.7,0,1.5-0.1,2.2-0.3c0.9-0.3,1.4-0.9,1.4-1.7c0-0.4-0.2-0.8-0.6-1c-0.8-0.4-1.7-0.7-2.6-0.9L34.1,69
			c-2.2-0.5-3.7-1-4.5-1.6c-1.5-1-2.3-2.6-2.3-4.7c0-1.9,0.7-3.6,2.1-4.8c1.4-1.3,3.4-1.9,6.1-1.9c2.2,0,4.1,0.6,5.7,1.8
			c1.6,1.2,2.5,3,2.6,5.2l0,0.6h-5.1l0-0.5c0-0.9-0.5-1.7-1.3-2.1c-0.7-0.3-1.5-0.5-2.2-0.4c-0.8,0-1.6,0.1-2.3,0.5
			c-0.5,0.3-0.7,0.8-0.7,1.3c0,0.5,0.3,0.9,0.7,1.1c0.3,0.1,0.9,0.4,2.5,0.8l3.4,0.8c1.6,0.4,2.8,0.9,3.6,1.5c1.3,1,2,2.5,2,4.5
			c0,1.9-0.8,3.7-2.3,4.9C40.8,77.2,38.7,77.8,36,77.8z"/>
		<polygon class="st0" points="63.6,77.3 63.6,68.5 57,68.5 57,77.3 51.8,77.3 51.8,56.5 57,56.5 57,64 63.6,64 63.6,56.5 
			68.8,56.5 68.8,77.3 		"/>
		<polygon class="st0" points="77.2,77.3 77.2,56.5 92.8,56.5 92.8,61.1 82.4,61.1 82.4,64.2 91.9,64.2 91.9,68.7 82.4,68.7 
			82.4,72.6 93.3,72.6 93.3,77.3 		"/>
		<polygon class="st0" points="112.6,77.3 112.6,68.5 106,68.5 106,77.3 100.8,77.3 100.8,56.5 106,56.5 106,64 112.6,64 
			112.6,56.5 117.8,56.5 117.8,77.3 		"/>
		<path class="st0" d="M137.8,77.3l-0.1-0.4c-0.1-0.5-0.2-0.8-0.3-1.1c-0.1-0.6-0.2-1.2-0.2-1.8l0-1.8c0-1.5-0.3-1.9-0.5-2.1
			c-0.2-0.2-0.7-0.5-1.9-0.5h-3.4v7.7h-5.2V56.5h10c1.5,0,2.5,0.2,3.3,0.6c0.8,0.3,1.5,0.9,2.1,1.5c0.5,0.5,0.8,1.2,1.1,1.8
			c0.3,0.7,0.4,1.5,0.4,2.3c0,1.1-0.3,2.1-0.8,3c-0.4,0.7-0.9,1.3-1.6,1.7c0.5,0.3,0.9,0.7,1.2,1.3c0.4,0.8,0.6,1.9,0.6,3.4v1.3
			c0,0.6,0,1.1,0.1,1.7c0.1,0.3,0.2,0.6,0.5,0.8l0.3,0.2v1.4L137.8,77.3z M135.2,65.2c1,0,1.5-0.1,1.7-0.3c0.4-0.2,0.9-0.5,0.9-1.7
			c0-1-0.3-1.6-0.8-1.9c-0.2-0.1-0.7-0.3-1.6-0.3h-4v4.2H135.2z"/>
		<polygon class="st0" points="151.5,77.3 151.5,56.5 167.1,56.5 167.1,61.1 156.7,61.1 156.7,64.2 166.2,64.2 166.2,68.7 
			156.7,68.7 156.7,72.6 167.6,72.6 167.6,77.3 		"/>
		<polygon class="st0" points="175.2,77.3 175.2,56.5 190.8,56.5 190.8,61.1 180.4,61.1 180.4,64.2 190,64.2 190,68.7 180.4,68.7 
			180.4,72.6 191.3,72.6 191.3,77.3 		"/>
		<polygon class="st0" points="210.9,77.3 203.8,64.9 203.8,77.3 198.8,77.3 198.8,56.5 204,56.5 210.9,68.6 210.9,56.5 215.9,56.5 
			215.9,77.3 		"/>
	</g>
</g>
<g id="background_2_">
</g>
</svg>
