<svg id="image" xmlns="http://www.w3.org/2000/svg" xmlns:xlink="http://www.w3.org/1999/xlink" viewBox="0 0 1068.98 390.45"><defs><style>.cls-1{font-size:68.89px;}.cls-1,.cls-10,.cls-2{font-family:Futura-Medium, Futura;font-weight:500;}.cls-2{font-size:23.9px;}.cls-3{letter-spacing:0.02em;}.cls-4{letter-spacing:0em;}.cls-5{letter-spacing:-0.02em;}.cls-6{letter-spacing:-0.02em;}.cls-7{letter-spacing:0.03em;}.cls-8{letter-spacing:0em;}.cls-9{letter-spacing:0.01em;}.cls-10{font-size:29.03px;fill:#aa4d71;letter-spacing:0em;}.cls-11{letter-spacing:0.02em;}.cls-12{letter-spacing:-0.02em;}.cls-13{letter-spacing:-0.01em;}.cls-14{letter-spacing:0.01em;}.cls-15{letter-spacing:0.03em;}.cls-16{letter-spacing:-0.01em;}.cls-17{letter-spacing:-0.02em;}.cls-18{letter-spacing:0em;}.cls-19{letter-spacing:0.02em;}.cls-20{letter-spacing:-0.02em;}.cls-21{letter-spacing:0em;}.cls-22{letter-spacing:0.02em;}.cls-23{letter-spacing:0em;}.cls-24{letter-spacing:0.01em;}.cls-25{letter-spacing:0.01em;}.cls-26{letter-spacing:0.02em;}.cls-27{font-size:33.2px;letter-spacing:0.02em;}.cls-27,.cls-31,.cls-41{font-family:FranklinGothicURWCom-Boo, FranklinGothic URW Comp;}.cls-28{letter-spacing:0em;}.cls-29{letter-spacing:0.04em;}.cls-30{letter-spacing:0em;}.cls-31{font-size:32.47px;letter-spacing:0em;}.cls-32{letter-spacing:0em;}.cls-33{letter-spacing:0em;}.cls-34{letter-spacing:-0.01em;}.cls-35{letter-spacing:0.02em;}.cls-36{letter-spacing:0.01em;}.cls-37{letter-spacing:0.02em;}.cls-38{letter-spacing:0em;}.cls-39{letter-spacing:0.02em;}.cls-40{letter-spacing:0em;}.cls-41{font-size:32.47px;letter-spacing:0.02em;}.cls-42{letter-spacing:0em;}.cls-43{letter-spacing:0em;}.cls-44{letter-spacing:0em;}.cls-45{letter-spacing:0em;}.cls-46{letter-spacing:0em;}.cls-47{letter-spacing:0.02em;}.cls-48{letter-spacing:0.04em;}.cls-49{letter-spacing:0.01em;}.cls-50{letter-spacing:0em;}.cls-51{letter-spacing:0.01em;}</style></defs><title>persona</title><image id="MUJER" width="7360" height="4912" transform="translate(1.08) scale(0.05)" xlink:href="../../../../Library/Application%20Support/Adobe/Creative%20Cloud%20Libraries/LIBS/65CC2B415A5C36D80A495DC2_AdobeID/creative_cloud/renditions/55d11e93-d714-45bf-aff9-72c6e41892bc/944bc78e-ef78-4131-aa46-baf6731562ee.jpeg"/><text class="cls-1" transform="translate(382.77 60.94)">Ella M.</text><text class="cls-2" transform="translate(382.34 110.71)">4<tspan class="cls-3" x="14.75" y="0">t</tspan><tspan class="cls-4" x="21.76" y="0">h </tspan><tspan class="cls-5" x="42.24" y="0">y</tspan><tspan class="cls-4" x="54.85" y="0">ear ps</tspan><tspan class="cls-6" x="122.74" y="0">y</tspan><tspan class="cls-7" x="135.25" y="0">c</tspan><tspan class="cls-8" x="147.26" y="0">hology and music double m</tspan><tspan class="cls-9" x="446.71" y="0">a</tspan><tspan x="461.33" y="0">jor</tspan></text><text class="cls-10" transform="translate(382.41 156.9) scale(1.02 1.15)">I <tspan class="cls-11" x="17.69" y="0">t</tspan><tspan x="26.3" y="0">hink sound has </tspan><tspan class="cls-11" x="231.45" y="0">t</tspan><tspan x="240.05" y="0">he p</tspan><tspan class="cls-12" x="298.74" y="0">o</tspan><tspan class="cls-13" x="315.72" y="0">w</tspan><tspan x="337.83" y="0">er </tspan><tspan class="cls-14" x="373.96" y="0">t</tspan><tspan x="382.18" y="0">o heal, whi</tspan><tspan class="cls-15" x="529.67" y="0">c</tspan><tspan x="544.34" y="0">h is w</tspan><tspan class="cls-16" x="620.16" y="0">h</tspan><tspan x="635.7" y="0">y</tspan><tspan x="0" y="32.81">I’m studying h</tspan><tspan class="cls-17" x="185.28" y="32.81">o</tspan><tspan class="cls-18" x="202.26" y="32.81">w </tspan><tspan class="cls-19" x="233.85" y="32.81">t</tspan><tspan x="242.46" y="32.81">he mind </tspan><tspan class="cls-20" x="356.55" y="32.81">w</tspan><tspan class="cls-21" x="378.58" y="32.81">o</tspan><tspan class="cls-22" x="396.11" y="32.81">r</tspan><tspan class="cls-23" x="407.49" y="32.81">ks so I can gain a </tspan><tspan x="0" y="65.62">b</tspan><tspan class="cls-24" x="17.49" y="65.62">e</tspan><tspan x="33.89" y="65.62">t</tspan><tspan class="cls-24" x="41.91" y="65.62">t</tspan><tspan x="50.19" y="65.62">er unders</tspan><tspan class="cls-24" x="174.68" y="65.62">t</tspan><tspan x="182.95" y="65.62">anding and somed</tspan><tspan class="cls-25" x="429.88" y="65.62">a</tspan><tspan x="447.62" y="65.62">y help </tspan><tspan class="cls-26" x="538.52" y="65.62">t</tspan><tspan x="547.13" y="65.62">he </tspan><tspan class="cls-20" x="588.32" y="65.62">w</tspan><tspan x="610.35" y="65.62">o</tspan><tspan class="cls-22" x="627.88" y="65.62">r</tspan><tspan class="cls-21" x="639.26" y="65.62">ld </tspan></text><text class="cls-27" transform="translate(2.23 296.61) scale(1.02 1.15)">A<tspan class="cls-28" x="13.15" y="0">g</tspan><tspan class="cls-29" x="25.1" y="0">e</tspan><tspan class="cls-30" x="38.74" y="0">: 21</tspan></text><text class="cls-31" transform="translate(0 339.58) scale(1.02 1.15)">Hom<tspan class="cls-32" x="47.86" y="0">e</tspan><tspan class="cls-33" x="59.98" y="0">t</tspan><tspan x="67.83" y="0">own: Ba</tspan><tspan class="cls-34" x="148.72" y="0">k</tspan><tspan x="160.12" y="0">e</tspan><tspan class="cls-35" x="172.39" y="0">r</tspan><tspan class="cls-36" x="180.87" y="0">s</tspan><tspan class="cls-37" x="191.81" y="0">f</tspan><tspan x="199.12" y="0">iel</tspan><tspan class="cls-38" x="223.73" y="0">d</tspan><tspan x="236.95" y="0">, </tspan><tspan class="cls-39" x="250.39" y="0">C</tspan><tspan class="cls-40" x="264.45" y="0">A </tspan></text><text class="cls-41" transform="translate(0.65 381.11) scale(1.02 1.15)">L<tspan class="cls-42" x="11.72" y="0">a</tspan><tspan class="cls-43" x="24.55" y="0">n</tspan><tspan class="cls-44" x="37.25" y="0">gu</tspan><tspan class="cls-45" x="61.8" y="0">a</tspan><tspan class="cls-46" x="74.46" y="0">g</tspan><tspan class="cls-47" x="86.15" y="0">e</tspan><tspan class="cls-48" x="98.88" y="0">s</tspan><tspan class="cls-44" x="110.57" y="0">: E</tspan><tspan class="cls-43" x="136.29" y="0">n</tspan><tspan class="cls-49" x="148.99" y="0">g</tspan><tspan class="cls-42" x="160.9" y="0">lish, Man</tspan><tspan class="cls-50" x="255.24" y="0">d</tspan><tspan class="cls-42" x="268.36" y="0">a</tspan><tspan class="cls-51" x="281.18" y="0">r</tspan><tspan class="cls-42" x="289.27" y="0">in</tspan></text></svg>