<?xml version="1.0" encoding="utf-8"?>
<!-- Generator: Adobe Illustrator 23.0.2, SVG Export Plug-In . SVG Version: 6.00 Build 0)  -->
<svg version="1.1" id="Layer_1" xmlns="http://www.w3.org/2000/svg" xmlns:xlink="http://www.w3.org/1999/xlink" x="0px" y="0px"
	 viewBox="0 0 1125 2436" style="enable-background:new 0 0 1125 2436;" xml:space="preserve">
<style type="text/css">
	.st0{fill:#FFFFFF;stroke:#000000;stroke-miterlimit:10;}
	.st1{fill:#FF2A30;}
	.st2{font-family:'Helvetica-Bold';}
	.st3{font-size:31.853px;}
	.st4{font-size:25.4698px;}
	.st5{font-size:24.076px;}
	.st6{font-size:25.2829px;}
	.st7{font-size:30.7702px;}
	.st8{font-size:25.9557px;}
</style>
<rect x="407.5" y="133.5" class="st0" width="298" height="191"/>
<rect x="407.5" y="385.5" class="st0" width="298" height="191"/>
<rect x="407.5" y="637.5" class="st0" width="298" height="191"/>
<rect x="407.5" y="889.5" class="st0" width="298" height="191"/>
<rect x="407.5" y="1141.5" class="st0" width="298" height="191"/>
<rect x="407.5" y="1393.5" class="st0" width="298" height="191"/>
<rect x="407.5" y="1645.5" class="st0" width="298" height="191"/>
<rect x="407.5" y="1897.5" class="st0" width="298" height="191"/>
<rect x="407.5" y="2149.5" class="st0" width="298" height="191"/>
<text transform="matrix(1 0 0 1 429.6821 229.4561)" class="st1 st2 st3">clicks on website</text>
<text transform="matrix(1 0 0 1 444.0576 465.4561)"><tspan x="0" y="0" class="st1 st2 st3">reads welcome  </tspan><tspan x="50.4" y="38.2" class="st1 st2 st3">message</tspan></text>
<text transform="matrix(1 0 0 1 446.6138 699.9678)"><tspan x="0" y="0" class="st1 st2 st4">obeserves content  </tspan><tspan x="7.8" y="30.6" class="st1 st2 st4">that creates initial </tspan><tspan x="-19.1" y="61.1" class="st1 st2 st4"> empathy/relationship  </tspan><tspan x="48.1" y="91.7" class="st1 st2 st4">with reader</tspan></text>
<text transform="matrix(1 0 0 1 430.7881 1208.7695)"><tspan x="0" y="0" class="st1 st2 st5">user gains knowledge </tspan><tspan x="-14.7" y="28.9" class="st1 st2 st5"> about mindfulness from </tspan><tspan x="-6" y="57.8" class="st1 st2 st5"> other people’s shared  </tspan><tspan x="56.2" y="86.7" class="st1 st2 st5">experiences</tspan></text>
<text transform="matrix(1 0 0 1 451.166 1948.7695)"><tspan x="0" y="0" class="st1 st2 st5">user successfully </tspan><tspan x="-8" y="28.9" class="st1 st2 st5">creates an account </tspan><tspan x="20.1" y="57.8" class="st1 st2 st5">and can share </tspan><tspan x="32.2" y="86.7" class="st1 st2 st5">or add posts</tspan></text>
<text transform="matrix(1 0 0 1 488.9604 2207.7695)"><tspan x="0" y="0" class="st1 st2 st5">user returns </tspan><tspan x="-8" y="28.9" class="st1 st2 st5">to home page </tspan><tspan x="-21.4" y="57.8" class="st1 st2 st5">for more stream </tspan><tspan x="15.4" y="86.7" class="st1 st2 st5">of content</tspan></text>
<text transform="matrix(1 0 0 1 453.2559 959.9097)"><tspan x="0" y="0" class="st2 st6">prompted to click </tspan><tspan x="20.4" y="30.3" class="st2 st6">on content for </tspan><tspan x="24.6" y="60.7" class="st2 st6">further details</tspan></text>
<text transform="matrix(1 0 0 1 441.9238 1442.4805)"><tspan x="0" y="0" class="st2 st7">option to share  </tspan><tspan x="-10.3" y="36.9" class="st2 st7">to various social  </tspan><tspan x="-2.6" y="73.8" class="st2 st7">media or create  </tspan><tspan x="10.3" y="110.8" class="st2 st7">your own post</tspan></text>
<text transform="matrix(1 0 0 1 434.856 1712.2227)"><tspan x="0" y="0" class="st2 st8">prompted to create </tspan><tspan x="-2.1" y="31.1" class="st2 st8">an account or login </tspan><tspan x="10.8" y="62.3" class="st2 st8">with popup fields </tspan></text>
</svg>
