<svg id="Layer_1" data-name="Layer 1" xmlns="http://www.w3.org/2000/svg" viewBox="0 0 489.19 596.85"><defs><style>.cls-1{fill:#f2f2f2;stroke-width:6.39px;}.cls-1,.cls-2,.cls-3{stroke:#000;stroke-miterlimit:10;}.cls-2{fill:#595959;}.cls-2,.cls-3{stroke-width:0.71px;}.cls-3{fill:#aaa;}.cls-4{font-size:18.93px;}.cls-10,.cls-4{font-family:MyriadPro-Regular, Myriad Pro;}.cls-5{letter-spacing:-0.01em;}.cls-6{letter-spacing:0em;}.cls-7{letter-spacing:-0.01em;}.cls-8{letter-spacing:0em;}.cls-9{letter-spacing:0em;}.cls-10{font-size:21.08px;}.cls-11{letter-spacing:-0.01em;}.cls-12{letter-spacing:0em;}</style></defs><title>wireframe1</title><rect class="cls-1" x="3.19" y="3.19" width="482.8" height="590.46"/><rect class="cls-2" x="145.99" y="36.55" width="191.62" height="46.13" rx="8.52"/><rect class="cls-3" x="52.37" y="166.42" width="146.91" height="48.97" rx="8.52"/><rect class="cls-3" x="248.96" y="166.42" width="177.42" height="54.65" rx="8.52"/><rect class="cls-3" x="61.6" y="276.42" width="119.94" height="44.71" rx="8.52"/><rect class="cls-3" x="275.22" y="276.42" width="124.2" height="44.71" rx="8.52"/><rect class="cls-3" x="39.6" y="387.13" width="176.71" height="57.48" rx="8.52"/><rect class="cls-3" x="260.31" y="382.88" width="154.71" height="66" rx="8.52"/><text class="cls-4" transform="translate(85 198.24)"><tspan class="cls-5">c</tspan><tspan x="8.37" y="0">o</tspan><tspan class="cls-6" x="18.76" y="0">n</tspan><tspan class="cls-7" x="29.19" y="0">t</tspan><tspan x="35.34" y="0">e</tspan><tspan class="cls-6" x="44.82" y="0">n</tspan><tspan class="cls-8" x="55.25" y="0">t</tspan></text><text class="cls-4" transform="translate(304.64 198.24)"><tspan class="cls-7">c</tspan><tspan x="8.37" y="0">o</tspan><tspan class="cls-9" x="18.76" y="0">n</tspan><tspan class="cls-7" x="29.19" y="0">t</tspan><tspan x="35.34" y="0">e</tspan><tspan class="cls-9" x="44.82" y="0">n</tspan><tspan x="55.25" y="0">t</tspan></text><text class="cls-4" transform="translate(89.97 306.82)"><tspan class="cls-5">c</tspan><tspan x="8.37" y="0">o</tspan><tspan class="cls-6" x="18.76" y="0">n</tspan><tspan class="cls-7" x="29.19" y="0">t</tspan><tspan x="35.34" y="0">e</tspan><tspan class="cls-6" x="44.82" y="0">n</tspan><tspan class="cls-8" x="55.25" y="0">t</tspan></text><text class="cls-4" transform="translate(304.64 306.82)"><tspan class="cls-7">c</tspan><tspan x="8.37" y="0">o</tspan><tspan class="cls-9" x="18.76" y="0">n</tspan><tspan class="cls-7" x="29.19" y="0">t</tspan><tspan x="35.34" y="0">e</tspan><tspan class="cls-9" x="44.82" y="0">n</tspan><tspan x="55.25" y="0">t</tspan></text><text class="cls-10" transform="translate(85 422.88)"><tspan class="cls-11">c</tspan><tspan x="9.32" y="0">o</tspan><tspan class="cls-12" x="20.89" y="0">n</tspan><tspan class="cls-11" x="32.5" y="0">t</tspan><tspan x="39.35" y="0">e</tspan><tspan class="cls-12" x="49.91" y="0">n</tspan><tspan x="61.53" y="0">t</tspan></text><text class="cls-4" transform="translate(304.3 423.21)"><tspan class="cls-7">c</tspan><tspan x="8.37" y="0">o</tspan><tspan class="cls-9" x="18.76" y="0">n</tspan><tspan class="cls-7" x="29.19" y="0">t</tspan><tspan x="35.34" y="0">e</tspan><tspan class="cls-9" x="44.82" y="0">n</tspan><tspan x="55.25" y="0">t</tspan></text></svg>