<?xml version="1.0" encoding="utf-8"?>
<!-- Generator: Adobe Illustrator 23.0.2, SVG Export Plug-In . SVG Version: 6.00 Build 0)  -->
<svg version="1.1" id="Layer_1" xmlns="http://www.w3.org/2000/svg" xmlns:xlink="http://www.w3.org/1999/xlink" x="0px" y="0px"
	 viewBox="0 0 768 1024" style="enable-background:new 0 0 768 1024;" xml:space="preserve">
<style type="text/css">
	.st0{fill:#F2F2F2;stroke:#000000;stroke-width:6.3872;stroke-miterlimit:10;}
	.st1{fill:#595959;stroke:#000000;stroke-width:0.7097;stroke-miterlimit:10;}
	.st2{fill:#AAAAAA;stroke:#000000;stroke-width:0.7097;stroke-miterlimit:10;}
	.st3{font-family:'MyriadPro-Regular';}
	.st4{font-size:18.9273px;}
	.st5{font-size:21.0777px;}
</style>
<rect x="127.2" y="107.5" class="st0" width="482.8" height="590.5"/>
<path class="st1" d="M453.1,187H278.5c-4.7,0-8.5-3.8-8.5-8.5v-29.1c0-4.7,3.8-8.5,8.5-8.5h174.6c4.7,0,8.5,3.8,8.5,8.5v29.1
	C461.6,183.2,457.8,187,453.1,187z"/>
<path class="st2" d="M314.8,319.7H184.9c-4.7,0-8.5-3.8-8.5-8.5v-31.9c0-4.7,3.8-8.5,8.5-8.5h129.9c4.7,0,8.5,3.8,8.5,8.5v31.9
	C323.3,315.9,319.5,319.7,314.8,319.7z"/>
<path class="st2" d="M541.9,325.4H381.5c-4.7,0-8.5-3.8-8.5-8.5v-37.6c0-4.7,3.8-8.5,8.5-8.5h160.4c4.7,0,8.5,3.8,8.5,8.5v37.6
	C550.4,321.5,546.6,325.4,541.9,325.4z"/>
<path class="st2" d="M297,425.4H194.1c-4.7,0-8.5-3.8-8.5-8.5v-27.7c0-4.7,3.8-8.5,8.5-8.5H297c4.7,0,8.5,3.8,8.5,8.5v27.7
	C305.5,421.6,301.7,425.4,297,425.4z"/>
<path class="st2" d="M514.9,425.4H407.7c-4.7,0-8.5-3.8-8.5-8.5v-27.7c0-4.7,3.8-8.5,8.5-8.5h107.2c4.7,0,8.5,3.8,8.5,8.5v27.7
	C523.4,421.6,519.6,425.4,514.9,425.4z"/>
<path class="st2" d="M331.8,548.9H172.1c-4.7,0-8.5-3.8-8.5-8.5V500c0-4.7,3.8-8.5,8.5-8.5h159.7c4.7,0,8.5,3.8,8.5,8.5v40.5
	C340.3,545.1,336.5,548.9,331.8,548.9z"/>
<path class="st2" d="M530.5,553.2H392.8c-4.7,0-8.5-3.8-8.5-8.5v-49c0-4.7,3.8-8.5,8.5-8.5h137.7c4.7,0,8.5,3.8,8.5,8.5v49
	C539,549.4,535.2,553.2,530.5,553.2z"/>
<text transform="matrix(1 0 0 1 209.0098 302.5449)" class="st3 st4">content</text>
<text transform="matrix(1 0 0 1 428.6494 302.5449)" class="st3 st4">content</text>
<text transform="matrix(1 0 0 1 213.9775 411.127)" class="st3 st4">content</text>
<text transform="matrix(1 0 0 1 428.6494 411.127)" class="st3 st4">content</text>
<text transform="matrix(1 0 0 1 209.0098 527.1865)" class="st3 st5">content</text>
<text transform="matrix(1 0 0 1 428.3037 527.5146)" class="st3 st4">content</text>
</svg>
