<?xml version="1.0" encoding="utf-8"?>
<!-- Generator: Adobe Illustrator 23.0.1, SVG Export Plug-In . SVG Version: 6.00 Build 0)  -->
<svg version="1.1" id="outline" xmlns="http://www.w3.org/2000/svg" xmlns:xlink="http://www.w3.org/1999/xlink" x="0px" y="0px"
	 viewBox="0 0 510 523.5" style="enable-background:new 0 0 510 523.5;" xml:space="preserve">
<style type="text/css">
	.st0{fill:#F7B50C;stroke:#000000;stroke-miterlimit:10;}
	.st1{fill:#F7B50C;}
	.st2{fill:#E0CDAA;stroke:#000000;stroke-miterlimit:10;}
	.st3{fill:#EFEDC2;stroke:#000000;stroke-miterlimit:10;}
	.st4{fill:#F75800;stroke:#000000;stroke-miterlimit:10;}
	.st5{fill:none;stroke:#000000;stroke-width:2;stroke-miterlimit:10;}
	.st6{fill:#494948;stroke:#000000;stroke-width:0.25;stroke-linecap:round;stroke-miterlimit:10;}
	.st7{fill:#3F3F3F;}
	.st8{fill:#F7931E;stroke:#1A1818;stroke-linecap:round;stroke-miterlimit:10;}
	.st9{fill:#E5811F;stroke:#1A1818;stroke-width:0.5;stroke-linecap:round;stroke-miterlimit:10;}
	.st10{fill:#C17427;}
	.st11{fill:#FFA04A;}
	.st12{fill:#CC9F72;stroke:#000000;stroke-width:0.75;stroke-miterlimit:10;}
	.st13{fill:#CC9F72;stroke:#000000;stroke-width:0.51;stroke-miterlimit:10;}
	.st14{fill:#110909;}
	.st15{fill:#D1D1D1;}
	.st16{fill:#E0E0E0;}
	.st17{fill:none;stroke:#545353;stroke-width:5;stroke-miterlimit:10;}
	.st18{fill:none;stroke:#545353;stroke-width:5.21;stroke-miterlimit:10;}
	.st19{stroke:#000000;stroke-width:5.32;stroke-miterlimit:10;}
	.st20{fill:none;stroke:#000000;stroke-width:0.75;stroke-miterlimit:10;}
	.st21{fill:#ED6464;stroke:#000000;stroke-width:0.47;stroke-miterlimit:10;}
	.st22{fill:none;stroke:#000000;stroke-width:0.47;stroke-miterlimit:10;}
	.st23{fill:#3F3F3F;stroke:#000000;stroke-miterlimit:10;}
	.st24{fill:#050504;stroke:#000000;stroke-width:0.94;stroke-miterlimit:10;}
	.st25{fill:#DBDBD9;stroke:#FFFFFF;stroke-miterlimit:10;}
	.st26{fill:#D43E00;stroke:#D43E00;stroke-width:5;stroke-miterlimit:10;}
	.st27{fill:#DDB300;stroke:#D43E00;stroke-width:2.91;stroke-miterlimit:10;}
</style>
<title>charactersad</title>
<g id="shirt">
	<path class="st0" d="M225.8,252.5c-17,6.8-31.9,18.4-45.7,30.3l-11.5,9.9c-6.7,5.6-13,11.5-19,17.7c-1.2,1.3-5.3,9.2-5.8,11
		c-1.1,3.8,4.4,1.1,6.8,4.3c7.8,10.1,11.8,26.7,18.2,37.7c1.6,2.8,5.5,2.2,7,5c0.6,1.1,2.6,0.1,2.8,1.4s-0.6,2.9-0.9,4.1
		c-1.6,6.5,5.2,13.9,4.1,20.5c-2.2,13.7-8.1,31.1-8,45c0.2,19.1-1.4,36.7-6.2,47.9c-3,6.9,1.5,14.8,2,22.3c0.2,2.7,0.5,5.7,2.4,7.6
		c1.8,1.8,4.4,2.2,6.9,2.5c52.9,6.4,106.6,2.5,159-6.8c0.8,0,1.5-0.7,1.5-1.5c0-0.2,0-0.3-0.1-0.5c-1.1-20.3-2.3-40.5-3.4-60.8
		c-0.7-13.1,3.3-25.5,4.2-38.6c0.5-7.2,0.9-14.3,1-21.5c0-2.4,0.1-4.9,0.1-7.3c0-2.8-0.8-4.6,1.4-6.1c3.8-2.6,10.9-3.2,15.3-4
		c10.3-1.7,20.9-1.9,31.3-2c-9-27.7-8.5-58.6-22.5-84.2c-1.7-3.2-3.8-6.2-6.4-8.8c-2.4-2.2-5.2-4.1-8.1-5.7
		c-15.7-8.9-32.6-13.9-50.5-16.5"/>
	<path id="right_arm_sleeve" class="st0" d="M135.6,329.4c0.8-2.4,2.5-4.4,4.7-5.6c1.1-0.5,2.3-1,3.4-1.3c0.8-0.4,1.6-0.6,2.5-0.7
		c0.2,0.7,0.6,1.2,1.1,1.7c1.7,1.6,3.2,3.5,4.9,5.2c2,1.9,3.9,3.8,5.7,5.8c1.6,1.8,3,3.7,4.6,5.5c0.4,0.5,0.4,0.8,0.6,1.3
		c0.5,1,1.8,1.8,2.5,2.7c1.5,2,2.9,4.1,4.3,6.2c1.7,2.7,3.9,5.1,5.7,7.8c1.5,2.3,3,4.7,4.7,6.9c0.8,1.1,1.5,2.2,2.3,3.3
		c0.8,0.8,1.5,1.7,2,2.7c0.5,1.3-0.2,1.5-1.2,2.2c-0.9,0.8-1.7,1.7-2.5,2.6c-1.3,1.3-2.4,2.8-3.4,4.4c-0.3,0.6-0.6,1.1-1.1,1.5
		c-0.6,0.4-0.7,0.2-1-0.2c-1-1.3-2.4-2.2-3.5-3.5c-1.8-2.2-3.6-4.5-5.2-6.8c-1.3-1.8-2.3-3.8-3.5-5.6c-2-2.8-3.9-5.8-6-8.5
		c-2.5-3.1-5.1-6-7.9-8.7c-1.5-1.5-3-3-4.5-4.6c-0.9-0.9-1.7-2-2.5-3c-0.7-0.8-1.4-1.6-2.1-2.3c-1.1-1.1-2-2.5-3.1-3.7
		c-0.9-0.9-1.8-1.6-2-2.8c-0.1-0.5-0.2-1-0.3-1.5c-0.1-0.9-0.1-0.5,0.4-1c0.7-0.8,0.6-1.4,1.8-1.6"/>
	<path class="st1" d="M148.7,320.2c0,2.3-0.3,4.8,0.1,7l2.7-1.2c-0.7-1.5-2-3.6-3.5-4.4s-2.4,0.1-3.5,1.1l2.5,0.7l0.2-0.1l-2.1-0.5
		c0.8,1.1,2,1.6,3,2.5c1.2,1,2.3,2.2,3.2,3.4c0.9,1.1,1.5,2.3,1.8,3.7c0.1,0.9,0.2,1.8,1.2,2.2c1.8,0.8,3.3-1.8,1.5-2.6
		c0.7,0.3,0.2,0.4,0.2-0.3c0.1-0.6,0-1.3-0.3-1.9c-0.7-1.2-1.5-2.4-2.5-3.4c-0.8-1-1.8-2-2.8-2.9c-0.5-0.5-1-0.9-1.5-1.4
		c-0.4-0.3-1.2-0.5-1.5-0.8c-0.4-0.7-1.3-0.9-2.1-0.5c-1.3,0.6-2,2.1-1.6,3.5c0.2,0.8,1.1,1.3,1.9,1c0.2-0.1,0.4-0.2,0.6-0.4
		c1-0.9,0.4-0.5,0.9,0.5c0.4,0.8,1,1.4,1.4,2.2c0.8,1.6,3.1,0.4,2.8-1.2c-0.4-1.9,0-4.3,0-6.2c0-0.8-0.7-1.5-1.5-1.5
		S148.6,319.4,148.7,320.2L148.7,320.2z"/>
	<path class="st1" d="M153.3,327.2c0,0.3,0.1,0.7,0.1,1c0.1,0.4-0.1,0.6,0.1,0.2l0.9-0.7c-0.6,0.2-1.1-0.1-1.7-0.3
		c-0.3-0.1-1.5-0.7-1.2-0.2l0.1,1.2c-0.1,0.3,1.7,0,1.9,0c0-0.5,0.1-0.5,0-0.1l0.1,0.4c0,0.5,0.1,1,0.2,1.6c0.1,0.8,0,1.7,0.1,2.5
		s0.6,1.7,0.8,2.6c0.3,1.9,3.2,1.1,2.9-0.8c-0.1-0.6-0.3-1.3-0.5-1.9c-0.1-0.6-0.2-1.2-0.2-1.8c0-1.3-0.1-2.5-0.4-3.7
		c-0.8-2.3-4.5-2-6.3-1.2c-1.1,0.4-1.7,1.6-1.3,2.7c0,0,0,0.1,0,0.1c0.6,1.1,2,1.2,3,1.6s2.7,0.9,3.8,0s0.6-2,0.6-3.1
		C156.1,325.3,153.1,325.3,153.3,327.2L153.3,327.2z"/>
</g>
<g id="notebook">
	<path class="st2" d="M279.5,300.6h2.4c3.1,0,6.5,0.4,9.6-0.1c3.3-0.5,6.5-0.9,9.8-1c1.6-0.1,3.2-0.4,4.8-0.8
		c2.2-0.5,4.5-0.8,6.8-0.9c2.9-0.1,5.7-1,8.5-1c3.2,0,6.4,0,9.7,0h4.7c0.5,0.1,1,0.1,1.5,0c0.4-0.2,0.6-0.9,1.2-0.6
		c-0.7,1.6-2.5,3-3,4.8c-0.2,1,0.2,2.1,0,3c-0.1,0.4-0.3,0.8-0.3,1.2c0,0.6,0,1.1,0,1.7c0,0.5,0,1-0.2,1.5c-0.1,0.5,0,1-0.2,1.5
		c-0.2,0.5-0.3,0.6-0.4,1.2c0,0.5-0.1,1-0.3,1.5c-0.1,0.6-0.2,1.1-0.3,1.7c-0.1,0.6-0.3,1-0.4,1.5c-0.1,1-0.2,1.9-0.5,2.8
		c-0.2,0-0.3-0.1-0.3-0.3"/>
	<g id="nn">
		<path class="st3" d="M331.4,317.3c0-1,0-2.1,0-3.1c0-0.2-0.1-0.4-0.1-0.6c-0.1-0.3,0-0.7,0-1s-0.1-0.3-0.1-0.5
			c-0.3,0-0.6-0.2-0.9-0.2l-0.9-0.2c-0.3-0.1-0.7-0.1-1-0.2c-0.5-0.1-1.1-0.3-1.6-0.5c-0.2-0.1-0.5-0.2-0.7-0.3l-0.4-0.2
			c-0.2-0.1-0.4-0.1-0.6-0.1c-0.2,0-0.4-0.2-0.6-0.2c-0.3-0.1-0.6-0.1-0.9-0.2c-0.5-0.1-1.1-0.3-1.6-0.5c-0.5-0.2-0.8-0.3-1.2-0.4
			c-0.4-0.1-1-0.3-1.5-0.5c-0.2-0.1-0.4-0.2-0.6-0.3c-0.1,0-0.2,0-0.3,0c-0.2,0-0.4-0.1-0.6-0.2c-0.5-0.2-1-0.3-1.5-0.3
			c-0.6-0.1-1.2-0.3-1.8-0.5c-0.8-0.2-1.5-0.4-2.3-0.5c-0.6-0.1-1.1-0.3-1.7-0.4c-0.6-0.1-1.4-0.3-2-0.5c-1-0.2-2.1-0.2-3.1-0.4
			c-0.5-0.1-1-0.2-1.4-0.2c-0.1,0-0.2-0.1-0.3-0.1c-0.2,0-0.3,0-0.5,0c-0.5-0.1-1-0.2-1.5-0.2c-0.5,0-1-0.2-1.5-0.2
			c-0.2,0-0.3-0.1-0.5-0.1h-2.8c-0.2,0-0.3,0-0.5,0c-0.2,0-0.2-0.1-0.4-0.1h0.3"/>
	</g>
	<path class="st4" d="M266.3,342c0-1.2,0.3-2.1,0.3-3.4c-0.1-0.7-0.1-1.3,0-2c0-0.2,0.2-0.2,0.3-0.4c0.2-0.9,0.5-1.9,0.7-2.9
		c0.2-1.2,0.6-2.3,0.8-3.5s0.7-2.1,1-3.2c0.7-2.5,1.3-5,2.3-7.5c0.9-2.2,1.6-4.5,2.3-6.8c0.3-1.2,0.7-2.3,1.2-3.4
		c0.4-1.1,0.8-2.3,1.3-3.3c0.5-1.1,0.7-2.3,1.2-3.4s1.1-2,2.4-1.6c0.9,0.3,1.6,1.2,2.6,1.5c2.3,0.6,4.6,1,7,1.2
		c2,0.3,3.9,0.7,5.8,1.3c1.8,0.5,3.6,0.9,5.3,1.5c1,0.2,2.1,0.3,3.1,0.4c3.4,0.8,6.6,2,9.7,3.5c3,1.4,5.7,3.2,8.7,4.4
		c1.2,0.4,2.3,0.9,3.5,1.4c1.4,0.7,2.9,1.3,4.5,1.7c1.9,0.5,3.8,1.2,5.6,1.8c0.8,0.3,1.7,0.4,2.4,0.7c0.5,0.2,1,0.4,1.6,0.4
		c0.5,0.1,0.5-0.1,0.7,0.3c0.1,0.3,0,0.7-0.1,1c-0.2,0.3-0.3,0.5-0.5,0.7c-0.4,0.8-0.8,1.5-1.1,2.3c-1.6,4-2.8,8.2-4.4,12.2
		c-0.3,0.8-0.8,1.5-1,2.3c-0.3,1-0.4,2-0.8,3c-0.7,1.9-1.2,3.8-1.9,5.8s-1.4,3.5-2,5.4s-1.2,3.7-1.7,5.6c0-0.1,0-0.3,0-0.4
		c0,1.3-0.3,2.5-0.8,3.7c-1.1,2.7-2.2,5.5-3.1,8.2c-1,3-2,5.9-3,8.8c-0.9,2.7-2.3,5.1-2.9,7.8c-0.3,0.8-0.6,1.6-1,2.3
		c-0.2,0.7-0.4,1.4-0.5,2.1c-0.5,1.7-1.2,3.3-1.8,5c-0.3,0.8-0.3,1.8-0.7,2.6c-0.3,0.8-0.7,1.4-0.9,2.2c-0.6,1.9-1.3,3.7-2.2,5.5
		c-1,2-1.6,4.3-2.6,6.3c-0.2,0.5-0.4,1.1-0.5,1.7c-0.1,0.5-0.7,1-0.6,1.6c0-0.1-0.1-0.2-0.3-0.2c0,0,0,0,0,0c-0.3,1.1-0.6,2.2-1,3.3
		c-0.5,1.5-1.3,2.7-1.8,4.2c-0.8,2.3-1.7,4.5-2.7,6.7c-0.2,0.3-0.5,1.2-1,1.2s-0.7-0.4-1-0.5c-0.3-0.1-0.7-0.2-1-0.2
		c-2.9,0-5.7-0.4-8.5-1.2c-2.5-0.6-5-1-7.4-1.9c-1.1-0.5-2.3-0.9-3.4-1.3c-0.2,0-0.3,0-0.5-0.1c-1.4-0.2-2.8-0.3-4.3-0.6
		c-2.5-0.5-5.1-0.6-7.5-1.2c-1.6-0.4-3.1-0.9-4.7-1.2s-2.8-1-4.4-1.3c-1.3-0.2-2.5-0.6-3.7-1.2c-0.4-0.2-0.6-0.4-1-0.6
		c-0.6-0.3-1.2-0.2-1.8-0.6c-0.3-0.2-0.7-0.6-0.9-0.7c-0.3-0.4-0.9-0.6-1.3-0.9c-0.6-0.5-0.5-0.7-0.6-1.4c-0.1-0.4-0.2-0.9-0.3-1.3
		c-0.2-0.4-0.7-0.7-0.9-1.1c-0.5-0.8-0.2-1.7-0.6-2.4c-0.4-0.9-0.5-1.9-0.4-3c0-3.1,1.1-6,1.8-9c0-0.1,0.2-0.2,0.3-0.4
		c0-0.5,0-1,0-1.5c0.2-1,0.5-2,0.9-2.9c0.7-1.5,1.2-3.1,1.7-4.7c0.1-0.5,0-1.1,0.1-1.6c0.2-0.5,0.4-0.9,0.6-1.4
		c0.3-0.9,0.5-1.8,0.8-2.7s0.4-1.6,0.7-2.4c0.3-1.1,0.5-2.2,0.5-3.3c0.5-2.6,1.2-5.2,2.1-7.8c0.4-1.3,0.9-2.5,1.4-3.7
		c0.5-1.2,0.9-2.4,1.3-3.7c0.4-1.6,1-3.1,1.6-4.5c0.5-1.2,0.8-2.3,1.1-3.5c0.4-1.4,1-2.8,1.5-4.1c0.2-0.8,0.4-1.5,0.6-2.3
		c0.2-0.6,0.4-1.1,0.7-1.7c0.2-0.4,0.2-0.9,0.4-1.3c0.3-0.6,0.5-1.3,0.6-2c0.2-1,0.6-1.9,1-2.8c0.5-1,1.3-2.1,1.3-3.2"/>
	<path class="st5" d="M271.5,336c-0.1-1.2-0.1-2.4,0.2-3.6c0.2-0.3,0.4-0.7,0.5-1.1c0.1-0.3,0-0.6,0.1-0.9s0.3-0.4,0.4-0.6
		c0.2-0.5,0.2-1.1,0.4-1.6c0.2-0.5,0.5-0.9,0.7-1.3c0.3-0.5,0.6-1.1,0.8-1.7c0.3-0.8,0.7-1.5,1-2.2c0.1-0.5,0.4-1,0.8-1.4
		c0.3,0.3,0.3,0.9,0.6,1.2c0.3,0.3,1.2,0.4,1.7,0.6c0.5,0.2,1.2,0.4,1.8,0.6c1.4,0.5,2.9,1.6,4.4,1.8"/>
	<path class="st5" d="M273.5,328.4c0.5,0,1,0,1.5,0c0.7,0.2,1.4,0.5,2,0.9c0.9,0.5,1.4,1.2,2.3,1.6"/>
	<path class="st5" d="M286.2,327.1c-0.2,0.5-0.3,1-0.6,1.6c-0.5,1.2-1,2.4-1.5,3.6c-0.6,1.3-1.2,2.6-1.6,4c-0.2,0.7-0.8,1.6-0.7,2.3
		"/>
	<path class="st5" d="M286.2,339.3c0-2-0.1-4,0.8-5.9c0.3-0.6,0.6-1.2,0.9-1.8c0.1-0.4,0.3-0.8,0.4-1.2c0.3-0.7,0.6-1.3,1-1.9
		c0.2-0.2,0.5-0.6,0.8-0.5c0,0,0.2,0.5,0.2,0.5c0.2,0.2,0.4,0.3,0.7,0.4c1.6,0.7,3.4,0.8,5,1.4c0.5,0.2,1.4,0.3,1.5,0.9"/>
	<path class="st5" d="M287.5,333.5c1.1,0,2.3,0.1,3.4,0.5c0.8,0.2,1.6,0.7,2.2,1.3c0.2,0.2,0.5,0.4,0.8,0.5"/>
	<path class="st5" d="M285.5,339.1h1.3c1.4,0,2.1,0.6,3.2,1.3c0.7,0.4,1.4,0.7,2.1,1.1c0.4,0.2,0.6,0.6,1,0.7"/>
	<path class="st5" d="M303.5,332.2c0,0.7,0,1.4-0.1,2.1c-0.3,1.4-1,2.6-1.3,4c-0.3,1-0.2,2.1-0.5,3.1s-0.6,1.7-0.8,2.5
		c0,0.3-0.1,0.5-0.2,0.8c-0.1,0.2-0.3,0.2-0.3,0.4c-0.1,0.6,0.9,0.3,1.3,0.3c1.7,0,3.1,1,4.6,1.6c0.4,0.2,2,0.5,2,1"/>
	<path class="st5" d="M314.2,351.5c-0.1-0.8,0.7-2.1,1-2.9c0.2-0.6,0.3-1.2,0.4-1.9c0.2-1,0.5-1.9,0.9-2.8c0.9-2,1.4-4.1,1.6-6.2
		c0-0.6,0-1.1,0-1.7c0.4,0,0.6-0.3,1-0.1c0.6,0.5,1.1,1,1.6,1.5c1.1,1,2,2.2,2.5,3.6c0.2,0.5,0.5,0.9,0.7,1.5c0.1,0.3,0.2,0.7,0.3,1
		c0.2,0.7,0.3,1.4,0.2,2.2c0.1,0.5,0.1,0.9,0,1.4c-0.2,0.4-1,0.7-1.4,0.8c-2,0.6-3.1,2.3-4.8,3.2c-0.6,0.4-1.3,0.7-2,0.9
		c-0.4,0-0.9,0-1.3,0c-0.6-0.1-0.4-0.5-0.4-1"/>
	<path class="st5" d="M268.7,350.3c0.1-1.4,0.5-2.7,1.2-3.9c0.3-1.1,1.3-1.9,2.4-1.9c0.4-0.1,0.9-0.1,1.3,0c0.6,0.3,1.1,0.8,1.5,1.4
		c0.7,0.8,1,1.9,1,2.9c0,0.8,0,1.7,0,2.5c-0.1,0.9-1,1.4-1.6,2c-0.5,0.5-1.1,0.8-1.7,1.1c-0.4,0.2-0.7,0.2-1.1,0.4
		c-0.3,0.2-0.7,0.3-1.1,0.3c0.3,0,0.6,0,1,0c0.2-0.1,0.2-0.2,0.5-0.3c0.5-0.1,1.1-0.1,1.6,0.2c0.7,0.8,1.2,1.7,1.5,2.7
		c0.6,1.6,0.6,5.3-1.8,5.2"/>
	<path class="st5" d="M306.3,359.7c0,0.5,0,1.1,0,1.6c0.1,0.7,0,1.5-0.1,2.2c-0.3,1.3-0.8,2.5-1.1,3.8c-0.4,1.7-0.9,3.4-1.5,5.1
		c-0.1,0.5-0.4,1-0.9,1.2c-0.1-0.5-0.1-1,0-1.5c0.1-0.3,0.3-0.7,0.5-1c0.5-1.2,1.1-2.3,1.8-3.3c0.9-1.2,1.8-2.3,2.8-3.3
		c0.6-0.7,1.2-1.3,2-1.8c0.4-0.2,1.5-1,1.9-0.7c-0.2,0.3-0.5,0.5-0.8,0.8c-0.7,0.7-1.4,1.2-2.2,1.7c-0.5,0.4-1.1,0.7-1.6,1
		c-0.2,0.1-0.5,0.2-0.7,0.3c-0.2,0.2-1,0.8-0.9,1.1c0,0.1,0.7,0.4,0.9,0.5c0.4,0.2,0.7,0.5,0.9,0.9c0.7,1.4,1.2,2.8,1.5,4.4
		c0.1,0.6,0.2,1.2,0.4,1.8c0,0.1,0.2,0.1,0.3,0.2c0,0.1,0.1,0.3,0.1,0.4c0.1,0.2,0.3,0.6,0.2,0.9"/>
	<path class="st5" d="M278.5,359.9c-0.1-0.4-0.1-0.8,0-1.2c0.1-0.2,0.2-0.3,0.2-0.4c0.1-0.2,0.1-0.4,0.2-0.6
		c0.3-0.4,0.6-0.8,0.9-1.2c0.5-0.7,1.1-1.3,1.8-1.8c0.7-0.6,1.5-1.1,2.3-1.3c0.7-0.1,1.3-0.2,2-0.2c1,0.1,2,0.6,2.5,1.5
		c0.5,0.7,0.8,1.6,0.8,2.5c0.1,1.4,0.1,2.8-0.1,4.3c-0.1,0.8-0.3,1.7-0.8,2.4c-0.6,0.8-1.2,1.5-1.8,2.2c-0.7,0.7-1.4,1.3-2.2,1.8
		c-0.5,0.4-1.1,0.7-1.7,0.9c-0.5,0.2-1,0.3-1.5,0.2c-0.3-0.1-0.4-0.4-0.6-0.7c-0.3-0.4-0.5-0.8-0.7-1.3c0-0.2-0.1-0.3-0.2-0.5
		c-0.1-0.2-0.1-0.4-0.1-0.6c-0.1-0.4-0.2-0.8-0.4-1.2c-0.1-0.2-0.1-0.4-0.2-0.7c0-0.2-0.1-0.5-0.1-0.7c-0.1-0.5-0.1-0.9-0.2-1.3
		c-0.1-0.4-0.2-0.9-0.2-1.4v-1.4"/>
	<path class="st5" d="M290.8,364.4c0-0.4,0.1-0.9,0.4-1.2c0.2-0.4,0.5-0.7,0.7-1.1c0.2-0.2,0.5-0.5,0.7-0.7c0.7-0.9,1.6-1.6,2.6-2.1
		c1.3-0.6,3.4-1.3,4.2,0.3c0.2,0.4,0.4,0.8,0.5,1.3c0,0.3,0,0.5,0,0.8c0,0.6,0,1.2,0,1.9c-0.1,1.8-1.4,3.3-2.2,4.8s-2,3.2-3.9,3.9
		c-0.6,0.3-1.3,0.3-1.9,0.2c-0.2-0.1-0.5-0.3-0.7-0.5c-0.2-0.1-0.4-0.3-0.6-0.6c-0.3-0.4-0.4-0.9-0.4-1.4c0-0.2,0-0.4,0-0.6
		c-0.1-0.3-0.1-0.7-0.1-1v-1.5c0-0.5,0-0.9,0-1.4c0.1-0.4,0.2-0.7,0.4-1c0.2-0.2,0.5-1.1,0.8-1.1"/>
</g>
<g id="keys">
	<g id="fob">
		<path class="st6" d="M235,447.4c-1.5-2.5-3.4-4.7-5.6-6.6l0.3-0.5c-5.1,0.6-9.6,3.6-13.8,6.5L192.3,463c-1.1,0.6-2,1.5-2.7,2.6
			c-0.9,1.8,0,4,0.8,5.8c1.2,2.8,2.4,5.5,3.6,8.3c0.5,1.2,1.1,2.4,2.4,2.8c1.1,0.2,2.2,0,3.2-0.6c11.9-5.5,22.8-12.8,32.5-21.5
			c1.6-1.3,2.9-2.9,3.8-4.8C236.9,452.9,236.5,449.9,235,447.4z M230.2,446.6c-0.8,0.9-2.1,1.2-3.1,0.6c-0.9-0.6-1.4-1.7-1.2-2.8
			l-0.2,0.2l0.2-0.5c0,0.1,0,0.2-0.1,0.3c0.5-0.4,1-0.8,1.6-1c0.7-0.3,1.4-0.2,2.1,0.1C230.6,444.2,230.9,445.5,230.2,446.6
			C230.2,446.5,230.2,446.6,230.2,446.6L230.2,446.6z"/>
		<path class="st7" d="M195.4,481.7c3.3,1.9,7.7-1.3,10.6-2.9c3.8-2,7.4-4.2,11.1-6.3c4.1-2.4,7.7-5.8,11.4-8.7s8.4-6.8,9.1-11.9
			c0.3-1.9-2.6-2.7-2.9-0.8c-0.6,4.7-5.4,8-8.8,10.8c-3.6,2.9-7,6-11,8.3c-2.3,1.3-4.4,2.9-6.8,4.2c-2.1,1.1-8.9,6-11.2,4.8
			C195.2,478.2,193.7,480.8,195.4,481.7L195.4,481.7z"/>
	</g>
	<path id="right" class="st8" d="M240.5,434.1c-6.5,0-10.6,5.3-11.7,11.7c-1,5.7,5.2,11.7,11.7,11.7c6.5,0,11.7-5.3,11.7-11.7
		C252.2,439.3,246.9,434.1,240.5,434.1L240.5,434.1z M239.8,454.5c-3.3-0.5-6.9-4.9-7-8c-0.1-5,2.4-9.7,7.5-9.7
		c5.1,0,9.1,4.1,9.1,9.2l0,0c0,4.8-3.9,8.6-8.7,8.6C240.4,454.6,240.1,454.5,239.8,454.5z"/>
	<g id="key_2">
		<path class="st9" d="M255.1,472.2c-0.3-2.1-1.7-3.9-3.6-4.7c1.3-2.2,0.5-4.9-1.7-6.2c-0.5-0.3-1-0.4-1.5-0.5
			c0.2-1.5,0.1-3-0.3-4.5c-0.4-1.9-2.2-3.2-4.1-2.8c-1.3,0.3-2.4,1.2-2.8,2.6c-0.5,1.5-0.7,3.2-0.6,4.8l0.4,0
			c-1.9,2-2.8,4.7-2.3,7.4c-1.7,0.4-2.7,2.1-2.3,3.7c0,0.2,0.1,0.3,0.2,0.5c-1.3,0.2-2.3,1.1-2.6,2.3c-0.3,1.2,0.1,2.5,1.1,3.3
			c1.3,1,3.2,1,4.1,2.4c0.4,0.8,0.6,1.7,0.5,2.6l0.1,9.2c-0.9,0.5-1.3,1.7-0.8,2.6c0.3,0.5,0.7,0.8,1.2,1l0.4,1l-0.9,0.4
			c-0.2,1.4,0.3,2.8,1.2,3.8c1,1,2,1.8,3.2,2.5c0.7,0.6,1.6,0.8,2.5,0.8c1.5-0.4,1.7-2.3,1.6-3.9c-0.4-7.1-0.8-14.2-1.3-21.2
			c2.1,0.5,4.3,0,5.9-1.3C254.5,476.5,255.3,474.4,255.1,472.2z M245,464.4c-0.5,0.1-1,0.1-1.6,0c-0.5-0.1-0.8-0.6-0.7-1.1
			c-0.6-2.5,0.5-5,2.6-6.3c0.4,2.5,0.8,4.9,1.2,7.4C246.1,464.2,245.5,464.2,245,464.4L245,464.4z"/>
		<path class="st10" d="M245.5,479.4c0.3,4,0.5,8.1,0.8,12.2c0.1,2.7,1.6,9.5,0,11.8c-0.3,0.4,0.4,0.8,0.6,0.4
			c1.6-2.3,0.4-6.7,0.2-9.3c-0.3-5-0.6-10-0.9-15C246.3,478.9,245.5,478.9,245.5,479.4L245.5,479.4z"/>
		<path class="st10" d="M246.4,479.4c0-1.7,0.3-0.2,1.2-0.2c1.4,0.1,2.8-0.2,4.1-0.8c2.3-1.7,3.3-4.7,2.4-7.4
			c-0.3-0.9-0.8-1.6-1.5-2.1c-2.5-2.1-0.9-0.1-1.2-2c-0.2-1.2,0.6-2.5-0.1-3.7c-1-1.7-3.3-1.8-3.2-4.3c0-0.5-0.7-0.5-0.8,0
			c-0.1,1.8,0.3,1.9,0.9,3.2c1,2.2,3.4,3.6,1.7,5.9c-0.1,0.2,0,0.4,0.1,0.5c2.1,1.3,4.2,3.9,3.4,6.6c-0.6,2.1-4.8,5.3-6.5,2.9
			c-0.1-0.1-0.3-0.2-0.4-0.2c-0.9,0.3-0.9,1-0.9,1.8c0,0.2,0.2,0.3,0.4,0.3C246.3,479.7,246.4,479.6,246.4,479.4L246.4,479.4z"/>
		<path class="st10" d="M246.5,477.7c-2.7,0.9-0.7,6.4-0.6,8.5c0.2,2.6,0.5,5.3,0.6,7.9c0,0.9,0,1.8,0,2.7c0,0.5,0.2,7.5-0.9,6.3
			c-0.3-0.3-0.9,0.2-0.5,0.5l0.5,0.5c0.1,0.1,0.2,0.1,0.4,0.1c2.9-1,1.4-6.6,1.3-8.9c-0.1-1.5-2-16.4-0.6-16.9
			C247.2,478.3,247,477.5,246.5,477.7L246.5,477.7z"/>
	</g>
	<g id="key_1">
		<path id="key_1-2" class="st8" d="M240.1,472.5c-0.3-0.3-0.5-0.7-0.6-1.2c0-0.5,0.2-0.9,0.4-1.3c0.7-1.8,0.1-3.8-1.5-4.8
			c0.6-1.5,1.1-3.1,1.4-4.7c0.3-1.4,0.4-3-0.6-4.1c-0.7-0.7-1.7-1.1-2.7-1.3c-0.9-0.3-1.7-0.4-2.6-0.4c-1.4,0.2-2.6,1.1-3.4,2.3
			c-1,1.6-1.7,5.6-3.6,6.5c-0.8,0.3-1.6-0.4-2.4-0.3c-1.4,0.1-2,2.2-3.3,2.3c-0.6-0.1-1.2-0.2-1.8-0.5c-1.5-0.3-3,0.6-3.4,2.1
			c0,0.1-0.1,0.3-0.1,0.4c0,1.5,1.2,3.2,0.3,4.4c-0.2,0.3-0.4,0.5-0.6,0.8c-0.4,0.9,0.5,1.7,1.3,2.3s1.7,1.4,1.4,2.3
			c-0.2,0.5-0.7,0.8-1.1,1.1c-1.1,1-1.1,2.7,0,3.8c0.1,0.1,0.1,0.1,0.2,0.2c0.2,0.2,0.4,0.3,0.5,0.5c0,0.2,0,0.5-0.1,0.7
			c-2.1,4.8-4.2,9.5-6.5,14.1c-0.6,1.1-1.1,2.4-1.4,3.6c-0.5,2.8,0.8,5.6,2.1,8.1c0.4,0.8,1.2,1.8,2.1,1.4c0.3-0.2,0.6-0.6,0.7-0.9
			l10-21.7c0.7-1.6,1.6-3.3,3.2-4c0.6-0.2,1.2-0.4,1.8-0.7c0.4-0.3,0.7-0.8,1.2-1.1c1-0.6,2.4,0.2,3.4-0.4c0.9-0.5,1.1-1.8,2-2
			c0.4-0.1,0.8,0,1.1-0.1c0.7-0.2,1.1-0.9,1.5-1.5C240.2,476.6,241.2,474.3,240.1,472.5z M236.5,463.4c0,0.1-0.1,0.3-0.2,0.3
			c-0.1,0-0.3,0-0.4,0c-1.1-0.2-3.3-0.1-4.2-0.7c-1.2-0.8-0.2-1.9,0.3-2.9c0.4-0.8,1-1.6,1.7-2.1c0.6-0.3,1.2-0.5,1.9-0.6
			c0.2-0.1,0.5-0.1,0.7,0c0.6,0.1,0.9,0.8,1,1.4C237.4,460.4,237.1,462,236.5,463.4z"/>
		<path class="st10" d="M213,509.9l0.3,0.4c0.2,0.2,0.6,0.3,0.7-0.1c0.5-2.2,2.1-4.3,3-6.4c1.3-3,2.9-5.9,4.1-9
			c2.1-4.9,3.3-9.1,8.2-11.6c2.6-1.3,5-1.7,7.1-4c0.3-0.4-0.2-0.9-0.5-0.5c-2.2,2.5-6.4,2.9-9.2,4.9s-4.1,5.7-5.4,8.8
			c-1.4,3.3-2.9,6.4-4.4,9.7c-0.5,1.2-3.7,6.8-3.2,7.4C213.4,509.1,212.7,509.4,213,509.9L213,509.9z"/>
		<path class="st10" d="M233.1,481.7c1.5,0,1.6-1.1,2.8-1.9c0.7-0.5,1.8-0.4,2.4-0.9c2.9-2.2,1.1-5.7,0.9-8.1
			c-0.2-1.7,0.2-2.8-0.2-4.4c-0.8-2.7-0.7-2.1-0.2-5.3c0.2-1.4-0.1-5.6-0.3-1.2c-0.1,1.8-1,3.2-1.5,4.9c-0.1,0.2,0.1,0.4,0.3,0.5
			c0.2,0.1,0.4-0.1,0.5-0.3c0.4-1.2,1.3-2.2,1.5-3.5c0.3-1.5-0.1-3-0.1-4.5c0-0.2-0.2-0.3-0.4-0.3c-0.2,0-0.3,0.2-0.3,0.3
			c0,2.6-1.2,5.2-1.2,7.8c0,0.3,0.1,0.7,0.2,1c0.2,2,1,3.2,0.9,5.2c-0.1,2.2,1.5,5.2-0.5,7.1c-0.2,0.2-4.8,2.8-4.6,2.8
			c-0.2,0-0.3,0.2-0.3,0.4C232.9,481.6,233,481.7,233.1,481.7L233.1,481.7z"/>
	</g>
	<path class="st11" d="M239.1,434.7c-2.4,0-4.7,1.9-6.2,3.6c-1,1.1-2.9,3-2.2,4.8v-1.2c-0.1,0.3-0.2,0.7-0.4,1v1.2
		c0.1-0.4,0.3-0.8,0.4-1.2v-1.2c-0.3,1-0.6,1.9-1,2.8c-0.1,0.4,0.2,0.9,0,1.2c0.3-0.5,0.5-1,0.6-1.5c0.1-0.4-0.1-0.9,0-1.2
		c-0.5,1.4-0.7,2.8-0.6,4.3l0,0c0.1-0.8,0.2-1.7,0.5-2.5c0.1-0.3-0.2-0.9,0-1.2c-0.2,0.4-0.4,0.8-0.6,1.3c-0.1,0.3,0,1.2,0,0.7
		c0-0.2-0.1-1.1,0-1.2c-0.5,0.5-0.3,1.7-0.3,2.3c0,1.1,0,1.5,0.4-0.1c0.1-0.4-0.1-0.9,0-1.2c-0.1,0.5-0.2,1.1-0.1,1.6V446v-0.4
		c0-0.2,0-0.3,0-0.5l-0.1,0c0-0.1,0-0.2,0-0.3c-0.1,0.7-0.1,1.4-0.1,2.1c0,0.3,0,0.5,0.1,0.8c0.3,0.9,0.1-0.2,0.1-0.2
		c0,0.2,0.1,0.4,0.1,0.6c0-0.2,0-0.4,0-0.6v-0.8c0-0.2,0-0.4,0-0.6c-0.4,1.3,0.1,1.1-0.4,0.1c-0.3-0.6-0.1-0.1-0.1,0.3
		c-0.1,0.7,0,1.4,0.3,2c-0.2-0.3,0.2-0.9,0-1.2c-0.2-0.3-0.3-0.7-0.3-1.1v1.2c0.3-1,0,0.7,0.3,0.9s0.1-0.7,0.2-1V447
		c-0.1-0.2-0.1-0.4-0.1-0.6c0-0.1,0-0.2,0-0.3c-0.2,1.1-0.2,0.8-0.3-0.2v1.2c0-0.8,0-0.8,0.1,0l0,0c0.2-1.3,0-0.2,0.1,0.2
		c0-0.3,0-0.5,0-0.8v0.3l0.1-0.3v-1.2c0,0.1-0.2,1.5-0.4,1v0.8c0-0.5,0.1-1.1,0.3-1.6v-1.2c0,0.9-0.1,1.7-0.1,2.6c0,0.2,0,0.5,0,0.6
		c0-0.9,0.2-1.9,0.6-2.7v-1.2c-0.3,0.7-0.5,1.5-0.5,2.3v0.9c0-0.9,0.3-1.8,0.6-2.5v-1.2c-0.2,0.5-0.4,1.1-0.6,1.5v1.2
		c0.4-0.9,0.7-1.8,1-2.8c0.1-0.4-0.1-0.8,0-1.2c-0.1,0.4-0.2,0.8-0.4,1.2s0.1,0.9,0,1.2c0.4-0.7,0.5-1.5,0.3-2.3v1.2
		c1.6-3.1,4.5-7,8.5-7L239.1,434.7L239.1,434.7z"/>
</g>
<g id="head">
	<path id="neck" class="st12" d="M235.1,226.8c2.8,9.7-1.3,20.2-10,25.3c22.8,14.1,52.9,15.4,76.8,3.2c-7.7-6.1-13.5-14.2-16.8-23.5
		L235.1,226.8z"/>
	<ellipse id="face" class="st13" cx="266.8" cy="154.5" rx="73" ry="81"/>
	<path id="hair" class="st14" d="M309.3,192c-4.6,2.4-5.5,5.9-5.2,11.1c0.3,5.2,2.6,10,5,14.6c8.3,15.4,19,29.4,31.6,41.4
		c18.5-61.7,37.1-125.4,31-189.5c-2-20.8-7.5-43.1-23.6-56.4c-16.6-13.7-40.2-14.6-61.6-12c-4.5,0.6-9.2,1.3-13.1,3.7
		s-6.9,7.4-6.2,12c2.5-4.3-0.5-10.2-4.9-12.4s-9.8-1.7-14.7-0.7c-22.2,4.6-42.8,17.5-54.9,36.6c-20.7,32.8-28.5,72.7-26.5,111.5
		s13.1,76.6,27.9,112.5c10-15.9,16.1-33.9,17.9-52.7c0.9-10.1,5-21,3.3-30.9c-1.3-7.7-4.6-15-5.4-22.7s1.6-16.7,8.6-20.2
		c-0.4-3-0.8-6.2,0-9.2s3.1-5.8,6.2-6.1c2.9-0.3,5.5,1.5,8.1,2.7c7,3,15.2,1.7,20.9-3.4c4.5,7.3,14.1,9.6,21.4,5.1
		c2.6-1.6,4.7-4,6-6.9c2,7.2,9.5,11.4,16.7,9.4c3.2-0.9,5.9-2.9,7.7-5.7c2.8,6.8,9.9,10.8,17.2,9.5c1.9,10.5,3.9,21.3,2.6,31.9
		c-1.3,10.6-5.8,19.8-15.2,25.8L309.3,192z"/>
	<g id="glasses">
		<path class="st15" d="M323.5,148.4c2.9,6.3,3.8,13.3,2.5,20.1c-1.3,6.8-5.3,12.8-11.2,16.6c-5.8,3.6-13.6,4.2-19.6,1
			c-4-2-5.4-3.6-9.1-9.2c-3.6-7.5-3.7-16.2-0.2-23.8c3.5-7.5,12.9-5.6,18.8-15c2-3.1,7.5-0.8,10.8,0.8
			C319.3,140.8,321.8,144.5,323.5,148.4z"/>
		<path class="st16" d="M252.4,162.8c-0.9,5.1-3.5,9.9-7.3,13.5c-5.7,5.3-14.7,7.2-21.7,3.8c-3.1-1.5-5.7-3.8-7.7-6.6
			c-3.8-5.1-5.6-11.4-5.2-17.8c0.4-6.3,3.9-12.7,8.3-17.1c0.7-0.8,0,0,1.3-0.6s2.5-4,3.7-4.4c6-2,7.7,2.4,11.5,2.8
			c3.9,0.3,7.5,1.7,10.6,4c4.4,3.5,6.5,9.2,6.9,14.7C253.1,157.6,252.9,160.2,252.4,162.8z"/>
		<path class="st17" d="M218.8,138.5c0.7-0.8,0,0,1.3-0.6s2.5-4,3.7-4.4c6-2,7.7,2.4,11.5,2.8c3.9,0.3,7.5,1.7,10.6,4
			c4.4,3.5,6.5,9.2,6.9,14.7c0.2,2.6,0,5.2-0.5,7.8c-0.9,5.1-3.5,9.9-7.3,13.5c-5.7,5.3-14.7,7.2-21.7,3.8c-3.1-1.5-5.7-3.8-7.7-6.6
			c-3.8-5.1-5.6-11.4-5.2-17.8C210.9,149.4,214.4,143,218.8,138.5"/>
		<path class="st18" d="M252.3,162.8l0.1-0.1c9.4-4.8,20.6-4.9,30-0.1"/>
		<path class="st18" d="M286.1,176.9l-0.3-0.4"/>
		<path class="st18" d="M286.1,176.9c-3.6-7.5-3.7-16.2-0.2-23.8c3.5-7.5,12.9-5.6,18.8-15c2-3.1,7.5-0.8,10.8,0.8
			c3.8,1.9,6.3,5.6,8,9.5c2.9,6.3,3.8,13.3,2.5,20.1c-1.3,6.8-5.3,12.8-11.2,16.6c-5.8,3.6-13.6,4.2-19.6,1
			C291.3,184.1,289.9,182.6,286.1,176.9z"/>
		<path class="st18" d="M286.2,177.2l-0.1-0.2"/>
	</g>
	<g id="pupils">
		
			<ellipse transform="matrix(0.1797 -0.9837 0.9837 0.1797 85.2759 437.4289)" class="st19" cx="304.9" cy="167.6" rx="10.9" ry="9.1"/>
		<ellipse class="st19" cx="231.8" cy="163" rx="10" ry="10.5"/>
	</g>
	<g id="nose">
		<path class="st20" d="M275.7,188.6c-0.7,1.1-1.5,2-2.5,2.8c-1,0.8-2.4,1-3.6,0.5c-1.1-0.5-1.8-1.8-2.9-2.2c-2.5-1.1-5,2.2-7.8,2.1
			c-2.2-0.1-3.6-2.5-3.6-4.7s1.1-4.1,2.2-6l4.9-8.6"/>
	</g>
	<g id="bottom_sad_lip">
		<path class="st21" d="M250.7,210.2c0-0.3,0-0.7,0.2-1c0.1-0.2,0.1-0.3,0.2-0.5s0.2-0.3,0.3-0.5c0.1-0.3,0.2-0.6,0.3-0.9
			c0.2-0.3,0.3-0.5,0.5-0.8c0.1-0.2,0.2-0.4,0.4-0.7c0.3-0.4,0.7-0.8,1.2-1.2c1.4-1.3,3.4-1.2,5.3-1.2c0.8,0,1.6,0,2.4,0.2
			c0.4,0.1,0.7,0.3,1.1,0.5c0.5,0.2,1,0.5,1.4,0.8c0.7,0.5,1.3,1.1,1.8,1.8c0.1,0.2,0.2,0.3,0.3,0.5s0.4,0.3,0.5,0.5
			c0.1,0.4,0.1,0.8,0,1.1c-0.1-0.6,0.4-1.2,0.7-1.6c0.3-0.5,0.8-0.9,1.2-1.3c0.4-0.4,0.9-0.7,1.5-0.9c0.2,0,0.4,0,0.6,0
			c0.1,0,0.3-0.1,0.4-0.1c0.4-0.1,0.9-0.1,1.4,0c0.8-0.1,1.6,0,2.3,0.2c1,0.3,1.9,0.8,2.7,1.3c1.5,1.3,2.5,3.1,3,5
			c0.3,1,0.6,2,0.7,3c0.1,0.5,0.1,1.1,0,1.6c-0.1,0.2-0.2,0.3-0.3,0.4c-0.1,0.3-0.3,0.6-0.5,0.9c-0.3,0.3-0.7,0.6-1.1,0.8
			c-0.8,0.4-1.7,0.6-2.4,0.9c-0.2,0.1-0.4,0.1-0.6,0.1c-0.1,0-0.3,0.1-0.5,0.2c-0.2,0-0.4,0.1-0.6,0.2c-0.2,0.1-0.4,0.1-0.6,0.2
			c-0.4,0.1-0.8,0.3-1.2,0.5c-0.3,0.1-0.7,0.2-1,0.2c-0.2,0.1-0.4,0-0.6,0.1c-0.2,0.1-0.4,0.2-0.6,0.2c-0.4,0.1-0.8,0.2-1.2,0.3
			c-0.4,0.1-0.6,0-0.9,0.1c-0.3,0.1-0.4,0-0.6,0.1c-0.5,0.1-1,0.1-1.5,0.1c-0.8,0-1.6,0-2.4-0.1c-0.7-0.1-1.5,0-2.2-0.1
			c-0.3,0-0.5-0.1-0.8-0.1c-0.3,0-0.7,0-1,0s-0.6-0.1-1-0.1c-0.3,0-0.7,0-1-0.1c-0.8-0.1-1.5-0.2-2.2-0.4c-0.8-0.2-1.7-0.4-2.5-0.7
			c-0.5-0.2-0.9-0.5-1.2-0.8c-0.6-0.5-1.1-1.2-1.4-2c-0.1-0.3-0.1-0.5,0-0.8c0.1-0.6-0.4-1.1-0.5-1.7c0-0.3-0.1-0.5-0.2-0.8
			s0-0.3-0.1-0.4c0-0.1-0.1-0.3-0.1-0.4c-0.1-0.6-0.1-1.3,0-1.9c0-0.1,0.1-0.2,0.1-0.4s0-0.4,0-0.5c0.1-0.2,0.2-0.5,0.4-0.7"/>
		<path class="st22" d="M250.9,215.6c0-0.2,0.6-0.6,0.7-0.7c1.1-0.9,2.4-1.6,3.8-1.9c0.4-0.2,0.9-0.2,1.3-0.3
			c0.6-0.1,1.1-0.2,1.7-0.3c0.6,0,1.2-0.2,1.8-0.2c0.3,0,0.7,0,1,0c0.4,0,0.8,0,1.2,0c0.5-0.1,1-0.1,1.5-0.1c0.3,0,0.3,0.1,0.6,0
			c0.4-0.1,0.8-0.2,1.2-0.2c0.4,0,0.7-0.1,1.1-0.1h1c0.8,0,1.6,0,2.4,0.1c0.6,0.1,1.1,0.3,1.6,0.4c0.8,0.2,1.5,0.4,2.2,0.7
			c0.5,0.2,0.9,0.4,1.4,0.7c0.5,0.3,1,0.5,1.5,0.8l0.8,0.5c0.1,0.1,0.1,0.1,0.2,0.2c0.1,0.1,0.2,0.2,0.4,0.2c0.4,0.3,0.8,0.6,1,1
			c0.2,0.2,0.4,0.4,0.5,0.6c0.1,0.1,0.2,0.2,0.3,0.2c0.1,0.1,0.2,0.3,0.3,0.4"/>
	</g>
</g>
<g id="laptop">
	<path id="body" class="st23" d="M157.5,330.5c-0.1-3.2,1.2-6.3,3.6-8.6c2.3-2.2,4.9-4,7.8-5.5l68.1-39c2.9,7.2,6.2,14.3,9.9,21.2
		c16.6,30.5,23.6,63.7,38.2,94.5c-3.4,7.1-10.8,11.3-17.8,15l-51.8,26.9c-2.6,1.3-5.5,2.7-8.2,1.8s-4.3-3.7-5.5-6.2l-32.4-64.1
		c-5.9-11.7-12-24-11.9-37.1"/>
	<circle class="st24" cx="220.3" cy="356" r="10.5"/>
	<path class="st25" d="M213.3,353.4c0.5-0.2,1.1,0.8,1.3,1.1c0.4,0.8,0.8,1.7,1.2,2.5c0.3,0.9,0.8,1.8,1.2,2.7
		c0.1,0.3,0.2,0.6,0.2,0.8c0,0.2,0.2,0.4,0.3,0.6s0,0.4,0,0.5s0.2,0.3,0.1,0.5"/>
	<path class="st25" d="M216.7,351c0.1,0.2,0.3,0.3,0.5,0.5s0.5,0.5,0.7,0.7c0.7,0.6,1.3,1.4,1.8,2.2c0.7,1.1,1.3,2.3,1.7,3.5
		c0.2,0.6,0.4,1.2,0.5,1.7c0.1,0.3,0.3,0.5,0.3,0.8"/>
	<path class="st25" d="M221.8,349.9c0.5,0,1,0.2,1.3,0.5c0.8,0.8,1.5,1.7,2.1,2.6c0.6,0.9,1.1,1.9,1.4,3c0.1,0.4,0.2,0.8,0.4,1.2
		c0.1,0.2,0.2,0.4,0.2,0.6"/>
</g>
<g id="arms">
	<path id="left_arm" class="st12" d="M377.7,417.2c-2.4,6.7-4.8,13.4-8.3,19.6c-2.2,4-5,7.8-8.9,10.3c-6.7,4.4-15.3,3.9-23.3,3.8
		c-7.5-0.1-15,0.2-22.5,0.8c-5.2,0.3-10.3,1.3-15.2,2.8c-5.3,1.8-10.2,4.8-15.2,7.3c-5,2.5-10.4,4.7-16,4.7s-11.6-2.5-14.3-7.4
		l13-0.7c-5,0.9-10.1,1-15.1,0.4c-2.4-0.1-4.7-0.9-6.6-2.2c-1.9-1.4-3-4.1-2.1-6.2c0.3-0.6,0.7-1.2,1.4-1.5c1.1-0.3,2.2-0.2,3.2,0.3
		c5.7,1.9,11.9,1.9,17.6,0c-4.9,1-10,2.1-14.9,0.8s-9.3-5.6-9-10.6c7,2.2,14.4,2.9,21.6,2c-7.4-0.3-14.8-1.4-22-3.3
		c-0.3-1.3,0.4-2.7,1.7-3.1c1.3-0.6,2.7-0.9,4-0.8c7,0.8,13.8,1.3,20.7,0.3c-2.8-4.7-9.4-4.7-14.3-7c-0.5-0.2-0.9-0.5-1.2-1
		c-0.6-1.4,1.4-2.3,2.9-2.4c6.6-0.2,13.1,0.8,19.3,3.2c1.4,0.6,2.9,1.1,4.3,1.4c3,0.5,5.9-0.5,8.7-1.5c14.9-5.4,29.5-12.9,45.4-13.7
		c2.9-0.1,6.3-0.4,7.6-3c0.4-1,0.6-2,0.6-3.1l1.8-36.6c-0.1-0.8,0.2-1.7,0.7-2.4c0.5-0.4,1.1-0.8,1.8-0.9c10.5-3,21.4-4.8,32.3-5.6
		c1.8-0.3,3.7-0.1,5.4,0.5c3.2,1.3,3.6,4.2,3.8,7.2c0.4,3.4,0.6,6.9,0.5,10.3c-0.5,8.1-2.1,16-4.7,23.7
		C380.9,408.4,379.3,412.8,377.7,417.2z"/>
	<path id="right_arm" class="st12" d="M174.8,377.5c-3.5,1.8-8,7.3-9.6,10.9c-3.8,8.1-11.1,13.9-19.9,15.7c6.7-5,15.6-5.6,24-6.3
		s17.4-2.1,23.2-8.2c1.8-1.9,3.3-4.3,5.5-5.8s5.7-1.7,7.2,0.5l-8.6,11.2l17.2-16c2-1.8,5.2-3.6,7-1.6c1.6,1.9-0.2,4.7-2,6.4
		l-12.6,12.5c4.9-5.9,11-10.8,17.9-14.2c2.7-1.4,6.8-2.1,8.1,0.6c1.1,2.3-0.9,4.8-2.7,6.6l-12.6,12.2l15.2-13.9
		c1.2-1.2,2.6-2.2,4.2-2.9c1.6-0.7,3.4-0.4,4.8,0.7c2,2,0.9,5.4-0.6,7.7c-4.1,6.1-10.3,10.6-17.4,12.5c2.1,0.7,4.5-0.4,6.2-1.8
		s3.2-3.2,5.2-4.2s4.8-1,6.1,0.9c1.8,2.6-0.6,6-3,8c-5.6,4.9-11.8,9.1-18.4,12.6l0.6-1.8c-1.7,4.2-7.3,4.9-11.8,5.2
		c-11.5,0.7-22.9,2.8-33.9,6.2c-8.1,2.5-16.1,5.7-24.6,6.4s-17.7-1.7-22.9-8.5c-3.1-4.1-4.3-9.2-5.1-14.3
		c-5.5-33.2-0.8-62.3,20.3-88.4c6.9-9.8,25.6,57.6,32,51"/>
</g>
<g id="fire">
	<path class="st26" d="M21.3,285.2c-2.8-0.2-5.3-3.5-6.6-5.7c-2.2-3.7-3.7-7.7-4.2-12c-0.6-5.2-1.7-10.2-0.6-15.4
		c0.3-1.6,1.4-6.2,3-6.6c0.1,1.1,1,1.6,1.2,2.6c0.1,1.2,0.1,2.4,0,3.7c0,1.7-0.6,5.8,1.6,6.2c0.1-1.6,1.4-2.8,1.8-4.4
		c0.5-2.1,0.3-4,1-6c1.5-4.2,3.4-8.2,5.4-12.1c1.4-2.8,2.6-5.7,3.7-8.7c0.4-1.2,0.9-3.9,2.5-3.9c1.3,3.7-0.1,9.1,0.1,13
		c0.1,1.9,1.8,12.9,4.4,13.1c0.5-1.9,1.2-3.7,2.2-5.3c0.8-1.6,2.9-5.8,5.1-5.4c1.1,4.4-1.1,9.8,0.3,14.1c1.1-1.2,2.6-3.9,4.3-4.3
		c3-0.6,1.8,4.9,1.8,6.8c0,4.4,0.1,8.5-0.9,12.7c-0.3,1.2-0.5,2.9-0.9,4.1c-0.6,1.2-1.3,2.3-2.1,3.3c-0.7,1.3-1.7,2.2-2.5,3.4
		s-0.9,2.4-2.7,3c-1.3,0.4-2.7,0-4,0.3c-0.6,0.1-0.7,0.7-1.4,0.9c-0.7,0.2-1.3-0.2-1.9-0.1c-2,0.5-3.9,2.1-5.9,2.7
		c-1.6,0.4-7.5,0.9-6.7-1.7"/>
	<path class="st26" d="M107.3,171.2c-2.8-0.2-5.3-3.5-6.6-5.6c-2.2-3.7-3.7-7.7-4.2-12c-0.6-5.2-1.7-10.2-0.6-15.4
		c0.3-1.6,1.4-6.2,2.9-6.6c0.1,1.1,1,1.6,1.2,2.6c0.1,1.2,0.1,2.4,0,3.7c0,1.7-0.6,5.8,1.6,6.2c0.1-1.6,1.4-2.9,1.8-4.4
		c0.5-2.1,0.3-4,1-6c1.5-4.2,3.4-8.2,5.4-12.1c1.4-2.8,2.6-5.7,3.7-8.7c0.4-1.2,0.9-3.9,2.5-3.9c1.3,3.7-0.1,9.1,0.1,13
		c0.1,1.9,1.8,12.9,4.4,13.1c0.5-1.9,1.2-3.7,2.2-5.3c0.8-1.6,2.9-5.8,5.1-5.4c1.1,4.4-1.1,9.8,0.3,14.1c1.1-1.2,2.6-3.9,4.3-4.3
		c3-0.6,1.8,4.9,1.8,6.8c0,4.4,0.1,8.5-0.9,12.7c-0.3,1.2-0.5,2.9-0.9,4.1c-0.6,1.2-1.3,2.3-2.1,3.4c-0.7,1.3-1.7,2.2-2.5,3.4
		c-0.8,1.2-0.9,2.4-2.7,3c-1.3,0.4-2.7,0-4,0.3c-0.6,0.1-0.7,0.7-1.4,0.9s-1.3-0.2-1.9-0.1c-2,0.5-3.9,2.1-5.9,2.7
		c-1.6,0.4-7.5,0.9-6.7-1.7"/>
	<path class="st26" d="M474.3,285.2c-2.8-0.2-5.3-3.5-6.5-5.7c-2.2-3.7-3.7-7.7-4.2-12c-0.6-5.2-1.7-10.2-0.6-15.4
		c0.3-1.6,1.4-6.2,3-6.6c0.1,1.1,1,1.6,1.2,2.6c0.1,1.2,0.1,2.4,0,3.7c0,1.7-0.6,5.8,1.6,6.2c0.1-1.6,1.4-2.8,1.8-4.4
		c0.5-2.1,0.3-4,1-6c1.5-4.2,3.4-8.2,5.5-12.1c1.4-2.8,2.6-5.7,3.7-8.7c0.5-1.2,0.9-3.9,2.5-3.9c1.3,3.7-0.1,9.1,0.1,13
		c0.1,1.9,1.8,12.9,4.4,13.1c0.5-1.9,1.2-3.7,2.2-5.3c0.8-1.6,2.9-5.8,5.1-5.4c1.1,4.4-1.1,9.8,0.3,14.1c1.1-1.2,2.6-3.9,4.3-4.3
		c3-0.6,1.8,4.9,1.8,6.8c0,4.4,0,8.5-0.9,12.7c-0.3,1.2-0.5,2.9-0.9,4.1c-0.6,1.2-1.3,2.3-2.1,3.3c-0.7,1.3-1.7,2.2-2.5,3.4
		s-0.9,2.4-2.7,3c-1.3,0.4-2.7,0-4,0.3c-0.6,0.1-0.7,0.7-1.4,0.9s-1.3-0.2-1.9-0.1c-2,0.5-3.9,2.1-5.9,2.7c-1.6,0.4-7.5,0.9-6.7-1.7
		"/>
	<path class="st26" d="M465.3,422.2c-2.8-0.2-5.3-3.5-6.5-5.7c-2.2-3.7-3.7-7.7-4.2-12c-0.6-5.2-1.7-10.2-0.6-15.4
		c0.3-1.6,1.4-6.2,3-6.6c0.1,1.1,1,1.6,1.2,2.6c0.1,1.2,0.1,2.4,0,3.7c0,1.7-0.6,5.8,1.6,6.2c0.1-1.6,1.4-2.8,1.8-4.4
		c0.5-2.1,0.3-4,1-6c1.5-4.2,3.4-8.2,5.5-12.1c1.4-2.8,2.6-5.7,3.7-8.7c0.5-1.2,0.9-3.9,2.5-3.9c1.3,3.7-0.1,9.1,0.1,13
		c0.1,1.9,1.8,12.9,4.4,13.1c0.5-1.9,1.2-3.7,2.2-5.3c0.8-1.6,2.9-5.8,5.1-5.4c1.1,4.4-1.1,9.8,0.3,14.1c1.1-1.2,2.6-3.9,4.3-4.3
		c3-0.6,1.8,4.9,1.8,6.8c0,4.4,0,8.5-0.9,12.7c-0.3,1.2-0.5,2.9-0.9,4.1c-0.6,1.2-1.3,2.3-2.1,3.3c-0.7,1.3-1.7,2.2-2.5,3.4
		s-0.9,2.4-2.7,3c-1.3,0.4-2.7,0-4,0.3c-0.6,0.1-0.7,0.7-1.4,0.9s-1.3-0.2-1.9-0.1c-2,0.5-3.9,2.1-5.9,2.7c-1.6,0.4-7.5,0.9-6.7-1.7
		"/>
	<path class="st26" d="M410.3,164.2c-2.8-0.2-5.3-3.5-6.5-5.6c-2.2-3.7-3.7-7.7-4.2-12c-0.6-5.2-1.7-10.2-0.6-15.4
		c0.3-1.6,1.4-6.2,3-6.6c0.1,1.1,1,1.6,1.2,2.6c0.1,1.2,0.1,2.4,0,3.7c0,1.7-0.6,5.8,1.6,6.2c0.1-1.6,1.4-2.9,1.8-4.4
		c0.5-2.1,0.3-4,1-6c1.5-4.2,3.4-8.2,5.5-12.1c1.4-2.8,2.6-5.7,3.7-8.7c0.5-1.2,0.9-3.9,2.5-3.9c1.3,3.7-0.1,9.1,0.1,13
		c0.1,1.9,1.8,12.9,4.4,13.1c0.5-1.9,1.2-3.7,2.2-5.3c0.8-1.6,2.9-5.8,5.1-5.4c1.1,4.4-1.1,9.8,0.3,14.1c1.1-1.2,2.6-3.9,4.3-4.3
		c3-0.6,1.8,4.9,1.8,6.8c0,4.4,0,8.5-0.9,12.7c-0.3,1.2-0.5,2.9-0.9,4.1c-0.6,1.2-1.3,2.3-2.1,3.4c-0.7,1.3-1.7,2.2-2.5,3.4
		s-0.9,2.4-2.7,3c-1.3,0.4-2.7,0-4,0.3c-0.6,0.1-0.7,0.7-1.4,0.9s-1.3-0.2-1.9-0.1c-2,0.5-3.9,2.1-5.9,2.7c-1.6,0.4-7.5,0.9-6.7-1.7
		"/>
	<path class="st26" d="M55.3,413.2c-2.8-0.2-5.3-3.5-6.6-5.7c-2.2-3.7-3.7-7.7-4.2-12c-0.6-5.2-1.7-10.2-0.6-15.4
		c0.3-1.6,1.4-6.2,2.9-6.6c0.1,1.1,1,1.6,1.2,2.6c0.1,1.2,0.1,2.4,0,3.7c0,1.7-0.6,5.8,1.6,6.2c0.1-1.6,1.4-2.8,1.8-4.4
		c0.5-2.1,0.3-4,1-6c1.5-4.2,3.4-8.2,5.4-12.1c1.4-2.8,2.6-5.7,3.7-8.7c0.4-1.2,0.9-3.9,2.5-3.9c1.3,3.7-0.1,9.1,0.1,13
		c0.1,1.9,1.8,12.9,4.4,13.1c0.5-1.9,1.2-3.7,2.2-5.3c0.8-1.6,2.9-5.8,5.1-5.4c1.1,4.4-1.1,9.8,0.3,14.1c1.1-1.2,2.6-3.9,4.3-4.3
		c3-0.6,1.8,4.9,1.8,6.8c0,4.4,0.1,8.5-0.9,12.7c-0.3,1.2-0.5,2.9-0.9,4.1c-0.6,1.2-1.3,2.3-2.1,3.3c-0.7,1.3-1.7,2.2-2.5,3.4
		s-0.9,2.4-2.7,3c-1.3,0.4-2.7,0-4,0.3c-0.6,0.1-0.7,0.7-1.4,0.9s-1.3-0.2-1.9-0.1c-2,0.5-3.9,2.1-5.9,2.7c-1.6,0.4-7.5,0.9-6.7-1.7
		"/>
	<path class="st27" d="M94.4,313.3c-1.6-0.1-3.1-2.1-3.8-3.3c-1.3-2.1-2.1-4.5-2.4-7c-0.4-3-1-6-0.3-9c0.2-0.9,0.8-3.6,1.7-3.8
		c0,0.7,0.6,0.9,0.7,1.5c0.1,0.7,0.1,1.4,0,2.1c0,1-0.4,3.4,0.9,3.6c0.1-0.9,0.8-1.7,1-2.6c0.3-1.2,0.2-2.3,0.6-3.5
		c0.9-2.4,2-4.8,3.2-7.1c0.8-1.6,1.5-3.3,2.2-5c0.3-0.7,0.5-2.2,1.5-2.3c0.8,2.2-0.1,5.3,0,7.6c0.1,1.1,1,7.5,2.5,7.6
		c0.3-1.1,0.7-2.1,1.3-3.1c0.5-1,1.7-3.3,3-3.2c0.6,2.6-0.6,5.7,0.2,8.2c0.6-0.7,1.5-2.3,2.5-2.5c1.8-0.4,1.1,2.8,1.1,4
		c0.1,2.5-0.1,5-0.5,7.4c-0.2,0.7-0.3,1.7-0.5,2.4c-0.3,0.7-0.7,1.3-1.2,2c-0.4,0.8-1,1.3-1.5,2s-0.5,1.4-1.6,1.7
		c-0.8,0.1-1.6,0.1-2.3,0.2c-0.4,0.1-0.4,0.4-0.8,0.5s-0.8-0.1-1.1,0c-1.2,0.3-2.3,1.2-3.4,1.6c-0.9,0.2-4.4,0.5-3.9-1"/>
	<path class="st27" d="M396.4,248.3c-1.6-0.1-3.1-2.1-3.8-3.3c-1.3-2.1-2.1-4.5-2.4-7c-0.4-3-1-6-0.3-9c0.2-0.9,0.8-3.6,1.7-3.8
		c0,0.7,0.6,0.9,0.7,1.5c0.1,0.7,0.1,1.4,0,2.1c0,1-0.4,3.4,0.9,3.6c0.1-0.9,0.8-1.7,1-2.6c0.3-1.2,0.2-2.3,0.6-3.5
		c0.9-2.4,2-4.8,3.2-7.1c0.8-1.6,1.5-3.3,2.2-5c0.3-0.7,0.5-2.2,1.5-2.3c0.8,2.2-0.1,5.3,0,7.6c0,1.1,1,7.5,2.5,7.6
		c0.3-1.1,0.7-2.1,1.3-3.1c0.5-1,1.7-3.3,3-3.2c0.7,2.6-0.6,5.7,0.2,8.2c0.6-0.7,1.5-2.3,2.5-2.5c1.8-0.4,1.1,2.8,1.1,4
		c0.1,2.5-0.1,5-0.5,7.4c-0.2,0.7-0.3,1.7-0.5,2.4c-0.3,0.7-0.7,1.3-1.2,2c-0.4,0.8-1,1.3-1.5,2s-0.5,1.4-1.6,1.7
		c-0.8,0.1-1.6,0.1-2.3,0.2c-0.4,0.1-0.4,0.4-0.8,0.5s-0.8-0.1-1.1,0c-1.2,0.3-2.3,1.2-3.4,1.6c-0.9,0.2-4.4,0.5-3.9-1"/>
	<path class="st27" d="M422.4,382.3c-1.6-0.1-3.1-2.1-3.8-3.3c-1.3-2.1-2.1-4.5-2.4-7c-0.4-3-1-6-0.3-9c0.2-0.9,0.8-3.6,1.7-3.8
		c0,0.7,0.6,0.9,0.7,1.5c0.1,0.7,0.1,1.4,0,2.1c0,1-0.4,3.4,0.9,3.6c0.1-0.9,0.8-1.7,1-2.6c0.3-1.2,0.2-2.3,0.6-3.5
		c0.9-2.4,2-4.8,3.2-7.1c0.8-1.6,1.5-3.3,2.2-5c0.3-0.7,0.5-2.2,1.5-2.3c0.8,2.2-0.1,5.3,0,7.6c0,1.1,1,7.5,2.5,7.6
		c0.3-1.1,0.7-2.1,1.3-3.1c0.5-1,1.7-3.3,3-3.2c0.7,2.6-0.7,5.7,0.2,8.2c0.6-0.7,1.5-2.3,2.5-2.5c1.8-0.4,1.1,2.8,1.1,4
		c0.1,2.5-0.1,5-0.5,7.4c-0.2,0.7-0.3,1.7-0.5,2.4c-0.3,0.7-0.7,1.3-1.2,2c-0.4,0.8-1,1.3-1.5,2s-0.5,1.4-1.6,1.7
		c-0.8,0.1-1.6,0.1-2.3,0.2c-0.4,0.1-0.4,0.4-0.8,0.5s-0.8-0.1-1.1,0c-1.2,0.3-2.3,1.2-3.4,1.6c-0.9,0.2-4.4,0.5-3.9-1"/>
	<path class="st27" d="M58.4,209.3c-1.6-0.1-3.1-2.1-3.8-3.3c-1.3-2.1-2.1-4.5-2.4-7c-0.4-3-1-6-0.3-9c0.2-0.9,0.8-3.6,1.7-3.8
		c0,0.7,0.6,0.9,0.7,1.5c0.1,0.7,0.1,1.4,0,2.1c0,1-0.4,3.4,0.9,3.6c0.1-0.9,0.8-1.7,1-2.6c0.3-1.2,0.2-2.3,0.6-3.5
		c0.9-2.4,2-4.8,3.2-7.1c0.8-1.6,1.5-3.3,2.2-5c0.3-0.7,0.5-2.2,1.5-2.3c0.8,2.2-0.1,5.3,0,7.6c0.1,1.1,1,7.5,2.5,7.6
		c0.3-1.1,0.7-2.1,1.3-3.1c0.5-1,1.7-3.3,3-3.2c0.6,2.6-0.6,5.7,0.2,8.2c0.6-0.7,1.5-2.3,2.5-2.5c1.8-0.4,1.1,2.8,1.1,4
		c0.1,2.5-0.1,5-0.5,7.4c-0.2,0.7-0.3,1.7-0.5,2.4c-0.3,0.7-0.7,1.3-1.2,2c-0.4,0.8-1,1.3-1.5,2s-0.5,1.4-1.6,1.7
		c-0.8,0.1-1.6,0.1-2.3,0.2c-0.4,0.1-0.4,0.4-0.8,0.5s-0.8-0.1-1.1,0c-1.2,0.3-2.3,1.2-3.4,1.6c-0.9,0.2-4.4,0.5-3.9-1"/>
</g>
</svg>
