<svg xmlns="http://www.w3.org/2000/svg" viewBox="0 0 271.02 523.47"><defs><style>.cls-1,.cls-2{fill:#f7b50c;}.cls-1,.cls-13,.cls-14,.cls-20,.cls-21,.cls-22,.cls-23,.cls-24,.cls-3,.cls-4,.cls-5,.cls-6,.cls-7{stroke:#000;}.cls-1,.cls-10,.cls-13,.cls-14,.cls-18,.cls-19,.cls-20,.cls-21,.cls-22,.cls-23,.cls-24,.cls-25,.cls-3,.cls-4,.cls-5,.cls-6,.cls-7,.cls-9{stroke-miterlimit:10;}.cls-3{fill:#e0cdaa;}.cls-4{fill:#efedc2;}.cls-5{fill:#f75800;}.cls-18,.cls-19,.cls-21,.cls-6{fill:none;}.cls-6{stroke-width:2px;}.cls-7{fill:#494948;stroke-width:0.25px;}.cls-10,.cls-7,.cls-9{stroke-linecap:round;}.cls-23,.cls-8{fill:#3f3f3f;}.cls-9{fill:#f7931e;}.cls-10,.cls-9{stroke:#1a1818;}.cls-10{fill:#e5811f;}.cls-10,.cls-22{stroke-width:0.5px;}.cls-11{fill:#c17427;}.cls-12{fill:#ffa04a;}.cls-13,.cls-14{fill:#cc9f72;}.cls-13,.cls-21{stroke-width:0.75px;}.cls-14{stroke-width:0.51px;}.cls-15{fill:#110909;}.cls-16{fill:#e0e0e0;}.cls-17{fill:#d1d1d1;}.cls-18,.cls-19{stroke:#545353;}.cls-18{stroke-width:5px;}.cls-19{stroke-width:5.21px;}.cls-20{stroke-width:5.32px;}.cls-22{fill:#ed6464;}.cls-24{fill:#050504;stroke-width:0.94px;}.cls-25{fill:#dbdbd9;stroke:#fff;}</style></defs><title>Asset 4</title><g id="Layer_2" data-name="Layer 2"><g id="outline"><g id="shirt"><path class="cls-1" d="M106.8,252.51c-17,6.8-31.85,18.38-45.7,30.35l-11.47,9.92a233.3,233.3,0,0,0-19,17.74c-1.24,1.34-5.29,9.24-5.79,11-1.11,3.81,4.36,1.12,6.79,4.26,7.81,10.05,11.84,26.72,18.21,37.74,1.6,2.78,5.49,2.16,7,5,.6,1.13,2.61.08,2.78,1.36s-.62,2.87-.91,4.08c-1.58,6.54,5.18,13.92,4.13,20.56-2.18,13.7-8.16,31.14-8,45,.21,19.11-1.35,36.68-6.19,47.93-3,6.94,1.5,14.76,2,22.3.2,2.71.5,5.67,2.43,7.59,1.75,1.75,4.41,2.16,6.87,2.46,52.87,6.44,106.62,2.55,159.05-6.83a2,2,0,0,0,.95-.35,2,2,0,0,0,.42-1.65L217,450.18c-.73-13.09,3.29-25.49,4.22-38.57.5-7.17.87-14.35,1-21.53,0-2.43.06-4.87.06-7.3,0-2.79-.75-4.62,1.43-6.11,3.82-2.61,10.86-3.22,15.33-4,10.34-1.71,20.85-1.88,31.31-2-9-27.71-8.46-58.63-22.52-84.15a35.82,35.82,0,0,0-6.4-8.82,39.93,39.93,0,0,0-8.17-5.68c-15.74-8.86-32.59-13.87-50.45-16.5"/><path id="right_arm_sleeve" data-name="right arm sleeve" class="cls-1" d="M16.64,329.44c.5-2.17,2.76-4.56,4.69-5.57a33.68,33.68,0,0,1,3.45-1.34,5.63,5.63,0,0,1,2.49-.65,3.37,3.37,0,0,0,1.11,1.68c1.73,1.63,3.19,3.54,4.89,5.2,2,1.91,3.86,3.77,5.66,5.83,1.57,1.79,3,3.66,4.57,5.44.42.5.37.78.63,1.3.48.95,1.81,1.78,2.48,2.66,1.52,2,2.92,4.12,4.28,6.23,1.74,2.71,3.85,5.14,5.66,7.8,1.54,2.29,3,4.69,4.72,6.86.84,1.07,1.52,2.25,2.35,3.32a10.34,10.34,0,0,1,2,2.69c.5,1.35-.22,1.46-1.19,2.25A23.28,23.28,0,0,0,62,375.75a27.76,27.76,0,0,0-3.4,4.38,4.31,4.31,0,0,1-1.08,1.5c-.63.36-.68.19-1-.24-1-1.32-2.43-2.22-3.53-3.53-1.81-2.15-3.56-4.52-5.18-6.83-1.26-1.81-2.26-3.77-3.54-5.57-2-2.84-3.89-5.77-6-8.53a93.38,93.38,0,0,0-7.93-8.71q-2.25-2.28-4.48-4.59c-.89-.91-1.69-2-2.5-2.95a26,26,0,0,0-2.12-2.3c-1.11-1.09-2-2.5-3.13-3.65-.87-.92-1.8-1.58-2-2.84-.08-.49-.19-1-.26-1.47-.13-.86-.06-.49.42-1,.73-.75.63-1.41,1.8-1.59"/><path class="cls-2" d="M29.65,320.25c0,2.27-.3,4.75.14,7l2.74-1.15c-.68-1.49-2-3.63-3.51-4.41s-2.37.08-3.46,1.09l2.51.66.19-.13-2.05-.54c.81,1.08,2,1.61,3,2.48a18.86,18.86,0,0,1,3.25,3.43,8.34,8.34,0,0,1,1.83,3.66c.15.91.25,1.75,1.19,2.18,1.75.77,3.28-1.81,1.52-2.6.66.3.18.41.23-.3a4.1,4.1,0,0,0-.29-1.88,20.86,20.86,0,0,0-2.45-3.41,22.87,22.87,0,0,0-2.77-2.88,19.36,19.36,0,0,0-1.5-1.36c-.4-.28-1.16-.45-1.45-.84a1.54,1.54,0,0,0-2.05-.54,2.92,2.92,0,0,0-1.58,3.53,1.52,1.52,0,0,0,2.51.66c1-.91.42-.45.88.56.36.78,1,1.36,1.38,2.15.75,1.63,3.05.41,2.74-1.15-.37-1.91,0-4.27,0-6.19a1.5,1.5,0,0,0-3,0Z"/><path class="cls-2" d="M34.32,327.18a6.82,6.82,0,0,0,.12,1c.09.44-.15.59.11.2l.9-.69c-.57.23-1.15-.11-1.69-.29-.28-.09-1.54-.67-1.24-.19l.15,1.16c-.07.27,1.69,0,1.9,0,0-.49.06-.54,0-.12l0,.4c.06.52.13,1,.17,1.56.07.8,0,1.68.11,2.46s.62,1.68.79,2.61c.33,1.89,3.22,1.09,2.89-.8a13.17,13.17,0,0,0-.52-1.89,6,6,0,0,1-.19-1.75,13.78,13.78,0,0,0-.44-3.74c-.83-2.27-4.53-2-6.29-1.17a2.13,2.13,0,0,0-1.25,2.81c.56,1.14,2,1.23,3,1.58s2.7.87,3.79,0,.65-2,.57-3.13c-.15-1.92-3.15-1.93-3,0Z"/></g><g id="notebook"><path class="cls-3" d="M160.47,300.56h2.41c3.13,0,6.52.36,9.62-.06a77.31,77.31,0,0,1,9.83-.95,26.74,26.74,0,0,0,4.77-.82,51.53,51.53,0,0,1,6.76-.91c2.88-.14,5.68-1,8.55-1,3.22,0,6.43,0,9.64,0,1.58,0,3.16,0,4.73,0a4.37,4.37,0,0,0,1.49,0c.4-.18.59-.93,1.16-.59-.67,1.65-2.49,3-3,4.86-.24,1,.18,2.06,0,3a9.83,9.83,0,0,0-.36,1.16,15.88,15.88,0,0,0,0,1.69,5.14,5.14,0,0,1-.17,1.52c-.14.52,0,1-.15,1.53s-.34.63-.36,1.16a6.28,6.28,0,0,1-.26,1.52c-.14.57-.2,1.13-.33,1.69s-.28,1-.39,1.52a27,27,0,0,1-.44,2.84c-.21.05-.29-.06-.26-.31"/><g id="nn"><path class="cls-4" d="M212.41,317.31c0-1,0-2.08,0-3.12a2.67,2.67,0,0,0-.1-.62c-.06-.31,0-.65,0-1s-.07-.32-.09-.49c-.3-.05-.59-.18-.88-.24l-.89-.2c-.34-.08-.69-.06-1-.15-.53-.14-1.05-.34-1.58-.5a5.32,5.32,0,0,1-.69-.3l-.41-.21a2.37,2.37,0,0,0-.57-.14,5.83,5.83,0,0,1-.58-.23c-.29-.09-.58-.14-.87-.2-.54-.12-1.06-.3-1.59-.45s-.82-.26-1.23-.4-1-.31-1.49-.51a3,3,0,0,0-.66-.3,1.88,1.88,0,0,0-.33,0,2.54,2.54,0,0,1-.61-.19,9.49,9.49,0,0,0-1.49-.35c-.62-.1-1.23-.33-1.84-.48-.76-.2-1.51-.37-2.27-.53-.59-.11-1.15-.26-1.73-.4s-1.35-.33-2-.47c-1-.22-2.1-.19-3.14-.38-.47-.08-1-.15-1.42-.25a1,1,0,0,0-.32-.07,4.17,4.17,0,0,1-.5,0,14.83,14.83,0,0,0-1.51-.21c-.51,0-1-.17-1.51-.19-.18,0-.31-.1-.49-.11h-2.76a2.92,2.92,0,0,1-.51,0c-.16,0-.23-.14-.42-.11h.28"/></g><path class="cls-5" d="M147.32,342c0-1.25.34-2.13.34-3.38a10.71,10.71,0,0,1,0-2c.05-.23.24-.22.28-.37.24-.95.49-1.93.67-2.9.23-1.22.6-2.33.84-3.53a32.6,32.6,0,0,1,1-3.22c.73-2.49,1.31-5,2.26-7.47.88-2.25,1.61-4.45,2.27-6.79.33-1.13.73-2.34,1.17-3.44s.83-2.26,1.29-3.32.7-2.26,1.25-3.36,1.11-1.95,2.37-1.58c.91.27,1.62,1.2,2.6,1.45a46.1,46.1,0,0,0,7,1.17,29.44,29.44,0,0,1,5.75,1.34c1.76.53,3.56.93,5.31,1.46a26.5,26.5,0,0,0,3.13.4,41.47,41.47,0,0,1,9.73,3.56c2.95,1.38,5.67,3.2,8.71,4.37a28.21,28.21,0,0,1,3.47,1.44,21.37,21.37,0,0,0,4.48,1.68c1.87.52,3.8,1.2,5.63,1.84.8.29,1.67.38,2.38.69a4.84,4.84,0,0,0,1.6.41c.47.06.48-.12.69.32a2,2,0,0,1-.09,1,8.22,8.22,0,0,1-.52.73,18.22,18.22,0,0,0-1.08,2.33c-1.64,4-2.84,8.17-4.4,12.21-.31.8-.76,1.52-1,2.32-.34,1-.44,2.05-.82,3.05-.71,1.91-1.18,3.84-1.85,5.75s-1.43,3.55-2,5.39-1.16,3.72-1.7,5.64c0-.14,0-.28,0-.41a9,9,0,0,1-.86,3.68c-1.08,2.73-2.22,5.45-3.13,8.25-1,3-2,5.86-3,8.8-.86,2.67-2.27,5.09-2.9,7.84a18.26,18.26,0,0,1-1,2.34,19.92,19.92,0,0,0-.5,2.13c-.45,1.68-1.2,3.33-1.76,5-.29.85-.32,1.79-.66,2.61s-.68,1.43-.95,2.18a39.5,39.5,0,0,1-2.19,5.55c-1,2-1.61,4.29-2.61,6.34a9.69,9.69,0,0,0-.49,1.68c-.14.49-.68,1-.59,1.63a.21.21,0,0,0-.27-.16c-.28,1.1-.58,2.21-1,3.33-.5,1.48-1.29,2.74-1.81,4.2a62.31,62.31,0,0,1-2.7,6.74c-.17.35-.52,1.16-1,1.23s-.72-.42-1-.56a2.07,2.07,0,0,0-1-.15,32.21,32.21,0,0,1-8.45-1.18c-2.48-.64-5-1-7.4-1.86a36.19,36.19,0,0,0-3.42-1.28c-.17,0-.28,0-.47-.06-1.43-.2-2.85-.32-4.28-.6-2.51-.5-5.1-.63-7.52-1.25-1.64-.42-3.08-.92-4.72-1.2s-2.83-1-4.37-1.34a13.69,13.69,0,0,1-3.71-1.17c-.35-.19-.64-.44-1-.61-.58-.26-1.26-.25-1.82-.57-.28-.16-.69-.59-.89-.67-.25-.41-.91-.6-1.28-.94-.56-.53-.46-.66-.64-1.43a6.49,6.49,0,0,0-.33-1.28c-.22-.39-.71-.7-.95-1.08-.48-.77-.24-1.66-.59-2.44a6.51,6.51,0,0,1-.42-3c0-3.05,1.07-6,1.77-9,0-.14.21-.19.27-.44a12.75,12.75,0,0,0,0-1.51,15.35,15.35,0,0,1,.94-2.93c.5-1.59,1.4-3.05,1.71-4.71.1-.54,0-1.06.09-1.58a11.71,11.71,0,0,1,.58-1.37c.3-.87.52-1.81.75-2.7a21.52,21.52,0,0,1,.67-2.38,16.61,16.61,0,0,0,.52-3.35,64.72,64.72,0,0,1,2.1-7.75,35.38,35.38,0,0,1,1.44-3.73,27.82,27.82,0,0,0,1.26-3.7,34.65,34.65,0,0,1,1.59-4.55c.46-1.16.76-2.35,1.1-3.54.41-1.41,1-2.75,1.53-4.13.27-.73.39-1.54.59-2.3a7.79,7.79,0,0,1,.67-1.66c.18-.37.24-.92.41-1.35a10.76,10.76,0,0,0,.59-2,13.92,13.92,0,0,1,1-2.84c.49-1.05,1.34-2.06,1.31-3.22"/><path class="cls-6" d="M152.48,336a9.89,9.89,0,0,1,.19-3.57,11.47,11.47,0,0,0,.51-1.07c.09-.3,0-.6.11-.9s.32-.38.39-.59c.19-.5.19-1.07.37-1.58a9.47,9.47,0,0,1,.72-1.33,15.62,15.62,0,0,0,.82-1.7c.3-.75.68-1.46.95-2.23a3.4,3.4,0,0,1,.77-1.42c.34.31.29.88.59,1.18a5.18,5.18,0,0,0,1.66.62c.59.23,1.18.41,1.76.64,1.42.54,2.86,1.56,4.37,1.78"/><path class="cls-6" d="M154.51,328.41c.5,0,1,0,1.53,0a5.68,5.68,0,0,1,2,.91c.86.46,1.44,1.21,2.29,1.63"/><path class="cls-6" d="M167.22,327.14c-.25.5-.31,1-.56,1.56-.55,1.19-.95,2.38-1.47,3.57a28.88,28.88,0,0,0-1.6,4c-.16.65-.82,1.63-.69,2.28"/><path class="cls-6" d="M167.22,339.34c0-2-.1-3.95.82-5.87a16.41,16.41,0,0,0,.91-1.77c.13-.39.25-.78.42-1.16a10.08,10.08,0,0,1,1-1.88c.19-.25.51-.64.84-.47a5.5,5.5,0,0,0,.23.55,1.48,1.48,0,0,0,.69.42c1.59.67,3.38.77,5,1.35.48.18,1.38.35,1.5.95"/><path class="cls-6" d="M168.49,333.49a11.2,11.2,0,0,1,3.38.49,5.56,5.56,0,0,1,2.2,1.26,2.43,2.43,0,0,0,.78.54"/><path class="cls-6" d="M166.46,339.09l1.29,0c1.41,0,2.06.58,3.23,1.3.67.41,1.42.68,2.1,1.07.35.2.62.56,1,.7"/><path class="cls-6" d="M184.51,332.22a10.18,10.18,0,0,1-.14,2.14c-.3,1.36-1,2.62-1.34,4-.27,1-.23,2.06-.49,3.06s-.64,1.67-.81,2.52a2.41,2.41,0,0,1-.2.8c-.08.14-.3.23-.32.39-.08.6.89.33,1.26.33,1.69,0,3.1,1,4.63,1.57.37.15,2,.5,2,1"/><path class="cls-6" d="M195.18,351.54c-.14-.84.73-2.14,1-2.92.18-.61.23-1.26.35-1.88a18.51,18.51,0,0,1,.9-2.79,21,21,0,0,0,1.61-6.24c0-.56,0-1.12,0-1.67.43,0,.62-.33,1-.09a10.51,10.51,0,0,1,1.59,1.54,9,9,0,0,1,2.53,3.63c.18.54.51.9.66,1.46a8.76,8.76,0,0,0,.31,1,5.58,5.58,0,0,1,.25,2.16,4,4,0,0,1,0,1.39c-.2.44-.95.7-1.36.82-2,.63-3.06,2.25-4.83,3.18a4.83,4.83,0,0,1-2,.89,5.49,5.49,0,0,1-1.28,0c-.56-.13-.36-.47-.37-1"/><path class="cls-6" d="M149.68,350.27a10.37,10.37,0,0,1,1.14-3.93,2.67,2.67,0,0,1,2.42-1.91,4.93,4.93,0,0,1,1.33,0,3.33,3.33,0,0,1,1.47,1.36,4.53,4.53,0,0,1,1,2.94,21.36,21.36,0,0,1,0,2.53c-.12.91-1,1.42-1.63,2a6.29,6.29,0,0,1-1.67,1.08c-.37.18-.75.23-1.09.38s-.68.39-1.13.31a4.31,4.31,0,0,0,1,0c.23-.05.25-.22.48-.28a2.51,2.51,0,0,1,1.61.2,6.24,6.24,0,0,1,1.45,2.73c.58,1.64.64,5.27-1.77,5.22"/><path class="cls-6" d="M187.3,359.68c0,.54,0,1.08,0,1.62a8.11,8.11,0,0,1-.09,2.2c-.31,1.28-.77,2.51-1.06,3.81a37.61,37.61,0,0,1-1.47,5.1,1.84,1.84,0,0,1-.89,1.23,3.4,3.4,0,0,1,0-1.49,4.76,4.76,0,0,1,.46-1,24,24,0,0,1,1.83-3.33,36.7,36.7,0,0,1,2.8-3.32,8.45,8.45,0,0,1,2-1.81c.4-.23,1.46-.95,1.93-.69-.17.31-.54.5-.78.76a11.88,11.88,0,0,1-2.22,1.7,14.26,14.26,0,0,1-1.65,1,6.36,6.36,0,0,0-.71.31c-.25.16-1,.75-.92,1.09.05.14.72.39.89.5a2.62,2.62,0,0,1,.89.86,14.42,14.42,0,0,1,1.47,4.38,7,7,0,0,0,.43,1.79c.05.1.22.13.27.24s.06.26.12.39.32.63.25.89"/><path class="cls-6" d="M159.51,359.94a5.42,5.42,0,0,1,0-1.21c0-.12.22-.35.26-.44s.1-.4.18-.58a8.48,8.48,0,0,1,.89-1.18,11.47,11.47,0,0,1,1.79-1.83,6.46,6.46,0,0,1,2.34-1.35,7.6,7.6,0,0,1,2-.17,3.41,3.41,0,0,1,2.54,1.49,3.76,3.76,0,0,1,.77,2.48,26.41,26.41,0,0,1-.1,4.27,5.5,5.5,0,0,1-.78,2.36,24.38,24.38,0,0,1-1.82,2.24,12.37,12.37,0,0,1-2.19,1.75,7.87,7.87,0,0,1-1.71.87,2.57,2.57,0,0,1-1.45.21c-.35-.09-.44-.38-.62-.68a5.71,5.71,0,0,1-.65-1.28,4.43,4.43,0,0,0-.17-.47,3.46,3.46,0,0,1-.13-.64,8.41,8.41,0,0,0-.36-1.2,1.92,1.92,0,0,1-.15-.66c0-.25-.1-.43-.14-.68-.06-.44-.11-.9-.2-1.34a6.12,6.12,0,0,1-.2-1.36v-1.41"/><path class="cls-6" d="M171.8,364.39a1.73,1.73,0,0,1,.41-1.23,5.88,5.88,0,0,1,.73-1.06c.25-.24.47-.48.69-.73a8.56,8.56,0,0,1,2.63-2.08c1.26-.6,3.4-1.36,4.2.32a7.58,7.58,0,0,1,.5,1.3,4.07,4.07,0,0,1,0,.78c0,.62,0,1.25,0,1.86-.1,1.82-1.37,3.34-2.24,4.86s-2,3.18-3.84,3.87a2.88,2.88,0,0,1-1.89.15c-.23-.1-.45-.32-.68-.45a1.13,1.13,0,0,1-.57-.57,3.16,3.16,0,0,1-.51-1.38c0-.22,0-.42,0-.63a5.13,5.13,0,0,1-.1-1v-1.55a8.42,8.42,0,0,1,0-1.42,2.77,2.77,0,0,1,.45-1c.16-.25.49-1.06.77-1.12"/></g><g id="keys"><g id="fob"><path class="cls-7" d="M116,447.37a29.55,29.55,0,0,0-5.58-6.61l.27-.45c-5.11.62-9.57,3.61-13.82,6.52L73.26,463a7.12,7.12,0,0,0-2.66,2.62c-.86,1.83,0,4,.77,5.82,1.21,2.78,2.43,5.55,3.65,8.33.51,1.16,1.14,2.44,2.35,2.83a4.53,4.53,0,0,0,3.2-.58,129.06,129.06,0,0,0,32.48-21.55,13.89,13.89,0,0,0,3.82-4.75A9.92,9.92,0,0,0,116,447.37Zm-4.76-.8a2.45,2.45,0,0,1-3.14.59,2.77,2.77,0,0,1-1.2-2.76l-.18.15.24-.45a2.65,2.65,0,0,0-.06.3,5.24,5.24,0,0,1,1.64-1,2.58,2.58,0,0,1,2.09.12A2.18,2.18,0,0,1,111.22,446.57Z"/><path class="cls-8" d="M76.36,481.74C79.71,483.6,84,480.4,87,478.86c3.85-2,7.36-4.17,11.11-6.35,4.08-2.36,7.72-5.74,11.39-8.72s8.39-6.83,9.07-11.87c.26-1.89-2.63-2.71-2.89-.8-.64,4.7-5.38,8.05-8.82,10.8-3.63,2.9-7,5.94-11,8.28-2.33,1.35-4.42,2.94-6.8,4.16-2.1,1.08-8.89,6.05-11.16,4.79-1.69-.94-3.21,1.65-1.52,2.59Z"/></g><path id="right" class="cls-9" d="M121.46,434.09c-6.46,0-10.63,5.33-11.71,11.71-1,5.71,5.25,11.71,11.71,11.71a11.71,11.71,0,0,0,0-23.42Zm-.66,20.42c-3.33-.5-6.94-4.89-7-8-.11-5.05,2.4-9.65,7.45-9.65a9.15,9.15,0,0,1,9.16,9.15A8.61,8.61,0,0,1,120.8,454.51Z"/><g id="key_2" data-name="key 2"><path class="cls-10" d="M136.1,472.23a6.13,6.13,0,0,0-3.59-4.72,4.55,4.55,0,0,0-3.14-6.74,11.38,11.38,0,0,0-.27-4.47,3.53,3.53,0,0,0-6.87-.26,11.79,11.79,0,0,0-.62,4.77l.37.05a8.53,8.53,0,0,0-2.28,7.42,3.1,3.1,0,0,0-2.16,4.2A3.17,3.17,0,0,0,116,478.1c1.26,1,3.24,1,4.14,2.36a4.53,4.53,0,0,1,.53,2.57c0,3.07,0,6.14.07,9.2a1.95,1.95,0,0,0,.43,3.6l.43.95-.89.43a4.59,4.59,0,0,0,1.21,3.79,13.76,13.76,0,0,0,3.24,2.52,3.32,3.32,0,0,0,2.45.75c1.47-.37,1.7-2.35,1.61-3.87q-.65-10.62-1.28-21.24a6.89,6.89,0,0,0,5.94-1.32A6.33,6.33,0,0,0,136.1,472.23ZM126,464.39a2.92,2.92,0,0,1-1.55,0,1,1,0,0,1-.69-1.1,5.89,5.89,0,0,1,2.58-6.35c.41,2.47.81,4.94,1.22,7.41A3,3,0,0,0,126,464.39Z"/><path class="cls-11" d="M126.53,479.4q.41,6.08.75,12.15c.15,2.67,1.62,9.49,0,11.75-.28.39.37.77.65.37,1.63-2.3.38-6.66.24-9.31q-.41-7.49-.91-15c0-.48-.78-.48-.75,0Z"/><path class="cls-11" d="M127.4,479.39c0-1.64.3-.21,1.25-.21a7.13,7.13,0,0,0,4.08-.84,6.5,6.5,0,0,0,2.35-7.42,4.21,4.21,0,0,0-1.51-2.13c-2.54-2.11-.85-.06-1.24-2-.25-1.25.58-2.5-.11-3.74-1-1.71-3.3-1.79-3.17-4.33,0-.48-.72-.48-.75,0-.09,1.83.31,1.87.87,3.14,1,2.24,3.42,3.61,1.73,5.93a.38.38,0,0,0,.13.51c2.09,1.35,4.23,3.9,3.41,6.6-.63,2.11-4.82,5.31-6.44,2.88a.38.38,0,0,0-.42-.17c-.87.26-.93,1-.93,1.79a.38.38,0,0,0,.75,0Z"/><path class="cls-11" d="M127.53,477.68c-2.73.87-.71,6.38-.58,8.46.17,2.62.54,5.25.63,7.89,0,.9,0,1.84,0,2.74,0,.52.22,7.49-.87,6.34-.33-.35-.86.18-.53.53l.45.48a.39.39,0,0,0,.37.09c2.86-1,1.44-6.58,1.32-8.94-.07-1.54-2-16.4-.57-16.86.46-.15.26-.87-.2-.73Z"/></g><g id="key_1" data-name="key 1"><path id="key_1-2" data-name="key 1" class="cls-9" d="M121.07,472.46a3.11,3.11,0,0,1-.6-1.17,2.72,2.72,0,0,1,.41-1.33,4,4,0,0,0-1.45-4.85,24.5,24.5,0,0,0,1.44-4.67c.28-1.39.38-3-.56-4.07a5.21,5.21,0,0,0-2.66-1.3,7.21,7.21,0,0,0-2.64-.36,4.92,4.92,0,0,0-3.41,2.3c-1,1.56-1.73,5.63-3.64,6.47-.76.33-1.58-.39-2.4-.35-1.39.08-1.94,2.23-3.33,2.34a5.32,5.32,0,0,1-1.75-.48A2.82,2.82,0,0,0,97,467.56c0,1.51,1.19,3.15.34,4.4a5.58,5.58,0,0,0-.63.84c-.39.87.52,1.74,1.31,2.27s1.72,1.38,1.36,2.26c-.21.5-.75.76-1.15,1.11a2.66,2.66,0,0,0,.15,3.94c.2.15.44.29.51.53a1,1,0,0,1-.11.69q-3.1,7.14-6.5,14.14A14.17,14.17,0,0,0,91,501.38c-.47,2.81.84,5.58,2.12,8.14.42.83,1.24,1.82,2.07,1.4a1.77,1.77,0,0,0,.73-.94l10.05-21.72c.74-1.6,1.62-3.33,3.25-4a8.2,8.2,0,0,0,1.79-.69c.44-.31.74-.8,1.21-1.05,1-.56,2.43.21,3.44-.38.85-.49,1.1-1.78,2-2,.36-.1.75,0,1.11-.11.7-.17,1.11-.88,1.45-1.52C121.2,476.59,122.17,474.27,121.07,472.46Zm-3.58-9a.67.67,0,0,1-.21.33.58.58,0,0,1-.39,0c-1.09-.16-3.28-.06-4.19-.66-1.17-.77-.24-1.9.3-2.89a5.29,5.29,0,0,1,1.73-2.12,5.88,5.88,0,0,1,1.84-.62,1.81,1.81,0,0,1,.73-.05c.59.12.88.81,1,1.41A10.51,10.51,0,0,1,117.49,463.41Z"/><path class="cls-11" d="M94,509.86l.31.41c.17.23.61.26.69-.09.44-2.15,2.08-4.34,3-6.41,1.28-3,2.85-5.94,4.14-9,2.08-4.92,3.28-9.08,8.23-11.61,2.61-1.33,5-1.69,7.05-4,.32-.36-.21-.89-.53-.53-2.17,2.48-6.41,2.93-9.22,4.9s-4.08,5.73-5.4,8.84c-1.38,3.27-2.92,6.44-4.38,9.66-.54,1.2-3.66,6.78-3.19,7.4-.28-.38-.94,0-.65.38Z"/><path class="cls-11" d="M114.14,481.72c1.5,0,1.58-1.08,2.81-1.92.72-.48,1.76-.41,2.41-.89,2.87-2.16,1.12-5.67.87-8.08-.17-1.67.26-2.81-.21-4.37-.82-2.67-.7-2.09-.21-5.33.21-1.37-.15-5.56-.3-1.16-.07,1.83-1,3.21-1.54,4.94a.38.38,0,0,0,.73.2c.34-1.19,1.28-2.22,1.51-3.48.27-1.49-.15-3-.15-4.52a.38.38,0,0,0-.75,0c0,2.64-1.25,5.2-1.22,7.76,0,.34.14.67.18,1,.2,2,1,3.22.89,5.21-.09,2.24,1.48,5.17-.45,7.08-.15.15-4.77,2.81-4.57,2.81a.38.38,0,0,0,0,.75Z"/></g><path class="cls-12" d="M120.07,434.71c-2.42,0-4.74,1.86-6.2,3.56-1,1.13-2.88,3.05-2.24,4.75v-1.25a8.23,8.23,0,0,1-.37,1V444c.1-.41.27-.76.35-1.18v-1.25a26.58,26.58,0,0,1-1,2.8c-.12.36.15.92,0,1.25a9.87,9.87,0,0,0,.63-1.55c.1-.37-.15-.92,0-1.25a9.32,9.32,0,0,0-.6,4.28v0a8.57,8.57,0,0,1,.52-2.46c.15-.35-.16-.91,0-1.25a5.76,5.76,0,0,0-.58,1.26c0,.26,0,1.15.05.7,0-.21-.14-1.1,0-1.23-.49.5-.34,1.68-.34,2.34,0,1.07,0,1.48.37-.08.08-.38-.13-.89,0-1.25a4.49,4.49,0,0,0-.13,1.64V446l0-.37a3.38,3.38,0,0,1,0-.45l-.09,0a1.61,1.61,0,0,1,0-.31,14,14,0,0,0-.06,2.15,3.47,3.47,0,0,0,.08.79c.26.88.09-.24.14-.16a3.77,3.77,0,0,0,.13.58,3.31,3.31,0,0,1,0-.63v-.81a2.58,2.58,0,0,1,0-.62c-.35,1.33.13,1.13-.39.12-.28-.56-.1-.06-.13.33a3.78,3.78,0,0,0,.29,2c-.18-.31.18-.93,0-1.25a2.93,2.93,0,0,1-.28-1.09v1.25c.26-1.05,0,.71.3.88s.11-.65.21-1V447a2.74,2.74,0,0,1-.08-.64,1.61,1.61,0,0,1,0-.31c-.22,1.09-.18.76-.27-.21v1.23c0-.76,0-.76.08-.05v0c.16-1.34,0-.2.12.19a4.17,4.17,0,0,1,0-.79v.27l.12-.33v-1.25c0,.14-.24,1.46-.36,1V447c0-.32,0-1.25.32-1.56v-1.23c0,.88-.11,1.71-.11,2.6,0,.17,0,.52,0,.61a5.68,5.68,0,0,1,.64-2.71v-1.25a8.49,8.49,0,0,0-.55,2.26v.94a6.59,6.59,0,0,1,.62-2.55v-1.25a9.87,9.87,0,0,1-.63,1.55v1.25a26.58,26.58,0,0,0,1-2.8c.07-.41-.08-.85,0-1.25-.08.41-.25.78-.35,1.18s.14.9,0,1.25a3.46,3.46,0,0,0,.34-2.32v1.25c1.63-3.1,4.55-7,8.47-7,0,0,0-1.25,0-1.25Z"/></g><g id="head"><path id="neck" class="cls-13" d="M116.08,226.83a22.18,22.18,0,0,1-10,25.32c22.75,14.08,52.88,15.36,76.75,3.25A51.39,51.39,0,0,1,166,231.94Z"/><ellipse id="face" class="cls-14" cx="147.8" cy="154.51" rx="73" ry="81"/><path id="hair" class="cls-15" d="M190.3,192c-4.6,2.44-5.46,5.89-5.18,11.08s2.58,10,5,14.62a166.9,166.9,0,0,0,31.63,41.42c18.45-61.75,37.12-125.38,31-189.54-2-20.84-7.51-43.06-23.65-56.41C212.61-.53,189-1.46,167.62,1.18c-4.54.56-9.21,1.3-13.11,3.69s-6.86,7.41-6.22,11.94c2.49-4.32-.46-10.18-4.93-12.4s-9.77-1.7-14.66-.69C106.53,8.28,85.89,21.17,73.8,40.31,53.08,73.13,45.31,113.05,47.26,151.82S60.37,228.4,75.14,264.29A118.85,118.85,0,0,0,93,211.65c.91-10.08,5-21,3.29-31C95,173,91.73,165.73,90.93,158s1.64-16.68,8.58-20.23c-.43-3.05-.85-6.2-.05-9.18s3.14-5.77,6.21-6.1c2.88-.31,5.49,1.51,8.14,2.69a19.81,19.81,0,0,0,20.91-3.37A15.56,15.56,0,0,0,162.23,120a13.55,13.55,0,0,0,24.41,3.72,15.8,15.8,0,0,0,17.2,9.54c1.94,10.54,3.89,21.27,2.6,31.91S200.63,185,191.3,191Z"/><g id="glasses"><path class="cls-16" d="M133.41,162.76a24.67,24.67,0,0,1-7.29,13.47c-5.74,5.29-14.68,7.17-21.71,3.79a21.22,21.22,0,0,1-7.71-6.59,27,27,0,0,1-5.19-17.77c.44-6.29,3.87-12.66,8.29-17.15.74-.79,0,0,1.3-.64a12.77,12.77,0,0,1,3.75-1,46.48,46.48,0,0,1,11.47-.61,20,20,0,0,1,10.62,4c4.35,3.5,6.49,9.17,6.93,14.73A28.58,28.58,0,0,1,133.41,162.76Z"/><path class="cls-17" d="M204.49,148.4A33.68,33.68,0,0,1,207,168.49a25.38,25.38,0,0,1-11.15,16.61c-5.85,3.59-13.57,4.21-19.65,1.05-4-2.05-5.36-3.56-9.14-9.21a27.38,27.38,0,0,1,18.59-38.82c3.6-.8,7.5-.84,10.8.78C200.28,140.75,202.79,144.53,204.49,148.4Z"/><path class="cls-18" d="M99.8,138.51c.74-.79,0,0,1.3-.64a12.77,12.77,0,0,1,3.75-1,46.48,46.48,0,0,1,11.47-.61,20,20,0,0,1,10.62,4c4.35,3.5,6.49,9.17,6.93,14.73a28.58,28.58,0,0,1-.46,7.77,24.67,24.67,0,0,1-7.29,13.47c-5.74,5.29-14.68,7.17-21.71,3.79a21.22,21.22,0,0,1-7.71-6.59,27,27,0,0,1-5.19-17.77c.44-6.29,3.87-12.66,8.29-17.15"/><path class="cls-19" d="M133.3,162.82l.11-.06a33,33,0,0,1,30-.11"/><path class="cls-19" d="M167.09,176.94l-.29-.43"/><path class="cls-19" d="M167.09,176.94a27.38,27.38,0,0,1,18.59-38.82c3.6-.8,7.5-.84,10.8.78,3.8,1.85,6.31,5.63,8,9.5A33.68,33.68,0,0,1,207,168.49a25.38,25.38,0,0,1-11.15,16.61c-5.85,3.59-13.57,4.21-19.65,1.05C172.27,184.1,170.87,182.59,167.09,176.94Z"/><path class="cls-19" d="M167.21,177.19l-.12-.25"/></g><g id="pupils"><ellipse class="cls-20" cx="185.93" cy="167.61" rx="10.91" ry="9.06" transform="translate(-12.37 320.39) rotate(-79.65)"/><ellipse class="cls-20" cx="112.8" cy="163.01" rx="10" ry="10.5"/></g><g id="nose"><path class="cls-21" d="M156.72,188.59a10.93,10.93,0,0,1-2.52,2.81,3.71,3.71,0,0,1-3.59.51c-1.11-.53-1.78-1.76-2.91-2.24-2.54-1.07-5,2.23-7.79,2.05-2.15-.14-3.62-2.48-3.59-4.64s1.13-4.14,2.2-6l4.93-8.62"/></g><path class="cls-22" d="M161.79,213.76a44.13,44.13,0,0,1-34.41-2.93v-.62a11.43,11.43,0,0,1,19.43-1,5.3,5.3,0,0,1,5.1-3.8,8.71,8.71,0,0,1,6.09,2.73,19.11,19.11,0,0,1,2.6,3.33c.37.59.76,1.19,1.09,1.81s.12.72,0,1.37a9.67,9.67,0,0,1-4.23,5.82,22.73,22.73,0,0,1-7.62,2.91c-2.81.65-5.76,1.16-8.56.48a14.91,14.91,0,0,1-4.52-2.06c-4.24-2.72-7.93-5.93-9-10.91"/></g><g id="laptop"><path id="body" class="cls-23" d="M38.53,330.47a11.48,11.48,0,0,1,3.57-8.57,33.44,33.44,0,0,1,7.79-5.5L118,277.34a228.26,228.26,0,0,0,9.85,21.17C144.37,329,151.36,362.27,166,393c-3.37,7.09-10.83,11.34-17.79,15L96.45,434.89c-2.57,1.33-5.49,2.7-8.24,1.8s-4.27-3.67-5.56-6.22L50.21,366.35c-5.93-11.71-12-24-11.93-37.11"/><circle class="cls-24" cx="101.3" cy="356.01" r="10.5"/><path class="cls-25" d="M94.33,353.35c.49-.15,1.13.75,1.31,1.11A20.62,20.62,0,0,1,96.79,357c.33.95.81,1.83,1.2,2.75a4,4,0,0,1,.19.85c0,.21.19.37.25.58s0,.35,0,.53.19.32.14.55"/><path class="cls-25" d="M97.67,351c.06.2.32.33.48.48s.46.45.71.67a9.65,9.65,0,0,1,1.83,2.19,20.77,20.77,0,0,1,1.72,3.55c.22.56.35,1.15.55,1.72.09.27.33.47.28.78"/><path class="cls-25" d="M102.76,349.85a1.56,1.56,0,0,1,1.27.54,15.32,15.32,0,0,1,2.14,2.62,12.7,12.7,0,0,1,1.41,3,9.3,9.3,0,0,0,.39,1.16c.1.21.25.37.2.62"/></g><g id="arms"><path id="left_arm" data-name="left arm" class="cls-13" d="M258.73,417.2c-2.42,6.68-4.85,13.41-8.34,19.6-2.25,4-5,7.82-8.85,10.31-6.71,4.37-15.32,3.91-23.32,3.77a204.35,204.35,0,0,0-22.54.85,64.83,64.83,0,0,0-15.22,2.85c-5.33,1.83-10.17,4.79-15.2,7.33s-10.42,4.7-16,4.73-11.55-2.47-14.31-7.38l13-.69a50.63,50.63,0,0,1-15.1.44,13.27,13.27,0,0,1-6.63-2.21c-1.87-1.44-3-4.08-2.06-6.24a2.76,2.76,0,0,1,1.36-1.47,4.5,4.5,0,0,1,3.18.34,27.51,27.51,0,0,0,17.59,0c-4.9,1-10,2.06-14.87.8s-9.31-5.58-8.95-10.59a49.7,49.7,0,0,0,21.63,2,107.06,107.06,0,0,1-22-3.27,2.59,2.59,0,0,1,1.69-3.09,9.07,9.07,0,0,1,4-.81c7,.75,13.81,1.28,20.74.34-2.83-4.65-9.41-4.74-14.34-7.05a2.24,2.24,0,0,1-1.2-1c-.59-1.37,1.45-2.31,2.93-2.37a48.34,48.34,0,0,1,19.26,3.22,22.64,22.64,0,0,0,4.35,1.44c2.94.5,5.92-.45,8.74-1.46,14.93-5.37,29.51-12.94,45.37-13.68,2.86-.14,6.32-.39,7.61-2.95a7.53,7.53,0,0,0,.59-3.09l1.75-36.63a3.68,3.68,0,0,1,.67-2.36,3.59,3.59,0,0,1,1.76-.88,158.67,158.67,0,0,1,32.22-5.65,11.89,11.89,0,0,1,5.41.48c3.17,1.3,3.56,4.2,3.76,7.16a88.27,88.27,0,0,1,.55,10.3c-.36,8.06-2.29,16-4.69,23.64C261.88,408.42,260.31,412.81,258.73,417.2Z"/><path id="right_arm" data-name="right arm" class="cls-13" d="M55.8,377.51c-3.53,1.76-8,7.32-9.64,10.9a28.42,28.42,0,0,1-19.88,15.74c6.71-5,15.65-5.61,24-6.33s17.41-2.12,23.2-8.2c1.84-1.94,3.29-4.29,5.52-5.77s5.66-1.67,7.21.5L77.66,395.5l17.18-16c2-1.83,5.24-3.63,7-1.58,1.58,1.88-.25,4.64-2,6.38L87.17,396.77A56.27,56.27,0,0,1,105,382.52c2.7-1.37,6.77-2.11,8.11.6,1.13,2.29-.86,4.83-2.69,6.6l-12.6,12.17L113.14,388a13.68,13.68,0,0,1,4.15-2.91,4.64,4.64,0,0,1,4.79.68c2,2,.92,5.38-.64,7.73A30.46,30.46,0,0,1,104.08,406c2.13.72,4.44-.37,6.19-1.77s3.25-3.17,5.25-4.18,4.82-1,6.11.87c1.81,2.57-.63,6-3,8a97.7,97.7,0,0,1-18.4,12.64l.56-1.83C99.07,424,93.53,424.71,89,425a147.1,147.1,0,0,0-33.92,6.24C47,433.75,39,437,30.51,437.67S12.76,436,7.64,429.21c-3.09-4.07-4.32-9.23-5.15-14.27C-3,381.78,1.67,352.66,22.8,326.51c6.94-9.85,25.62,57.62,32,51"/></g></g></g></svg>