<?xml version="1.0" encoding="utf-8"?>
<!-- Generator: Adobe Illustrator 23.0.1, SVG Export Plug-In . SVG Version: 6.00 Build 0)  -->
<svg version="1.1" id="outline" xmlns="http://www.w3.org/2000/svg" xmlns:xlink="http://www.w3.org/1999/xlink" x="0px" y="0px"
	 viewBox="0 0 271 295.4" style="enable-background:new 0 0 271 295.4;" xml:space="preserve">
<style type="text/css">
	.st0{fill:#F7B50C;stroke:#000000;stroke-width:0.5363;stroke-miterlimit:10;}
	.st1{fill:#F7B50C;}
	.st2{fill:#E0CDAA;stroke:#000000;stroke-width:0.5363;stroke-miterlimit:10;}
	.st3{fill:#EFEDC2;stroke:#000000;stroke-width:0.5363;stroke-miterlimit:10;}
	.st4{fill:#F75800;stroke:#000000;stroke-width:0.5363;stroke-miterlimit:10;}
	.st5{fill:none;stroke:#000000;stroke-width:1.0725;stroke-miterlimit:10;}
	.st6{fill:#494948;stroke:#000000;stroke-width:0.1341;stroke-linecap:round;stroke-miterlimit:10;}
	.st7{fill:#3F3F3F;}
	.st8{fill:#F7931E;stroke:#1A1818;stroke-width:0.5363;stroke-linecap:round;stroke-miterlimit:10;}
	.st9{fill:#E5811F;stroke:#1A1818;stroke-width:0.2681;stroke-linecap:round;stroke-miterlimit:10;}
	.st10{fill:#C17427;}
	.st11{fill:#FFA04A;}
	.st12{fill:#CC9F72;stroke:#000000;stroke-width:0.4022;stroke-miterlimit:10;}
	.st13{fill:#CC9F72;stroke:#000000;stroke-width:0.2735;stroke-miterlimit:10;}
	.st14{fill:#110909;}
	.st15{fill:#D1D1D1;}
	.st16{fill:#E0E0E0;}
	.st17{fill:none;stroke:#545353;stroke-width:2.6814;stroke-miterlimit:10;}
	.st18{fill:none;stroke:#545353;stroke-width:2.794;stroke-miterlimit:10;}
	.st19{fill:#D43E00;stroke:#D43E00;stroke-width:2.6814;stroke-miterlimit:10;}
	.st20{fill:#DDB300;stroke:#D43E00;stroke-width:1.5606;stroke-miterlimit:10;}
	.st21{stroke:#000000;stroke-width:2.853;stroke-miterlimit:10;}
	.st22{fill:none;stroke:#000000;stroke-width:0.4022;stroke-miterlimit:10;}
	.st23{fill:#ED6464;stroke:#000000;stroke-width:0.252;stroke-miterlimit:10;}
	.st24{fill:none;stroke:#000000;stroke-width:0.252;stroke-miterlimit:10;}
	.st25{fill:#3F3F3F;stroke:#000000;stroke-width:0.5363;stroke-miterlimit:10;}
	.st26{fill:#050504;stroke:#000000;stroke-width:0.5041;stroke-miterlimit:10;}
	.st27{fill:#DBDBD9;stroke:#FFFFFF;stroke-width:0.5363;stroke-miterlimit:10;}
</style>
<title>characterangry</title>
<g id="shirt">
	<path class="st0" d="M120,144.7c-9.1,3.6-17.1,9.9-24.5,16.3l-6.2,5.3c-3.6,3-7,6.2-10.2,9.5c-0.7,0.7-2.8,5-3.1,5.9
		c-0.6,2,2.3,0.6,3.6,2.3c4.2,5.4,6.3,14.3,9.8,20.2c0.9,1.5,2.9,1.2,3.8,2.7c0.3,0.6,1.4,0,1.5,0.7c0.1,0.7-0.3,1.5-0.5,2.2
		c-0.8,3.5,2.8,7.5,2.2,11c-1.2,7.3-4.4,16.7-4.3,24.1c0.1,10.3-0.7,19.7-3.3,25.7c-1.6,3.7,0.8,7.9,1.1,12c0.1,1.5,0.3,3,1.3,4.1
		c0.9,0.9,2.4,1.2,3.7,1.3c28.4,3.5,57.2,1.4,85.3-3.7c0.4,0,0.8-0.4,0.8-0.8c0-0.1,0-0.2,0-0.3c-0.6-10.9-1.2-21.7-1.8-32.6
		c-0.4-7,1.8-13.7,2.3-20.7c0.3-3.8,0.5-7.7,0.5-11.5c0-1.3,0-2.6,0-3.9c0-1.5-0.4-2.5,0.8-3.3c2-1.4,5.8-1.7,8.2-2.1
		c5.5-0.9,11.2-1,16.8-1.1c-4.8-14.9-4.5-31.4-12.1-45.1c-0.9-1.7-2.1-3.3-3.4-4.7c-1.3-1.2-2.8-2.2-4.3-3
		c-8.4-4.8-17.5-7.4-27.1-8.8"/>
	<path id="right_arm_sleeve" class="st0" d="M71.7,186c0.4-1.3,1.3-2.3,2.5-3c0.6-0.3,1.2-0.5,1.9-0.7c0.4-0.2,0.9-0.3,1.3-0.3
		c0.1,0.4,0.3,0.7,0.6,0.9c0.9,0.9,1.7,1.9,2.6,2.8c1.1,1,2.1,2,3,3.1c0.8,1,1.6,2,2.4,2.9c0.2,0.3,0.2,0.4,0.3,0.7
		c0.3,0.5,1,1,1.3,1.4c0.8,1.1,1.6,2.2,2.3,3.3c0.9,1.5,2.1,2.8,3,4.2c0.8,1.2,1.6,2.5,2.5,3.7c0.5,0.6,0.8,1.2,1.3,1.8
		c0.4,0.4,0.8,0.9,1.1,1.4c0.3,0.7-0.1,0.8-0.6,1.2c-0.5,0.4-0.9,0.9-1.3,1.4c-0.7,0.7-1.3,1.5-1.8,2.3c-0.1,0.3-0.3,0.6-0.6,0.8
		c-0.3,0.2-0.4,0.1-0.5-0.1c-0.5-0.7-1.3-1.2-1.9-1.9c-1-1.2-1.9-2.4-2.8-3.7c-0.7-1-1.2-2-1.9-3c-1.1-1.5-2.1-3.1-3.2-4.6
		c-1.3-1.6-2.7-3.2-4.3-4.7c-0.8-0.8-1.6-1.6-2.4-2.5c-0.5-0.5-0.9-1.1-1.3-1.6c-0.4-0.4-0.7-0.8-1.1-1.2c-0.6-0.6-1.1-1.3-1.7-2
		c-0.5-0.5-1-0.8-1.1-1.5c0-0.3-0.1-0.5-0.1-0.8c-0.1-0.5,0-0.3,0.2-0.5c0.4-0.4,0.3-0.8,1-0.9"/>
	<path class="st1" d="M78.7,181c0,1.2-0.2,2.5,0.1,3.8l1.5-0.6c-0.4-0.8-1.1-1.9-1.9-2.4c-0.8-0.4-1.3,0-1.9,0.6l1.3,0.4l0.1-0.1
		l-1.1-0.3c0.4,0.6,1.1,0.9,1.6,1.3c0.7,0.5,1.2,1.2,1.7,1.8c0.5,0.6,0.8,1.2,1,2c0.1,0.5,0.1,0.9,0.6,1.2c0.9,0.4,1.8-1,0.8-1.4
		c0.4,0.2,0.1,0.2,0.1-0.2c0-0.3,0-0.7-0.2-1c-0.4-0.7-0.8-1.3-1.3-1.8c-0.5-0.6-0.9-1.1-1.5-1.5c-0.3-0.3-0.5-0.5-0.8-0.7
		c-0.2-0.2-0.6-0.2-0.8-0.5c-0.2-0.4-0.7-0.5-1.1-0.3c-0.7,0.3-1.1,1.1-0.8,1.9c0.1,0.4,0.6,0.7,1,0.5c0.1,0,0.2-0.1,0.3-0.2
		c0.5-0.5,0.2-0.2,0.5,0.3c0.2,0.4,0.5,0.7,0.7,1.2c0.4,0.9,1.6,0.2,1.5-0.6c-0.2-1,0-2.3,0-3.3c0-0.4-0.4-0.8-0.8-0.8
		C79,180.2,78.7,180.6,78.7,181L78.7,181z"/>
	<path class="st1" d="M81.2,184.7c0,0.2,0,0.4,0.1,0.5c0,0.2-0.1,0.3,0.1,0.1l0.5-0.4c-0.3,0.1-0.6-0.1-0.9-0.2
		c-0.2,0-0.8-0.4-0.7-0.1l0.1,0.6c0,0.1,0.9,0,1,0c0-0.3,0-0.3,0-0.1l0,0.2c0,0.3,0.1,0.5,0.1,0.8c0,0.4,0,0.9,0.1,1.3
		c0.1,0.4,0.3,0.9,0.4,1.4c0.2,1,1.7,0.6,1.5-0.4c-0.1-0.3-0.2-0.7-0.3-1c-0.1-0.3-0.1-0.6-0.1-0.9c0-0.7-0.1-1.4-0.2-2
		c-0.4-1.2-2.4-1.1-3.4-0.6c-0.6,0.2-0.9,0.9-0.7,1.5c0,0,0,0,0,0.1c0.3,0.6,1.1,0.7,1.6,0.8c0.5,0.2,1.4,0.5,2,0s0.3-1.1,0.3-1.7
		C82.6,183.7,81,183.7,81.2,184.7L81.2,184.7z"/>
</g>
<g id="notebook">
	<path class="st2" d="M148.8,170.5h1.3c1.7,0,3.5,0.2,5.2,0c1.7-0.3,3.5-0.5,5.3-0.5c0.9-0.1,1.7-0.2,2.6-0.4
		c1.2-0.2,2.4-0.4,3.6-0.5c1.5-0.1,3-0.5,4.6-0.5c1.7,0,3.4,0,5.2,0h2.5c0.3,0,0.5,0,0.8,0c0.2-0.1,0.3-0.5,0.6-0.3
		c-0.4,0.9-1.3,1.6-1.6,2.6c-0.1,0.5,0.1,1.1,0,1.6c-0.1,0.2-0.1,0.4-0.2,0.6c0,0.3,0,0.6,0,0.9c0,0.3,0,0.5-0.1,0.8
		c-0.1,0.3,0,0.5-0.1,0.8c-0.1,0.3-0.2,0.3-0.2,0.6c0,0.3-0.1,0.6-0.1,0.8c-0.1,0.3-0.1,0.6-0.2,0.9s-0.2,0.5-0.2,0.8
		c-0.1,0.5-0.1,1-0.2,1.5c-0.1,0-0.2,0-0.1-0.2"/>
	<g id="nn">
		<path class="st3" d="M176.7,179.4c0-0.5,0-1.1,0-1.7c0-0.1,0-0.2-0.1-0.3c0-0.2,0-0.3,0-0.5s0-0.2,0-0.3c-0.2,0-0.3-0.1-0.5-0.1
			l-0.5-0.1c-0.2,0-0.4,0-0.5-0.1c-0.3-0.1-0.6-0.2-0.8-0.3c-0.1,0-0.3-0.1-0.4-0.2l-0.2-0.1c-0.1,0-0.2-0.1-0.3-0.1
			c-0.1,0-0.2-0.1-0.3-0.1c-0.2,0-0.3-0.1-0.5-0.1c-0.3-0.1-0.6-0.2-0.9-0.2c-0.3-0.1-0.4-0.1-0.7-0.2c-0.2-0.1-0.5-0.2-0.8-0.3
			c-0.1-0.1-0.2-0.1-0.3-0.2c-0.1,0-0.1,0-0.2,0c-0.1,0-0.2-0.1-0.3-0.1c-0.3-0.1-0.5-0.1-0.8-0.2c-0.3-0.1-0.7-0.2-1-0.3
			c-0.4-0.1-0.8-0.2-1.2-0.3c-0.3-0.1-0.6-0.1-0.9-0.2c-0.3-0.1-0.7-0.2-1.1-0.3c-0.5-0.1-1.1-0.1-1.7-0.2c-0.3,0-0.5-0.1-0.8-0.1
			c-0.1,0-0.1,0-0.2,0c-0.1,0-0.2,0-0.3,0c-0.3-0.1-0.5-0.1-0.8-0.1c-0.3,0-0.5-0.1-0.8-0.1c-0.1,0-0.2-0.1-0.3-0.1h-1.5
			c-0.1,0-0.2,0-0.3,0c-0.1,0-0.1-0.1-0.2-0.1h0.2"/>
	</g>
	<path class="st4" d="M141.8,192.7c0-0.7,0.2-1.1,0.2-1.8c0-0.4,0-0.7,0-1.1c0-0.1,0.1-0.1,0.1-0.2c0.1-0.5,0.3-1,0.4-1.6
		c0.1-0.7,0.3-1.2,0.5-1.9c0.1-0.6,0.4-1.1,0.5-1.7c0.4-1.3,0.7-2.7,1.2-4c0.5-1.2,0.9-2.4,1.2-3.6c0.2-0.6,0.4-1.2,0.6-1.8
		c0.2-0.6,0.4-1.2,0.7-1.8c0.2-0.6,0.4-1.2,0.7-1.8c0.3-0.6,0.6-1.1,1.3-0.8c0.5,0.1,0.9,0.6,1.4,0.8c1.2,0.3,2.5,0.5,3.8,0.6
		c1,0.1,2.1,0.4,3.1,0.7c0.9,0.3,1.9,0.5,2.9,0.8c0.6,0.1,1.1,0.2,1.7,0.2c1.8,0.4,3.6,1.1,5.2,1.9c1.6,0.7,3,1.7,4.7,2.3
		c0.6,0.2,1.3,0.5,1.9,0.8c0.8,0.4,1.6,0.7,2.4,0.9c1,0.3,2,0.6,3,1c0.4,0.2,0.9,0.2,1.3,0.4c0.3,0.1,0.6,0.2,0.9,0.2
		c0.3,0,0.3-0.1,0.4,0.2c0,0.2,0,0.4,0,0.5c-0.1,0.1-0.2,0.3-0.3,0.4c-0.2,0.4-0.4,0.8-0.6,1.2c-0.9,2.1-1.5,4.4-2.4,6.5
		c-0.2,0.4-0.4,0.8-0.5,1.2c-0.2,0.5-0.2,1.1-0.4,1.6c-0.4,1-0.6,2.1-1,3.1c-0.4,1-0.8,1.9-1.1,2.9c-0.3,1-0.6,2-0.9,3
		c0-0.1,0-0.2,0-0.2c0,0.7-0.2,1.4-0.5,2c-0.6,1.5-1.2,2.9-1.7,4.4c-0.5,1.6-1.1,3.1-1.6,4.7c-0.5,1.4-1.2,2.7-1.6,4.2
		c-0.1,0.4-0.3,0.8-0.5,1.3c-0.1,0.4-0.2,0.8-0.3,1.1c-0.2,0.9-0.6,1.8-0.9,2.7c-0.2,0.5-0.2,1-0.4,1.4c-0.2,0.4-0.4,0.8-0.5,1.2
		c-0.3,1-0.7,2-1.2,3c-0.6,1.1-0.9,2.3-1.4,3.4c-0.1,0.3-0.2,0.6-0.3,0.9c-0.1,0.3-0.4,0.5-0.3,0.9c0-0.1-0.1-0.1-0.1-0.1
		c0,0,0,0,0,0c-0.2,0.6-0.3,1.2-0.5,1.8c-0.3,0.8-0.7,1.5-1,2.3c-0.4,1.2-0.9,2.4-1.5,3.6c-0.1,0.2-0.3,0.6-0.5,0.7
		c-0.3,0-0.4-0.2-0.5-0.3c-0.2-0.1-0.4-0.1-0.5-0.1c-1.5,0-3.1-0.2-4.5-0.6c-1.3-0.3-2.7-0.5-4-1c-0.6-0.3-1.2-0.5-1.8-0.7
		c-0.1,0-0.1,0-0.3,0c-0.8-0.1-1.5-0.2-2.3-0.3c-1.3-0.3-2.7-0.3-4-0.7c-0.9-0.2-1.7-0.5-2.5-0.6c-0.9-0.2-1.5-0.5-2.3-0.7
		c-0.7-0.1-1.4-0.3-2-0.6c-0.2-0.1-0.3-0.2-0.5-0.3c-0.3-0.1-0.7-0.1-1-0.3c-0.2-0.1-0.4-0.3-0.5-0.4c-0.1-0.2-0.5-0.3-0.7-0.5
		c-0.3-0.3-0.3-0.4-0.3-0.8c0-0.2-0.1-0.5-0.2-0.7c-0.1-0.2-0.4-0.4-0.5-0.6c-0.3-0.4-0.1-0.9-0.3-1.3c-0.2-0.5-0.3-1-0.2-1.6
		c0-1.6,0.6-3.2,0.9-4.8c0-0.1,0.1-0.1,0.2-0.2c0-0.3,0-0.5,0-0.8c0.1-0.5,0.3-1.1,0.5-1.6c0.4-0.8,0.7-1.7,0.9-2.5
		c0.1-0.3,0-0.6,0-0.8c0.1-0.3,0.2-0.5,0.3-0.7c0.2-0.5,0.3-1,0.4-1.4c0.1-0.5,0.2-0.9,0.4-1.3c0.2-0.6,0.2-1.2,0.3-1.8
		c0.3-1.4,0.7-2.8,1.1-4.2c0.2-0.7,0.5-1.3,0.8-2c0.3-0.6,0.5-1.3,0.7-2c0.2-0.8,0.5-1.6,0.9-2.4c0.2-0.6,0.4-1.3,0.6-1.9
		c0.2-0.8,0.5-1.5,0.8-2.2c0.1-0.4,0.2-0.8,0.3-1.2c0.1-0.3,0.2-0.6,0.4-0.9c0.1-0.2,0.1-0.5,0.2-0.7c0.1-0.3,0.2-0.7,0.3-1.1
		c0.1-0.5,0.3-1,0.6-1.5c0.3-0.6,0.7-1.1,0.7-1.7"/>
	<path class="st5" d="M144.5,189.5c-0.1-0.6,0-1.3,0.1-1.9c0.1-0.2,0.2-0.4,0.3-0.6c0-0.2,0-0.3,0.1-0.5c0.1-0.2,0.2-0.2,0.2-0.3
		c0.1-0.3,0.1-0.6,0.2-0.8c0.1-0.2,0.2-0.5,0.4-0.7c0.2-0.3,0.3-0.6,0.4-0.9c0.2-0.4,0.4-0.8,0.5-1.2c0.1-0.3,0.2-0.5,0.4-0.8
		c0.2,0.2,0.2,0.5,0.3,0.6c0.2,0.2,0.6,0.2,0.9,0.3c0.3,0.1,0.6,0.2,0.9,0.3c0.8,0.3,1.5,0.8,2.3,1"/>
	<path class="st5" d="M145.6,185.4c0.3,0,0.5,0,0.8,0c0.4,0.1,0.8,0.3,1.1,0.5c0.5,0.2,0.8,0.6,1.2,0.9"/>
	<path class="st5" d="M152.4,184.7c-0.1,0.3-0.2,0.5-0.3,0.8c-0.3,0.6-0.5,1.3-0.8,1.9c-0.3,0.7-0.6,1.4-0.9,2.1
		c-0.1,0.3-0.4,0.9-0.4,1.2"/>
	<path class="st5" d="M152.4,191.3c0-1.1-0.1-2.1,0.4-3.1c0.2-0.3,0.3-0.6,0.5-0.9c0.1-0.2,0.1-0.4,0.2-0.6c0.1-0.4,0.3-0.7,0.5-1
		c0.1-0.1,0.3-0.3,0.5-0.2c0,0,0.1,0.3,0.1,0.3c0.1,0.1,0.2,0.2,0.4,0.2c0.9,0.4,1.8,0.4,2.7,0.7c0.3,0.1,0.7,0.2,0.8,0.5"/>
	<path class="st5" d="M153.1,188.1c0.6,0,1.2,0.1,1.8,0.3c0.4,0.1,0.8,0.4,1.2,0.7c0.1,0.1,0.3,0.2,0.4,0.3"/>
	<path class="st5" d="M152,191.1h0.7c0.8,0,1.1,0.3,1.7,0.7c0.4,0.2,0.8,0.4,1.1,0.6c0.2,0.1,0.3,0.3,0.5,0.4"/>
	<path class="st5" d="M161.7,187.4c0,0.4,0,0.8-0.1,1.1c-0.2,0.7-0.5,1.4-0.7,2.1c-0.2,0.5-0.1,1.1-0.3,1.6
		c-0.1,0.5-0.3,0.9-0.4,1.4c0,0.1,0,0.3-0.1,0.4c0,0.1-0.2,0.1-0.2,0.2c0,0.3,0.5,0.2,0.7,0.2c0.9,0,1.7,0.5,2.5,0.8
		c0.2,0.1,1,0.3,1.1,0.5"/>
	<path class="st5" d="M167.4,197.8c-0.1-0.5,0.4-1.1,0.5-1.6c0.1-0.3,0.1-0.7,0.2-1c0.1-0.5,0.3-1,0.5-1.5c0.5-1.1,0.8-2.2,0.9-3.3
		c0-0.3,0-0.6,0-0.9c0.2,0,0.3-0.2,0.5,0c0.3,0.2,0.6,0.5,0.8,0.8c0.6,0.5,1.1,1.2,1.4,1.9c0.1,0.3,0.3,0.5,0.3,0.8
		c0,0.2,0.1,0.4,0.2,0.5c0.1,0.4,0.2,0.8,0.1,1.2c0,0.2,0,0.5,0,0.8c-0.1,0.2-0.5,0.4-0.7,0.4c-1.1,0.3-1.6,1.2-2.6,1.7
		c-0.3,0.2-0.7,0.4-1.1,0.5c-0.2,0-0.5,0-0.7,0c-0.3-0.1-0.2-0.3-0.2-0.5"/>
	<path class="st5" d="M143,197.1c0.1-0.7,0.3-1.4,0.6-2.1c0.2-0.6,0.7-1,1.3-1c0.2,0,0.5,0,0.7,0c0.3,0.2,0.6,0.4,0.8,0.7
		c0.4,0.4,0.5,1,0.5,1.6c0,0.5,0,0.9,0,1.4c-0.1,0.5-0.5,0.8-0.9,1.1c-0.3,0.2-0.6,0.4-0.9,0.6c-0.2,0.1-0.4,0.1-0.6,0.2
		c-0.2,0.1-0.4,0.2-0.6,0.2c0.2,0,0.3,0,0.5,0c0.1,0,0.1-0.1,0.3-0.2c0.3-0.1,0.6,0,0.9,0.1c0.4,0.4,0.6,0.9,0.8,1.5
		c0.3,0.9,0.3,2.8-1,2.8"/>
	<path class="st5" d="M163.2,202.2c0,0.3,0,0.6,0,0.9c0,0.4,0,0.8,0,1.2c-0.2,0.7-0.4,1.3-0.6,2c-0.2,0.9-0.5,1.8-0.8,2.7
		c-0.1,0.3-0.2,0.5-0.5,0.7c-0.1-0.3-0.1-0.5,0-0.8c0.1-0.2,0.1-0.4,0.2-0.5c0.3-0.6,0.6-1.2,1-1.8c0.5-0.6,1-1.2,1.5-1.8
		c0.3-0.4,0.7-0.7,1.1-1c0.2-0.1,0.8-0.5,1-0.4c-0.1,0.2-0.3,0.3-0.4,0.4c-0.4,0.3-0.8,0.7-1.2,0.9c-0.3,0.2-0.6,0.4-0.9,0.5
		c-0.1,0-0.3,0.1-0.4,0.2c-0.1,0.1-0.5,0.4-0.5,0.6c0,0.1,0.4,0.2,0.5,0.3c0.2,0.1,0.4,0.3,0.5,0.5c0.4,0.7,0.6,1.5,0.8,2.3
		c0,0.3,0.1,0.7,0.2,1c0,0.1,0.1,0.1,0.1,0.1c0,0.1,0,0.1,0.1,0.2c0,0.1,0.2,0.3,0.1,0.5"/>
	<path class="st5" d="M148.3,202.3c0-0.2,0-0.4,0-0.6c0-0.1,0.1-0.2,0.1-0.2c0-0.1,0.1-0.2,0.1-0.3c0.1-0.2,0.3-0.4,0.5-0.6
		c0.3-0.4,0.6-0.7,1-1c0.4-0.3,0.8-0.6,1.3-0.7c0.4-0.1,0.7-0.1,1.1-0.1c0.6,0,1.1,0.3,1.4,0.8c0.3,0.4,0.4,0.9,0.4,1.3
		c0,0.8,0,1.5-0.1,2.3c0,0.4-0.2,0.9-0.4,1.3c-0.3,0.4-0.6,0.8-1,1.2c-0.4,0.4-0.7,0.7-1.2,0.9c-0.3,0.2-0.6,0.4-0.9,0.5
		c-0.2,0.1-0.5,0.2-0.8,0.1c-0.2,0-0.2-0.2-0.3-0.4c-0.1-0.2-0.3-0.4-0.3-0.7c0-0.1-0.1-0.2-0.1-0.3c0-0.1-0.1-0.2-0.1-0.3
		c0-0.2-0.1-0.4-0.2-0.6c0-0.1-0.1-0.2-0.1-0.4c0-0.1,0-0.2-0.1-0.4c0-0.2-0.1-0.5-0.1-0.7c-0.1-0.2-0.1-0.5-0.1-0.7v-0.8"/>
	<path class="st5" d="M154.9,204.7c0-0.2,0.1-0.5,0.2-0.7c0.1-0.2,0.2-0.4,0.4-0.6c0.1-0.1,0.2-0.3,0.4-0.4c0.4-0.5,0.9-0.8,1.4-1.1
		c0.7-0.3,1.8-0.7,2.3,0.2c0.1,0.2,0.2,0.5,0.3,0.7c0,0.1,0,0.3,0,0.4c0,0.3,0,0.7,0,1c-0.1,1-0.7,1.8-1.2,2.6
		c-0.5,0.8-1.1,1.7-2.1,2.1c-0.3,0.1-0.7,0.2-1,0.1c-0.1-0.1-0.2-0.2-0.4-0.2c-0.1-0.1-0.2-0.2-0.3-0.3c-0.1-0.2-0.2-0.5-0.2-0.8
		c0-0.1,0-0.2,0-0.3c0-0.2-0.1-0.4-0.1-0.5V206c0-0.3,0-0.5,0-0.8C154.6,205,154.7,204.9,154.9,204.7c0-0.1,0.2-0.6,0.3-0.6"/>
</g>
<g id="keys">
	<g id="fob">
		<path class="st6" d="M125,249.2c-0.8-1.3-1.8-2.5-3-3.6l0.1-0.2c-2.7,0.3-5.1,1.9-7.4,3.5l-12.6,8.7c-0.6,0.3-1.1,0.8-1.4,1.4
			c-0.5,1,0,2.1,0.4,3.1c0.7,1.5,1.3,3,2,4.5c0.3,0.6,0.6,1.3,1.3,1.5c0.6,0.1,1.2,0,1.7-0.3c6.4-2.9,12.2-6.8,17.4-11.6
			c0.9-0.7,1.6-1.6,2.1-2.5C126,252.2,125.8,250.5,125,249.2z M122.4,248.8c-0.4,0.5-1.1,0.6-1.7,0.3c-0.5-0.3-0.7-0.9-0.6-1.5
			l-0.1,0.1l0.1-0.2c0,0.1,0,0.1,0,0.2c0.3-0.2,0.6-0.4,0.9-0.5c0.4-0.1,0.8-0.1,1.1,0.1C122.6,247.5,122.8,248.2,122.4,248.8
			C122.4,248.7,122.4,248.8,122.4,248.8L122.4,248.8z"/>
		<path class="st7" d="M103.7,267.6c1.8,1,4.1-0.7,5.7-1.5c2.1-1.1,3.9-2.2,6-3.4c2.2-1.3,4.1-3.1,6.1-4.7s4.5-3.7,4.9-6.4
			c0.1-1-1.4-1.5-1.6-0.4c-0.3,2.5-2.9,4.3-4.7,5.8c-2,1.6-3.8,3.2-5.9,4.4c-1.2,0.7-2.4,1.6-3.6,2.2c-1.1,0.6-4.8,3.2-6,2.6
			C103.6,265.7,102.8,267.1,103.7,267.6L103.7,267.6z"/>
	</g>
	<path id="right" class="st8" d="M127.9,242.1c-3.5,0-5.7,2.9-6.3,6.3c-0.5,3.1,2.8,6.3,6.3,6.3c3.5,0,6.3-2.8,6.3-6.3
		C134.2,244.9,131.4,242.1,127.9,242.1L127.9,242.1z M127.5,253c-1.8-0.3-3.7-2.6-3.8-4.3c-0.1-2.7,1.3-5.2,4-5.2
		c2.7,0,4.9,2.2,4.9,4.9l0,0c0,2.6-2.1,4.6-4.6,4.6C127.9,253.1,127.7,253,127.5,253z"/>
	<g id="key_2">
		<path class="st9" d="M135.7,262.5c-0.2-1.1-0.9-2.1-1.9-2.5c0.7-1.2,0.3-2.7-0.9-3.3c-0.2-0.1-0.5-0.2-0.8-0.3
			c0.1-0.8,0.1-1.6-0.1-2.4c-0.2-1-1.2-1.7-2.2-1.5c-0.7,0.1-1.3,0.7-1.5,1.4c-0.3,0.8-0.4,1.7-0.3,2.6l0.2,0c-1,1.1-1.5,2.5-1.2,4
			c-0.9,0.2-1.5,1.1-1.2,2c0,0.1,0,0.2,0.1,0.3c-0.7,0.1-1.2,0.6-1.4,1.2c-0.2,0.7,0.1,1.4,0.6,1.8c0.7,0.5,1.7,0.5,2.2,1.3
			c0.2,0.4,0.3,0.9,0.3,1.4l0,4.9c-0.5,0.3-0.7,0.9-0.4,1.4c0.1,0.3,0.4,0.4,0.7,0.5l0.2,0.5l-0.5,0.2c-0.1,0.7,0.1,1.5,0.6,2
			c0.5,0.5,1.1,1,1.7,1.4c0.4,0.3,0.8,0.4,1.3,0.4c0.8-0.2,0.9-1.3,0.9-2.1c-0.2-3.8-0.5-7.6-0.7-11.4c1.1,0.3,2.3,0,3.2-0.7
			C135.4,264.8,135.9,263.7,135.7,262.5z M130.4,258.3c-0.3,0.1-0.6,0.1-0.8,0c-0.3-0.1-0.4-0.3-0.4-0.6c-0.3-1.3,0.2-2.7,1.4-3.4
			c0.2,1.3,0.4,2.6,0.7,4C130.9,258.2,130.6,258.2,130.4,258.3L130.4,258.3z"/>
		<path class="st10" d="M130.6,266.4c0.1,2.2,0.3,4.3,0.4,6.5c0.1,1.4,0.9,5.1,0,6.3c-0.2,0.2,0.2,0.4,0.3,0.2
			c0.9-1.2,0.2-3.6,0.1-5c-0.1-2.7-0.3-5.4-0.5-8C131,266.1,130.6,266.1,130.6,266.4L130.6,266.4z"/>
		<path class="st10" d="M131.1,266.4c0-0.9,0.2-0.1,0.7-0.1c0.8,0.1,1.5-0.1,2.2-0.5c1.3-0.9,1.8-2.5,1.3-4
			c-0.1-0.5-0.4-0.9-0.8-1.1c-1.4-1.1-0.5,0-0.7-1.1c-0.1-0.7,0.3-1.3-0.1-2c-0.5-0.9-1.8-1-1.7-2.3c0-0.3-0.4-0.3-0.4,0
			c-0.1,1,0.2,1,0.5,1.7c0.5,1.2,1.8,1.9,0.9,3.2c-0.1,0.1,0,0.2,0.1,0.3c1.1,0.7,2.3,2.1,1.8,3.5c-0.3,1.1-2.6,2.8-3.5,1.5
			c0-0.1-0.1-0.1-0.2-0.1c-0.5,0.1-0.5,0.5-0.5,1c0,0.1,0.1,0.2,0.2,0.2C131,266.5,131.1,266.5,131.1,266.4L131.1,266.4z"/>
		<path class="st10" d="M131.2,265.4c-1.5,0.5-0.4,3.4-0.3,4.5c0.1,1.4,0.3,2.8,0.3,4.2c0,0.5,0,1,0,1.5c0,0.3,0.1,4-0.5,3.4
			c-0.2-0.2-0.5,0.1-0.3,0.3l0.2,0.3c0,0.1,0.1,0.1,0.2,0c1.5-0.5,0.8-3.5,0.7-4.8c0-0.8-1.1-8.8-0.3-9
			C131.5,265.8,131.4,265.4,131.2,265.4L131.2,265.4z"/>
	</g>
	<g id="key_1">
		<path id="key_1-2" class="st8" d="M127.7,262.7c-0.2-0.2-0.3-0.4-0.3-0.6c0-0.3,0.1-0.5,0.2-0.7c0.4-0.9,0.1-2-0.8-2.6
			c0.3-0.8,0.6-1.6,0.8-2.5c0.2-0.7,0.2-1.6-0.3-2.2c-0.4-0.4-0.9-0.6-1.4-0.7c-0.5-0.1-0.9-0.2-1.4-0.2c-0.8,0.1-1.4,0.6-1.8,1.2
			c-0.6,0.8-0.9,3-2,3.5c-0.4,0.2-0.8-0.2-1.3-0.2c-0.8,0-1,1.2-1.8,1.3c-0.3,0-0.6-0.1-0.9-0.3c-0.8-0.2-1.6,0.3-1.8,1.1
			c0,0.1,0,0.2,0,0.2c0,0.8,0.6,1.7,0.2,2.4c-0.1,0.1-0.2,0.3-0.3,0.5c-0.2,0.5,0.3,0.9,0.7,1.2s0.9,0.7,0.7,1.2
			c-0.1,0.3-0.4,0.4-0.6,0.6c-0.6,0.6-0.6,1.5,0,2c0,0,0.1,0.1,0.1,0.1c0.1,0.1,0.2,0.2,0.3,0.3c0,0.1,0,0.3-0.1,0.4
			c-1.1,2.6-2.3,5.1-3.5,7.6c-0.3,0.6-0.6,1.3-0.7,2c-0.3,1.5,0.4,3,1.1,4.4c0.2,0.4,0.7,1,1.1,0.8c0.2-0.1,0.3-0.3,0.4-0.5
			l5.4-11.6c0.4-0.9,0.9-1.8,1.7-2.1c0.3-0.1,0.7-0.2,1-0.4c0.2-0.2,0.4-0.4,0.7-0.6c0.5-0.3,1.3,0.1,1.8-0.2c0.5-0.3,0.6-1,1.1-1.1
			c0.2-0.1,0.4,0,0.6-0.1c0.4-0.1,0.6-0.5,0.8-0.8C127.8,264.9,128.3,263.6,127.7,262.7z M125.8,257.8c0,0.1-0.1,0.1-0.1,0.2
			c-0.1,0-0.1,0-0.2,0c-0.6-0.1-1.8,0-2.2-0.4c-0.6-0.4-0.1-1,0.2-1.5c0.2-0.5,0.5-0.8,0.9-1.1c0.3-0.2,0.6-0.3,1-0.3
			c0.1,0,0.3,0,0.4,0c0.3,0.1,0.5,0.4,0.5,0.8C126.2,256.2,126.1,257,125.8,257.8z"/>
		<path class="st10" d="M113.2,282.7l0.2,0.2c0.1,0.1,0.3,0.1,0.4,0c0.2-1.2,1.1-2.3,1.6-3.4c0.7-1.6,1.5-3.2,2.2-4.8
			c1.1-2.6,1.8-4.9,4.4-6.2c1.4-0.7,2.7-0.9,3.8-2.1c0.2-0.2-0.1-0.5-0.3-0.3c-1.2,1.3-3.4,1.6-4.9,2.6c-1.5,1.1-2.2,3.1-2.9,4.7
			c-0.7,1.8-1.6,3.5-2.3,5.2c-0.3,0.6-2,3.6-1.7,4C113.4,282.3,113,282.5,113.2,282.7L113.2,282.7z"/>
		<path class="st10" d="M124,267.6c0.8,0,0.8-0.6,1.5-1c0.4-0.3,0.9-0.2,1.3-0.5c1.5-1.2,0.6-3,0.5-4.3c-0.1-0.9,0.1-1.5-0.1-2.3
			c-0.4-1.4-0.4-1.1-0.1-2.9c0.1-0.7-0.1-3-0.2-0.6c0,1-0.5,1.7-0.8,2.6c0,0.1,0,0.2,0.1,0.2c0.1,0,0.2,0,0.2-0.1
			c0.2-0.6,0.7-1.2,0.8-1.9c0.1-0.8-0.1-1.6-0.1-2.4c0-0.1-0.1-0.2-0.2-0.2c-0.1,0-0.2,0.1-0.2,0.2c0,1.4-0.7,2.8-0.6,4.2
			c0,0.2,0.1,0.4,0.1,0.5c0.1,1.1,0.5,1.7,0.5,2.8c-0.1,1.2,0.8,2.8-0.2,3.8c-0.1,0.1-2.6,1.5-2.5,1.5c-0.1,0-0.2,0.1-0.2,0.2
			C123.8,267.5,123.9,267.6,124,267.6L124,267.6z"/>
	</g>
	<path class="st11" d="M127.2,242.4c-1.3,0-2.5,1-3.3,1.9c-0.5,0.6-1.5,1.6-1.2,2.5v-0.7c-0.1,0.2-0.1,0.4-0.2,0.5v0.7
		c0.1-0.2,0.1-0.4,0.2-0.6v-0.7c-0.1,0.5-0.3,1-0.5,1.5c-0.1,0.2,0.1,0.5,0,0.7c0.1-0.3,0.3-0.5,0.3-0.8c0-0.2-0.1-0.5,0-0.7
		c-0.3,0.7-0.4,1.5-0.3,2.3l0,0c0-0.5,0.1-0.9,0.3-1.3c0.1-0.2-0.1-0.5,0-0.7c-0.1,0.2-0.2,0.4-0.3,0.7c0,0.1,0,0.6,0,0.4
		c0-0.1-0.1-0.6,0-0.7c-0.3,0.3-0.2,0.9-0.2,1.3c0,0.6,0,0.8,0.2,0c0-0.2-0.1-0.5,0-0.7c-0.1,0.3-0.1,0.6-0.1,0.9v-0.4v-0.2
		c0-0.1,0-0.2,0-0.2l0,0c0-0.1,0-0.1,0-0.2c0,0.4,0,0.8,0,1.1c0,0.1,0,0.3,0,0.4c0.1,0.5,0-0.1,0.1-0.1c0,0.1,0,0.2,0.1,0.3
		c0-0.1,0-0.2,0-0.3v-0.4c0-0.1,0-0.2,0-0.3c-0.2,0.7,0.1,0.6-0.2,0.1c-0.2-0.3-0.1,0-0.1,0.2c0,0.4,0,0.7,0.2,1.1
		c-0.1-0.2,0.1-0.5,0-0.7c-0.1-0.2-0.1-0.4-0.2-0.6v0.7c0.1-0.6,0,0.4,0.2,0.5c0.2,0.1,0.1-0.3,0.1-0.5V249c0-0.1,0-0.2,0-0.3
		c0-0.1,0-0.1,0-0.2c-0.1,0.6-0.1,0.4-0.1-0.1v0.7c0-0.4,0-0.4,0,0l0,0c0.1-0.7,0-0.1,0.1,0.1c0-0.1,0-0.3,0-0.4v0.1l0.1-0.2V248
		c0,0.1-0.1,0.8-0.2,0.5v0.4c0-0.3,0-0.6,0.2-0.8v-0.7c0,0.5-0.1,0.9-0.1,1.4c0,0.1,0,0.3,0,0.3c0-0.5,0.1-1,0.3-1.5V247
		c-0.2,0.4-0.2,0.8-0.3,1.2v0.5c0-0.5,0.1-0.9,0.3-1.4v-0.7c-0.1,0.3-0.2,0.6-0.3,0.8v0.7c0.2-0.5,0.4-1,0.5-1.5c0-0.2,0-0.5,0-0.7
		c0,0.2-0.1,0.4-0.2,0.6c-0.1,0.2,0.1,0.5,0,0.7c0.2-0.4,0.3-0.8,0.2-1.2v0.7c0.9-1.7,2.4-3.8,4.5-3.8L127.2,242.4L127.2,242.4z"/>
</g>
<g id="head">
	<path id="neck" class="st12" d="M125,130.9c1.5,5.2-0.7,10.8-5.4,13.6c12.2,7.6,28.4,8.2,41.2,1.7c-4.1-3.2-7.3-7.6-9-12.6
		L125,130.9z"/>
	<ellipse id="face" class="st13" cx="142" cy="92.1" rx="39.1" ry="43.4"/>
	<path id="hair" class="st14" d="M164.8,112.3c-2.5,1.3-2.9,3.2-2.8,5.9c0.2,2.8,1.4,5.4,2.7,7.8c4.5,8.2,10.2,15.7,17,22.2
		c9.9-33.1,19.9-67.2,16.6-101.6c-1.1-11.2-4-23.1-12.7-30.2c-8.9-7.4-21.6-7.9-33-6.4c-2.4,0.3-4.9,0.7-7,2s-3.7,4-3.3,6.4
		c1.3-2.3-0.2-5.5-2.6-6.7c-2.4-1.2-5.2-0.9-7.9-0.4c-11.9,2.4-23,9.4-29.4,19.6c-11.1,17.6-15.3,39-14.2,59.8
		c1.1,20.8,7,41.1,15,60.3c5.4-8.5,8.7-18.2,9.6-28.2c0.5-5.4,2.7-11.3,1.8-16.6c-0.7-4.1-2.5-8-2.9-12.2c-0.4-4.1,0.9-9,4.6-10.9
		c-0.2-1.6-0.5-3.3,0-4.9c0.5-1.6,1.7-3.1,3.3-3.3c1.5-0.2,2.9,0.8,4.4,1.4c3.8,1.6,8.1,0.9,11.2-1.8c2.4,3.9,7.6,5.1,11.5,2.7
		c1.4-0.9,2.5-2.2,3.2-3.7c1.1,3.9,5.1,6.1,9,5c1.7-0.5,3.2-1.6,4.1-3c1.5,3.6,5.3,5.8,9.2,5.1c1,5.7,2.1,11.4,1.4,17.1
		c-0.7,5.7-3.1,10.6-8.1,13.9L164.8,112.3z"/>
	<g id="glasses">
		<path class="st15" d="M172.4,88.9c1.5,3.4,2,7.1,1.4,10.8c-0.7,3.7-2.9,6.9-6,8.9c-3.1,1.9-7.3,2.3-10.5,0.5
			c-2.1-1.1-2.9-1.9-4.9-4.9c-1.9-4-2-8.7-0.1-12.8c1.9-4,6.9-3,10.1-8c1.1-1.7,4-0.5,5.8,0.4C170.2,84.8,171.5,86.8,172.4,88.9z"/>
		<path class="st16" d="M134.3,96.6c-0.5,2.8-1.9,5.3-3.9,7.2c-3.1,2.8-7.9,3.8-11.6,2c-1.6-0.8-3.1-2-4.1-3.5c-2-2.7-3-6.1-2.8-9.5
			c0.2-3.4,2.1-6.8,4.4-9.2c0.4-0.4,0,0,0.7-0.3s1.3-2.1,2-2.3c3.2-1.1,4.1,1.3,6.2,1.5c2.1,0.2,4,0.9,5.7,2.1
			c2.3,1.9,3.5,4.9,3.7,7.9C134.7,93.8,134.6,95.2,134.3,96.6z"/>
		<path class="st17" d="M116.3,83.6c0.4-0.4,0,0,0.7-0.3s1.3-2.1,2-2.3c3.2-1.1,4.1,1.3,6.2,1.5c2.1,0.2,4,0.9,5.7,2.1
			c2.3,1.9,3.5,4.9,3.7,7.9c0.1,1.4,0,2.8-0.2,4.2c-0.5,2.8-1.9,5.3-3.9,7.2c-3.1,2.8-7.9,3.8-11.6,2c-1.6-0.8-3.1-2-4.1-3.5
			c-2-2.7-3-6.1-2.8-9.5C112.1,89.4,113.9,86,116.3,83.6"/>
		<path class="st18" d="M134.2,96.6L134.2,96.6c5.1-2.6,11.1-2.7,16.1-0.1"/>
		<path class="st18" d="M152.4,104.2l-0.2-0.2"/>
		<path class="st18" d="M152.4,104.2c-1.9-4-2-8.7-0.1-12.8c1.9-4,6.9-3,10.1-8c1.1-1.7,4-0.5,5.8,0.4c2,1,3.4,3,4.3,5.1
			c1.5,3.4,2,7.1,1.4,10.8c-0.7,3.7-2.9,6.9-6,8.9c-3.1,1.9-7.3,2.3-10.5,0.5C155.2,108,154.4,107.2,152.4,104.2z"/>
		<path class="st18" d="M152.4,104.3l-0.1-0.1"/>
	</g>
	<g id="fire">
		<path class="st19" d="M10.6,152c-1.5-0.1-2.9-1.9-3.5-3c-1.2-2-2-4.2-2.3-6.4c-0.3-2.8-0.9-5.5-0.3-8.3c0.2-0.8,0.7-3.3,1.6-3.6
			c0,0.6,0.5,0.9,0.6,1.4c0.1,0.7,0.1,1.3,0,2c0,0.9-0.3,3.1,0.9,3.3c0.1-0.9,0.8-1.5,1-2.4c0.3-1.1,0.2-2.1,0.5-3.2
			c0.8-2.2,1.8-4.4,2.9-6.5c0.7-1.5,1.4-3.1,2-4.6c0.2-0.6,0.5-2.1,1.4-2.1c0.7,2-0.1,4.9,0,7c0.1,1,1,6.9,2.3,7
			c0.2-1,0.6-2,1.2-2.8c0.4-0.9,1.5-3.1,2.7-2.9c0.6,2.4-0.6,5.3,0.2,7.6c0.6-0.6,1.4-2.1,2.3-2.3c1.6-0.3,1,2.6,1,3.6
			c0,2.4,0,4.5-0.5,6.8c-0.1,0.7-0.3,1.6-0.5,2.2c-0.3,0.6-0.7,1.2-1.1,1.8c-0.4,0.7-0.9,1.2-1.3,1.8c-0.4,0.6-0.5,1.3-1.4,1.6
			c-0.7,0.2-1.4,0-2.1,0.1c-0.3,0.1-0.4,0.4-0.7,0.5c-0.4,0.1-0.7-0.1-1-0.1c-1.1,0.2-2.1,1.1-3.2,1.4c-0.9,0.2-4,0.5-3.6-0.9"/>
		<path class="st19" d="M56.7,90.9c-1.5-0.1-2.9-1.9-3.5-3c-1.2-2-2-4.2-2.3-6.4c-0.3-2.8-0.9-5.5-0.3-8.3c0.2-0.8,0.7-3.3,1.6-3.6
			c0,0.6,0.5,0.9,0.6,1.4c0.1,0.7,0.1,1.3,0,2c0,0.9-0.3,3.1,0.9,3.3c0.1-0.9,0.8-1.5,1-2.4c0.3-1.1,0.2-2.1,0.5-3.2
			c0.8-2.2,1.8-4.4,2.9-6.5c0.7-1.5,1.4-3.1,2-4.6c0.2-0.6,0.5-2.1,1.4-2.1c0.7,2-0.1,4.9,0,7c0.1,1,1,6.9,2.3,7
			c0.2-1,0.6-2,1.2-2.8c0.4-0.9,1.5-3.1,2.7-2.9c0.6,2.4-0.6,5.3,0.2,7.6c0.6-0.6,1.4-2.1,2.3-2.3c1.6-0.3,1,2.6,1,3.6
			c0,2.4,0,4.5-0.5,6.8c-0.1,0.7-0.3,1.6-0.5,2.2c-0.3,0.6-0.7,1.2-1.1,1.8c-0.4,0.7-0.9,1.2-1.3,1.8s-0.5,1.3-1.4,1.6
			c-0.7,0.2-1.4,0-2.1,0.1c-0.3,0.1-0.4,0.4-0.7,0.5c-0.4,0.1-0.7-0.1-1-0.1c-1.1,0.2-2.1,1.1-3.2,1.4c-0.9,0.2-4,0.5-3.6-0.9"/>
		<path class="st19" d="M253.5,152c-1.5-0.1-2.9-1.9-3.5-3c-1.2-2-2-4.2-2.3-6.4c-0.3-2.8-0.9-5.5-0.3-8.3c0.2-0.8,0.7-3.3,1.6-3.6
			c0,0.6,0.5,0.9,0.6,1.4c0.1,0.7,0.1,1.3,0,2c0,0.9-0.3,3.1,0.9,3.3c0.1-0.9,0.8-1.5,1-2.4c0.3-1.1,0.2-2.1,0.5-3.2
			c0.8-2.2,1.8-4.4,2.9-6.5c0.7-1.5,1.4-3.1,2-4.6c0.2-0.6,0.5-2.1,1.4-2.1c0.7,2-0.1,4.9,0,7c0.1,1,1,6.9,2.3,7
			c0.2-1,0.6-2,1.2-2.8c0.4-0.9,1.5-3.1,2.7-2.9c0.6,2.4-0.6,5.3,0.2,7.6c0.6-0.6,1.4-2.1,2.3-2.3c1.6-0.3,1,2.6,1,3.6
			c0,2.4,0,4.5-0.5,6.8c-0.1,0.7-0.3,1.6-0.5,2.2c-0.3,0.6-0.7,1.2-1.1,1.8c-0.4,0.7-0.9,1.2-1.3,1.8c-0.4,0.6-0.5,1.3-1.4,1.6
			c-0.7,0.2-1.4,0-2.1,0.1c-0.3,0.1-0.4,0.4-0.7,0.5c-0.4,0.1-0.7-0.1-1-0.1c-1.1,0.2-2.1,1.1-3.2,1.4c-0.9,0.2-4,0.5-3.6-0.9"/>
		<path class="st19" d="M248.7,225.5c-1.5-0.1-2.9-1.9-3.5-3c-1.2-2-2-4.2-2.3-6.4c-0.3-2.8-0.9-5.5-0.3-8.3
			c0.2-0.8,0.7-3.3,1.6-3.6c0,0.6,0.5,0.9,0.6,1.4c0.1,0.7,0.1,1.3,0,2c0,0.9-0.3,3.1,0.9,3.3c0.1-0.9,0.8-1.5,1-2.4
			c0.3-1.1,0.2-2.1,0.5-3.2c0.8-2.2,1.8-4.4,2.9-6.5c0.7-1.5,1.4-3.1,2-4.6c0.2-0.6,0.5-2.1,1.4-2.1c0.7,2-0.1,4.9,0,7
			c0.1,1,1,6.9,2.3,7c0.2-1,0.6-2,1.2-2.8c0.4-0.9,1.5-3.1,2.7-2.9c0.6,2.4-0.6,5.3,0.2,7.6c0.6-0.6,1.4-2.1,2.3-2.3
			c1.6-0.3,1,2.6,1,3.6c0,2.4,0,4.5-0.5,6.8c-0.1,0.7-0.3,1.6-0.5,2.2c-0.3,0.6-0.7,1.2-1.1,1.8c-0.4,0.7-0.9,1.2-1.3,1.8
			c-0.4,0.6-0.5,1.3-1.4,1.6c-0.7,0.2-1.4,0-2.1,0.1c-0.3,0.1-0.4,0.4-0.7,0.5s-0.7-0.1-1-0.1c-1.1,0.2-2.1,1.1-3.2,1.4
			c-0.9,0.2-4,0.5-3.6-0.9"/>
		<path class="st19" d="M219.2,87.2c-1.5-0.1-2.9-1.9-3.5-3c-1.2-2-2-4.2-2.3-6.4c-0.3-2.8-0.9-5.5-0.3-8.3c0.2-0.8,0.7-3.3,1.6-3.6
			c0,0.6,0.5,0.9,0.6,1.4c0.1,0.7,0.1,1.3,0,2c0,0.9-0.3,3.1,0.9,3.3c0.1-0.9,0.8-1.5,1-2.4c0.3-1.1,0.2-2.1,0.5-3.2
			c0.8-2.2,1.8-4.4,2.9-6.5c0.7-1.5,1.4-3.1,2-4.6c0.2-0.6,0.5-2.1,1.4-2.1c0.7,2-0.1,4.9,0,7c0.1,1,1,6.9,2.3,7
			c0.2-1,0.6-2,1.2-2.8c0.4-0.9,1.5-3.1,2.7-2.9c0.6,2.4-0.6,5.3,0.2,7.6c0.6-0.6,1.4-2.1,2.3-2.3c1.6-0.3,1,2.6,1,3.6
			c0,2.4,0,4.5-0.5,6.8c-0.1,0.7-0.3,1.6-0.5,2.2c-0.3,0.6-0.7,1.2-1.1,1.8c-0.4,0.7-0.9,1.2-1.3,1.8c-0.4,0.6-0.5,1.3-1.4,1.6
			c-0.7,0.2-1.4,0-2.1,0.1c-0.3,0.1-0.4,0.4-0.7,0.5s-0.7-0.1-1-0.1c-1.1,0.2-2.1,1.1-3.2,1.4c-0.9,0.2-4,0.5-3.6-0.9"/>
		<path class="st19" d="M28.8,220.7c-1.5-0.1-2.9-1.9-3.5-3c-1.2-2-2-4.2-2.3-6.4c-0.3-2.8-0.9-5.5-0.3-8.3c0.2-0.8,0.7-3.3,1.6-3.6
			c0,0.6,0.5,0.9,0.6,1.4c0.1,0.7,0.1,1.3,0,2c0,0.9-0.3,3.1,0.9,3.3c0.1-0.9,0.8-1.5,1-2.4c0.3-1.1,0.2-2.1,0.5-3.2
			c0.8-2.2,1.8-4.4,2.9-6.5c0.7-1.5,1.4-3.1,2-4.6c0.2-0.6,0.5-2.1,1.4-2.1c0.7,2-0.1,4.9,0,7c0.1,1,1,6.9,2.3,7
			c0.2-1,0.6-2,1.2-2.8c0.4-0.9,1.5-3.1,2.7-2.9c0.6,2.4-0.6,5.3,0.2,7.6c0.6-0.6,1.4-2.1,2.3-2.3c1.6-0.3,1,2.6,1,3.6
			c0,2.4,0,4.5-0.5,6.8c-0.1,0.7-0.3,1.6-0.5,2.2c-0.3,0.6-0.7,1.2-1.1,1.8c-0.4,0.7-0.9,1.2-1.3,1.8s-0.5,1.3-1.4,1.6
			c-0.7,0.2-1.4,0-2.1,0.1c-0.3,0.1-0.4,0.4-0.7,0.5c-0.4,0.1-0.7-0.1-1-0.1c-1.1,0.2-2.1,1.1-3.2,1.4c-0.9,0.2-4,0.5-3.6-0.9"/>
		<path class="st20" d="M49.8,167.1c-0.9-0.1-1.7-1.1-2-1.8c-0.7-1.1-1.1-2.4-1.3-3.8c-0.2-1.6-0.5-3.2-0.2-4.8
			c0.1-0.5,0.4-1.9,0.9-2.1c0,0.4,0.3,0.5,0.4,0.8c0,0.4,0,0.8,0,1.1c0,0.5-0.2,1.8,0.5,1.9c0-0.5,0.5-0.9,0.5-1.4
			c0.2-0.7,0.1-1.2,0.3-1.9c0.5-1.3,1-2.6,1.7-3.8c0.4-0.9,0.8-1.8,1.2-2.7c0.1-0.4,0.3-1.2,0.8-1.2c0.4,1.2,0,2.9,0,4.1
			c0,0.6,0.5,4,1.4,4.1c0.1-0.6,0.4-1.1,0.7-1.7c0.3-0.5,0.9-1.8,1.6-1.7c0.3,1.4-0.3,3.1,0.1,4.4c0.3-0.4,0.8-1.2,1.3-1.3
			c0.9-0.2,0.6,1.5,0.6,2.1c0.1,1.3,0,2.7-0.3,4c-0.1,0.4-0.2,0.9-0.3,1.3c-0.2,0.4-0.4,0.7-0.6,1c-0.2,0.4-0.5,0.7-0.8,1.1
			c-0.2,0.4-0.3,0.8-0.8,0.9c-0.4,0-0.8,0.1-1.2,0.1c-0.2,0-0.2,0.2-0.4,0.3c-0.2,0-0.4-0.1-0.6,0c-0.6,0.1-1.2,0.7-1.8,0.8
			c-0.5,0.1-2.4,0.3-2.1-0.5"/>
		<path class="st20" d="M211.7,132.3c-0.9-0.1-1.7-1.1-2-1.8c-0.7-1.1-1.1-2.4-1.3-3.8c-0.2-1.6-0.5-3.2-0.2-4.8
			c0.1-0.5,0.4-1.9,0.9-2.1c0,0.4,0.3,0.5,0.4,0.8c0,0.4,0,0.8,0,1.1c0,0.5-0.2,1.8,0.5,1.9c0-0.5,0.5-0.9,0.6-1.4
			c0.2-0.7,0.1-1.2,0.3-1.9c0.5-1.3,1-2.6,1.7-3.8c0.4-0.9,0.8-1.8,1.2-2.7c0.1-0.4,0.3-1.2,0.8-1.2c0.4,1.2,0,2.9,0,4.1
			c0,0.6,0.5,4,1.4,4.1c0.1-0.6,0.4-1.1,0.7-1.7c0.3-0.5,0.9-1.8,1.6-1.7c0.3,1.4-0.3,3.1,0.1,4.4c0.3-0.4,0.8-1.2,1.3-1.3
			c0.9-0.2,0.6,1.5,0.6,2.1c0.1,1.3,0,2.7-0.3,4c-0.1,0.4-0.2,0.9-0.3,1.3c-0.2,0.4-0.4,0.7-0.6,1c-0.2,0.4-0.5,0.7-0.8,1.1
			c-0.2,0.4-0.3,0.8-0.8,0.9c-0.4,0-0.8,0.1-1.2,0.1c-0.2,0-0.2,0.2-0.4,0.3c-0.2,0-0.4-0.1-0.6,0c-0.6,0.1-1.2,0.7-1.8,0.8
			c-0.5,0.1-2.4,0.3-2.1-0.5"/>
		<path class="st20" d="M225.7,204.1c-0.9-0.1-1.7-1.1-2-1.8c-0.7-1.1-1.1-2.4-1.3-3.8c-0.2-1.6-0.5-3.2-0.2-4.8
			c0.1-0.5,0.4-1.9,0.9-2.1c0,0.4,0.3,0.5,0.4,0.8c0,0.4,0,0.8,0,1.1c0,0.5-0.2,1.8,0.5,1.9c0-0.5,0.5-0.9,0.6-1.4
			c0.2-0.7,0.1-1.2,0.3-1.9c0.5-1.3,1-2.6,1.7-3.8c0.4-0.9,0.8-1.8,1.2-2.7c0.1-0.4,0.3-1.2,0.8-1.2c0.4,1.2,0,2.9,0,4.1
			c0,0.6,0.5,4,1.4,4.1c0.1-0.6,0.4-1.1,0.7-1.7c0.3-0.5,0.9-1.8,1.6-1.7c0.3,1.4-0.3,3.1,0.1,4.4c0.3-0.4,0.8-1.2,1.3-1.3
			c0.9-0.2,0.6,1.5,0.6,2.1c0.1,1.3,0,2.7-0.3,4c-0.1,0.4-0.2,0.9-0.3,1.3c-0.2,0.4-0.4,0.7-0.6,1c-0.2,0.4-0.5,0.7-0.8,1.1
			c-0.2,0.4-0.3,0.8-0.8,0.9c-0.4,0-0.8,0.1-1.2,0.1c-0.2,0-0.2,0.2-0.4,0.3c-0.2,0-0.4-0.1-0.6,0c-0.6,0.1-1.2,0.7-1.8,0.8
			c-0.5,0.1-2.4,0.3-2.1-0.5"/>
		<path class="st20" d="M30.5,111.4c-0.9-0.1-1.7-1.1-2-1.8c-0.7-1.1-1.1-2.4-1.3-3.8c-0.2-1.6-0.5-3.2-0.2-4.8
			c0.1-0.5,0.4-1.9,0.9-2.1c0,0.4,0.3,0.5,0.4,0.8c0,0.4,0,0.8,0,1.1c0,0.5-0.2,1.8,0.5,1.9c0-0.5,0.5-0.9,0.5-1.4
			c0.2-0.7,0.1-1.2,0.3-1.9c0.5-1.3,1-2.6,1.7-3.8c0.4-0.9,0.8-1.8,1.2-2.7c0.1-0.4,0.3-1.2,0.8-1.2c0.4,1.2,0,2.9,0,4.1
			c0,0.6,0.5,4,1.4,4.1c0.1-0.6,0.4-1.1,0.7-1.7c0.3-0.5,0.9-1.8,1.6-1.7c0.3,1.4-0.3,3.1,0.1,4.4c0.3-0.4,0.8-1.2,1.3-1.3
			c0.9-0.2,0.6,1.5,0.6,2.1c0.1,1.3,0,2.7-0.3,4c-0.1,0.4-0.2,0.9-0.3,1.3c-0.2,0.4-0.4,0.7-0.6,1c-0.2,0.4-0.5,0.7-0.8,1.1
			c-0.2,0.4-0.3,0.8-0.8,0.9c-0.4,0-0.8,0.1-1.2,0.1c-0.2,0-0.2,0.2-0.4,0.3c-0.2,0-0.4-0.1-0.6,0c-0.6,0.1-1.2,0.7-1.8,0.8
			c-0.5,0.1-2.4,0.3-2.1-0.5"/>
	</g>
	<g id="pupils">
		
			<ellipse transform="matrix(0.1797 -0.9837 0.9837 0.1797 35.7351 241.1588)" class="st21" cx="162.5" cy="99.2" rx="5.9" ry="4.9"/>
		<ellipse class="st21" cx="123.3" cy="96.7" rx="5.4" ry="5.6"/>
	</g>
	<g id="nose">
		<path class="st22" d="M146.8,110.4c-0.4,0.6-0.8,1.1-1.4,1.5c-0.6,0.4-1.3,0.5-1.9,0.3c-0.6-0.3-0.9-0.9-1.6-1.2
			c-1.4-0.6-2.7,1.2-4.2,1.1c-1.2-0.1-1.9-1.3-1.9-2.5c0-1.2,0.6-2.2,1.2-3.2l2.6-4.6"/>
	</g>
	<g id="bottom_sad_lip">
		<path class="st23" d="M133.4,122c0-0.2,0-0.4,0.1-0.5c0-0.1,0-0.2,0.1-0.3s0.1-0.2,0.2-0.3c0-0.2,0.1-0.3,0.2-0.5
			c0.1-0.1,0.2-0.3,0.3-0.4c0.1-0.1,0.1-0.2,0.2-0.3c0.2-0.2,0.4-0.4,0.6-0.6c0.8-0.7,1.8-0.6,2.8-0.6c0.4,0,0.9,0,1.3,0.1
			c0.2,0.1,0.4,0.1,0.6,0.2c0.3,0.1,0.5,0.2,0.8,0.4c0.4,0.3,0.7,0.6,1,1c0.1,0.1,0.1,0.2,0.2,0.3c0.1,0.1,0.2,0.2,0.3,0.3
			c0,0.2,0,0.4,0,0.6c0-0.3,0.2-0.6,0.4-0.9c0.2-0.3,0.4-0.5,0.7-0.7c0.2-0.2,0.5-0.4,0.8-0.5c0.1,0,0.2,0,0.3,0
			c0.1,0,0.2,0,0.2-0.1c0.2,0,0.5,0,0.7,0c0.4,0,0.9,0,1.3,0.1c0.5,0.2,1,0.4,1.4,0.7c0.8,0.7,1.4,1.6,1.6,2.7
			c0.2,0.5,0.3,1.1,0.4,1.6c0,0.3,0,0.6,0,0.9c0,0.1-0.1,0.2-0.1,0.2c-0.1,0.2-0.2,0.3-0.3,0.5c-0.2,0.2-0.4,0.3-0.6,0.5
			c-0.4,0.2-0.9,0.3-1.3,0.5c-0.1,0-0.2,0.1-0.3,0.1c-0.1,0-0.2,0.1-0.2,0.1c-0.1,0-0.2,0-0.3,0.1c-0.1,0-0.2,0.1-0.3,0.1
			c-0.2,0.1-0.4,0.2-0.6,0.2c-0.2,0.1-0.4,0.1-0.5,0.1c-0.1,0-0.2,0-0.3,0.1c-0.1,0.1-0.2,0.1-0.3,0.1c-0.2,0-0.4,0.1-0.7,0.2
			c-0.2,0-0.3,0-0.5,0.1c-0.2,0-0.2,0-0.3,0.1c-0.3,0-0.5,0.1-0.8,0c-0.4,0-0.9,0-1.3-0.1c-0.4-0.1-0.8,0-1.2,0
			c-0.2,0-0.3-0.1-0.4-0.1c-0.2,0-0.4,0-0.5,0s-0.3-0.1-0.5-0.1c-0.2,0-0.4,0-0.5-0.1c-0.4,0-0.8-0.1-1.2-0.2
			c-0.4-0.1-0.9-0.2-1.3-0.4c-0.2-0.1-0.5-0.3-0.6-0.5c-0.3-0.3-0.6-0.7-0.8-1.1c0-0.1,0-0.3,0-0.4c0-0.3-0.2-0.6-0.3-0.9
			c0-0.2,0-0.3-0.1-0.4c0-0.1,0-0.2,0-0.2c0-0.1,0-0.1,0-0.2c0-0.3,0-0.7,0-1c0-0.1,0.1-0.1,0.1-0.2c0-0.1,0-0.2,0-0.3
			c0-0.1,0.1-0.2,0.2-0.4"/>
		<path class="st24" d="M133.5,124.9c0-0.1,0.3-0.3,0.4-0.4c0.6-0.5,1.3-0.9,2-1c0.2-0.1,0.5-0.1,0.7-0.2c0.3-0.1,0.6-0.1,0.9-0.2
			c0.3,0,0.6-0.1,0.9-0.1c0.2,0,0.4,0,0.5,0c0.2,0,0.4,0,0.6,0c0.3,0,0.6-0.1,0.8-0.1c0.2,0,0.2,0,0.3,0c0.2-0.1,0.4-0.1,0.6-0.1
			c0.2,0,0.4-0.1,0.6-0.1h0.5c0.4,0,0.9,0,1.3,0.1c0.3,0.1,0.6,0.1,0.9,0.2c0.4,0.1,0.8,0.2,1.2,0.4c0.3,0.1,0.5,0.2,0.7,0.4
			c0.3,0.2,0.5,0.3,0.8,0.4l0.4,0.3c0,0,0.1,0.1,0.1,0.1c0.1,0,0.1,0.1,0.2,0.1c0.2,0.1,0.4,0.3,0.6,0.5c0.1,0.1,0.2,0.2,0.3,0.3
			c0,0,0.1,0.1,0.1,0.1c0,0.1,0.1,0.2,0.2,0.2"/>
	</g>
</g>
<g id="laptop">
	<path id="body" class="st25" d="M83.4,186.5c0-1.7,0.7-3.4,1.9-4.6c1.2-1.2,2.7-2.2,4.2-2.9L126,158c1.6,3.9,3.3,7.7,5.3,11.3
		c8.9,16.3,12.6,34.2,20.5,50.7c-1.8,3.8-5.8,6.1-9.5,8l-27.8,14.4c-1.4,0.7-2.9,1.4-4.4,1c-1.5-0.5-2.3-2-3-3.3l-17.4-34.4
		c-3.2-6.3-6.4-12.9-6.4-19.9"/>
	<circle class="st26" cx="117.1" cy="200.2" r="5.6"/>
	<path class="st27" d="M113.3,198.8c0.3-0.1,0.6,0.4,0.7,0.6c0.2,0.4,0.5,0.9,0.6,1.4c0.2,0.5,0.4,1,0.6,1.5c0,0.1,0.1,0.3,0.1,0.5
		c0,0.1,0.1,0.2,0.1,0.3c0,0.1,0,0.2,0,0.3s0.1,0.2,0.1,0.3"/>
	<path class="st27" d="M115.1,197.5c0,0.1,0.2,0.2,0.3,0.3c0.1,0.1,0.2,0.2,0.4,0.4c0.4,0.3,0.7,0.7,1,1.2c0.4,0.6,0.7,1.2,0.9,1.9
		c0.1,0.3,0.2,0.6,0.3,0.9c0,0.1,0.2,0.3,0.2,0.4"/>
	<path class="st27" d="M117.9,196.9c0.3,0,0.5,0.1,0.7,0.3c0.4,0.4,0.8,0.9,1.1,1.4c0.3,0.5,0.6,1,0.8,1.6c0.1,0.2,0.1,0.4,0.2,0.6
		c0.1,0.1,0.1,0.2,0.1,0.3"/>
</g>
<g id="arms">
	<path id="left_arm" class="st12" d="M201.5,233c-1.3,3.6-2.6,7.2-4.5,10.5c-1.2,2.1-2.7,4.2-4.7,5.5c-3.6,2.3-8.2,2.1-12.5,2
		c-4-0.1-8.1,0.1-12.1,0.5c-2.8,0.2-5.5,0.7-8.2,1.5c-2.9,1-5.5,2.6-8.1,3.9c-2.7,1.4-5.6,2.5-8.6,2.5c-3,0-6.2-1.3-7.7-4l7-0.4
		c-2.7,0.5-5.4,0.6-8.1,0.2c-1.3-0.1-2.5-0.5-3.6-1.2c-1-0.8-1.6-2.2-1.1-3.3c0.1-0.3,0.4-0.6,0.7-0.8c0.6-0.1,1.2-0.1,1.7,0.2
		c3.1,1,6.4,1,9.4,0c-2.6,0.5-5.4,1.1-8,0.4c-2.6-0.7-5-3-4.8-5.7c3.7,1.2,7.7,1.6,11.6,1.1c-4-0.2-7.9-0.8-11.8-1.8
		c-0.2-0.7,0.2-1.4,0.9-1.7c0.7-0.3,1.4-0.5,2.2-0.4c3.7,0.4,7.4,0.7,11.1,0.2c-1.5-2.5-5.1-2.5-7.7-3.8c-0.3-0.1-0.5-0.3-0.6-0.5
		c-0.3-0.7,0.8-1.2,1.6-1.3c3.5-0.1,7,0.5,10.3,1.7c0.7,0.3,1.5,0.6,2.3,0.8c1.6,0.3,3.2-0.2,4.7-0.8c8-2.9,15.8-6.9,24.3-7.3
		c1.5-0.1,3.4-0.2,4.1-1.6c0.2-0.5,0.3-1.1,0.3-1.7l0.9-19.6c0-0.5,0.1-0.9,0.4-1.3c0.3-0.2,0.6-0.4,0.9-0.5
		c5.7-1.6,11.4-2.6,17.3-3c1-0.1,2,0,2.9,0.3c1.7,0.7,1.9,2.3,2,3.8c0.2,1.8,0.3,3.7,0.3,5.5c-0.3,4.3-1.1,8.6-2.5,12.7
		C203.2,228.3,202.4,230.7,201.5,233z"/>
	<path id="right_arm" class="st12" d="M92.7,211.7c-1.9,0.9-4.3,3.9-5.2,5.8c-2,4.3-6,7.5-10.7,8.4c3.6-2.7,8.4-3,12.9-3.4
		s9.3-1.1,12.4-4.4c1-1,1.8-2.3,3-3.1c1.2-0.8,3-0.9,3.9,0.3l-4.6,6l9.2-8.6c1.1-1,2.8-1.9,3.8-0.8c0.8,1-0.1,2.5-1.1,3.4l-6.8,6.7
		c2.6-3.2,5.9-5.8,9.6-7.6c1.5-0.7,3.6-1.1,4.3,0.3c0.6,1.2-0.5,2.6-1.4,3.5l-6.8,6.5l8.2-7.5c0.6-0.7,1.4-1.2,2.2-1.6
		c0.9-0.4,1.8-0.2,2.6,0.4c1.1,1.1,0.5,2.9-0.3,4.1c-2.2,3.3-5.5,5.7-9.3,6.7c1.1,0.4,2.4-0.2,3.3-1c0.9-0.8,1.7-1.7,2.8-2.2
		c1.1-0.5,2.6-0.5,3.3,0.5c1,1.4-0.3,3.2-1.6,4.3c-3,2.6-6.3,4.9-9.9,6.8l0.3-1c-0.9,2.3-3.9,2.6-6.3,2.8
		c-6.2,0.4-12.3,1.5-18.2,3.3c-4.3,1.3-8.6,3.1-13.2,3.4s-9.5-0.9-12.3-4.5c-1.7-2.2-2.3-4.9-2.8-7.7c-2.9-17.8-0.4-33.4,10.9-47.4
		c3.7-5.3,13.7,30.9,17.2,27.3"/>
</g>
</svg>
