<svg id="outline" xmlns="http://www.w3.org/2000/svg" viewBox="0 0 497.16 523.47"><defs><style>.cls-1,.cls-2{fill:#f7b50c;}.cls-1,.cls-13,.cls-14,.cls-22,.cls-23,.cls-24,.cls-25,.cls-26,.cls-27,.cls-3,.cls-4,.cls-5,.cls-6,.cls-7{stroke:#000;}.cls-1,.cls-10,.cls-13,.cls-14,.cls-18,.cls-19,.cls-20,.cls-21,.cls-22,.cls-23,.cls-24,.cls-25,.cls-26,.cls-27,.cls-28,.cls-3,.cls-4,.cls-5,.cls-6,.cls-7,.cls-9{stroke-miterlimit:10;}.cls-3{fill:#e0cdaa;}.cls-4{fill:#efedc2;}.cls-5{fill:#f75800;}.cls-18,.cls-19,.cls-23,.cls-25,.cls-6{fill:none;}.cls-6{stroke-width:2px;}.cls-7{fill:#494948;stroke-width:0.25px;}.cls-10,.cls-7,.cls-9{stroke-linecap:round;}.cls-26,.cls-8{fill:#3f3f3f;}.cls-9{fill:#f7931e;}.cls-10,.cls-9{stroke:#1a1818;}.cls-10{fill:#e5811f;stroke-width:0.5px;}.cls-11{fill:#c17427;}.cls-12{fill:#ffa04a;}.cls-13,.cls-14{fill:#cc9f72;}.cls-13,.cls-23{stroke-width:0.75px;}.cls-14{stroke-width:0.51px;}.cls-15{fill:#110909;}.cls-16{fill:#d1d1d1;}.cls-17{fill:#e0e0e0;}.cls-18,.cls-19{stroke:#545353;}.cls-18,.cls-20{stroke-width:5px;}.cls-19{stroke-width:5.21px;}.cls-20{fill:#d43e00;}.cls-20,.cls-21{stroke:#d43e00;}.cls-21{fill:#ddb300;stroke-width:2.91px;}.cls-22{stroke-width:5.32px;}.cls-24{fill:#ed6464;}.cls-24,.cls-25{stroke-width:0.47px;}.cls-27{fill:#050504;stroke-width:0.94px;}.cls-28{fill:#dbdbd9;stroke:#fff;}</style></defs><title>characterangry</title><g id="shirt"><path class="cls-1" d="M312.5,609.5c-17,6.8-31.85,18.39-45.69,30.35l-11.48,9.92a236.62,236.62,0,0,0-19,17.74c-1.24,1.34-5.28,9.24-5.79,11-1.1,3.82,4.36,1.12,6.79,4.26,7.81,10.06,11.84,26.72,18.21,37.74,1.61,2.78,5.49,2.16,7,5,.6,1.13,2.62.08,2.79,1.36s-.62,2.87-.92,4.09c-1.58,6.53,5.19,13.91,4.13,20.55-2.18,13.7-8.15,31.14-8,45,.21,19.12-1.35,36.68-6.18,47.93-3,6.94,1.49,14.76,2,22.3.19,2.71.5,5.67,2.42,7.59,1.76,1.75,4.41,2.16,6.88,2.46,52.87,6.44,106.61,2.55,159-6.82a1.49,1.49,0,0,0,1.37-2q-1.69-30.39-3.38-60.78c-.73-13.09,3.29-25.49,4.21-38.57.51-7.17.88-14.35,1-21.53,0-2.43.07-4.87.06-7.3,0-2.79-.75-4.62,1.43-6.11,3.82-2.61,10.86-3.22,15.33-4,10.34-1.72,20.86-1.89,31.31-2.05-9-27.71-8.45-58.63-22.52-84.15a36,36,0,0,0-6.4-8.82A39.66,39.66,0,0,0,439,629c-15.74-8.86-32.58-13.87-50.45-16.5" transform="translate(-94.08 -356.99)"/><path id="right_arm_sleeve" data-name="right arm sleeve" class="cls-1" d="M222.34,686.43a10,10,0,0,1,4.7-5.57,32,32,0,0,1,3.45-1.34,5.69,5.69,0,0,1,2.48-.65,3.43,3.43,0,0,0,1.11,1.68c1.73,1.63,3.19,3.54,4.9,5.2,2,1.91,3.85,3.77,5.66,5.83,1.56,1.79,3,3.66,4.56,5.45.43.49.37.77.64,1.29.48.95,1.8,1.79,2.47,2.67,1.53,2,2.92,4.11,4.28,6.22,1.74,2.71,3.86,5.14,5.66,7.8,1.55,2.29,3,4.69,4.73,6.86.84,1.07,1.52,2.25,2.34,3.32a10.34,10.34,0,0,1,2,2.69c.51,1.35-.22,1.47-1.18,2.25a22.39,22.39,0,0,0-2.45,2.61,27.18,27.18,0,0,0-3.4,4.38,4.33,4.33,0,0,1-1.09,1.5c-.62.36-.68.19-1-.24-1-1.32-2.44-2.22-3.54-3.53-1.81-2.15-3.56-4.52-5.17-6.83-1.26-1.8-2.27-3.77-3.54-5.57-2-2.84-3.9-5.77-6-8.53a93.38,93.38,0,0,0-7.93-8.71q-2.25-2.28-4.48-4.58c-.88-.91-1.69-2-2.5-3a27.5,27.5,0,0,0-2.12-2.3c-1.11-1.09-2-2.5-3.13-3.65-.87-.92-1.8-1.58-2-2.84-.08-.49-.2-1-.27-1.46-.12-.86-.06-.49.43-1,.73-.75.62-1.41,1.79-1.59" transform="translate(-94.08 -356.99)"/><path class="cls-2" d="M235.35,677.24c0,2.27-.3,4.75.14,7l2.74-1.16c-.68-1.49-2-3.63-3.51-4.41s-2.37.08-3.46,1.09l2.51.67.2-.14-2.06-.54c.81,1.08,2,1.61,3,2.48a19.49,19.49,0,0,1,3.24,3.43,8.46,8.46,0,0,1,1.84,3.66c.14.91.24,1.76,1.19,2.18,1.75.77,3.27-1.81,1.51-2.59.67.29.19.4.24-.31a4.1,4.1,0,0,0-.29-1.88,21.54,21.54,0,0,0-2.46-3.41,23.57,23.57,0,0,0-2.77-2.88,19.22,19.22,0,0,0-1.49-1.36c-.4-.28-1.17-.45-1.46-.84a1.54,1.54,0,0,0-2.05-.53,2.89,2.89,0,0,0-1.57,3.52,1.52,1.52,0,0,0,2.5.67c1-.92.43-.46.89.55.35.78,1,1.36,1.37,2.15.75,1.63,3.06.42,2.75-1.15-.38-1.9,0-4.27,0-6.19a1.5,1.5,0,0,0-3,0Z" transform="translate(-94.08 -356.99)"/><path class="cls-2" d="M240,684.17a8.52,8.52,0,0,0,.12,1c.09.44-.15.59.11.2l.9-.69c-.56.23-1.14-.11-1.69-.29-.28-.09-1.54-.66-1.23-.19l.15,1.16c-.08.27,1.69,0,1.89,0,0-.5.06-.54,0-.13l.06.4c0,.52.12,1,.16,1.57.07.79,0,1.67.11,2.45s.63,1.68.79,2.61c.34,1.89,3.23,1.09,2.89-.8a12,12,0,0,0-.52-1.89,6.39,6.39,0,0,1-.19-1.75,13.4,13.4,0,0,0-.44-3.74c-.83-2.27-4.52-2-6.28-1.17a2.13,2.13,0,0,0-1.25,2.82c.55,1.13,2,1.22,3,1.57s2.69.88,3.79,0,.65-2,.56-3.13c-.15-1.92-3.15-1.93-3,0Z" transform="translate(-94.08 -356.99)"/></g><g id="notebook"><path class="cls-3" d="M366.18,657.55h2.4c3.13,0,6.52.36,9.62-.06a77.49,77.49,0,0,1,9.83-1,27.76,27.76,0,0,0,4.78-.81,49.91,49.91,0,0,1,6.76-.92c2.87-.14,5.67-1,8.54-1,3.22,0,6.43,0,9.65,0h4.73a4.07,4.07,0,0,0,1.48,0c.41-.17.59-.93,1.16-.58-.67,1.64-2.49,3-3,4.85-.24.95.19,2.06,0,3a10.43,10.43,0,0,0-.35,1.16,15.88,15.88,0,0,0,0,1.69,5.14,5.14,0,0,1-.16,1.52c-.14.52,0,1-.16,1.54s-.33.62-.35,1.15a7,7,0,0,1-.26,1.53c-.15.56-.2,1.12-.34,1.68s-.28,1-.38,1.52a27.07,27.07,0,0,1-.45,2.84c-.2,0-.29-.06-.26-.31" transform="translate(-94.08 -356.99)"/><g id="nn"><path class="cls-4" d="M418.12,674.3c0-1,0-2.08,0-3.12a3.36,3.36,0,0,0-.11-.62c-.06-.31.05-.65,0-1s-.07-.32-.09-.49c-.3-.05-.58-.17-.87-.24l-.9-.2c-.34-.08-.68-.06-1-.15-.54-.14-1.06-.33-1.58-.5a6.14,6.14,0,0,1-.7-.3l-.4-.21a2.45,2.45,0,0,0-.58-.14c-.2-.05-.38-.16-.58-.23a8.44,8.44,0,0,0-.87-.2c-.53-.12-1.06-.3-1.59-.45s-.82-.26-1.22-.4-1-.31-1.5-.5a3,3,0,0,0-.65-.31c-.11,0-.23,0-.34,0a2.54,2.54,0,0,1-.61-.19,10.75,10.75,0,0,0-1.49-.35c-.62-.1-1.23-.32-1.84-.48-.76-.19-1.5-.37-2.27-.52-.58-.12-1.14-.27-1.72-.41s-1.36-.33-2.05-.47c-1-.22-2.1-.19-3.13-.38-.48-.08-1-.15-1.43-.25a1,1,0,0,0-.32-.07,4.17,4.17,0,0,1-.5,0,12.57,12.57,0,0,0-1.5-.2c-.52,0-1-.18-1.51-.2-.18,0-.32-.1-.5-.11h-2.76a2.79,2.79,0,0,1-.5,0c-.16,0-.24-.14-.43-.11h.28" transform="translate(-94.08 -356.99)"/></g><path class="cls-5" d="M353,699c0-1.25.34-2.13.33-3.37a10.81,10.81,0,0,1,0-2c0-.23.23-.22.27-.37.24-.94.49-1.93.67-2.9.23-1.22.6-2.33.84-3.53s.71-2.11,1-3.22c.73-2.49,1.32-5,2.26-7.47.88-2.25,1.61-4.45,2.28-6.79a35.72,35.72,0,0,1,1.17-3.44c.43-1.08.82-2.26,1.28-3.32s.7-2.26,1.25-3.36,1.12-2,2.37-1.58c.91.27,1.62,1.2,2.6,1.45a46.31,46.31,0,0,0,7,1.17,29.46,29.46,0,0,1,5.75,1.35c1.76.52,3.56.92,5.32,1.45a28.26,28.26,0,0,0,3.12.41,41,41,0,0,1,9.73,3.55c2.95,1.38,5.67,3.2,8.72,4.37a29.72,29.72,0,0,1,3.46,1.44,21.58,21.58,0,0,0,4.48,1.68c1.88.52,3.8,1.2,5.63,1.84.81.29,1.68.39,2.38.69a4.9,4.9,0,0,0,1.6.41c.47.06.49-.12.69.32a1.86,1.86,0,0,1-.09,1,8.06,8.06,0,0,1-.51.73,18.94,18.94,0,0,0-1.09,2.33c-1.64,4-2.84,8.17-4.4,12.21-.31.8-.76,1.52-1,2.32-.34,1-.44,2.05-.81,3.05-.72,1.91-1.19,3.84-1.86,5.75s-1.43,3.55-2,5.39-1.17,3.72-1.7,5.64c0-.14,0-.28,0-.41a9.16,9.16,0,0,1-.85,3.68c-1.09,2.73-2.22,5.45-3.13,8.25-1,3-2,5.86-3,8.8-.86,2.67-2.26,5.09-2.9,7.84a17.63,17.63,0,0,1-.95,2.34,19.58,19.58,0,0,0-.51,2.14c-.45,1.67-1.2,3.33-1.76,5-.29.85-.32,1.79-.66,2.61s-.68,1.43-.94,2.19a42.52,42.52,0,0,1-2.19,5.54c-1.05,2-1.62,4.29-2.62,6.34a9.64,9.64,0,0,0-.48,1.68c-.15.49-.69,1-.59,1.63a.22.22,0,0,0-.28-.16c-.28,1.1-.58,2.22-1,3.33-.49,1.48-1.29,2.74-1.8,4.2a64.49,64.49,0,0,1-2.71,6.74c-.17.35-.51,1.16-1,1.23s-.72-.42-1-.55a2.05,2.05,0,0,0-1-.16,31.45,31.45,0,0,1-8.45-1.18c-2.48-.64-5-1-7.39-1.86a33.72,33.72,0,0,0-3.43-1.27c-.17,0-.27,0-.47-.07-1.42-.2-2.85-.32-4.28-.6-2.51-.5-5.1-.63-7.52-1.25-1.64-.42-3.08-.92-4.72-1.2s-2.82-1-4.36-1.34a13.41,13.41,0,0,1-3.72-1.17c-.35-.19-.64-.44-1-.61-.58-.26-1.25-.25-1.81-.56-.29-.17-.69-.6-.89-.68-.26-.41-.92-.6-1.28-.94-.57-.52-.47-.66-.65-1.43a5.86,5.86,0,0,0-.33-1.28c-.22-.38-.71-.7-.94-1.08-.48-.77-.25-1.66-.6-2.44a6.6,6.6,0,0,1-.42-2.95c0-3.06,1.07-6,1.77-9,0-.14.22-.19.28-.44a12.6,12.6,0,0,0-.05-1.5,15.94,15.94,0,0,1,.94-2.94,43.44,43.44,0,0,0,1.72-4.71c.1-.54,0-1.06.08-1.58a12.48,12.48,0,0,1,.58-1.37c.3-.87.52-1.81.75-2.7s.39-1.61.68-2.38a16.61,16.61,0,0,0,.52-3.35,64.67,64.67,0,0,1,2.09-7.75,37.71,37.71,0,0,1,1.44-3.73,26.92,26.92,0,0,0,1.27-3.7,34.65,34.65,0,0,1,1.59-4.55c.45-1.16.75-2.35,1.1-3.54.41-1.41,1-2.75,1.52-4.13a22.14,22.14,0,0,0,.59-2.3,7.79,7.79,0,0,1,.67-1.66c.18-.36.24-.91.42-1.35a11.45,11.45,0,0,0,.59-2,12.73,12.73,0,0,1,1.05-2.85c.49-1.05,1.33-2.06,1.31-3.21" transform="translate(-94.08 -356.99)"/><path class="cls-6" d="M358.18,693a10.12,10.12,0,0,1,.19-3.57,11.47,11.47,0,0,0,.51-1.07c.09-.3,0-.59.11-.9s.32-.38.4-.59c.19-.5.18-1.07.36-1.57a9.64,9.64,0,0,1,.73-1.34,15.55,15.55,0,0,0,.81-1.7c.31-.75.68-1.46,1-2.23a3.5,3.5,0,0,1,.76-1.42c.34.31.3.88.6,1.18s1.18.44,1.66.62,1.17.42,1.76.64c1.41.54,2.86,1.57,4.37,1.78" transform="translate(-94.08 -356.99)"/><path class="cls-6" d="M360.21,685.4c.51,0,1,0,1.53,0a5.39,5.39,0,0,1,2,.92c.87.45,1.44,1.2,2.29,1.62" transform="translate(-94.08 -356.99)"/><path class="cls-6" d="M372.92,684.13c-.25.5-.31,1-.56,1.56-.55,1.19-.95,2.38-1.46,3.58a28.76,28.76,0,0,0-1.6,4c-.17.65-.83,1.63-.7,2.28" transform="translate(-94.08 -356.99)"/><path class="cls-6" d="M372.92,696.33c0-2.05-.1-4,.82-5.87a14.78,14.78,0,0,0,.91-1.77,10.89,10.89,0,0,1,.43-1.16,9.49,9.49,0,0,1,1-1.88c.19-.25.52-.64.84-.46,0,0,.2.5.23.54a1.52,1.52,0,0,0,.7.42c1.59.67,3.37.77,5,1.36.47.17,1.38.34,1.49.94" transform="translate(-94.08 -356.99)"/><path class="cls-6" d="M374.19,690.49a10.88,10.88,0,0,1,3.38.48,5.59,5.59,0,0,1,2.21,1.26,2.25,2.25,0,0,0,.77.54" transform="translate(-94.08 -356.99)"/><path class="cls-6" d="M372.16,696.08l1.29,0c1.41,0,2.07.59,3.23,1.3.67.42,1.42.68,2.1,1.07.36.2.62.56,1,.7" transform="translate(-94.08 -356.99)"/><path class="cls-6" d="M390.21,689.21a10.18,10.18,0,0,1-.14,2.14c-.3,1.36-1,2.62-1.33,4-.28,1-.24,2.06-.49,3.06s-.64,1.67-.82,2.53a2.42,2.42,0,0,1-.2.79c-.08.15-.29.23-.32.4-.08.6.89.32,1.27.32,1.68,0,3.1,1,4.62,1.57.38.15,1.95.5,2,1" transform="translate(-94.08 -356.99)"/><path class="cls-6" d="M400.89,708.53c-.15-.84.73-2.14,1-2.92a16.83,16.83,0,0,0,.35-1.88,18.51,18.51,0,0,1,.9-2.79,20.88,20.88,0,0,0,1.61-6.24c0-.56,0-1.12,0-1.67.43,0,.63-.33,1-.09a10.45,10.45,0,0,1,1.58,1.54,9.22,9.22,0,0,1,2.54,3.63c.18.54.5.91.65,1.46a8.76,8.76,0,0,0,.31,1,5.4,5.4,0,0,1,.25,2.16,3.86,3.86,0,0,1,0,1.4c-.19.43-.95.69-1.35.81-2,.63-3.07,2.26-4.83,3.19a5.2,5.2,0,0,1-2,.89,5.48,5.48,0,0,1-1.28,0c-.56-.13-.36-.47-.37-1" transform="translate(-94.08 -356.99)"/><path class="cls-6" d="M355.38,707.26a10.28,10.28,0,0,1,1.15-3.92,2.65,2.65,0,0,1,2.41-1.92,4.92,4.92,0,0,1,1.33,0,3.28,3.28,0,0,1,1.47,1.36,4.54,4.54,0,0,1,1,2.94,23.91,23.91,0,0,1,0,2.54c-.11.91-1,1.41-1.63,2a6,6,0,0,1-1.67,1.08c-.36.18-.74.23-1.09.38a1.83,1.83,0,0,1-1.13.31,5.06,5.06,0,0,0,.95,0c.23-.06.25-.23.48-.28a2.5,2.5,0,0,1,1.61.19,6.31,6.31,0,0,1,1.46,2.73c.58,1.64.63,5.28-1.78,5.22" transform="translate(-94.08 -356.99)"/><path class="cls-6" d="M393,716.67c0,.54,0,1.08,0,1.63a8.47,8.47,0,0,1-.08,2.19c-.32,1.29-.78,2.51-1.06,3.81a38.66,38.66,0,0,1-1.47,5.1,1.87,1.87,0,0,1-.89,1.23,3.26,3.26,0,0,1,0-1.49,4.76,4.76,0,0,1,.46-1,24,24,0,0,1,1.83-3.33,38.4,38.4,0,0,1,2.8-3.32,8.64,8.64,0,0,1,2-1.81c.4-.23,1.46-.95,1.94-.69-.18.31-.55.51-.78.76a12,12,0,0,1-2.23,1.7,16.84,16.84,0,0,1-1.64,1,5.74,5.74,0,0,0-.72.3c-.25.16-1,.75-.92,1.09.05.14.72.39.9.5a2.74,2.74,0,0,1,.89.87,14.52,14.52,0,0,1,1.46,4.37,7.44,7.44,0,0,0,.43,1.79c.05.1.22.14.27.24a3.43,3.43,0,0,1,.12.39c.09.22.33.63.25.89" transform="translate(-94.08 -356.99)"/><path class="cls-6" d="M365.22,716.93a4.88,4.88,0,0,1,0-1.21,3.63,3.63,0,0,1,.25-.44c.07-.18.1-.4.19-.58a7.77,7.77,0,0,1,.89-1.18,11.84,11.84,0,0,1,1.78-1.83,6.54,6.54,0,0,1,2.34-1.35,7.6,7.6,0,0,1,2-.17,3.45,3.45,0,0,1,2.55,1.49,3.78,3.78,0,0,1,.76,2.49,25.22,25.22,0,0,1-.1,4.26,5.44,5.44,0,0,1-.77,2.37,24.36,24.36,0,0,1-1.83,2.23,11.94,11.94,0,0,1-2.19,1.75,7.65,7.65,0,0,1-1.71.87,2.57,2.57,0,0,1-1.45.21c-.34-.09-.44-.38-.62-.68a6.17,6.17,0,0,1-.65-1.28,4.34,4.34,0,0,0-.16-.47,2.82,2.82,0,0,1-.14-.64,8.41,8.41,0,0,0-.36-1.2,2.44,2.44,0,0,1-.15-.66,5,5,0,0,0-.14-.67c-.06-.45-.11-.91-.19-1.35a6.12,6.12,0,0,1-.21-1.36v-1.41" transform="translate(-94.08 -356.99)"/><path class="cls-6" d="M377.51,721.38a1.77,1.77,0,0,1,.4-1.23,5.46,5.46,0,0,1,.74-1.06c.24-.23.46-.48.68-.73a8.56,8.56,0,0,1,2.63-2.08c1.26-.6,3.4-1.35,4.2.33a6.15,6.15,0,0,1,.5,1.29,3.4,3.4,0,0,1,0,.78c0,.62,0,1.25,0,1.87-.11,1.81-1.37,3.33-2.24,4.85s-2,3.18-3.85,3.87a2.94,2.94,0,0,1-1.89.16c-.23-.11-.45-.33-.68-.45a1.19,1.19,0,0,1-.56-.57A3.13,3.13,0,0,1,377,727c0-.21,0-.42,0-.63a4.42,4.42,0,0,1-.11-1v-1.55a8.42,8.42,0,0,1,0-1.42,2.75,2.75,0,0,1,.44-1c.16-.25.49-1.06.78-1.12" transform="translate(-94.08 -356.99)"/></g><g id="keys"><g id="fob"><path class="cls-7" d="M321.68,804.37a29.34,29.34,0,0,0-5.57-6.62l.26-.45c-5.1.62-9.57,3.61-13.81,6.52L279,820a7.27,7.27,0,0,0-2.66,2.62c-.85,1.83,0,4,.77,5.82,1.22,2.78,2.44,5.55,3.65,8.33.51,1.16,1.15,2.44,2.35,2.83a4.47,4.47,0,0,0,3.2-.58,128.88,128.88,0,0,0,32.48-21.55,13.92,13.92,0,0,0,3.83-4.75A9.94,9.94,0,0,0,321.68,804.37Zm-4.76-.81a2.45,2.45,0,0,1-3.14.59,2.74,2.74,0,0,1-1.19-2.76l-.18.15.24-.45a1.59,1.59,0,0,0-.06.3,5.2,5.2,0,0,1,1.63-1,2.58,2.58,0,0,1,2.09.12A2.17,2.17,0,0,1,316.92,803.56Z" transform="translate(-94.08 -356.99)"/><path class="cls-8" d="M282.07,838.73c3.34,1.86,7.67-1.34,10.65-2.88,3.84-2,7.36-4.17,11.1-6.34,4.08-2.37,7.72-5.75,11.39-8.73s8.39-6.83,9.08-11.87c.26-1.89-2.63-2.71-2.9-.8-.64,4.7-5.37,8-8.81,10.8-3.64,2.9-7,6-11,8.28-2.32,1.35-4.42,2.94-6.79,4.16-2.11,1.08-8.9,6-11.17,4.79-1.69-.94-3.2,1.65-1.51,2.59Z" transform="translate(-94.08 -356.99)"/></g><path id="right" class="cls-9" d="M327.17,791.08c-6.47,0-10.64,5.33-11.71,11.71-1,5.71,5.24,11.71,11.71,11.71a11.71,11.71,0,0,0,0-23.42Zm-.67,20.42c-3.32-.49-6.93-4.89-7-8-.11-5,2.4-9.65,7.46-9.65a9.15,9.15,0,0,1,9.15,9.15A8.61,8.61,0,0,1,326.5,811.5Z" transform="translate(-94.08 -356.99)"/><g id="key_2" data-name="key 2"><path class="cls-10" d="M341.8,829.22a6.11,6.11,0,0,0-3.59-4.72,4.54,4.54,0,0,0-3.13-6.74,11.77,11.77,0,0,0-.27-4.47,3.53,3.53,0,0,0-6.88-.26,11.61,11.61,0,0,0-.61,4.77l.37.05a8.56,8.56,0,0,0-2.29,7.42,3.11,3.11,0,0,0-2.16,4.21,3.22,3.22,0,0,0-2.64,2.28,3.26,3.26,0,0,0,1.07,3.33c1.26,1,3.25,1,4.15,2.37a4.58,4.58,0,0,1,.53,2.57l.06,9.2a1.94,1.94,0,0,0,.43,3.59l.43.95-.89.43a4.66,4.66,0,0,0,1.21,3.79,14,14,0,0,0,3.24,2.52,3.35,3.35,0,0,0,2.45.75c1.48-.37,1.7-2.35,1.61-3.86q-.63-10.64-1.27-21.25a6.89,6.89,0,0,0,5.94-1.32A6.35,6.35,0,0,0,341.8,829.22Zm-10.06-7.84a3,3,0,0,1-1.56,0,1,1,0,0,1-.69-1.1,5.89,5.89,0,0,1,2.58-6.35c.41,2.47.81,4.94,1.22,7.41A2.92,2.92,0,0,0,331.74,821.38Z" transform="translate(-94.08 -356.99)"/><path class="cls-11" d="M332.23,836.39c.27,4.05.53,8.1.75,12.15.15,2.68,1.62,9.49,0,11.75-.28.39.37.77.65.38,1.64-2.31.38-6.67.24-9.32q-.4-7.49-.91-15c0-.48-.78-.48-.75,0Z" transform="translate(-94.08 -356.99)"/><path class="cls-11" d="M333.11,836.39c0-1.65.29-.22,1.25-.22a7.09,7.09,0,0,0,4.07-.84,6.5,6.5,0,0,0,2.35-7.42,4.25,4.25,0,0,0-1.51-2.13c-2.53-2.11-.85-.06-1.24-2-.25-1.25.58-2.5-.11-3.74-.95-1.7-3.29-1.79-3.16-4.33,0-.48-.73-.48-.75,0-.1,1.83.3,1.87.86,3.15,1,2.23,3.43,3.6,1.73,5.92a.39.39,0,0,0,.14.52c2.09,1.34,4.23,3.89,3.41,6.59-.64,2.11-4.82,5.31-6.45,2.88a.38.38,0,0,0-.42-.17c-.87.26-.92,1-.92,1.8a.38.38,0,0,0,.75,0Z" transform="translate(-94.08 -356.99)"/><path class="cls-11" d="M333.23,834.67c-2.73.87-.71,6.38-.57,8.46.17,2.63.53,5.26.62,7.89,0,.9,0,1.84,0,2.74,0,.52.21,7.49-.87,6.34-.33-.35-.86.18-.53.53l.45.48a.34.34,0,0,0,.36.09c2.87-1,1.44-6.58,1.33-8.94-.08-1.54-2.05-16.4-.58-16.86.46-.15.26-.87-.2-.73Z" transform="translate(-94.08 -356.99)"/></g><g id="key_1" data-name="key 1"><path id="key_1-2" data-name="key 1" class="cls-9" d="M326.77,829.45a3,3,0,0,1-.6-1.17,2.74,2.74,0,0,1,.42-1.33,4.07,4.07,0,0,0-1.45-4.85,24.47,24.47,0,0,0,1.43-4.67c.28-1.39.39-3-.56-4.07a5.18,5.18,0,0,0-2.66-1.3,7.66,7.66,0,0,0-2.64-.36,5,5,0,0,0-3.4,2.3c-1.05,1.56-1.74,5.63-3.65,6.47-.75.33-1.57-.39-2.39-.35-1.4.09-1.95,2.23-3.34,2.34a5.09,5.09,0,0,1-1.75-.48,2.82,2.82,0,0,0-3.44,2.57c0,1.51,1.2,3.15.34,4.4a6.35,6.35,0,0,0-.63.84c-.39.87.52,1.74,1.32,2.27s1.71,1.38,1.35,2.27c-.2.49-.74.75-1.15,1.1a2.66,2.66,0,0,0,.15,3.94c.2.15.44.29.52.53a1.06,1.06,0,0,1-.12.69q-3.11,7.14-6.49,14.14a13.47,13.47,0,0,0-1.36,3.64c-.48,2.81.83,5.59,2.11,8.14.42.83,1.24,1.82,2.08,1.4a1.77,1.77,0,0,0,.72-.94l10.05-21.72c.74-1.59,1.62-3.33,3.25-4a8.18,8.18,0,0,0,1.79-.68c.44-.31.74-.81,1.22-1.06,1-.56,2.42.21,3.43-.38.85-.49,1.11-1.78,2.05-2,.36-.1.75,0,1.11-.11.71-.17,1.12-.88,1.45-1.52C326.91,833.58,327.88,831.26,326.77,829.45Zm-3.58-9.05a.55.55,0,0,1-.21.34.64.64,0,0,1-.39,0c-1.09-.17-3.27-.07-4.19-.67-1.17-.77-.24-1.89.3-2.89a5.37,5.37,0,0,1,1.73-2.12,5.94,5.94,0,0,1,1.85-.62,1.75,1.75,0,0,1,.72-.05c.6.12.89.81,1,1.41A10.34,10.34,0,0,1,323.19,820.4Z" transform="translate(-94.08 -356.99)"/><path class="cls-11" d="M299.74,866.85l.3.41c.18.23.62.26.69-.09.45-2.15,2.08-4.34,2.95-6.41,1.28-3,2.85-5.94,4.14-9,2.09-4.92,3.28-9.08,8.23-11.6,2.61-1.34,5.05-1.7,7.06-4,.31-.36-.22-.89-.53-.53-2.18,2.49-6.42,2.93-9.23,4.9s-4.08,5.73-5.39,8.84c-1.39,3.27-2.92,6.44-4.38,9.66-.55,1.2-3.66,6.78-3.2,7.4-.28-.38-.93,0-.64.38Z" transform="translate(-94.08 -356.99)"/><path class="cls-11" d="M319.84,838.71c1.51,0,1.58-1.08,2.82-1.92.71-.48,1.76-.41,2.4-.89,2.88-2.16,1.13-5.67.88-8.08-.17-1.67.25-2.81-.22-4.37-.82-2.67-.7-2.09-.2-5.33.2-1.37-.15-5.56-.31-1.16-.06,1.83-1,3.21-1.53,4.94a.37.37,0,0,0,.72.2c.35-1.19,1.28-2.22,1.51-3.48.27-1.49-.15-3-.15-4.52a.38.38,0,0,0-.75,0c0,2.64-1.25,5.2-1.21,7.76a8.87,8.87,0,0,0,.17,1c.21,2,1,3.21.9,5.2-.1,2.24,1.48,5.17-.45,7.08-.16.16-4.78,2.81-4.58,2.81a.38.38,0,0,0,0,.75Z" transform="translate(-94.08 -356.99)"/></g><path class="cls-12" d="M325.77,791.7c-2.41,0-4.74,1.87-6.19,3.56-1,1.13-2.89,3-2.25,4.75v-1.25a6.8,6.8,0,0,1-.37,1V801c.11-.4.27-.76.35-1.18v-1.25a24.49,24.49,0,0,1-1,2.8c-.11.37.16.92,0,1.25a9.92,9.92,0,0,0,.64-1.55c.09-.37-.15-.92,0-1.25a9.35,9.35,0,0,0-.61,4.29v0a8.92,8.92,0,0,1,.52-2.46c.15-.35-.16-.91,0-1.25a5.73,5.73,0,0,0-.57,1.26c-.06.26,0,1.15,0,.7,0-.21-.13-1.09,0-1.23-.48.5-.33,1.68-.33,2.34,0,1.07,0,1.48.36-.08.09-.38-.13-.89,0-1.25a4.51,4.51,0,0,0-.12,1.64V803l0-.36a3.57,3.57,0,0,1,0-.46l-.09.05c0-.1,0-.21,0-.31a17,17,0,0,0-.06,2.14,3.47,3.47,0,0,0,.08.79c.26.88.09-.24.14-.16a3.77,3.77,0,0,0,.13.58,3.21,3.21,0,0,1,0-.62v-.82a3.21,3.21,0,0,1,0-.62c-.35,1.33.13,1.13-.38.12-.29-.56-.11-.06-.14.33a3.87,3.87,0,0,0,.29,2c-.17-.31.18-.93,0-1.25a2.88,2.88,0,0,1-.28-1.09v1.25c.27-1.05,0,.71.3.88s.11-.65.21-1V804a2.29,2.29,0,0,1-.07-.64,1.61,1.61,0,0,1,0-.31c-.22,1.09-.18.76-.27-.21v1.23c0-.76,0-.76.07-.05v0c.16-1.35,0-.21.11.18a4.17,4.17,0,0,1,0-.79v.27l.12-.33v-1.25c0,.14-.24,1.46-.36,1v.8a2.93,2.93,0,0,1,.32-1.57v-1.23c0,.88-.12,1.71-.12,2.61,0,.16,0,.51,0,.6a5.68,5.68,0,0,1,.64-2.71v-1.25a8.39,8.39,0,0,0-.54,2.26v.94a6.65,6.65,0,0,1,.63-2.55v-1.25a9.92,9.92,0,0,1-.64,1.55v1.25a24.49,24.49,0,0,0,1-2.8c.08-.41-.07-.85,0-1.25-.08.41-.24.78-.35,1.18s.15.91,0,1.25a3.38,3.38,0,0,0,.34-2.31v1.25c1.63-3.1,4.55-7,8.47-7,0,0,0-1.25,0-1.25Z" transform="translate(-94.08 -356.99)"/></g><g id="head"><path id="neck" class="cls-13" d="M321.79,583.82a22.19,22.19,0,0,1-10.05,25.32c22.76,14.08,52.89,15.36,76.75,3.25a51.37,51.37,0,0,1-16.79-23.46Z" transform="translate(-94.08 -356.99)"/><ellipse id="face" class="cls-14" cx="259.42" cy="154.51" rx="73" ry="81"/><path id="hair" class="cls-15" d="M396,549c-4.59,2.44-5.45,5.89-5.17,11.08s2.58,10,5.05,14.62a166.86,166.86,0,0,0,31.62,41.42c18.46-61.74,37.12-125.38,31-189.54-2-20.84-7.51-43.06-23.64-56.4-16.58-13.72-40.22-14.65-61.58-12-4.54.56-9.2,1.3-13.11,3.69s-6.86,7.41-6.22,11.95c2.5-4.33-.46-10.19-4.92-12.41s-9.78-1.7-14.67-.69c-22.16,4.56-42.81,17.45-54.89,36.59C258.78,430.12,251,470,253,508.81s13.12,76.58,27.88,112.48a118.93,118.93,0,0,0,17.86-52.65c.91-10.08,5-21,3.3-30.94-1.34-7.68-4.57-15-5.37-22.72s1.64-16.69,8.58-20.24c-.42-3.05-.84-6.2,0-9.18s3.14-5.76,6.2-6.1c2.88-.31,5.49,1.51,8.14,2.69a19.79,19.79,0,0,0,20.91-3.37A15.56,15.56,0,0,0,367.93,477a13.56,13.56,0,0,0,24.42,3.72,15.78,15.78,0,0,0,17.19,9.54c1.94,10.54,3.89,21.27,2.61,31.91S406.34,542,397,548Z" transform="translate(-94.08 -356.99)"/><g id="glasses"><path class="cls-16" d="M410.19,505.39a33.68,33.68,0,0,1,2.54,20.09,25.38,25.38,0,0,1-11.15,16.61c-5.85,3.59-13.57,4.21-19.65,1-4-2-5.36-3.56-9.14-9.21a27.82,27.82,0,0,1-.19-23.8c3.55-7.51,12.9-5.63,18.78-15,2-3.12,7.5-.84,10.8.78C406,497.74,408.49,501.52,410.19,505.39Z" transform="translate(-94.08 -356.99)"/><path class="cls-17" d="M339.11,519.75a24.67,24.67,0,0,1-7.29,13.47c-5.74,5.29-14.68,7.17-21.71,3.79a21.22,21.22,0,0,1-7.71-6.59,27,27,0,0,1-5.19-17.77c.44-6.29,3.87-12.66,8.29-17.15.74-.79,0,0,1.3-.64s2.47-3.95,3.7-4.36c6-2,7.7,2.37,11.52,2.75a20,20,0,0,1,10.62,4c4.35,3.5,6.49,9.17,6.93,14.73A28.58,28.58,0,0,1,339.11,519.75Z" transform="translate(-94.08 -356.99)"/><path class="cls-18" d="M305.5,495.5c.74-.79,0,0,1.3-.64s2.47-3.95,3.7-4.36c6-2,7.7,2.37,11.52,2.75a20,20,0,0,1,10.62,4c4.35,3.5,6.49,9.17,6.93,14.73a28.58,28.58,0,0,1-.46,7.77,24.67,24.67,0,0,1-7.29,13.47c-5.74,5.29-14.68,7.17-21.71,3.79a21.22,21.22,0,0,1-7.71-6.59,27,27,0,0,1-5.19-17.77c.44-6.29,3.87-12.66,8.29-17.15" transform="translate(-94.08 -356.99)"/><path class="cls-19" d="M339,519.81l.11-.06a33,33,0,0,1,30-.11" transform="translate(-94.08 -356.99)"/><path class="cls-19" d="M372.79,533.93l-.29-.43" transform="translate(-94.08 -356.99)"/><path class="cls-19" d="M372.79,533.93a27.82,27.82,0,0,1-.19-23.8c3.55-7.51,12.9-5.63,18.78-15,2-3.12,7.5-.84,10.8.78,3.8,1.85,6.31,5.63,8,9.5a33.68,33.68,0,0,1,2.54,20.09,25.38,25.38,0,0,1-11.15,16.61c-5.85,3.59-13.57,4.21-19.65,1C378,541.09,376.57,539.58,372.79,533.93Z" transform="translate(-94.08 -356.99)"/><path class="cls-19" d="M372.91,534.18l-.12-.25" transform="translate(-94.08 -356.99)"/></g><g id="fire"><path class="cls-20" d="M108.39,623.21c-2.76-.21-5.33-3.55-6.55-5.65a30.28,30.28,0,0,1-4.2-12c-.64-5.19-1.69-10.24-.56-15.44.34-1.58,1.36-6.16,3-6.62.09,1.13,1,1.59,1.17,2.58a18.69,18.69,0,0,1,0,3.66c0,1.72-.61,5.79,1.6,6.23.12-1.6,1.44-2.85,1.81-4.4.5-2.1.34-4,1-6.05a97.68,97.68,0,0,1,5.45-12.13q2.06-4.24,3.71-8.66c.45-1.19.93-3.86,2.53-3.9,1.3,3.73-.1,9.13.09,13,.1,1.89,1.78,12.9,4.37,13.09a19.43,19.43,0,0,1,2.18-5.31c.83-1.63,2.89-5.75,5.11-5.4,1.12,4.42-1.11,9.8.32,14.1,1.07-1.21,2.62-3.93,4.31-4.29,3-.64,1.83,4.9,1.83,6.8,0,4.39.05,8.48-.9,12.74-.27,1.22-.49,2.91-.88,4.07a23.45,23.45,0,0,1-2.06,3.35c-.72,1.29-1.72,2.17-2.51,3.37s-.91,2.43-2.66,3c-1.33.43-2.7,0-4,.27-.62.14-.68.71-1.39.87s-1.31-.23-1.9-.1c-2,.46-3.9,2.14-5.91,2.68-1.6.44-7.54.93-6.7-1.72" transform="translate(-94.08 -356.99)"/><path class="cls-20" d="M194.39,509.21c-2.76-.21-5.33-3.55-6.55-5.65a30.28,30.28,0,0,1-4.2-12c-.64-5.19-1.69-10.24-.56-15.44.34-1.58,1.36-6.16,2.95-6.62.09,1.13,1,1.59,1.17,2.58a18.69,18.69,0,0,1,0,3.66c0,1.72-.61,5.79,1.6,6.23.12-1.6,1.44-2.85,1.81-4.4.5-2.1.34-4,1-6.05a97.68,97.68,0,0,1,5.45-12.13q2.05-4.25,3.71-8.66c.45-1.19.93-3.86,2.53-3.9,1.3,3.73-.1,9.13.09,13,.1,1.89,1.78,12.9,4.37,13.09a19.43,19.43,0,0,1,2.18-5.31c.83-1.63,2.89-5.75,5.11-5.4,1.12,4.42-1.11,9.8.32,14.1,1.07-1.21,2.62-3.93,4.31-4.29,3-.64,1.83,4.9,1.83,6.8,0,4.39.05,8.48-.9,12.74-.27,1.22-.49,2.91-.88,4.07a23.45,23.45,0,0,1-2.06,3.35c-.72,1.29-1.72,2.17-2.51,3.37s-.91,2.43-2.66,3c-1.33.43-2.7,0-4,.27-.62.14-.68.71-1.39.87s-1.31-.23-1.9-.1c-2,.46-3.9,2.14-5.91,2.68-1.6.44-7.54.93-6.7-1.72" transform="translate(-94.08 -356.99)"/><path class="cls-20" d="M561.39,623.21c-2.76-.21-5.33-3.55-6.55-5.65a30.28,30.28,0,0,1-4.2-12c-.64-5.19-1.69-10.24-.56-15.44.34-1.58,1.36-6.16,2.95-6.62.09,1.13,1,1.59,1.17,2.58a18.69,18.69,0,0,1,0,3.66c0,1.72-.61,5.79,1.6,6.23.12-1.6,1.44-2.85,1.81-4.4.5-2.1.34-4,1-6.05a97.68,97.68,0,0,1,5.45-12.13q2.06-4.24,3.71-8.66c.45-1.19.93-3.86,2.53-3.9,1.3,3.73-.1,9.13.09,13,.1,1.89,1.78,12.9,4.37,13.09a19.43,19.43,0,0,1,2.18-5.31c.83-1.63,2.89-5.75,5.11-5.4,1.12,4.42-1.11,9.8.32,14.1,1.07-1.21,2.62-3.93,4.31-4.29,3-.64,1.83,4.9,1.83,6.8,0,4.39,0,8.48-.9,12.74-.27,1.22-.49,2.91-.88,4.07a23.45,23.45,0,0,1-2.06,3.35c-.72,1.29-1.72,2.17-2.51,3.37s-.91,2.43-2.66,3c-1.33.43-2.7,0-4,.27-.62.14-.68.71-1.39.87s-1.31-.23-1.9-.1c-2,.46-3.9,2.14-5.91,2.68-1.6.44-7.54.93-6.7-1.72" transform="translate(-94.08 -356.99)"/><path class="cls-20" d="M552.39,760.21c-2.76-.21-5.33-3.55-6.55-5.65a30.28,30.28,0,0,1-4.2-12c-.64-5.19-1.69-10.24-.56-15.44.34-1.58,1.36-6.16,2.95-6.62.09,1.13,1,1.59,1.17,2.58a18.69,18.69,0,0,1,0,3.66c0,1.72-.61,5.79,1.6,6.23.12-1.6,1.44-2.85,1.81-4.4.5-2.1.34-4,1-6.05a97.68,97.68,0,0,1,5.45-12.13q2.06-4.24,3.71-8.66c.45-1.19.93-3.86,2.53-3.9,1.3,3.73-.1,9.13.09,13,.1,1.89,1.78,12.9,4.37,13.09a19.43,19.43,0,0,1,2.18-5.31c.83-1.63,2.89-5.75,5.11-5.4,1.12,4.42-1.11,9.8.32,14.1,1.07-1.21,2.62-3.93,4.31-4.29,3-.64,1.83,4.9,1.83,6.8,0,4.39,0,8.48-.9,12.74-.27,1.22-.49,2.91-.88,4.07a23.45,23.45,0,0,1-2.06,3.35c-.72,1.29-1.72,2.17-2.51,3.37s-.91,2.43-2.66,3c-1.33.43-2.7,0-4,.27-.62.14-.68.71-1.39.87s-1.31-.23-1.9-.1c-2,.46-3.9,2.14-5.91,2.68-1.6.44-7.54.93-6.7-1.72" transform="translate(-94.08 -356.99)"/><path class="cls-20" d="M497.39,502.21c-2.76-.21-5.33-3.55-6.55-5.65a30.28,30.28,0,0,1-4.2-12c-.64-5.19-1.69-10.24-.56-15.44.34-1.58,1.36-6.16,2.95-6.62.09,1.13,1,1.59,1.17,2.58a18.69,18.69,0,0,1,0,3.66c0,1.72-.61,5.79,1.6,6.23.12-1.6,1.44-2.85,1.81-4.4.5-2.1.34-4,1-6.05a97.68,97.68,0,0,1,5.45-12.13q2.06-4.25,3.71-8.66c.45-1.19.93-3.86,2.53-3.9,1.3,3.73-.1,9.13.09,13,.1,1.89,1.78,12.9,4.37,13.09a19.43,19.43,0,0,1,2.18-5.31c.83-1.63,2.89-5.75,5.11-5.4,1.12,4.42-1.11,9.8.32,14.1,1.07-1.21,2.62-3.93,4.31-4.29,3-.64,1.83,4.9,1.83,6.8,0,4.39,0,8.48-.9,12.74-.27,1.22-.49,2.91-.88,4.07a23.45,23.45,0,0,1-2.06,3.35c-.72,1.29-1.72,2.17-2.51,3.37s-.91,2.43-2.66,3c-1.33.43-2.7,0-4,.27-.62.14-.68.71-1.39.87s-1.31-.23-1.9-.1c-2,.46-3.9,2.14-5.91,2.68-1.6.44-7.54.93-6.7-1.72" transform="translate(-94.08 -356.99)"/><path class="cls-20" d="M142.39,751.21c-2.76-.21-5.33-3.55-6.55-5.65a30.28,30.28,0,0,1-4.2-12c-.64-5.19-1.69-10.24-.56-15.44.34-1.58,1.36-6.16,2.95-6.62.09,1.13,1,1.59,1.17,2.58a18.69,18.69,0,0,1,0,3.66c0,1.72-.61,5.79,1.6,6.23.12-1.6,1.44-2.85,1.81-4.4.5-2.1.34-4,1-6.05a97.68,97.68,0,0,1,5.45-12.13q2.05-4.24,3.71-8.66c.45-1.19.93-3.86,2.53-3.9,1.3,3.73-.1,9.13.09,13,.1,1.89,1.78,12.9,4.37,13.09a19.43,19.43,0,0,1,2.18-5.31c.83-1.63,2.89-5.75,5.11-5.4,1.12,4.42-1.11,9.8.32,14.1,1.07-1.21,2.62-3.93,4.31-4.29,3-.64,1.83,4.9,1.83,6.8,0,4.39.05,8.48-.9,12.74-.27,1.22-.49,2.91-.88,4.07a23.45,23.45,0,0,1-2.06,3.35c-.72,1.29-1.72,2.17-2.51,3.37s-.91,2.43-2.66,3c-1.33.43-2.7,0-4,.27-.62.14-.68.71-1.39.87s-1.31-.23-1.9-.1c-2,.46-3.9,2.14-5.91,2.68-1.6.44-7.54.93-6.7-1.72" transform="translate(-94.08 -356.99)"/><path class="cls-21" d="M181.46,651.32c-1.61-.12-3.11-2.06-3.82-3.29a17.6,17.6,0,0,1-2.44-7c-.37-3-1-6-.33-9,.2-.92.79-3.58,1.72-3.85,0,.66.56.93.68,1.5a10.84,10.84,0,0,1,0,2.13c0,1-.35,3.37.93,3.63.07-.93.84-1.66,1-2.56.3-1.22.2-2.3.61-3.53a56.55,56.55,0,0,1,3.17-7.07c.8-1.64,1.51-3.32,2.16-5,.26-.69.54-2.24,1.48-2.27.75,2.17-.06,5.32,0,7.6.05,1.1,1,7.51,2.54,7.62a11.47,11.47,0,0,1,1.28-3.09c.48-1,1.68-3.35,3-3.15.65,2.58-.65,5.71.19,8.22.62-.71,1.52-2.29,2.51-2.5,1.76-.37,1.07,2.85,1.07,4a33.38,33.38,0,0,1-.53,7.42c-.16.71-.28,1.7-.51,2.37a14.44,14.44,0,0,1-1.2,1.95c-.42.76-1,1.27-1.46,2s-.54,1.41-1.56,1.74a23,23,0,0,1-2.33.15c-.36.08-.4.42-.81.51s-.76-.13-1.11,0c-1.18.26-2.27,1.24-3.44,1.56-.94.25-4.39.54-3.9-1" transform="translate(-94.08 -356.99)"/><path class="cls-21" d="M483.46,586.32c-1.61-.12-3.11-2.06-3.82-3.29a17.6,17.6,0,0,1-2.44-7c-.37-3-1-6-.33-9,.2-.92.79-3.58,1.72-3.85.05.66.56.93.68,1.5a10.84,10.84,0,0,1,0,2.13c0,1-.35,3.37.93,3.63.07-.93.84-1.66,1.05-2.56.3-1.22.2-2.3.61-3.53a56.55,56.55,0,0,1,3.17-7.07c.8-1.64,1.51-3.32,2.16-5,.26-.69.54-2.24,1.48-2.27.75,2.17-.06,5.32.05,7.6.05,1.1,1,7.51,2.54,7.62a11.47,11.47,0,0,1,1.28-3.09c.48-1,1.68-3.35,3-3.15.65,2.58-.65,5.71.19,8.22.62-.71,1.52-2.29,2.51-2.5,1.76-.37,1.07,2.85,1.07,4a33.38,33.38,0,0,1-.53,7.42c-.16.71-.28,1.7-.51,2.37a14.44,14.44,0,0,1-1.2,1.95c-.42.76-1,1.27-1.46,2s-.54,1.41-1.56,1.74a23,23,0,0,1-2.33.15c-.36.08-.4.42-.81.51s-.76-.13-1.11,0c-1.18.26-2.27,1.24-3.44,1.56-.94.25-4.39.54-3.9-1" transform="translate(-94.08 -356.99)"/><path class="cls-21" d="M509.46,720.32c-1.61-.12-3.11-2.06-3.82-3.29a17.6,17.6,0,0,1-2.44-7c-.37-3-1-6-.33-9,.2-.92.79-3.58,1.72-3.85.05.66.56.93.68,1.5a10.84,10.84,0,0,1,0,2.13c0,1-.35,3.37.93,3.63.07-.93.84-1.66,1.05-2.56.3-1.22.2-2.3.61-3.53a56.55,56.55,0,0,1,3.17-7.07c.8-1.64,1.51-3.32,2.16-5,.26-.69.54-2.24,1.48-2.27.75,2.17-.06,5.32.05,7.6,0,1.1,1,7.51,2.54,7.62a11.47,11.47,0,0,1,1.28-3.09c.48-1,1.68-3.35,3-3.15.65,2.58-.65,5.71.19,8.22.62-.71,1.52-2.29,2.51-2.5,1.76-.37,1.07,2.85,1.07,4a33.38,33.38,0,0,1-.53,7.42c-.16.71-.28,1.7-.51,2.37a14.44,14.44,0,0,1-1.2,1.95c-.42.76-1,1.27-1.46,2s-.54,1.41-1.56,1.74a23,23,0,0,1-2.33.15c-.36.08-.4.42-.81.51s-.76-.13-1.11,0c-1.18.26-2.27,1.24-3.44,1.56-.94.25-4.39.54-3.9-1" transform="translate(-94.08 -356.99)"/><path class="cls-21" d="M145.46,547.32c-1.61-.12-3.11-2.06-3.82-3.29a17.6,17.6,0,0,1-2.44-7c-.37-3-1-6-.33-9,.2-.92.79-3.58,1.72-3.85,0,.66.56.93.68,1.5a10.84,10.84,0,0,1,0,2.13c0,1-.35,3.37.93,3.63.07-.93.84-1.66,1-2.56.3-1.22.2-2.3.61-3.53a56.55,56.55,0,0,1,3.17-7.07c.8-1.64,1.51-3.32,2.16-5,.26-.69.54-2.24,1.48-2.27.75,2.17-.06,5.32,0,7.6.05,1.1,1,7.51,2.54,7.62a11.47,11.47,0,0,1,1.28-3.09c.48-1,1.68-3.35,3-3.15.65,2.58-.65,5.71.19,8.22.62-.71,1.52-2.29,2.51-2.5,1.76-.37,1.07,2.85,1.07,4a33.38,33.38,0,0,1-.53,7.42c-.16.71-.28,1.7-.51,2.37a14.44,14.44,0,0,1-1.2,1.95c-.42.76-1,1.27-1.46,2s-.54,1.41-1.56,1.74a23,23,0,0,1-2.33.15c-.36.08-.4.42-.81.51s-.76-.13-1.11,0c-1.18.26-2.27,1.24-3.44,1.56-.94.25-4.39.54-3.9-1" transform="translate(-94.08 -356.99)"/></g><g id="pupils"><ellipse class="cls-22" cx="391.63" cy="524.61" rx="10.91" ry="9.06" transform="translate(-288.9 458.59) rotate(-79.65)"/><ellipse class="cls-22" cx="224.42" cy="163.01" rx="10" ry="10.5"/></g><g id="nose"><path class="cls-23" d="M362.43,545.58a10.8,10.8,0,0,1-2.53,2.81,3.71,3.71,0,0,1-3.59.51c-1.11-.53-1.77-1.76-2.9-2.24-2.55-1.07-5,2.23-7.79,2.06-2.16-.14-3.62-2.49-3.6-4.65s1.13-4.13,2.21-6l4.93-8.62" transform="translate(-94.08 -356.99)"/></g><g id="bottom_sad_lip" data-name="bottom sad lip"><path class="cls-24" d="M337.37,567.22a2.39,2.39,0,0,1,.17-1c.07-.16.07-.32.16-.5s.2-.34.29-.52a7.77,7.77,0,0,1,.33-.92,4.46,4.46,0,0,1,.54-.77c.14-.21.22-.44.36-.65a6.54,6.54,0,0,1,1.18-1.17c1.43-1.33,3.41-1.18,5.27-1.18a10.4,10.4,0,0,1,2.44.17,6.32,6.32,0,0,1,1.08.45,6.86,6.86,0,0,1,1.44.77,12.12,12.12,0,0,1,1.85,1.8c.12.16.22.34.33.51s.4.34.47.49a3.06,3.06,0,0,1,0,1.13c-.09-.56.37-1.18.67-1.63a6.5,6.5,0,0,1,1.22-1.29,3.11,3.11,0,0,1,1.46-.89,5.66,5.66,0,0,1,.58,0,2.16,2.16,0,0,0,.43-.14,5.51,5.51,0,0,1,1.35,0,5.8,5.8,0,0,1,2.35.21,10.19,10.19,0,0,1,2.68,1.34,10,10,0,0,1,3,5,12.47,12.47,0,0,1,.68,3,5.36,5.36,0,0,1,0,1.6,2,2,0,0,1-.27.44,7.07,7.07,0,0,1-.5.94,4.12,4.12,0,0,1-1.1.84c-.76.41-1.67.56-2.44.89a2.81,2.81,0,0,1-.59.13c-.13,0-.33.13-.45.15a2.34,2.34,0,0,0-.59.16c-.19.08-.39.13-.59.2-.36.12-.76.3-1.15.46a9.94,9.94,0,0,1-1,.25c-.2.06-.38,0-.58.1s-.4.16-.62.21c-.41.08-.81.22-1.23.28s-.62.05-.91.12-.43.05-.63.1a6,6,0,0,1-1.53.08,19.19,19.19,0,0,1-2.4-.12c-.73-.1-1.45,0-2.18-.08-.28,0-.51-.1-.79-.11s-.69,0-1,0-.62-.11-1-.11a8.59,8.59,0,0,1-1-.1,12,12,0,0,1-2.22-.41,18.24,18.24,0,0,1-2.47-.71,4.13,4.13,0,0,1-1.21-.85,4.76,4.76,0,0,1-1.4-2,2,2,0,0,1,0-.81c.07-.64-.4-1.1-.5-1.71-.05-.29-.09-.48-.16-.75s-.05-.31-.08-.42a1.73,1.73,0,0,1-.09-.42,8.6,8.6,0,0,1,0-1.9c0-.13.11-.18.14-.36s0-.36,0-.52a3.48,3.48,0,0,1,.35-.66" transform="translate(-94.08 -356.99)"/><path class="cls-25" d="M337.57,572.56c0-.24.56-.56.71-.72a9,9,0,0,1,3.76-1.93c.43-.15.89-.21,1.33-.33a9.31,9.31,0,0,1,1.73-.28c.59,0,1.18-.2,1.76-.21a5.48,5.48,0,0,0,1-.05,9.31,9.31,0,0,1,1.18,0,8.91,8.91,0,0,1,1.55-.11c.3,0,.33.09.6,0a4,4,0,0,1,1.18-.2c.37,0,.73-.11,1.1-.11h1a13,13,0,0,1,2.42.1c.56.1,1.1.26,1.64.4a14.14,14.14,0,0,1,2.2.72,8.74,8.74,0,0,1,1.38.66c.47.31,1,.47,1.47.76l.8.51c.09.07.13.14.22.21a2.08,2.08,0,0,0,.38.22,4,4,0,0,1,1.05,1,8,8,0,0,0,.55.61,3.07,3.07,0,0,1,.26.25c.09.11.17.33.3.36" transform="translate(-94.08 -356.99)"/></g></g><g id="laptop"><path id="body" class="cls-26" d="M244.24,687.46a11.47,11.47,0,0,1,3.56-8.57,34,34,0,0,1,7.79-5.5l68.06-39a231.86,231.86,0,0,0,9.85,21.16C350.07,686,357.06,719.26,371.68,750c-3.37,7.08-10.82,11.34-17.78,15l-51.75,26.91c-2.57,1.33-5.49,2.7-8.24,1.81s-4.26-3.67-5.55-6.23l-32.45-64.12c-5.93-11.71-12-24-11.93-37.11" transform="translate(-94.08 -356.99)"/><circle class="cls-27" cx="212.92" cy="356.01" r="10.5"/><path class="cls-28" d="M300,710.34c.49-.15,1.14.75,1.31,1.11A23.26,23.26,0,0,1,302.5,714c.32.94.8,1.82,1.19,2.74a4.17,4.17,0,0,1,.19.85c.05.21.2.37.26.58s0,.36,0,.53.19.32.15.55" transform="translate(-94.08 -356.99)"/><path class="cls-28" d="M303.37,708c.06.21.32.33.48.48s.46.45.71.67a9.4,9.4,0,0,1,1.83,2.19,20.05,20.05,0,0,1,1.72,3.55c.22.57.36,1.15.55,1.72.09.27.34.47.28.78" transform="translate(-94.08 -356.99)"/><path class="cls-28" d="M308.46,706.84a1.55,1.55,0,0,1,1.27.54,14.16,14.16,0,0,1,2.14,2.63,12.35,12.35,0,0,1,1.41,3,12,12,0,0,0,.39,1.15c.1.21.25.37.2.62" transform="translate(-94.08 -356.99)"/></g><g id="arms"><path id="left_arm" data-name="left arm" class="cls-13" d="M464.43,774.19c-2.41,6.68-4.85,13.41-8.34,19.6-2.24,4-5,7.82-8.85,10.32-6.71,4.36-15.32,3.9-23.32,3.76a204.08,204.08,0,0,0-22.53.85,64.92,64.92,0,0,0-15.23,2.85c-5.32,1.83-10.17,4.79-15.19,7.33s-10.43,4.7-16.05,4.73-11.56-2.47-14.32-7.38l13-.69a50.58,50.58,0,0,1-15.09.44,13.27,13.27,0,0,1-6.64-2.21c-1.87-1.44-3-4.07-2.06-6.24a2.81,2.81,0,0,1,1.37-1.47,4.51,4.51,0,0,1,3.18.34,27.51,27.51,0,0,0,17.59,0c-4.91,1-10,2.06-14.88.8s-9.3-5.58-8.95-10.58a49.89,49.89,0,0,0,21.64,2,107.06,107.06,0,0,1-22-3.27,2.6,2.6,0,0,1,1.69-3.09,9.07,9.07,0,0,1,4.05-.81c6.95.75,13.82,1.28,20.75.34-2.83-4.65-9.42-4.74-14.35-7.05a2.21,2.21,0,0,1-1.19-1c-.59-1.37,1.44-2.31,2.93-2.37a48.29,48.29,0,0,1,19.25,3.22,22.64,22.64,0,0,0,4.35,1.44c2.95.5,5.93-.45,8.74-1.46,14.93-5.36,29.52-12.93,45.37-13.68,2.86-.14,6.32-.39,7.61-3a7.5,7.5,0,0,0,.59-3.09l1.75-36.63a3.68,3.68,0,0,1,.67-2.36,3.63,3.63,0,0,1,1.76-.88A158.79,158.79,0,0,1,464,719.39a12,12,0,0,1,5.41.48c3.17,1.3,3.56,4.2,3.77,7.16a90.52,90.52,0,0,1,.55,10.3A93.63,93.63,0,0,1,469,761C467.58,765.41,466,769.8,464.43,774.19Z" transform="translate(-94.08 -356.99)"/><path id="right_arm" data-name="right arm" class="cls-13" d="M261.5,734.5c-3.52,1.76-8,7.32-9.63,10.9A28.42,28.42,0,0,1,232,761.14c6.71-5,15.65-5.61,24-6.33s17.42-2.12,23.2-8.2c1.84-1.93,3.3-4.29,5.52-5.77s5.67-1.67,7.21.5l-8.56,11.16,17.18-16c2-1.83,5.24-3.63,7-1.58,1.58,1.89-.25,4.65-2,6.38l-12.63,12.51a56.26,56.26,0,0,1,17.85-14.25c2.71-1.37,6.77-2.11,8.11.6,1.13,2.29-.86,4.83-2.69,6.6l-12.59,12.17L318.84,745A13.6,13.6,0,0,1,323,742.1a4.62,4.62,0,0,1,4.78.68c2,2,.92,5.38-.63,7.73A30.51,30.51,0,0,1,309.78,763c2.13.71,4.45-.38,6.2-1.78s3.24-3.17,5.25-4.18,4.81-1,6.1.87c1.81,2.57-.63,6-3,8a97.7,97.7,0,0,1-18.4,12.64l.56-1.83c-1.72,4.22-7.26,4.94-11.8,5.23a147,147,0,0,0-33.92,6.24c-8.11,2.51-16.11,5.74-24.56,6.43s-17.74-1.7-22.87-8.46c-3.08-4.07-4.32-9.23-5.15-14.27-5.49-33.16-.81-62.28,20.31-88.43,6.94-9.85,25.63,57.62,32,51" transform="translate(-94.08 -356.99)"/></g></svg>