<svg xmlns="http://www.w3.org/2000/svg" viewBox="0 0 96.13 136.94"><defs><style>.cls-1{fill:#e0cdaa;}.cls-1,.cls-2,.cls-3,.cls-4{stroke:#000;stroke-miterlimit:10;}.cls-2{fill:#efedc2;}.cls-3{fill:#f75800;}.cls-4{fill:none;stroke-width:2px;}</style></defs><title>Asset 1</title><g id="Layer_2" data-name="Layer 2"><g id="outline"><g id="notebook"><path class="cls-1" d="M34.55,4.91H37c3.13,0,6.52.37,9.62-.06a75.51,75.51,0,0,1,9.83-.94,27.51,27.51,0,0,0,4.77-.82,51.55,51.55,0,0,1,6.76-.92c2.88-.13,5.68-1,8.55-1,3.22,0,6.43,0,9.64,0h4.73a4.37,4.37,0,0,0,1.49,0c.4-.18.59-.94,1.16-.59-.67,1.65-2.49,3-3,4.86-.24,1,.18,2.06,0,3a11.15,11.15,0,0,0-.36,1.16,16.08,16.08,0,0,0,0,1.7A5.08,5.08,0,0,1,90,12.83c-.14.52,0,1-.15,1.54s-.34.63-.36,1.16a6.36,6.36,0,0,1-.26,1.52c-.14.56-.2,1.12-.33,1.68s-.28,1-.39,1.52a26.64,26.64,0,0,1-.44,2.84c-.21.05-.29-.05-.26-.31"/><g id="nn"><path class="cls-2" d="M86.49,21.66c0-1,0-2.07,0-3.11a2.51,2.51,0,0,0-.1-.62c-.06-.32,0-.66,0-1,0-.17-.07-.32-.09-.48-.3,0-.59-.18-.88-.24L84.51,16c-.34-.08-.69,0-1-.15-.53-.14-1-.33-1.58-.5a4.23,4.23,0,0,1-.69-.3c-.14-.06-.27-.14-.41-.21a2,2,0,0,0-.57-.13,5.89,5.89,0,0,1-.58-.24c-.28-.09-.58-.13-.87-.2-.54-.12-1.06-.29-1.59-.45s-.82-.26-1.23-.4-1-.3-1.49-.5a3.59,3.59,0,0,0-.66-.31c-.1,0-.22,0-.33,0a3.07,3.07,0,0,1-.61-.18,9.51,9.51,0,0,0-1.49-.36c-.62-.1-1.23-.32-1.84-.48-.76-.19-1.51-.37-2.27-.52-.59-.12-1.15-.27-1.73-.4s-1.35-.33-2-.48c-1-.21-2.1-.19-3.14-.37l-1.42-.25a1.36,1.36,0,0,0-.32-.08,2.78,2.78,0,0,1-.5,0,14.83,14.83,0,0,0-1.51-.2c-.51,0-1-.17-1.5-.2-.19,0-.32-.09-.5-.1H51.85a2.9,2.9,0,0,1-.51,0c-.16,0-.23-.14-.42-.1h.28"/></g><path class="cls-3" d="M21.4,46.38c0-1.25.34-2.12.34-3.37a10.71,10.71,0,0,1,0-2c.05-.24.24-.23.28-.37.24-1,.49-1.94.67-2.9.23-1.22.6-2.34.84-3.54a33.28,33.28,0,0,1,1-3.21c.73-2.5,1.31-5,2.26-7.48.88-2.25,1.61-4.45,2.27-6.78.33-1.14.73-2.35,1.17-3.44s.83-2.26,1.29-3.32.7-2.26,1.25-3.37S33.89,4.62,35.15,5c.91.27,1.62,1.19,2.6,1.44a46.1,46.1,0,0,0,7,1.17A30.2,30.2,0,0,1,50.47,9c1.76.53,3.56.93,5.31,1.45a28.76,28.76,0,0,0,3.13.41,41.44,41.44,0,0,1,9.73,3.55c3,1.38,5.67,3.2,8.71,4.37a28.28,28.28,0,0,1,3.47,1.45,21.91,21.91,0,0,0,4.48,1.67c1.87.52,3.8,1.2,5.63,1.85.8.28,1.67.38,2.38.68a4.85,4.85,0,0,0,1.6.42c.47.06.48-.12.69.32a2,2,0,0,1-.09,1c-.06.16-.42.55-.52.72a18.35,18.35,0,0,0-1.08,2.34c-1.64,4-2.84,8.17-4.4,12.21-.31.79-.76,1.51-1,2.31-.34,1-.44,2.05-.81,3.06-.72,1.91-1.19,3.83-1.86,5.75s-1.43,3.54-2,5.38-1.16,3.73-1.7,5.64c0-.13,0-.27,0-.41a9,9,0,0,1-.86,3.68C80.15,69.49,79,72.21,78.1,75c-1,3-2,5.86-3,8.8-.86,2.68-2.27,5.09-2.9,7.84a17.68,17.68,0,0,1-1,2.34c-.26.69-.31,1.43-.5,2.14-.45,1.67-1.2,3.33-1.76,5-.29.85-.32,1.78-.66,2.6s-.68,1.44-1,2.19a40.49,40.49,0,0,1-2.19,5.55c-1,2-1.61,4.28-2.61,6.34a9.44,9.44,0,0,0-.49,1.68c-.14.49-.68,1-.59,1.62a.22.22,0,0,0-.27-.16c-.28,1.1-.58,2.22-1,3.34-.5,1.47-1.29,2.74-1.8,4.2a64.32,64.32,0,0,1-2.71,6.73c-.17.35-.52,1.16-1,1.23s-.72-.42-1-.55a2.2,2.2,0,0,0-1-.16,31.4,31.4,0,0,1-8.45-1.18c-2.48-.63-5-1-7.4-1.85a36.19,36.19,0,0,0-3.42-1.28c-.17,0-.28,0-.47-.06-1.43-.21-2.85-.32-4.28-.61-2.51-.5-5.1-.63-7.52-1.25-1.64-.42-3.08-.92-4.72-1.19s-2.83-1-4.37-1.34a14,14,0,0,1-3.71-1.17c-.35-.2-.64-.45-1-.62-.58-.26-1.26-.24-1.82-.56-.28-.16-.69-.6-.89-.68-.25-.41-.91-.6-1.28-.94-.56-.52-.46-.66-.64-1.43a6.49,6.49,0,0,0-.33-1.28c-.22-.38-.71-.7-.95-1.08-.47-.76-.24-1.66-.59-2.44a6.45,6.45,0,0,1-.42-3c0-3.06,1.07-6,1.77-9,0-.13.21-.18.27-.43a12.75,12.75,0,0,0,0-1.51,15.44,15.44,0,0,1,.94-2.94,40,40,0,0,0,1.71-4.71c.11-.53,0-1,.09-1.58a12.48,12.48,0,0,1,.58-1.37c.3-.87.52-1.81.75-2.7a24.55,24.55,0,0,1,.67-2.37,16.13,16.13,0,0,0,.52-3.36,65.07,65.07,0,0,1,2.1-7.74,34.71,34.71,0,0,1,1.44-3.74,26.88,26.88,0,0,0,1.26-3.7,35.17,35.17,0,0,1,1.59-4.55,36.92,36.92,0,0,0,1.1-3.53c.41-1.42,1-2.75,1.53-4.13.27-.74.39-1.54.59-2.3A7.59,7.59,0,0,1,18,52.46c.18-.37.24-.92.41-1.35a10.76,10.76,0,0,0,.59-2,14.22,14.22,0,0,1,1.05-2.85c.49-1,1.34-2.06,1.31-3.21"/><path class="cls-4" d="M26.56,40.39c0-1.11-.24-2.54.19-3.56.14-.34.42-.75.51-1.07s0-.6.11-.91.32-.38.39-.58c.2-.51.19-1.07.37-1.58a9.47,9.47,0,0,1,.72-1.33,15.62,15.62,0,0,0,.82-1.7c.3-.76.68-1.47.95-2.23A3.4,3.4,0,0,1,31.39,26c.34.3.29.88.59,1.17s1.18.44,1.66.63,1.18.41,1.76.63c1.42.54,2.86,1.57,4.37,1.78"/><path class="cls-4" d="M28.59,32.77c.5,0,1-.05,1.53,0a5.7,5.7,0,0,1,2,.92c.86.45,1.44,1.2,2.29,1.63"/><path class="cls-4" d="M41.3,31.49c-.25.51-.31,1-.56,1.57-.55,1.18-1,2.38-1.47,3.57a28.4,28.4,0,0,0-1.6,4c-.16.65-.82,1.62-.69,2.27"/><path class="cls-4" d="M41.3,43.7c0-2.05-.1-4,.82-5.88A16.26,16.26,0,0,0,43,36.06c.13-.4.25-.78.42-1.17a10.08,10.08,0,0,1,1-1.88c.19-.24.51-.63.84-.46,0,0,.2.5.23.54a1.47,1.47,0,0,0,.7.42c1.58.67,3.37.77,5,1.36.48.17,1.38.34,1.5,1"/><path class="cls-4" d="M42.57,37.85a11.19,11.19,0,0,1,3.38.48,5.69,5.69,0,0,1,2.21,1.27,2.44,2.44,0,0,0,.77.54"/><path class="cls-4" d="M40.54,43.44h1.29c1.41,0,2.06.58,3.23,1.3.67.41,1.42.68,2.1,1.06.35.2.62.57,1,.7"/><path class="cls-4" d="M58.59,36.58a10.27,10.27,0,0,1-.14,2.14c-.3,1.35-1,2.61-1.34,4-.27,1-.23,2.06-.49,3.06s-.64,1.68-.81,2.53a2.42,2.42,0,0,1-.2.79c-.08.15-.3.23-.32.4-.08.6.89.32,1.26.32,1.69,0,3.1,1,4.63,1.58.37.14,2,.5,2,1"/><path class="cls-4" d="M69.26,55.9c-.14-.85.73-2.15,1-2.93.18-.6.23-1.25.35-1.87a18.27,18.27,0,0,1,.9-2.8,20.88,20.88,0,0,0,1.61-6.24c0-.55,0-1.11,0-1.67.43,0,.62-.33,1-.09a10.58,10.58,0,0,1,1.59,1.55,9.15,9.15,0,0,1,2.54,3.63c.17.53.5.9.65,1.46a10.08,10.08,0,0,0,.31,1,5.58,5.58,0,0,1,.25,2.16,4,4,0,0,1,0,1.39c-.2.43-1,.69-1.36.82-2,.62-3.06,2.25-4.83,3.18a5,5,0,0,1-2,.89,6.1,6.1,0,0,1-1.28,0c-.56-.14-.36-.48-.37-1"/><path class="cls-4" d="M23.76,54.63A10.26,10.26,0,0,1,24.9,50.7a2.7,2.7,0,0,1,2.42-1.92,5.37,5.37,0,0,1,1.33,0,3.27,3.27,0,0,1,1.47,1.36,4.43,4.43,0,0,1,1,2.93,21.54,21.54,0,0,1,0,2.54c-.12.91-1,1.41-1.63,2a6.29,6.29,0,0,1-1.67,1.08c-.37.19-.75.23-1.09.38a1.91,1.91,0,0,1-1.13.32,5,5,0,0,0,.95,0c.23-.06.25-.22.48-.28a2.57,2.57,0,0,1,1.61.19,6.4,6.4,0,0,1,1.46,2.74c.57,1.63.63,5.27-1.78,5.22"/><path class="cls-4" d="M61.38,64v1.63a8.12,8.12,0,0,1-.09,2.2c-.31,1.28-.77,2.5-1.06,3.8a37.2,37.2,0,0,1-1.47,5.1A1.84,1.84,0,0,1,57.87,78a3.36,3.36,0,0,1,0-1.48,4.53,4.53,0,0,1,.46-1,22.88,22.88,0,0,1,1.83-3.33A35.49,35.49,0,0,1,63,68.85,8.87,8.87,0,0,1,65,67c.4-.23,1.46-.94,1.93-.68-.17.3-.54.5-.78.75a11.88,11.88,0,0,1-2.22,1.7,15.85,15.85,0,0,1-1.65,1,6.29,6.29,0,0,0-.71.3c-.25.17-1,.75-.92,1.1.05.13.72.38.89.49a2.65,2.65,0,0,1,.89.87A14.42,14.42,0,0,1,63.87,77a7.2,7.2,0,0,0,.43,1.79c0,.1.22.13.27.23s.06.27.12.39.32.64.25.89"/><path class="cls-4" d="M33.59,64.29a5.34,5.34,0,0,1,0-1.2,4.27,4.27,0,0,1,.26-.44c.07-.19.1-.41.18-.59a7.83,7.83,0,0,1,.9-1.18,10.94,10.94,0,0,1,1.78-1.82,6.48,6.48,0,0,1,2.34-1.36,8,8,0,0,1,2-.16A3.38,3.38,0,0,1,43.63,59a3.79,3.79,0,0,1,.77,2.49,26.46,26.46,0,0,1-.1,4.27,5.59,5.59,0,0,1-.78,2.36,23,23,0,0,1-1.82,2.23,12,12,0,0,1-2.19,1.76A8.87,8.87,0,0,1,37.8,73a2.66,2.66,0,0,1-1.45.21c-.35-.09-.44-.39-.62-.68a5.78,5.78,0,0,1-.65-1.29c0-.15-.1-.3-.17-.46a3.74,3.74,0,0,1-.13-.65,8.27,8.27,0,0,0-.36-1.19,1.92,1.92,0,0,1-.15-.67c0-.25-.1-.43-.14-.67-.06-.44-.11-.91-.2-1.35a6,6,0,0,1-.2-1.35V63.48"/><path class="cls-4" d="M45.88,68.75a1.74,1.74,0,0,1,.41-1.24A5.8,5.8,0,0,1,47,66.46a9.6,9.6,0,0,0,.69-.74,8.53,8.53,0,0,1,2.63-2.07c1.26-.61,3.4-1.36,4.2.32a7.28,7.28,0,0,1,.5,1.3,4,4,0,0,1,0,.78c0,.61,0,1.25,0,1.86-.1,1.81-1.37,3.33-2.24,4.85s-2,3.18-3.84,3.88a3,3,0,0,1-1.89.15c-.23-.1-.45-.33-.68-.45a1.21,1.21,0,0,1-.57-.57,3.2,3.2,0,0,1-.51-1.39c0-.21,0-.42,0-.63a5,5,0,0,1-.1-1V71.25a8.43,8.43,0,0,1,0-1.42,2.64,2.64,0,0,1,.45-1c.16-.26.49-1.06.77-1.12"/></g></g></g></svg>