<?xml version="1.0" encoding="utf-8"?>
<!-- Generator: Adobe Illustrator 23.0.1, SVG Export Plug-In . SVG Version: 6.00 Build 0)  -->
<svg version="1.1" id="outline" xmlns="http://www.w3.org/2000/svg" xmlns:xlink="http://www.w3.org/1999/xlink" x="0px" y="0px"
	 viewBox="0 0 497.2 523.5" style="enable-background:new 0 0 497.2 523.5;" xml:space="preserve">
<style type="text/css">
	.st0{fill:#D43E00;stroke:#D43E00;stroke-width:5;stroke-miterlimit:10;}
	.st1{fill:#DDB300;stroke:#D43E00;stroke-width:2.91;stroke-miterlimit:10;}
</style>
<g id="fire">
	<path class="st0" d="M14.3,266.2c-2.8-0.2-5.3-3.5-6.6-5.7c-2.2-3.7-3.7-7.7-4.2-12c-0.6-5.2-1.7-10.2-0.6-15.4
		c0.3-1.6,1.4-6.2,3-6.6c0.1,1.1,1,1.6,1.2,2.6c0.1,1.2,0.1,2.4,0,3.7c0,1.7-0.6,5.8,1.6,6.2c0.1-1.6,1.4-2.8,1.8-4.4
		c0.5-2.1,0.3-4,1-6c1.5-4.2,3.4-8.2,5.4-12.1c1.4-2.8,2.6-5.7,3.7-8.7c0.4-1.2,0.9-3.9,2.5-3.9c1.3,3.7-0.1,9.1,0.1,13
		c0.1,1.9,1.8,12.9,4.4,13.1c0.5-1.9,1.2-3.7,2.2-5.3c0.8-1.6,2.9-5.8,5.1-5.4c1.1,4.4-1.1,9.8,0.3,14.1c1.1-1.2,2.6-3.9,4.3-4.3
		c3-0.6,1.8,4.9,1.8,6.8c0,4.4,0.1,8.5-0.9,12.7c-0.3,1.2-0.5,2.9-0.9,4.1c-0.6,1.2-1.3,2.3-2.1,3.3c-0.7,1.3-1.7,2.2-2.5,3.4
		s-0.9,2.4-2.7,3c-1.3,0.4-2.7,0-4,0.3c-0.6,0.1-0.7,0.7-1.4,0.9s-1.3-0.2-1.9-0.1c-2,0.5-3.9,2.1-5.9,2.7c-1.6,0.4-7.5,0.9-6.7-1.7
		"/>
	<path class="st0" d="M100.3,152.2c-2.8-0.2-5.3-3.5-6.6-5.6c-2.2-3.7-3.7-7.7-4.2-12c-0.6-5.2-1.7-10.2-0.6-15.4
		c0.3-1.6,1.4-6.2,2.9-6.6c0.1,1.1,1,1.6,1.2,2.6c0.1,1.2,0.1,2.4,0,3.7c0,1.7-0.6,5.8,1.6,6.2c0.1-1.6,1.4-2.9,1.8-4.4
		c0.5-2.1,0.3-4,1-6c1.5-4.2,3.4-8.2,5.4-12.1c1.4-2.8,2.6-5.7,3.7-8.7c0.4-1.2,0.9-3.9,2.5-3.9c1.3,3.7-0.1,9.1,0.1,13
		c0.1,1.9,1.8,12.9,4.4,13.1c0.5-1.9,1.2-3.7,2.2-5.3c0.8-1.6,2.9-5.8,5.1-5.4c1.1,4.4-1.1,9.8,0.3,14.1c1.1-1.2,2.6-3.9,4.3-4.3
		c3-0.6,1.8,4.9,1.8,6.8c0,4.4,0.1,8.5-0.9,12.7c-0.3,1.2-0.5,2.9-0.9,4.1c-0.6,1.2-1.3,2.3-2.1,3.4c-0.7,1.3-1.7,2.2-2.5,3.4
		s-0.9,2.4-2.7,3c-1.3,0.4-2.7,0-4,0.3c-0.6,0.1-0.7,0.7-1.4,0.9s-1.3-0.2-1.9-0.1c-2,0.5-3.9,2.1-5.9,2.7c-1.6,0.4-7.5,0.9-6.7-1.7
		"/>
	<path class="st0" d="M467.3,266.2c-2.8-0.2-5.3-3.5-6.5-5.7c-2.2-3.7-3.7-7.7-4.2-12c-0.6-5.2-1.7-10.2-0.6-15.4
		c0.3-1.6,1.4-6.2,3-6.6c0.1,1.1,1,1.6,1.2,2.6c0.1,1.2,0.1,2.4,0,3.7c0,1.7-0.6,5.8,1.6,6.2c0.1-1.6,1.4-2.8,1.8-4.4
		c0.5-2.1,0.3-4,1-6c1.5-4.2,3.4-8.2,5.5-12.1c1.4-2.8,2.6-5.7,3.7-8.7c0.5-1.2,0.9-3.9,2.5-3.9c1.3,3.7-0.1,9.1,0.1,13
		c0.1,1.9,1.8,12.9,4.4,13.1c0.5-1.9,1.2-3.7,2.2-5.3c0.8-1.6,2.9-5.8,5.1-5.4c1.1,4.4-1.1,9.8,0.3,14.1c1.1-1.2,2.6-3.9,4.3-4.3
		c3-0.6,1.8,4.9,1.8,6.8c0,4.4,0,8.5-0.9,12.7c-0.3,1.2-0.5,2.9-0.9,4.1c-0.6,1.2-1.3,2.3-2.1,3.3c-0.7,1.3-1.7,2.2-2.5,3.4
		s-0.9,2.4-2.7,3c-1.3,0.4-2.7,0-4,0.3c-0.6,0.1-0.7,0.7-1.4,0.9s-1.3-0.2-1.9-0.1c-2,0.5-3.9,2.1-5.9,2.7c-1.6,0.4-7.5,0.9-6.7-1.7
		"/>
	<path class="st0" d="M458.3,403.2c-2.8-0.2-5.3-3.5-6.5-5.7c-2.2-3.7-3.7-7.7-4.2-12c-0.6-5.2-1.7-10.2-0.6-15.4
		c0.3-1.6,1.4-6.2,3-6.6c0.1,1.1,1,1.6,1.2,2.6c0.1,1.2,0.1,2.4,0,3.7c0,1.7-0.6,5.8,1.6,6.2c0.1-1.6,1.4-2.8,1.8-4.4
		c0.5-2.1,0.3-4,1-6c1.5-4.2,3.4-8.2,5.5-12.1c1.4-2.8,2.6-5.7,3.7-8.7c0.5-1.2,0.9-3.9,2.5-3.9c1.3,3.7-0.1,9.1,0.1,13
		c0.1,1.9,1.8,12.9,4.4,13.1c0.5-1.9,1.2-3.7,2.2-5.3c0.8-1.6,2.9-5.8,5.1-5.4c1.1,4.4-1.1,9.8,0.3,14.1c1.1-1.2,2.6-3.9,4.3-4.3
		c3-0.6,1.8,4.9,1.8,6.8c0,4.4,0,8.5-0.9,12.7c-0.3,1.2-0.5,2.9-0.9,4.1c-0.6,1.2-1.3,2.3-2.1,3.3c-0.7,1.3-1.7,2.2-2.5,3.4
		s-0.9,2.4-2.7,3c-1.3,0.4-2.7,0-4,0.3c-0.6,0.1-0.7,0.7-1.4,0.9s-1.3-0.2-1.9-0.1c-2,0.5-3.9,2.1-5.9,2.7c-1.6,0.4-7.5,0.9-6.7-1.7
		"/>
	<path class="st0" d="M403.3,145.2c-2.8-0.2-5.3-3.5-6.5-5.6c-2.2-3.7-3.7-7.7-4.2-12c-0.6-5.2-1.7-10.2-0.6-15.4
		c0.3-1.6,1.4-6.2,3-6.6c0.1,1.1,1,1.6,1.2,2.6c0.1,1.2,0.1,2.4,0,3.7c0,1.7-0.6,5.8,1.6,6.2c0.1-1.6,1.4-2.9,1.8-4.4
		c0.5-2.1,0.3-4,1-6c1.5-4.2,3.4-8.2,5.5-12.1c1.4-2.8,2.6-5.7,3.7-8.7c0.5-1.2,0.9-3.9,2.5-3.9c1.3,3.7-0.1,9.1,0.1,13
		c0.1,1.9,1.8,12.9,4.4,13.1c0.5-1.9,1.2-3.7,2.2-5.3c0.8-1.6,2.9-5.8,5.1-5.4c1.1,4.4-1.1,9.8,0.3,14.1c1.1-1.2,2.6-3.9,4.3-4.3
		c3-0.6,1.8,4.9,1.8,6.8c0,4.4,0,8.5-0.9,12.7c-0.3,1.2-0.5,2.9-0.9,4.1c-0.6,1.2-1.3,2.3-2.1,3.4c-0.7,1.3-1.7,2.2-2.5,3.4
		s-0.9,2.4-2.7,3c-1.3,0.4-2.7,0-4,0.3c-0.6,0.1-0.7,0.7-1.4,0.9s-1.3-0.2-1.9-0.1c-2,0.5-3.9,2.1-5.9,2.7c-1.6,0.4-7.5,0.9-6.7-1.7
		"/>
	<path class="st0" d="M48.3,394.2c-2.8-0.2-5.3-3.5-6.6-5.7c-2.2-3.7-3.7-7.7-4.2-12c-0.6-5.2-1.7-10.2-0.6-15.4
		c0.3-1.6,1.4-6.2,2.9-6.6c0.1,1.1,1,1.6,1.2,2.6c0.1,1.2,0.1,2.4,0,3.7c0,1.7-0.6,5.8,1.6,6.2c0.1-1.6,1.4-2.8,1.8-4.4
		c0.5-2.1,0.3-4,1-6c1.5-4.2,3.4-8.2,5.4-12.1c1.4-2.8,2.6-5.7,3.7-8.7c0.4-1.2,0.9-3.9,2.5-3.9c1.3,3.7-0.1,9.1,0.1,13
		c0.1,1.9,1.8,12.9,4.4,13.1c0.5-1.9,1.2-3.7,2.2-5.3c0.8-1.6,2.9-5.8,5.1-5.4c1.1,4.4-1.1,9.8,0.3,14.1c1.1-1.2,2.6-3.9,4.3-4.3
		c3-0.6,1.8,4.9,1.8,6.8c0,4.4,0.1,8.5-0.9,12.7c-0.3,1.2-0.5,2.9-0.9,4.1c-0.6,1.2-1.3,2.3-2.1,3.3c-0.7,1.3-1.7,2.2-2.5,3.4
		s-0.9,2.4-2.7,3c-1.3,0.4-2.7,0-4,0.3c-0.6,0.1-0.7,0.7-1.4,0.9s-1.3-0.2-1.9-0.1c-2,0.5-3.9,2.1-5.9,2.7c-1.6,0.4-7.5,0.9-6.7-1.7
		"/>
	<path class="st1" d="M87.4,294.3c-1.6-0.1-3.1-2.1-3.8-3.3c-1.3-2.1-2.1-4.5-2.4-7c-0.4-3-1-6-0.3-9c0.2-0.9,0.8-3.6,1.7-3.8
		c0,0.7,0.6,0.9,0.7,1.5c0.1,0.7,0.1,1.4,0,2.1c0,1-0.4,3.4,0.9,3.6c0.1-0.9,0.8-1.7,1-2.6c0.3-1.2,0.2-2.3,0.6-3.5
		c0.9-2.4,2-4.8,3.2-7.1c0.8-1.6,1.5-3.3,2.2-5c0.3-0.7,0.5-2.2,1.5-2.3c0.8,2.2-0.1,5.3,0,7.6c0.1,1.1,1,7.5,2.5,7.6
		c0.3-1.1,0.7-2.1,1.3-3.1c0.5-1,1.7-3.3,3-3.2c0.6,2.6-0.6,5.7,0.2,8.2c0.6-0.7,1.5-2.3,2.5-2.5c1.8-0.4,1.1,2.8,1.1,4
		c0.1,2.5-0.1,5-0.5,7.4c-0.2,0.7-0.3,1.7-0.5,2.4c-0.3,0.7-0.7,1.3-1.2,2c-0.4,0.8-1,1.3-1.5,2s-0.5,1.4-1.6,1.7
		c-0.8,0.1-1.6,0.1-2.3,0.2c-0.4,0.1-0.4,0.4-0.8,0.5s-0.8-0.1-1.1,0c-1.2,0.3-2.3,1.2-3.4,1.6c-0.9,0.2-4.4,0.5-3.9-1"/>
	<path class="st1" d="M389.4,229.3c-1.6-0.1-3.1-2.1-3.8-3.3c-1.3-2.1-2.1-4.5-2.4-7c-0.4-3-1-6-0.3-9c0.2-0.9,0.8-3.6,1.7-3.8
		c0,0.7,0.6,0.9,0.7,1.5c0.1,0.7,0.1,1.4,0,2.1c0,1-0.4,3.4,0.9,3.6c0.1-0.9,0.8-1.7,1-2.6c0.3-1.2,0.2-2.3,0.6-3.5
		c0.9-2.4,2-4.8,3.2-7.1c0.8-1.6,1.5-3.3,2.2-5c0.3-0.7,0.5-2.2,1.5-2.3c0.8,2.2-0.1,5.3,0,7.6c0,1.1,1,7.5,2.5,7.6
		c0.3-1.1,0.7-2.1,1.3-3.1c0.5-1,1.7-3.3,3-3.2c0.7,2.6-0.6,5.7,0.2,8.2c0.6-0.7,1.5-2.3,2.5-2.5c1.8-0.4,1.1,2.8,1.1,4
		c0.1,2.5-0.1,5-0.5,7.4c-0.2,0.7-0.3,1.7-0.5,2.4c-0.3,0.7-0.7,1.3-1.2,2c-0.4,0.8-1,1.3-1.5,2c-0.5,0.7-0.5,1.4-1.6,1.7
		c-0.8,0.1-1.6,0.1-2.3,0.2c-0.4,0.1-0.4,0.4-0.8,0.5c-0.4,0.1-0.8-0.1-1.1,0c-1.2,0.3-2.3,1.2-3.4,1.6c-0.9,0.2-4.4,0.5-3.9-1"/>
	<path class="st1" d="M415.4,363.3c-1.6-0.1-3.1-2.1-3.8-3.3c-1.3-2.1-2.1-4.5-2.4-7c-0.4-3-1-6-0.3-9c0.2-0.9,0.8-3.6,1.7-3.8
		c0,0.7,0.6,0.9,0.7,1.5c0.1,0.7,0.1,1.4,0,2.1c0,1-0.4,3.4,0.9,3.6c0.1-0.9,0.8-1.7,1-2.6c0.3-1.2,0.2-2.3,0.6-3.5
		c0.9-2.4,2-4.8,3.2-7.1c0.8-1.6,1.5-3.3,2.2-5c0.3-0.7,0.5-2.2,1.5-2.3c0.8,2.2-0.1,5.3,0,7.6c0,1.1,1,7.5,2.5,7.6
		c0.3-1.1,0.7-2.1,1.3-3.1c0.5-1,1.7-3.3,3-3.2c0.7,2.6-0.7,5.7,0.2,8.2c0.6-0.7,1.5-2.3,2.5-2.5c1.8-0.4,1.1,2.8,1.1,4
		c0.1,2.5-0.1,5-0.5,7.4c-0.2,0.7-0.3,1.7-0.5,2.4c-0.3,0.7-0.7,1.3-1.2,2c-0.4,0.8-1,1.3-1.5,2s-0.5,1.4-1.6,1.7
		c-0.8,0.1-1.6,0.1-2.3,0.2c-0.4,0.1-0.4,0.4-0.8,0.5s-0.8-0.1-1.1,0c-1.2,0.3-2.3,1.2-3.4,1.6c-0.9,0.2-4.4,0.5-3.9-1"/>
	<path class="st1" d="M51.4,190.3c-1.6-0.1-3.1-2.1-3.8-3.3c-1.3-2.1-2.1-4.5-2.4-7c-0.4-3-1-6-0.3-9c0.2-0.9,0.8-3.6,1.7-3.8
		c0,0.7,0.6,0.9,0.7,1.5c0.1,0.7,0.1,1.4,0,2.1c0,1-0.4,3.4,0.9,3.6c0.1-0.9,0.8-1.7,1-2.6c0.3-1.2,0.2-2.3,0.6-3.5
		c0.9-2.4,2-4.8,3.2-7.1c0.8-1.6,1.5-3.3,2.2-5c0.3-0.7,0.5-2.2,1.5-2.3c0.8,2.2-0.1,5.3,0,7.6c0.1,1.1,1,7.5,2.5,7.6
		c0.3-1.1,0.7-2.1,1.3-3.1c0.5-1,1.7-3.3,3-3.2c0.6,2.6-0.6,5.7,0.2,8.2c0.6-0.7,1.5-2.3,2.5-2.5c1.8-0.4,1.1,2.8,1.1,4
		c0.1,2.5-0.1,5-0.5,7.4c-0.2,0.7-0.3,1.7-0.5,2.4c-0.3,0.7-0.7,1.3-1.2,2c-0.4,0.8-1,1.3-1.5,2s-0.5,1.4-1.6,1.7
		c-0.8,0.1-1.6,0.1-2.3,0.2c-0.4,0.1-0.4,0.4-0.8,0.5s-0.8-0.1-1.1,0c-1.2,0.3-2.3,1.2-3.4,1.6c-0.9,0.2-4.4,0.5-3.9-1"/>
</g>
</svg>
