<svg xmlns="http://www.w3.org/2000/svg" viewBox="0 0 66.29 77.93"><defs><style>.cls-1{fill:#494948;stroke:#000;stroke-width:0.25px;}.cls-1,.cls-3,.cls-4{stroke-linecap:round;stroke-miterlimit:10;}.cls-2{fill:#3f3f3f;}.cls-3{fill:#f7931e;}.cls-3,.cls-4{stroke:#1a1818;}.cls-4{fill:#e5811f;stroke-width:0.5px;}.cls-5{fill:#c17427;}.cls-6{fill:#ffa04a;}</style></defs><title>Asset 2</title><g id="Layer_2" data-name="Layer 2"><g id="outline"><g id="keys"><g id="fob"><path class="cls-1" d="M45.87,13.78a29.12,29.12,0,0,0-5.58-6.62l.27-.44c-5.11.61-9.57,3.61-13.82,6.52L3.15,29.42A7.19,7.19,0,0,0,.49,32c-.86,1.83,0,4,.77,5.82l3.65,8.33c.51,1.15,1.14,2.43,2.35,2.83a4.53,4.53,0,0,0,3.2-.58A129.33,129.33,0,0,0,42.94,26.89a13.87,13.87,0,0,0,3.82-4.75A9.92,9.92,0,0,0,45.87,13.78ZM41.11,13a2.43,2.43,0,0,1-3.14.58,2.75,2.75,0,0,1-1.2-2.76l-.18.15.24-.45-.06.3a5.41,5.41,0,0,1,1.64-1,2.58,2.58,0,0,1,2.09.11A2.18,2.18,0,0,1,41.11,13Z"/><path class="cls-2" d="M6.26,48.15C9.6,50,13.93,46.8,16.9,45.27c3.85-2,7.37-4.17,11.11-6.35,4.08-2.37,7.72-5.75,11.39-8.72s8.39-6.84,9.08-11.88c.25-1.88-2.64-2.7-2.9-.79-.64,4.7-5.37,8-8.81,10.79-3.64,2.91-7,6-11,8.28-2.32,1.36-4.42,2.94-6.79,4.17-2.11,1.08-8.9,6-11.17,4.79-1.69-.94-3.2,1.65-1.51,2.59Z"/></g><path id="right" class="cls-3" d="M51.35.5c-6.46,0-10.63,5.33-11.7,11.71-1,5.71,5.24,11.71,11.7,11.71A11.71,11.71,0,0,0,51.35.5Zm-.66,20.42c-3.33-.5-6.94-4.9-7-8-.11-5.06,2.4-9.65,7.46-9.65a9.15,9.15,0,0,1,9.15,9.15A8.61,8.61,0,0,1,50.69,20.92Z"/><g id="key_2" data-name="key 2"><path class="cls-4" d="M66,38.63a6.11,6.11,0,0,0-3.59-4.71,4.53,4.53,0,0,0-3.13-6.74A11.76,11.76,0,0,0,59,22.71a4,4,0,0,0-3.16-2.86,4,4,0,0,0-3.72,2.6,11.76,11.76,0,0,0-.62,4.77l.37,0a8.54,8.54,0,0,0-2.28,7.42,3.11,3.11,0,0,0-2.16,4.21,3.17,3.17,0,0,0-1.57,5.62c1.26,1,3.24,1,4.15,2.36a4.59,4.59,0,0,1,.52,2.57q0,4.61.07,9.2a1.95,1.95,0,0,0,.43,3.6l.43.95-.89.42a4.68,4.68,0,0,0,1.21,3.8A14,14,0,0,0,55,69.93a3.32,3.32,0,0,0,2.45.74c1.48-.36,1.7-2.34,1.61-3.86q-.63-10.62-1.27-21.25a6.86,6.86,0,0,0,5.94-1.31A6.36,6.36,0,0,0,66,38.63ZM55.92,30.8a2.92,2.92,0,0,1-1.55,0,1,1,0,0,1-.69-1.1,5.89,5.89,0,0,1,2.58-6.35c.41,2.47.81,4.94,1.22,7.41A3,3,0,0,0,55.92,30.8Z"/><path class="cls-5" d="M56.42,45.81q.4,6.07.75,12.15c.15,2.67,1.62,9.49,0,11.74-.28.4.37.77.65.38,1.64-2.3.38-6.66.24-9.32q-.4-7.47-.91-14.95c0-.48-.78-.48-.75,0Z"/><path class="cls-5" d="M57.3,45.8c0-1.64.29-.21,1.24-.22a7,7,0,0,0,4.08-.83A6.5,6.5,0,0,0,65,37.33a4.21,4.21,0,0,0-1.51-2.13c-2.54-2.12-.85-.07-1.24-2-.25-1.25.58-2.51-.11-3.75-1-1.7-3.3-1.79-3.17-4.32,0-.48-.72-.48-.75,0-.09,1.82.31,1.87.87,3.14,1,2.23,3.43,3.6,1.73,5.93a.38.38,0,0,0,.13.51c2.09,1.35,4.23,3.9,3.42,6.6-.64,2.1-4.82,5.31-6.45,2.88a.38.38,0,0,0-.42-.18c-.87.27-.92,1-.92,1.8a.38.38,0,0,0,.75,0Z"/><path class="cls-5" d="M57.42,44.09c-2.73.87-.71,6.38-.57,8.46.17,2.62.53,5.25.62,7.89,0,.9,0,1.83,0,2.73,0,.53.22,7.5-.86,6.35-.34-.36-.87.18-.53.53l.45.47a.37.37,0,0,0,.36.1c2.86-1,1.44-6.58,1.32-8.94-.07-1.55-2-16.4-.57-16.87.46-.14.26-.87-.2-.72Z"/></g><g id="key_1" data-name="key 1"><path id="key_1-2" data-name="key 1" class="cls-3" d="M51,38.87a3.11,3.11,0,0,1-.6-1.17,2.9,2.9,0,0,1,.41-1.34,4,4,0,0,0-1.45-4.84,23.81,23.81,0,0,0,1.44-4.67c.28-1.39.38-3-.56-4.07a5.1,5.1,0,0,0-2.66-1.3,7.21,7.21,0,0,0-2.64-.36,4.9,4.9,0,0,0-3.4,2.3c-1,1.56-1.74,5.63-3.65,6.47-.75.33-1.57-.4-2.39-.35-1.4.08-2,2.22-3.34,2.34a5.11,5.11,0,0,1-1.75-.49A2.84,2.84,0,0,0,26.93,34c0,1.52,1.2,3.16.34,4.41a6.05,6.05,0,0,0-.63.83c-.39.88.52,1.75,1.32,2.28s1.71,1.38,1.35,2.26c-.21.5-.75.75-1.15,1.11a2.66,2.66,0,0,0,.15,3.94c.2.15.44.29.52.53a1.07,1.07,0,0,1-.12.69q-3.11,7.13-6.5,14.14a13.71,13.71,0,0,0-1.35,3.63c-.48,2.82.83,5.59,2.11,8.14.42.84,1.24,1.83,2.08,1.41a1.8,1.8,0,0,0,.72-.94L35.82,54.67c.74-1.6,1.62-3.34,3.25-4A8.2,8.2,0,0,0,40.86,50c.44-.31.74-.8,1.21-1.06,1-.55,2.43.22,3.44-.37.85-.5,1.1-1.78,2.05-2.05.36-.1.75,0,1.11-.12.7-.16,1.12-.87,1.45-1.51C51.09,43,52.06,40.68,51,38.87Zm-3.58-9.06a.66.66,0,0,1-.21.34.58.58,0,0,1-.39,0c-1.09-.16-3.28-.06-4.19-.66-1.17-.77-.24-1.9.3-2.89a5.29,5.29,0,0,1,1.73-2.12,5.72,5.72,0,0,1,1.84-.62,1.65,1.65,0,0,1,.73-.06c.6.13.88.81,1,1.42A10.3,10.3,0,0,1,47.38,29.81Z"/><path class="cls-5" d="M23.92,76.27l.31.41c.18.23.62.26.69-.09.44-2.16,2.08-4.34,2.95-6.41,1.28-3,2.85-5.94,4.14-9,2.08-4.92,3.28-9.07,8.23-11.6,2.61-1.33,5-1.69,7-4,.32-.36-.21-.9-.53-.53C44.59,47.57,40.35,48,37.54,50s-4.08,5.73-5.39,8.85c-1.39,3.27-2.92,6.44-4.39,9.65-.54,1.21-3.65,6.78-3.19,7.41-.28-.39-.93,0-.65.38Z"/><path class="cls-5" d="M44,48.13c1.5,0,1.58-1.09,2.81-1.92.72-.48,1.76-.41,2.41-.9,2.88-2.16,1.13-5.66.88-8.07-.18-1.67.25-2.81-.22-4.37-.82-2.67-.7-2.09-.21-5.33.21-1.37-.15-5.56-.3-1.16-.06,1.83-1,3.21-1.53,4.93a.37.37,0,0,0,.72.2c.34-1.18,1.28-2.21,1.51-3.47.27-1.49-.15-3-.15-4.52a.38.38,0,0,0-.75,0c0,2.64-1.25,5.2-1.22,7.76,0,.34.14.67.18,1,.21,2,1,3.22.89,5.21-.09,2.24,1.48,5.16-.45,7.08-.15.15-4.77,2.8-4.57,2.81a.38.38,0,0,0,0,.75Z"/></g><path class="cls-6" d="M50,1.12c-2.41,0-4.74,1.86-6.2,3.55-1,1.14-2.88,3.06-2.24,4.76V8.18a7.28,7.28,0,0,1-.37,1v1.25c.11-.41.27-.77.35-1.18V8a26.58,26.58,0,0,1-1,2.8c-.12.36.15.92,0,1.25a11.11,11.11,0,0,0,.64-1.56c.09-.36-.16-.91,0-1.25a9.24,9.24,0,0,0-.61,4.29v0a8.93,8.93,0,0,1,.52-2.45c.15-.36-.16-.91,0-1.25a5.13,5.13,0,0,0-.57,1.26c-.06.25,0,1.15,0,.69,0-.2-.13-1.09,0-1.22-.49.49-.34,1.68-.33,2.34,0,1.07,0,1.48.36-.08.08-.38-.13-.89,0-1.25a4.49,4.49,0,0,0-.13,1.64v-.8l0-.36a3.53,3.53,0,0,1,0-.46l-.09.05c0-.1,0-.21,0-.31a15.45,15.45,0,0,0-.06,2.15,3.53,3.53,0,0,0,.08.79c.26.88.09-.24.14-.16a4.07,4.07,0,0,0,.13.58,3.32,3.32,0,0,1,0-.63v-.81a2.58,2.58,0,0,1,0-.62c-.35,1.32.13,1.13-.39.12-.28-.56-.1-.06-.13.33a3.88,3.88,0,0,0,.29,2c-.18-.31.18-.93,0-1.25a2.93,2.93,0,0,1-.28-1.09V14c.26-1,0,.71.3.87s.11-.64.21-1v-.44a2.33,2.33,0,0,1-.07-.64,1.63,1.63,0,0,1,0-.31c-.22,1.09-.18.75-.27-.21v1.23c0-.76,0-.76.08,0v0c.16-1.34,0-.2.12.18a4.18,4.18,0,0,1,0-.79v.28l.12-.33V11.57c0,.14-.24,1.46-.36,1v.79c0-.33,0-1.25.32-1.56V10.58c0,.88-.12,1.71-.12,2.6,0,.17,0,.51,0,.61a5.68,5.68,0,0,1,.64-2.71V9.83a8.94,8.94,0,0,0-.55,2.25V13a6.52,6.52,0,0,1,.63-2.55V9.22a11.11,11.11,0,0,1-.64,1.56V12a26.58,26.58,0,0,0,1-2.8c.07-.41-.08-.85,0-1.25-.08.41-.24.77-.35,1.18s.14.9,0,1.25a3.4,3.4,0,0,0,.34-2.32V9.34c1.63-3.1,4.55-7,8.47-7,0,0,0-1.25,0-1.25Z"/></g></g></g></svg>