<svg xmlns="http://www.w3.org/2000/svg" viewBox="0 0 128.75 160.85"><defs><style>.cls-1{fill:#3f3f3f;}.cls-1,.cls-2{stroke:#000;}.cls-1,.cls-2,.cls-3{stroke-miterlimit:10;}.cls-2{fill:#050504;stroke-width:0.94px;}.cls-3{fill:#dbdbd9;stroke:#fff;}</style></defs><title>Asset 3</title><g id="Layer_2" data-name="Layer 2"><g id="outline"><g id="laptop"><path id="body" class="cls-1" d="M.76,53.84c-.25-3.18,1.34-6.28,3.56-8.57a34,34,0,0,1,7.79-5.5L80.17.72A229.21,229.21,0,0,0,90,21.88c16.57,30.47,23.56,63.76,38.18,94.52-3.37,7.08-10.83,11.34-17.78,14.95L58.67,158.26c-2.57,1.34-5.49,2.71-8.24,1.81s-4.27-3.67-5.56-6.22L12.43,89.72C6.5,78,.44,65.74.5,52.61"/><circle class="cls-2" cx="63.52" cy="79.38" r="10.5"/><path class="cls-3" d="M56.55,76.72c.49-.15,1.13.76,1.31,1.12A20.62,20.62,0,0,1,59,80.38c.33.94.81,1.83,1.2,2.74a4.17,4.17,0,0,1,.19.85c.05.22.19.38.25.58s0,.36.05.53.19.32.14.55"/><path class="cls-3" d="M59.89,74.33c.06.21.32.33.48.48s.46.46.71.67a9.87,9.87,0,0,1,1.83,2.19,20.39,20.39,0,0,1,1.72,3.55c.22.57.35,1.15.55,1.72.09.28.34.48.28.78"/><path class="cls-3" d="M65,73.22a1.55,1.55,0,0,1,1.27.54,14.57,14.57,0,0,1,2.14,2.63,12.35,12.35,0,0,1,1.41,3,9.15,9.15,0,0,0,.39,1.15c.1.21.25.37.2.63"/></g></g></g></svg>