<svg xmlns="http://www.w3.org/2000/svg" viewBox="0 0 98.2 146.12"><defs><style>.cls-1{fill:#e0cdaa;}.cls-1,.cls-2,.cls-3,.cls-4,.cls-5{stroke:#000;stroke-miterlimit:10;}.cls-2{fill:#efedc2;}.cls-3{fill:#f75800;}.cls-4,.cls-5{fill:none;}.cls-4{stroke-width:1.8px;}.cls-5{stroke-width:2.12px;}</style></defs><title>Asset 1</title><g id="Layer_2" data-name="Layer 2"><g id="mobile"><g id="backpage"><path class="cls-1" d="M22.28,19c.62.07,0,.13.62.07a17.65,17.65,0,0,0,3.86-.92c1.31-.63,2.43-1.49,3.77-2.05A12,12,0,0,1,33,15.4a23.89,23.89,0,0,0,2.3-.91,21.6,21.6,0,0,1,3.8-1.16c1.77-.22,3.23-1.15,5-1.68,2.43-.74,4.79-1.63,7.26-2.29,2-.55,4.08-1.36,6.13-1.8,1.46-.31,2.93-.48,4.39-.74s2.59-.86,4-1c4.12-.57,8-2.25,12.12-2.6.85-.07,1.6-.44,2.42-.53.66-.08,1.27-.09,2-.24.85-.19,1.56-.08,2.4-.19A23.64,23.64,0,0,0,87,1.61a75.53,75.53,0,0,1,8.6-1.1,2.78,2.78,0,0,1,1.59.66c.48.3.6.39.39,1s-.46.6-.61,1.18a12.32,12.32,0,0,1-.32,2,4.93,4.93,0,0,0-.54,1.75c-.06.57-.13,1.13-.2,1.69L95.43,13A20.57,20.57,0,0,1,95,17.26a5.35,5.35,0,0,0-.66,1.83,9.46,9.46,0,0,1-.12,1.07,4.92,4.92,0,0,1-.45.89c-.27.65.13.29,0,1s-.76,2-.92,2.68c-.07.25,0,.62-.07.88s0,2.34-.14,2.69c-.29.79,1.16,1.15-.8.57-.35-.1.71.89.88.48"/></g><g id="innerpage"><path class="cls-2" d="M30,20.25a6,6,0,0,0,2.37-.16,19.62,19.62,0,0,1,3-.62c1.05-.12,2.1-.38,3.15-.44a34,34,0,0,0,5-.64c.89-.19,1.78-.35,2.68-.48s1.77-.55,2.68-.74c1.13-.24,2.3-.31,3.41-.64a12.93,12.93,0,0,1,3-.41c1.28-.06,2.54-.19,3.81-.31.62-.06,1.2-.06,1.81-.09.41,0,.79-.12,1.19-.12a5.57,5.57,0,0,0,1.4-.16c1-.26,2.1-.33,3.16-.51.71-.12,1.4-.15,2.12-.23.88-.1,1.74-.34,2.61-.5a23.32,23.32,0,0,1,4.5-.29c1.6.05,3.15-.39,4.74-.46.57,0,1.13-.07,1.7-.09a15.57,15.57,0,0,1,1.81-.13c.55,0,1.1,0,1.65,0s1.19.14,1.79.21a3.86,3.86,0,0,0,1.74-.24,1.32,1.32,0,0,1,.92,0c.24.12.39.16.36.39a8.24,8.24,0,0,0-.14,1.48,21.28,21.28,0,0,1,.09,4.07c-.25,2-.48,4.06-.72,6.09a8.34,8.34,0,0,0-.15,1.91,6.66,6.66,0,0,1-.12,1.65"/></g><path class="cls-3" d="M22.18,18.53c-.53,4.49-1.08,9-1.59,13.47-.33,2.86-1,5.57-1.47,8.39-.19,1.23-.74,2.32-.95,3.54S18,46.66,17.74,48c-.21,1.09-.72,2-.91,3.16-.28,1.67-.28,3.45-.64,5.05a22.65,22.65,0,0,0-.57,4.86,19.53,19.53,0,0,1-.93,5.18c-.38,1.48-.37,3-.75,4.47-.81,3.25-1.39,6.54-2.14,9.8-1.55,6.67-2,13.57-3.88,20.17-1.35,4.87-2.31,9.85-3.68,14.72a71.41,71.41,0,0,0-2.16,11,14.92,14.92,0,0,1-.32,2.92,8.61,8.61,0,0,1-1,2.08,7.54,7.54,0,0,0,2.45,1.78,37.6,37.6,0,0,0,5.71,2.77c3.82,1.45,8.19,3.16,12.53,3.79,2.95.44,5.9.51,8.79,1.46a32,32,0,0,0,5.65,1.23c7.41,1,14.91,1.9,22.36,2.63,2.12.21,4.25,0,6.38.22a23.86,23.86,0,0,0,4.46.33,27.47,27.47,0,0,1,3.12-.41c.46,0,1.81.57,2.21.21s.41-2.85.49-3.58l.86-7.22A46.51,46.51,0,0,1,77.82,126c.59-1.67,1.11-3.39,1.59-5a9.38,9.38,0,0,0,.68-2.83c0-1.84-.21-3.68-.2-5.52,0-4.13.9-8.33,1.38-12.43,1-9,3.83-17.68,5.65-26.57,2.06-10.1,4.84-20.17,6-30.43A18.8,18.8,0,0,1,93.82,39c1-2.85,1.11-5.77,1.57-8.72a.54.54,0,0,0-.57-.63,9.07,9.07,0,0,1-2.19-.35c-2.29-.46-4.64-.55-7-.83C82,28.05,78.86,26.8,75.2,26.36c-4.07-.48-8.48-.6-12.57-1.09-4.37-.51-8.57-1.76-12.94-2.28-3.18-.37-6.4-1-9.58-1.4a62,62,0,0,1-7.83-1c-1.91-.45-4.2-.66-6.14-1-.86-.15-1.13.43-1.88.16A10.6,10.6,0,0,0,21.64,19"/><g id="text"><g id="book"><path class="cls-4" d="M28,77.32c.08.25-.05.36-.14.56a5.4,5.4,0,0,0-.31,1.26,17.19,17.19,0,0,1-.43,2.16c-.25.79-.87,1.53-.5,2.4.23,0,.11-.55.13-.78a19.8,19.8,0,0,1,.53-2.52A47.33,47.33,0,0,0,28.19,73c.14-2.26.65-4.5.9-6.75a17.37,17.37,0,0,0-.15-3c.69,0,.69.5,1.38.46a10.06,10.06,0,0,1,2.51-.07,5.86,5.86,0,0,1,3,1.83,7.77,7.77,0,0,1,1.88,4.84,5.71,5.71,0,0,1,.09,1.84c-.14.44-.79.82-1.17,1a9.44,9.44,0,0,1-3,.46c-.39,0-.72.22-1.11.26a8,8,0,0,0-1.36.26,9.2,9.2,0,0,1-1.82.47l-1.62.1c.37,0,1.13,0,1.47,0a3.05,3.05,0,0,1,1.76.92,30.17,30.17,0,0,1,2.57,3.08c1.49,1.89,2,4.65-.21,6.24a4.74,4.74,0,0,1-2.79.8,5.34,5.34,0,0,1-1.32.06c-.28-.06-.61-.22-.89-.31s-.66-.5-1-.64-.4,0-.61-.27a4.08,4.08,0,0,1-.34-.57"/><path class="cls-4" d="M36.2,78.62a2.55,2.55,0,0,1,.08-1.29,25.33,25.33,0,0,1,1.21-2.58,3.54,3.54,0,0,1,1.81-1.37,6.59,6.59,0,0,1,3.22-.71c1.92.26,3.29,2.75,3.74,4.41a10.48,10.48,0,0,1,0,5.19,14,14,0,0,1-.89,2.91,4.62,4.62,0,0,1-1.14,1.43,3.24,3.24,0,0,1-3.44.64,7.44,7.44,0,0,1-1.13-.8,4,4,0,0,1-.63-.61c-.12-.15-.18-.34-.29-.48a10.71,10.71,0,0,1-1.19-1.58,8.38,8.38,0,0,1-1-2.74c0-.26-.19-.45-.24-.71a5.78,5.78,0,0,1,0-.72c0-.51-.07-1-.1-1.53"/><path class="cls-4" d="M48.16,79.52c0-.44-.07-.87-.08-1.3a2.51,2.51,0,0,1,.85-1.74c1.16-1.27,2.71-2.65,4.49-2.89,1.34-.17,2.1.45,3,1.37a8.44,8.44,0,0,1,2,2.85,12,12,0,0,1,.86,2.87,19.66,19.66,0,0,1,.16,4.4c-.24,1.94-.79,4.76-3.16,5a8.19,8.19,0,0,1-2.26.11,6.42,6.42,0,0,1-1.69-.86,6.28,6.28,0,0,1-1.89-1.77,20.16,20.16,0,0,1-1.23-2.46,9.06,9.06,0,0,1-.45-1.72,9,9,0,0,1-.44-1.84c0-.5-.05-1-.09-1.52s-.52-1.23-.48-1.87"/><path class="cls-4" d="M65.15,74.15A18.86,18.86,0,0,1,65,77.67c-.2,1.64-.28,3.28-.52,4.92-.14,1-.41,1.91-.63,2.87a14.42,14.42,0,0,0-.45,2.34,11.43,11.43,0,0,1-.3,1.75c-.08.32,0,.62-.07.93a3.24,3.24,0,0,0-.13.31c0,.15,0,.27,0,.43l-.29.07a2.83,2.83,0,0,1-.17.71"/><path class="cls-4" d="M69.64,91.56a2,2,0,0,0-.29-1.24c-.42-.57-.75-1.18-1.16-1.76a14.27,14.27,0,0,1-1-1.11A10.82,10.82,0,0,1,66.63,86a11.32,11.32,0,0,0-1.3-2.26c-.16-.26-.36-.48-.5-.73s-.69-.65-.65-1c1.49-.11,2.57-1,3.86-1.77.86-.52,1.72-1.08,2.61-1.51a3.85,3.85,0,0,1,1.62-.28"/></g><g id="field"><path class="cls-5" d="M31.56,56.14c-.07-.28.11-.48.17-.74s.11-.63.2-1a11.05,11.05,0,0,0,.13-1.29c0-.36.21-.7.26-1.07,0-.22,0-.45.06-.68a2.5,2.5,0,0,0,.27-.63c.12-.53.1-1.08.23-1.62.22-.95.23-1.94.37-2.9s0-1.73.11-2.61.31-2,.47-2.94A19.43,19.43,0,0,0,34,37c.34,0,.67-.21,1-.22a9.84,9.84,0,0,1,2.73.47c1,.26,1.93.42,2.89.66.6.15,1.21.39,1.82.5"/><path class="cls-5" d="M43.66,44.08a4.91,4.91,0,0,1-.17,1.71,11.38,11.38,0,0,0-.32,1.82c-.13,1-.32,1.92-.47,2.87a39.47,39.47,0,0,0-.87,6.46"/><path class="cls-5" d="M47.89,44.7a15.88,15.88,0,0,1,0,1.69c-.14,1.38-.49,2.69-.72,4-.35,2.09-.69,4.14-1.06,6.22-.06.31-.24,1.31,0,1.6a5.19,5.19,0,0,0,.5.2c.3.11.62.15.92.27a2.23,2.23,0,0,0,1.12.22c.57,0,1.09.13,1.66.14.34,0,2.14-.3,2.19.12"/><path class="cls-5" d="M58.71,45.49a32.82,32.82,0,0,1-.07,5.34c-.16,1.13-.45,2.24-.6,3.37s-.31,2.07-.47,3.11c-.12.83-.23,1.7-.43,2.52-.08.32-.44.92,0,1.09a4.43,4.43,0,0,0,.75-.05,6.88,6.88,0,0,1,1.9.32c.85.23,1.64.52,2.5.7l0,.15"/><path class="cls-5" d="M65.94,62.12c-.06-2.16.7-4.27,1.06-6.38.27-1.6.27-3.23.53-4.82a19.81,19.81,0,0,0,0-3.85c.49-.11,1.17.39,1.58.6.9.48,1.77,1,2.61,1.57a13.25,13.25,0,0,1,3.59,4.18,4.73,4.73,0,0,1,.56,3.71c-.28,1.24-.4,2.69-1.55,3.43a5.19,5.19,0,0,1-1,.49,13.55,13.55,0,0,1-1.75.53c-.32.07-.65.09-1,.17a6.32,6.32,0,0,0-1,.41c-.35.14-.73.26-1.09.4-.66.25-3.55.87-3.09-.58l.15,0"/><path class="cls-5" d="M47.91,45c1.93,0,3.75.19,5.67.23.6,0,1.14.07,1.74.1l1,0a2.15,2.15,0,0,0,.41,0"/><path class="cls-5" d="M32.1,45.19l4,.45c.78.09,1.57.16,2.34.26a6.33,6.33,0,0,1,1.06.37l0,.17"/><path class="cls-5" d="M46,51.47c2.55,0,5,.66,7.56.68"/></g></g></g></g></svg>