<?xml version="1.0" encoding="utf-8"?>
<!-- Generator: Adobe Illustrator 24.1.3, SVG Export Plug-In . SVG Version: 6.00 Build 0)  -->
<svg version="1.1" id="Layer_1" xmlns="http://www.w3.org/2000/svg" xmlns:xlink="http://www.w3.org/1999/xlink" x="0px" y="0px"
	 viewBox="0 0 2048 2048" style="enable-background:new 0 0 2048 2048;" xml:space="preserve">
<style type="text/css">
	.st0{fill:#1B0000;}
	.st1{fill:#412905;}
	.st2{fill:#5A4135;}
	.st3{fill:#A98572;}
	.st4{fill:#F7D5B6;}
</style>
<g id="layer101">
	<path class="st0" d="M1656,1884.2c-20.1-10.4-38.1-22.4-57.2-38.2c-14.3-11.9-21-23.6-19.6-34.6c0.7-7,0.7-7.3-1.7-4.1
		c-4.1,6-11.4,4.4-29.4-6c-23.6-13.7-32.6-23.2-32.6-34.1c0-7.5,6.3-18.4,15.5-27.1c8.2-7.7,9-8,16-7.2c9.2,1,29.2,13,42.5,25.6
		l9.4,8.9l2.4-6.3c2.4-6,2.4-6.1-0.5-4.3c-2.6,1.5-3.9,1.4-6.3-0.9c-1.7-1.5-7.9-6.1-13.5-10.2c-22-15.5-29.7-22-30.7-26.3
		c-2.4-9.2,12.1-34.3,23.2-39.9c7.3-3.8,18.8-4.4,24.2-1.5c3.6,2,3.6,1.9,0-2.7c-4.3-5.5-4.8-12.6-1.4-19.5
		c3.9-7.5,17.1-18.6,25.1-20.8c6.8-2,7.7-1.9,15.9,2.6l8.7,4.9l-6.5-7.2c-3.4-3.8-6.3-8.5-6.3-10.6c0-4.4,3.8-11.8,8.2-15.7
		c3.4-3.2,3.4-3.2,0.2-10.9c-1.9-4.3-2.9-9.2-2.4-10.8c1.5-4.6,34.3-29,38.9-29c2.2,0,2.2-0.9,0.7-5.1c-1.7-4.4-2-4.8-3.1-2
		c-2.4,6.5-31.6,25.9-38.7,25.9c-2.2,0-6.3-1.4-9-2.9c-4.8-2.9-5.1-2.7-21.7,5.3c-24.2,11.6-31.2,11.9-50.9,3.1
		c-29.7-13.3-58.7-32.1-90.5-58.5c-16.9-14-22.2-20.1-27.6-31.9c-4.1-9.2-4.6-18.9-1.4-28.5c0.7-1.9,0-1.4-1.5,1.2
		c-6.5,11.4-15.2,10.9-37-1.5c-24.7-14.3-40.3-25.9-46.4-34.3c-10.2-14.5-6.1-34.1,11.3-52.6c4.9-5.3,11.9-10.4,16.9-12.6
		c8.4-3.4,9-3.6,15.7-0.9c23.4,9.2,64.3,39.6,64.3,47.8c0,1.9-2,7.7-4.4,12.8c-5.8,12.3-7.7,17.1-6.5,17.1c0.3,0,2.2-3.2,3.9-7.2
		c3.1-7.2,13.5-29.7,18.4-39.8l2.4-5.1l-3.6,4.8c-5.8,7.3-4.3,8-37.4-16.4c-7.9-5.8-18.4-13.7-23.6-17.4c-9.4-7-15.9-15-15.9-19.6
		c0-3.6,6.8-20,12.3-29.4c7-11.8,12.5-17.6,21.5-22.9c10.6-6.3,25.3-6.7,36.4-0.9l7.3,3.9l-7.2-7.9c-5.6-6.1-7.2-9-7.2-13.8
		c0-9.4,4.4-17.9,15-28.7c15.2-15.5,28.3-20.7,40.1-15.7c6,2.4,18.8,12.6,41.8,32.9c21.2,18.8,34.6,29.7,35.7,28.7
		c1.2-1-1.4-3.2-36.5-32.4c-25.1-20.7-39.8-36-39.8-41.5c0-1.4-2.4-5.5-5.5-8.7c-7.3-8.5-17.2-30.4-16-35.3c1-4.3,5.3-8.2,25.6-23.9
		c7.3-5.6,12.5-10.4,11.4-10.8s-8.9,3.4-17.2,8.2c-15.9,9-26.3,11.9-31.7,8.9c-2.4-1.4-4.3,0-11.1,8c-4.4,5.5-11.4,11.9-15.4,14.7
		c-6.7,4.3-8.5,4.8-22,4.6c-20.7-0.2-33.5-5.5-49-19.8c-9.2-8.4-15.9-21.5-15.9-31.2c0-6.5,1-8.5,11.9-20.5c6.5-7.3,12.8-14.2,14-15
		c1.2-1,11.4-9.4,22.7-18.8c64.2-53.4,87.9-70.3,95.7-68.4c2.2,0.7,6.8,3.8,10.4,7.2c12.6,12.1,20.7,17.9,21.8,16
		c1.2-2-8.2-13.7-20.5-25.6c-14.5-14-27.1-35.3-35.5-59.7c-12.6-37.5-15.4-47.8-16.7-63.1c-0.7-8.9-1.7-17.7-2.2-19.6
		c-0.5-1.9,0.2-4.8,1.5-6.7c2.6-3.4,0-4.6,32.4,13.5c4.8,2.6,13.5,8.2,19.6,12.5c6.1,4.3,20.7,12.8,32.4,19.1
		c24.9,13.3,43.9,24.6,60.8,36.2c13.1,8.9,22.2,12.6,47.4,19.3c24.2,6.1,35.2,6.8,62,3.6c13-1.5,38.6-4.8,56.8-7
		c18.3-2.2,39.1-4.4,46.1-5.1c7-0.5,20-2.4,28.8-4.3c8.9-1.9,22-3.4,29.2-3.4c7.3,0,17.4-0.9,22.4-1.7c11.9-2.4,23.6-2.6,25.6-0.5
		c0.9,0.9,2,15,2.4,31.4c0.5,16.4,1.4,40.3,2,53.1l1,23.4l-4.1,1.5c-2.2,0.9-26.3,1.5-53.6,1.7c-49.7,0.2-90.1,1.4-101.9,3.1l-6.5,1
		l10.4,7.7l10.4,7.9l18.3-1c25.3-1.5,59.2-5.8,75.8-9.7c14.2-3.2,42.2-5.8,47.1-4.3c2.4,0.7,2.7,6.7,2.7,49.8v49.2l-6.1,3.1
		c-4.1,1.9-13.5,3.4-29,4.6c-12.6,0.9-27.8,2.4-34,3.4c-23,3.8-41,5.1-68.6,5.1c-34,0-36.5-0.7-62-17.2c-21.3-14-37-22.7-54.6-30.5
		c-7.5-3.4-16.9-8.2-20.8-10.8c-6.3-3.9-7.9-4.3-11.6-2.6c-3.1,1.4-4.1,2.9-3.2,4.6c0.5,1.5,1.4,5.6,1.9,9c1.2,8-1.7,12.6-13.5,22
		c-6.7,5.1-10.1,6.8-13.5,6.3c-3.6-0.5-5.1,0.2-6.5,3.2c-1,2.2-4.9,5.5-8.7,7.2c-5.1,2.2-6.3,3.4-4.8,4.9c1.5,1.5-0.2,4.1-7.3,10.4
		c-15.4,13.8-8,11.8,9.6-2.6c25.1-20.5,35.5-27.8,39.6-28c3.1,0,4.9,2.4,9.9,13.3c9.9,21,14.7,34.6,13.5,38.4
		c-0.7,1.9-3.9,6-7.3,9.2c-7.2,6.5-3.9,7.9,5.3,2.2c8-4.8,12.1-4.3,19.6,2.7c7.2,7,14,11.8,14.8,10.8c0.5-0.3-5.1-7-12.5-14.5
		c-15.4-16.4-21.7-27.5-29.4-51.9c-6-19.8-8.9-44.4-4.9-44.4c2.7,0,22.7,10.9,29.9,16.2c2.9,2,12.5,7.9,21.3,12.8
		s21.7,12.5,28.2,16.7c14.5,9.6,20.8,12.6,34.1,16c18.1,4.9,23.4,4.9,55.5,1.4c17.4-2,37.7-4.3,45.2-5.1c7.5-0.9,19.5-2.2,26.5-3.2
		c7-1,19.3-1.9,27.3-2.2l14.5-0.5l1.4,33.1c0.7,18.1,0.9,33.5,0.3,34.1c-0.7,0.5-17.7,1.2-38.1,1.4s-49.5,0.7-64.9,1.2l-27.8,1
		l-16.6,13c-9,7.2-16.7,13.7-17.1,14.5c-0.3,0.7,2.4,3.2,6,5.5c7.2,4.6,10.6,4.9,120.8,7.3c49,1,47.8,0.7,46.3,15.2
		c-0.5,4.8-1.4,22.2-2,38.9c-0.9,21.7-1.7,30.7-3.2,31.2c-3.4,1.4-49.2-2.6-61.8-5.1c-6.3-1.4-20.8-3.2-31.9-4.4
		c-11.1-1-23.4-2.6-27.3-3.2c-12.8-2.9-52.6-5.8-64.9-4.8c-18.3,1.4-41,9.4-57.7,20.3c-7.7,5.1-24.6,15.2-37.4,22.4
		c-12.8,7.2-27.3,15.9-32.4,19.3c-13,8.7-32.3,18.1-34.8,17.1c-1.4-0.5-2.6-2.9-2.9-5.6c-0.5-3.9-1.4-2.6-4.4,7.2
		c-5.6,17.7-13.8,32.1-19.6,34.1c-6.5,2.2-7.2,0.5-7.7-17.6c-0.2-8.4-1.5-20-2.9-26.1l-2.6-10.9l0.9,10.2c0.5,5.6,1.4,16.9,2,25.3
		l0.9,14.8l-6.5,6.1c-3.8,3.2-10.1,8.2-14.2,11.1c-8.2,5.3-6.5,6.1,6,3.1c9.2-2.4,16.2,0,21.5,7.3l3.6,5.1l3.8-11.6
		c6-18.9,13.8-33.6,22.5-42.3c7.9-7.9,25.3-17.9,43.3-24.9c12.1-4.8,50.5-27,72.7-42c5.8-3.8,15.7-8.7,22-10.9
		c11.4-3.8,13-3.9,46.8-2.7c39.8,1.4,59.7,2.9,85.3,7.2c9.9,1.5,19.5,2.7,21.3,2.6c1.9,0,12.5,0.7,23.6,1.5
		c14.7,1.2,22.4,2.7,28.2,5.6l8,3.8l-0.7,60.6c-0.3,42.3-1.2,60.9-2.6,61.8c-2,1.4-31.9,0.3-42-1.4c-3.2-0.5-14.2-2.9-24.2-5.1
		c-19.8-4.4-53.4-8.9-76.5-10.2l-14.5-0.9l4.9,3.9c4.4,3.6,30.4,22.5,48.8,35.7l7.5,5.5l18.9-1.2c10.6-0.5,29.4-2.9,41.8-5.3
		c12.5-2.4,25.9-4.3,30-4.3h7.5l0.3,21c0.3,11.4,0.5,27,0.5,34.5v13.7l-6,2c-3.2,1.2-10.6,2-16.2,2c-5.6,0.2-17.2,1.4-25.8,2.7
		s-27,2.7-41,2.9c-24.7,0.5-25.6,0.3-34.8-4.1c-5.1-2.6-14.3-7.9-20.5-11.8s-19.3-11.3-29.2-16.2c-10.4-5.1-20-11.3-22.5-14.2
		c-4.1-4.9-11.4-21.7-11.4-26.1c0-1-1.9-0.2-4.3,2c-3.2,3.1-5.3,3.8-10.4,2.9l-6.3-1l7.2,6c3.8,3.4,7.2,7.7,7.2,9.7
		c0.2,2.2,0.7,1.5,1.4-2l1-5.6l3.9,3.1c2,1.9,5.8,8.2,8,14.3s4.1,9.4,4.1,7.3c0.2-2.2,0.7-3.9,1.5-3.9c2,0,18.4,9.6,51.9,30.2
		c17.7,10.9,27.3,14.2,43.5,14.3c11.6,0.2,20.8-0.9,62-6.3c9.9-1.4,21.8-2.4,26.6-2.4h8.7l1,21.7c0.5,11.9,0.3,22.5-0.5,23.6
		s-17.2,1.9-44.5,2.2l-43,0.5l-13.8,10.4c-7.7,5.8-16.6,11.6-20,13.1l-6.1,2.6l5.6,4.6c5.6,4.4,6.3,4.6,40.3,5.8
		c19.1,0.7,44.4,1.4,56.3,1.5s22.2,0.7,22.7,1.4c0.5,0.5,0.3,13.8-0.3,29.7l-1.4,28.8l-11.9-0.3c-6.5-0.3-20.8-1.5-31.6-3.1
		c-52.6-6.8-65.2-8.2-81.1-8.2c-20.8,0-33.5,3.8-49.8,14.7c-6.5,4.1-17.7,10.8-25.3,14.8c-7.5,4.1-16.7,9.4-20.5,11.9
		c-3.8,2.6-11.4,7.2-16.9,10.2c-9.4,5.3-10.2,5.5-12.3,2.7c-1.9-2.7-2.2-2.7-3.2,1c-3.8,12.6-10.1,23.7-14.2,24.7
		c-2.4,0.5-4.6,0.2-5.3-1c-1-1.5-2-1.2-3.8,0.9c-1.4,1.7-5.5,5.1-9,7.9l-6.7,4.8l8-1c7.2-1,8.5-0.7,12.8,3.4l4.9,4.8l2.9-9.2
		c7.9-23.9,13.7-30.4,38.4-42c10.8-5.1,27.8-14.5,38.1-20.7c10.1-6.1,23-13.8,29-16.7l10.6-5.6l27.3,0.2c15,0,32.8,0.7,39.3,1.5
		c6.7,1,21.2,2.6,32.4,3.6c30.5,2.7,43.2,4.9,47.1,8.2c3.4,2.7,3.4,3.4,2,45.4l-1.4,42.7l-14.2-0.3c-7.9-0.3-21.7-2-30.7-3.9
		c-20.5-4.4-53.8-8.5-68.9-8.5h-11.3l-22,14.7c-11.9,8-25.3,17.4-29.5,21c-14.3,11.9-49.2,34.6-62.6,41.1
		C1681.4,1895.8,1678,1895.4,1656,1884.2z M1665.2,1774.6c-0.3-2.2-0.7-0.5-0.7,3.8c0,4.3,0.3,6,0.7,3.9
		C1665.5,1780.1,1665.5,1776.6,1665.2,1774.6z M1695.7,1731.6c6.5-19.6,11.8-29.4,21.5-39.8c5.3-5.5,7.7-9,6.1-9s-3.6,1.2-4.8,2.7
		c-7,8.4-11.6,6.7-35.8-12.8c-24.1-19.3-23.9-19.3-23.9-18.3c0,0.5,6.7,6.5,15,13.1c24.6,20.5,29.4,25.6,29.4,31.4
		c0,10.6-15.2,43.5-20.1,43.5c-3.8,0-20.1-12.3-40.6-30.2c-23.6-20.8-30.7-24.9-11.9-6.8c10.9,10.4,16.6,17.1,15.9,18.6
		c-0.5,1.7,1,3.2,4.9,4.6c3.2,1.2,6.7,3.6,7.5,5.5c1,1.7,3.6,3.2,5.8,3.2c5.1,0,19.1,10.9,21.8,17.2l2.2,4.9l1.2-7.2
		C1690.6,1748.5,1693.4,1739.1,1695.7,1731.6z M1619.5,1733.3l6.1-6.8l-6,4.8c-6.1,4.9-11.9,12.5-11.9,15.5c0,0.9,1.2-0.3,2.7-2.6
		C1612.1,1741.8,1616,1736.9,1619.5,1733.3z M1787.4,1631.4c1.2-2-0.9-4.9-9-12.8c-6-5.5-13-13.5-15.5-17.6
		c-4.3-6.7-11.6-26.1-14.2-37.9l-1-4.6l-7.5,7.5c-4.1,4.1-8.9,7.5-10.8,7.5c-2,0-4.6,1.2-5.8,2.7c-1.2,1.5-4.1,3.4-6.3,4.3
		c-2.2,0.9-3.6,2.2-2.9,3.2c0.5,0.9-4.6,7-11.4,13.8c-13.7,13.3-9.7,10.8,12.6-8.2c17.2-14.5,26.8-21.3,28.7-20.1
		c2.4,1.5,15.4,30.5,15.4,34.3c0,1.2-4.4,6.7-9.7,11.9c-5.5,5.3-7.5,8-4.8,6c17.4-12.6,17.6-12.8,21.7-9.9c2.2,1.5,6.8,5.3,10.4,8.7
		c5.3,5.1,6.1,6.8,5.3,10.6c-0.9,3.4-0.5,4.3,1,3.8C1784.8,1634.3,1786.5,1632.8,1787.4,1631.4z M1697.8,1580.4c-1.5-1-5.3-4.6-8-8
		c-2.9-3.6-5.3-5.8-5.3-5.1c0,2,12.3,14.8,14.3,14.8C1699.8,1582.1,1699.3,1581.2,1697.8,1580.4z M1598.3,1364.5
		c7.2-23,13.3-36.5,21.8-48.5l6-8.4l-8-1c-4.4-0.5-9.9-2.4-12.1-3.9c-4.1-2.9-4.1-2.7,0.5,2.7c2.6,3.1,4.6,7.3,4.6,9.6
		c0,8-22.7,59.7-27,61.4c-4.6,1.7-19.8-7.9-38.7-24.6c-3.9-3.4-11.4-9.9-16.9-14.7c-5.6-4.6-14.7-12.6-20.3-17.4
		c-5.5-4.9-14-11.8-18.9-15c-6.7-4.8-3.8-1.2,12.1,14.3c11.6,11.3,22.9,21.8,25.3,23.4c4.4,2.9,5.8,9.2,2.2,9.4
		c-1.2,0,1.7,1.9,6.3,4.3c11.3,5.5,12.8,7.9,13.1,20.1l0.2,10.4l1-8.5c0.9-7.5,1.5-8.5,5.5-9c3.1-0.3,7.5,1.9,15,7.5
		c12.1,9,18.8,17.9,19.1,25.4c0.2,2.7,0.9,0.2,1.5-6C1591.3,1389.9,1594.9,1375.7,1598.3,1364.5z M1484.5,1371
		c3.2-4.1,8.9-9.7,12.6-12.6c7.5-5.3,7.5-6.5-0.2-2.4c-6.7,3.2-18.3,16.9-20.5,23.6c-1.4,4.4-1.4,4.9,0.3,2.2
		C1478,1380,1481.4,1375.2,1484.5,1371z M1579.5,1158.1c-6.5-2.9-14.7-11.4-20.5-21.5c-4.4-7.7-4.3-3.6,0.2,5.3
		c3.2,6.5,17.6,18.6,21.8,18.6C1584,1160.4,1583.8,1160,1579.5,1158.1z M1620.3,1119.6c0.7-4.3,0.5-5.3-0.7-3.4
		c-0.9,1.4-1.7,4.4-1.7,6.7C1617.9,1128.3,1618.9,1126.9,1620.3,1119.6z"/>
</g>
<g id="layer102">
	<path class="st1" d="M1656,1884.2c-20.1-10.4-38.1-22.4-57.2-38.2c-14.3-11.9-21-23.6-19.6-34.6c0.7-7,0.7-7.3-1.7-4.1
		c-4.1,6-11.4,4.4-29.4-6c-23.6-13.7-32.6-23.2-32.6-34.1c0-7.5,6.3-18.4,15.5-27.1c8.2-7.7,9-8,16-7.2c9.2,1,29.2,13,42.5,25.6
		l9.4,8.9l2.4-6.3c2.4-6,2.4-6.1-0.5-4.3c-2.6,1.5-3.9,1.4-6.3-0.9c-1.7-1.5-7.9-6.1-13.5-10.2c-22-15.5-29.7-22-30.7-26.3
		c-2.4-9.2,12.1-34.3,23.2-39.9c7.3-3.8,18.8-4.4,24.2-1.5c3.6,2,3.6,1.9,0-2.7c-4.3-5.5-4.8-12.6-1.4-19.5
		c3.9-7.5,17.1-18.6,25.1-20.8c6.8-2,7.7-1.9,15.9,2.6l8.7,4.9l-6.5-7.2c-3.4-3.8-6.3-8.5-6.3-10.6c0-4.4,3.8-11.8,8.2-15.7
		c3.4-3.2,3.4-3.2,0.2-10.9c-1.9-4.3-2.9-9.2-2.4-10.8c1.5-4.6,34.3-29,38.9-29c2.2,0,2.2-0.9,0.7-5.1c-1.7-4.4-2-4.8-3.1-2
		c-2.4,6.5-31.6,25.9-38.7,25.9c-2.2,0-6.3-1.4-9-2.9c-4.8-2.9-5.1-2.7-21.7,5.3c-24.2,11.6-31.2,11.9-50.9,3.1
		c-29.7-13.3-58.7-32.1-90.5-58.5c-16.9-14-22.2-20.1-27.6-31.9c-4.1-9.2-4.6-18.9-1.4-28.5c0.7-1.9,0-1.4-1.5,1.2
		c-6.5,11.4-15.2,10.9-37-1.5c-24.7-14.3-40.3-25.9-46.4-34.3c-10.2-14.5-6.1-34.1,11.3-52.6c4.9-5.3,11.9-10.4,16.9-12.6
		c8.4-3.4,9-3.6,15.7-0.9c23.4,9.2,64.3,39.6,64.3,47.8c0,1.9-2,7.7-4.4,12.8c-5.8,12.3-7.7,17.1-6.5,17.1c0.3,0,2.2-3.2,3.9-7.2
		c3.1-7.2,13.5-29.7,18.4-39.8l2.4-5.1l-3.6,4.8c-5.8,7.3-4.3,8-37.4-16.4c-7.9-5.8-18.4-13.7-23.6-17.4c-9.4-7-15.9-15-15.9-19.6
		c0-3.6,6.8-20,12.3-29.4c7-11.8,12.5-17.6,21.5-22.9c10.6-6.3,25.3-6.7,36.4-0.9l7.3,3.9l-7.2-7.9c-5.6-6.1-7.2-9-7.2-13.8
		c0-9.4,4.4-17.9,15-28.7c15.2-15.5,28.3-20.7,40.1-15.7c6,2.4,18.8,12.6,41.8,32.9c6.3,5.6,16.9,14.7,23.4,20.1
		c21.2,17.6,35,32.3,35,37c0,8.4-22.5,60.1-27,61.8c-4.6,1.7-19.8-7.9-38.7-24.6c-3.9-3.4-11.4-9.9-16.9-14.7
		c-5.6-4.6-14.7-12.6-20.3-17.4c-5.5-4.9-14-11.8-18.9-15c-6.7-4.8-3.8-1.2,12.1,14.3c11.6,11.3,22.9,21.8,25.3,23.4
		c4.4,2.9,5.8,9.2,2.2,9.4c-1.2,0,1.7,1.9,6.3,4.3c11.3,5.5,12.8,7.9,13.1,20.1l0.2,10.4l1-8.5c0.9-7.5,1.5-8.5,5.5-9
		c3.1-0.3,7.5,1.9,15,7.5c12.1,9,18.8,17.9,19.1,25.4c0.2,2.7,0.9,0.2,1.5-6c1.5-13.5,12.1-48,19.1-62.3c7.7-16,16-26.5,21.2-26.5
		c2.2,0,6.7-1.7,9.6-3.8c4.4-3.4,26.8-31.1,31.4-39.1c0.9-1.5,7.9-9.6,15.7-17.7c13.8-14.8,15.7-18.4,12.3-24.9
		c-2.4-4.4-0.5-4.1,6.3,1.2c7.7,5.8,7.3,6.3-23.4,39.1c-4.4,4.8-9.4,10.6-11.1,13.1c-2.6,4.3-2.6,4.8-0.3,5.8c3.4,1.2,22-1.5,46.4-7
		c10.4-2.2,21.5-4.4,24.7-4.9c3.2-0.5,10.8-3.2,16.7-6.1l10.8-5.1l6.7,4.9l6.7,4.8l36.4,1.2c20,0.5,55.6,1.5,79,2
		c49,1,47.8,0.7,46.3,15.2c-0.5,4.8-1.4,22.2-2,38.9c-0.9,21.7-1.7,30.7-3.2,31.2c-3.4,1.4-49.2-2.6-61.8-5.1
		c-6.3-1.4-20.8-3.2-31.9-4.4c-11.1-1-23.4-2.6-27.3-3.2c-12.8-2.9-52.6-5.8-64.9-4.8c-18.3,1.4-41,9.4-57.7,20.3
		c-7.7,5.1-24.6,15.2-37.4,22.4c-12.8,7.2-27.3,15.9-32.4,19.3c-13,8.7-32.3,18.1-34.8,17.1c-1.4-0.5-2.6-2.9-2.9-5.6
		c-0.5-3.9-1.4-2.6-4.4,7.2c-5.6,17.7-13.8,32.1-19.6,34.1c-6.5,2.2-7.2,0.5-7.7-17.6c-0.2-8.4-1.5-20-2.9-26.1l-2.6-10.9l0.9,10.2
		c0.5,5.6,1.4,16.9,2,25.3l0.9,14.8l-6.5,6.1c-3.8,3.2-10.1,8.2-14.2,11.1c-8.2,5.3-6.5,6.1,6,3.1c9.2-2.4,16.2,0,21.5,7.3l3.6,5.1
		l3.8-11.6c6-18.9,13.8-33.6,22.5-42.3c7.9-7.9,25.3-17.9,43.3-24.9c12.1-4.8,50.5-27,72.7-42c5.8-3.8,15.7-8.7,22-10.9
		c11.4-3.8,13-3.9,46.8-2.7c39.8,1.4,59.7,2.9,85.3,7.2c9.9,1.5,19.5,2.7,21.3,2.6c1.9,0,12.5,0.7,23.6,1.5
		c14.7,1.2,22.4,2.7,28.2,5.6l8,3.8l-0.7,60.6c-0.3,42.3-1.2,60.9-2.6,61.8c-2,1.4-31.9,0.3-42-1.4c-3.2-0.5-14.2-2.9-24.2-5.1
		c-19.8-4.4-53.4-8.9-76.5-10.2l-14.5-0.9l4.9,3.9c4.4,3.6,30.4,22.5,48.8,35.7l7.5,5.5l18.9-1.2c10.6-0.5,29.4-2.9,41.8-5.3
		c12.5-2.4,25.9-4.3,30-4.3h7.5l0.3,21c0.3,11.4,0.5,27,0.5,34.5v13.7l-6,2c-3.2,1.2-10.6,2-16.2,2c-5.6,0.2-17.2,1.4-25.8,2.7
		s-27,2.7-41,2.9c-24.7,0.5-25.6,0.3-34.8-4.1c-5.1-2.6-14.3-7.9-20.5-11.8s-19.3-11.3-29.2-16.2c-10.4-5.1-20-11.3-22.5-14.2
		c-4.1-4.9-11.4-21.7-11.4-26.1c0-1-1.9-0.2-4.3,2c-3.2,3.1-5.3,3.8-10.4,2.9l-6.3-1l7.2,6c3.8,3.4,7.2,7.7,7.2,9.7
		c0.2,2.2,0.7,1.5,1.4-2l1-5.6l3.9,3.1c2,1.9,5.8,8.2,8,14.3s4.1,9.4,4.1,7.3c0.2-2.2,0.7-3.9,1.5-3.9c2,0,18.4,9.6,51.9,30.2
		c17.7,10.9,27.3,14.2,43.5,14.3c11.6,0.2,20.8-0.9,62-6.3c9.9-1.4,21.8-2.4,26.6-2.4h8.7l1,21.7c0.5,11.9,0.3,22.5-0.5,23.6
		s-17.2,1.9-44.5,2.2l-43,0.5l-13.8,10.4c-7.7,5.8-16.6,11.6-20,13.1l-6.1,2.6l5.6,4.6c5.6,4.4,6.3,4.6,40.3,5.8
		c19.1,0.7,44.4,1.4,56.3,1.5s22.2,0.7,22.7,1.4c0.5,0.5,0.3,13.8-0.3,29.7l-1.4,28.8l-11.9-0.3c-6.5-0.3-20.8-1.5-31.6-3.1
		c-52.6-6.8-65.2-8.2-81.1-8.2c-20.8,0-33.5,3.8-49.8,14.7c-6.5,4.1-17.7,10.8-25.3,14.8c-7.5,4.1-16.7,9.4-20.5,11.9
		c-3.8,2.6-11.4,7.2-16.9,10.2c-9.4,5.3-10.2,5.5-12.3,2.7c-1.9-2.7-2.2-2.7-3.2,1c-3.8,12.6-10.1,23.7-14.2,24.7
		c-2.4,0.5-4.6,0.2-5.3-1c-1-1.5-2-1.2-3.8,0.9c-1.4,1.7-5.5,5.1-9,7.9l-6.7,4.8l8-1c7.2-1,8.5-0.7,12.8,3.4l4.9,4.8l2.9-9.2
		c7.9-23.9,13.7-30.4,38.4-42c10.8-5.1,27.8-14.5,38.1-20.7c10.1-6.1,23-13.8,29-16.7l10.6-5.6l27.3,0.2c15,0,32.8,0.7,39.3,1.5
		c6.7,1,21.2,2.6,32.4,3.6c30.5,2.7,43.2,4.9,47.1,8.2c3.4,2.7,3.4,3.4,2,45.4l-1.4,42.7l-14.2-0.3c-7.9-0.3-21.7-2-30.7-3.9
		c-20.5-4.4-53.8-8.5-68.9-8.5h-11.3l-22,14.7c-11.9,8-25.3,17.4-29.5,21c-14.3,11.9-49.2,34.6-62.6,41.1
		C1681.4,1895.8,1678,1895.4,1656,1884.2z M1665.2,1774.6c-0.3-2.2-0.7-0.5-0.7,3.8c0,4.3,0.3,6,0.7,3.9
		C1665.5,1780.1,1665.5,1776.6,1665.2,1774.6z M1695.7,1731.6c6.5-19.6,11.8-29.4,21.5-39.8c5.3-5.5,7.7-9,6.1-9s-3.6,1.2-4.8,2.7
		c-7,8.4-11.6,6.7-35.8-12.8c-24.1-19.3-23.9-19.3-23.9-18.3c0,0.5,6.7,6.5,15,13.1c24.6,20.5,29.4,25.6,29.4,31.4
		c0,10.6-15.2,43.5-20.1,43.5c-3.8,0-20.1-12.3-40.6-30.2c-23.6-20.8-30.7-24.9-11.9-6.8c10.9,10.4,16.6,17.1,15.9,18.6
		c-0.5,1.7,1,3.2,4.9,4.6c3.2,1.2,6.7,3.6,7.5,5.5c1,1.7,3.6,3.2,5.8,3.2c5.1,0,19.1,10.9,21.8,17.2l2.2,4.9l1.2-7.2
		C1690.6,1748.5,1693.4,1739.1,1695.7,1731.6z M1619.5,1733.3l6.1-6.8l-6,4.8c-6.1,4.9-11.9,12.5-11.9,15.5c0,0.9,1.2-0.3,2.7-2.6
		C1612.1,1741.8,1616,1736.9,1619.5,1733.3z M1787.4,1631.4c1.2-2-0.9-4.9-9-12.8c-6-5.5-13-13.5-15.5-17.6
		c-4.3-6.7-11.6-26.1-14.2-37.9l-1-4.6l-7.5,7.5c-4.1,4.1-8.9,7.5-10.8,7.5c-2,0-4.6,1.2-5.8,2.7c-1.2,1.5-4.1,3.4-6.3,4.3
		c-2.2,0.9-3.6,2.2-2.9,3.2c0.5,0.9-4.6,7-11.4,13.8c-13.7,13.3-9.7,10.8,12.6-8.2c17.2-14.5,26.8-21.3,28.7-20.1
		c2.4,1.5,15.4,30.5,15.4,34.3c0,1.2-4.4,6.7-9.7,11.9c-5.5,5.3-7.5,8-4.8,6c17.4-12.6,17.6-12.8,21.7-9.9c2.2,1.5,6.8,5.3,10.4,8.7
		c5.3,5.1,6.1,6.8,5.3,10.6c-0.9,3.4-0.5,4.3,1,3.8C1784.8,1634.3,1786.5,1632.8,1787.4,1631.4z M1697.8,1580.4c-1.5-1-5.3-4.6-8-8
		c-2.9-3.6-5.3-5.8-5.3-5.1c0,2,12.3,14.8,14.3,14.8C1699.8,1582.1,1699.3,1581.2,1697.8,1580.4z M1484.5,1371
		c3.2-4.1,8.9-9.7,12.6-12.6c7.5-5.3,7.5-6.5-0.2-2.4c-6.7,3.2-18.3,16.9-20.5,23.6c-1.4,4.4-1.4,4.9,0.3,2.2
		C1478,1380,1481.4,1375.2,1484.5,1371z"/>
	<path class="st1" d="M1570.6,1269.4c-31.7-25.8-45.4-38.1-51.9-46.1c-9-11.4-8.9-14.2,0.7-9.9c17.1,7.9,25.3,4.3,54.6-24.2
		c8.2-7.9,10.6-9.4,12.5-7.7s1.2,3.1-4.1,7.7c-3.4,3.2-11.3,9.2-17.4,13.5c-18.3,12.8-23.9,18.9-23.9,26.1c0,14,21.5,35.8,35.5,35.8
		c8.7,0,14.8-3.8,32.8-19.6c8.9-7.9,16.6-13.5,16.9-12.5c0.7,2-3.2,5.8-19.5,18.8c-12.6,10.2-20.1,19.6-20.1,25.4
		c0,2.7-0.3,4.9-0.5,4.9S1579,1276.2,1570.6,1269.4z"/>
	<path class="st1" d="M1630.7,1228.8c-0.7-1-0.9-2-0.7-2.4c0.3-0.2,5.5-4.4,11.3-9.4c7.3-6.1,11.8-8.7,14.5-8.4
		c3.8,0.5,3.8,0.7-22,20.5C1632.6,1230,1631.4,1230,1630.7,1228.8z"/>
	<path class="st1" d="M1420.8,1177.6c-27.6-3.1-55.5-28.5-55.5-50.7c0-6.5,1-8.5,11.9-20.5c6.5-7.3,12.8-14.2,14-15
		c1.2-1,11.4-9.4,22.7-18.8c64-53.4,87.9-70.3,95.7-68.4c2,0.5,7.9,4.8,12.8,9.4c5.1,4.6,11.1,9.9,13.3,11.6l4.1,3.2l-6,8.5
		c-8.7,11.9-10.8,19.5-8.2,29.4c1,4.4,2.7,9,3.8,10.2s1.4,2.6,0.9,3.1c-0.5,0.5-2.2-1.5-3.8-4.8c-7.7-14.8-13.1-15.2-35.2-2.2
		c-22.5,13-28.5,17.4-34.1,25.3c-8.7,12.1-5.3,27.8,9.4,43.2c4.3,4.4,7.9,8.4,7.9,8.7c0,0.5-3.2,4.6-7.2,9.4
		C1453.2,1175.9,1442.8,1180,1420.8,1177.6z"/>
	<path class="st1" d="M1522.3,1133.9c0-0.2,4.9-4.3,11.1-9c6.1-4.8,11.1-9.7,11.1-10.9c0-1-2.4-7-5.1-13c-2.9-6-4.8-11.3-4.4-11.8
		c0.5-0.5,5.1,8.2,10.4,19.3c9,19.3,10.8,24.4,6,18.8c-2.9-3.6-6.1-3.2-12.5,1.5C1534.6,1132,1522.3,1135.8,1522.3,1133.9z"/>
	<path class="st1" d="M1620.5,1098.8l1.2-16.4l-6.3-5.8c-3.4-3.1-9.7-7.7-14.2-10.2c-4.4-2.6-7.7-4.8-7.2-4.8
		c0.5,0,5.1,1.2,10.2,2.6c13.1,3.6,15,3.2,21.2-2.9l5.6-5.6l4.8,14.2c2.7,7.9,7.9,18.4,11.3,23.6c6.1,8.5,6.3,9.2,3.2,10.9
		c-1.7,0.9-3.6,1.7-4.1,1.7c-0.3,0-3.2-5.5-6.3-12.1c-5.1-10.9-8.7-15.2-13.1-15.2c-0.9,0-2,7.3-2.4,16.4
		c-0.5,9.6-1.7,17.1-3.1,18.3C1619.6,1115,1619.5,1111.9,1620.5,1098.8z"/>
	<path class="st1" d="M1345.4,1109.3c-11.4-2.4-19.8-7.7-33.6-21.3c-14.8-14.5-21.5-26.3-21.5-38.4c0-7.3,0.5-8.2,15-22.2
		c8.2-8,20.3-18.1,26.8-22.5c6.7-4.4,21.5-16.6,33.3-27.1c22.7-20.1,38.1-33.1,55.1-46.4c5.8-4.6,13.3-10.4,16.6-13.1
		s9.2-6.7,13-8.7c6.8-3.8,7.3-3.8,11.6-1c2.4,1.7,4.9,5.1,5.5,7.7c0.7,2.6,3.8,9.6,7,15.5c9.7,18.3,21,48.5,21,56.5
		c0,6.8-0.9,8-14.8,22c-8.4,8.2-19.3,18.3-24.4,22.4c-5.1,4.3-9.7,8-10.2,8.5s-4.6,3.9-9.4,7.7c-4.6,3.8-15,12.8-22.7,20.1
		c-20.3,18.9-38.7,33.3-49.2,38.1c-4.9,2.2-9.6,4.1-10.4,3.9C1353.2,1110.7,1349.3,1110,1345.4,1109.3z"/>
	<path class="st1" d="M1756.2,1040.9c-7-4.8-17.7-12.6-23.7-17.6c-37.4-29.7-78.5-53.9-91.6-53.9c-13.3,0-61.6,27.1-87.2,49l-9,7.9
		l-16.7-17.6c-28.5-30-32.9-38.6-51.5-96.4c-3.4-10.8-6-23-7-33.3c-0.7-8.9-1.7-17.7-2.2-19.6c-0.5-1.9,0.2-4.8,1.5-6.7
		c2.6-3.4,0-4.6,32.4,13.5c4.8,2.6,13.5,8.2,19.6,12.5c6.1,4.3,20.7,12.8,32.4,19.1c24.9,13.3,43.9,24.6,60.8,36.2
		c13.1,8.9,22.2,12.6,47.4,19.3c24.2,6.1,35.2,6.8,62,3.6c13-1.5,38.6-4.8,56.8-7c18.3-2.2,39.1-4.4,46.1-5.1c7-0.5,20-2.4,28.8-4.3
		c8.9-1.9,22-3.4,29.2-3.4c7.3,0,17.4-0.9,22.4-1.7c11.9-2.4,23.6-2.6,25.6-0.5c0.9,0.9,2,15,2.4,31.4c0.5,16.4,1.4,40.3,2,53.1
		l1,23.4l-4.1,1.5c-2.2,0.9-27.5,1.5-56.1,1.7c-49.2,0.2-74.8,1-98.1,3.1C1769.1,1049.8,1768.8,1049.6,1756.2,1040.9z"/>
	<path class="st1" d="M1254.4,1025.7c-17.1-8.9-30.4-26.6-41.8-55.5l-6.3-15.7l4.3-6.8c4.1-6.5,7.9-10.1,23.4-21.8
		c24.1-18.4,39.4-29.7,47.1-34.6c4.8-3.1,10.1-7,11.8-8.9c5.1-5.6,10.2-4.3,16.2,4.3c2.9,4.3,6.3,10.6,7.5,14
		c3.8,10.6,8.9,18.1,17.4,25.3c13,10.9,16.4,12.8,23.7,12.6h6.8l-7.9-2.6c-17.1-5.1-34-26.5-52.9-66.9
		c-6.7-13.8-18.6-38.4-26.6-54.6c-13.8-27.5-14.8-30.2-14.8-40.1c0-13,7.5-29.4,19.1-42.5c7.3-8,32.1-29,46.9-39.8
		c3.9-2.9,13.3-9.7,20.8-15.4c22.2-16.4,68.8-42,90.1-49.3c2.9-0.9,2.7-1.4-0.7-6.1c-2.6-3.2-4.1-8.4-4.6-14.5l-0.9-9.7l10.9-10.6
		c6-5.8,15.5-13.7,21.2-17.6c5.6-3.8,14.8-11.1,20.5-16c9.6-8.5,22.9-20,38.2-33.3c13.5-11.4,32.4-24.6,36.2-24.9
		c3.4-0.5,4.9,1.4,10.4,12.3c13.1,25.8,20.8,46.3,19.5,51.7c-1.4,5.5-19.3,23-46.6,45.6c-2.9,2.4-12.1,10.6-20.7,18.1
		c-8.4,7.7-17.2,15.4-19.8,16.9c-2.4,1.5-3.9,3.6-3.4,4.6c0.5,0.9,4.6-1.7,8.9-5.8c4.4-4.1,14.2-12.3,21.5-18.4
		c7.5-6.1,16.2-13.5,19.6-16.4c10.2-8.7,34.8-27.1,41.5-31.2c9.4-5.6,10.4-4.9,38.6,20.5c9.4,8.5,8,11.8-14.7,36.2
		c-6,6.5-18.4,22-27.6,34.5c-9.4,12.6-17.9,23.4-18.9,23.9c-1,0.7,2.6,3.8,8.2,7.2c5.5,3.2,12.6,8.4,15.9,11.4
		c9.7,9,49,37.4,66.6,48c8.9,5.5,18.6,11.9,21.7,14.3c17.4,14,14.5,13,39.1,12.8c12.3,0,29.2-1,37.5-2.2c8.4-1,27.1-3.4,41.6-5.3
		s31.4-4.4,37.5-6c36.7-8.9,89.1-15.2,95.1-11.4c2.6,1.5,3.6,28.3,4.3,106l0.3,55.5l-4.9,3.1c-10.2,6.3-26.6,9.2-65,11.6
		c-14.8,0.9-38.6,3.6-52.7,5.8c-38.4,6.3-150.7,10.8-153.6,6.1c-0.5-0.9-2.4-1.7-4.1-1.7c-4.8,0-29-12.6-41.1-21.2
		c-23.2-16.7-57.2-35.7-107.5-59.6c-22.5-10.8-27.8-14.2-36.2-22.5c-11.3-11.4-20.7-29.4-29-54.8l-5.3-16.7l-7,8
		c-11.1,12.8-14,13-48,3.6c-1.9-0.5,1.2,1.7,6.8,5.1c5.6,3.2,13,8.7,16,11.9c3.2,3.4,6.8,6.1,8,6.1c1.2,0,3.8,2,5.8,4.8
		c3.4,4.3,3.8,5.8,2.7,21.7c-1.4,21.7-3.6,43-6.1,57.3c-1,6.3-1.7,13.1-1.2,15.4c0.7,3.4,0.7,3.2,1-1c0-2.7,2.6-16.9,5.3-31.2
		c3.6-18.8,5.1-31.2,5.1-43.9c0-19.3,1.5-22.7,8.7-19.8c9,3.4,17.7,18.8,27.1,47.6c7.9,23.7,7.3,27.8-4.6,39.9
		c-14.5,15-27.3,23.6-34.8,23.6c-3.9,0-6.7-0.9-6.7-2c0-3.2-2.4,0.2-2.9,4.3c-0.9,5.6-9.4,12.5-20,15.9c-8.5,2.7-9,3.1-5.8,4.8
		c2,1,3.9,2.7,4.3,3.8c0.3,1-5.3,7.2-12.6,13.5c-7.3,6.5-22.2,20.5-32.9,31.1c-36.7,36-48.3,43.2-68.8,43.2
		C1266,1030.7,1262.1,1029.8,1254.4,1025.7z"/>
	<path class="st1" d="M1192.1,924.5c-22-8.7-44.7-37.7-48-61.1c-2.6-19.3,16-39.9,57-63.5c38.2-21.8,37.5-21.5,44.5-20.5
		c8.9,1.5,12.3,4.3,19.5,17.2c11.1,19.6,28.8,57.2,29.7,63.1c1.2,7.2-2.4,11.1-25.9,29c-21.7,16.4-41.6,28.8-54.4,34
		C1203.2,927.1,1199.6,927.4,1192.1,924.5z"/>
</g>
<g id="layer103">
	<path class="st2" d="M1716.1,1678c-3.8-2.6-8.2-7.3-9.7-10.6c-2.7-5.5-2.7-6.1-0.2-10.2c1.4-2.4,4.6-6.5,7.2-9.2l4.4-4.9l-7.5,5.5
		c-4.1,2.9-9.6,5.3-12.1,5.3c-5.3,0-16.7-7.7-20.8-14c-5.6-8.7-5.5-12.3,0.9-19.1c3.2-3.4,5.6-6.1,5.3-6.1c-0.2,0-3.2,1.5-6.7,3.6
		c-8.5,5.1-16.7,3.2-25.3-5.6c-7.5-7.9-13.7-20.8-12.3-25.3c1.5-4.6,34.3-29,38.9-29c2.2,0,2.2-0.9,0.7-5.1c-1.7-4.4-2-4.8-3.1-2
		c-2.4,6.5-31.6,25.9-38.7,25.9c-2.2,0-6.3-1.4-9-2.9c-4.8-2.9-5.1-2.7-21.7,5.3c-24.2,11.6-31.2,11.9-50.9,3.1
		c-29.7-13.3-58.7-32.1-90.5-58.5c-16.9-14-22.2-20.1-27.6-31.9c-4.1-9.2-4.6-18.9-1.4-28.5c0.7-1.9,0-1.4-1.5,1.2
		c-6.5,11.4-15.2,10.9-37-1.5c-24.7-14.3-40.3-25.9-46.4-34.3c-10.2-14.5-6.1-34.1,11.3-52.6c4.9-5.3,11.9-10.4,16.9-12.6
		c8.4-3.4,9-3.6,15.7-0.9c23.4,9.2,64.3,39.6,64.3,47.8c0,1.9-2,7.7-4.4,12.8c-5.8,12.3-7.7,17.1-6.5,17.1c0.3,0,2.2-3.2,3.9-7.2
		c3.1-7.2,13.5-29.7,18.4-39.8l2.4-5.1l-3.6,4.8c-5.8,7.3-4.3,8-37.4-16.4c-7.9-5.8-18.4-13.7-23.6-17.4c-9.4-7-15.9-15-15.9-19.6
		c0-3.6,6.8-20,12.3-29.4c7-11.8,12.5-17.6,21.5-22.9c10.6-6.3,25.3-6.7,36.4-0.9l7.3,3.9l-7.2-7.9c-5.6-6.1-7.2-9-7.2-13.8
		c0-9.4,4.4-17.9,15-28.7c15.2-15.5,28.3-20.7,40.1-15.7c6,2.4,18.8,12.6,41.8,32.9c6.3,5.6,16.9,14.7,23.4,20.1
		c21.2,17.6,35,32.3,35,37c0,8.4-22.5,60.1-27,61.8c-4.6,1.7-19.8-7.9-38.7-24.6c-3.9-3.4-11.4-9.9-16.9-14.7
		c-5.6-4.6-14.7-12.6-20.3-17.4c-5.5-4.9-14-11.8-18.9-15c-6.7-4.8-3.8-1.2,12.1,14.3c11.6,11.3,22.9,21.8,25.3,23.4
		c4.4,2.9,5.8,9.2,2.2,9.4c-1.2,0,1.7,1.9,6.3,4.3c11.3,5.5,12.8,7.9,13.1,20.1l0.2,10.4l1-8.5c0.9-7.5,1.5-8.5,5.5-9
		c3.1-0.3,7.5,1.9,15,7.5c12.1,9,18.8,17.9,19.1,25.4c0.2,2.7,0.9,0.2,1.5-6c1.5-13.5,12.1-48,19.1-62.3c7.7-16,16-26.5,21.2-26.5
		c2.2,0,6.7-1.7,9.6-3.8c4.4-3.4,26.8-31.1,31.4-39.1c0.9-1.5,7.9-9.6,15.7-17.7c13.8-14.8,15.7-18.4,12.3-24.9
		c-2.4-4.4-0.5-4.1,6.3,1.2c7.2,5.5,6.8,6.3-14.8,29.7c-9,9.9-17.9,20-19.5,22.5c-2.7,4.3-2.7,4.8-0.5,5.8c3.4,1.2,22-1.5,46.4-7
		c10.4-2.2,21.5-4.4,24.7-4.9c3.2-0.5,10.8-3.2,16.7-6.1l10.8-5.1l6.7,4.9l6.7,4.8l36.4,1.2c20,0.5,55.6,1.5,79,2
		c49,1,47.8,0.7,46.3,15.2c-0.5,4.8-1.4,22.2-2,38.9c-0.9,21.7-1.7,30.7-3.2,31.2c-3.4,1.4-49.2-2.6-61.8-5.1
		c-6.3-1.4-20.8-3.2-31.9-4.4c-11.1-1-23.4-2.6-27.3-3.2c-12.8-2.9-52.6-5.8-64.9-4.8c-18.3,1.4-41,9.4-57.7,20.3
		c-7.7,5.1-24.6,15.2-37.4,22.4c-12.8,7.2-27.3,15.9-32.4,19.3c-13,8.7-32.3,18.1-34.8,17.1c-1.4-0.5-2.6-2.9-2.9-5.6
		c-0.5-3.9-1.4-2.6-4.4,7.2c-5.6,17.7-13.8,32.1-19.6,34.1c-6.5,2.2-7.2,0.5-7.7-17.6c-0.2-8.4-1.5-20-2.9-26.1l-2.6-10.9l0.9,10.2
		c0.5,5.6,1.4,16.9,2,25.3l0.9,14.8l-6.5,6.1c-3.8,3.2-10.1,8.2-14.2,11.1c-8.2,5.3-6.5,6.1,6,3.1c9.2-2.4,16.2,0,21.5,7.3l3.6,5.1
		l3.8-11.6c6-18.9,13.8-33.6,22.5-42.3c7.9-7.9,25.3-17.9,43.3-24.9c12.1-4.8,50.5-27,72.7-42c5.8-3.8,15.7-8.7,22-10.9
		c11.4-3.8,13-3.9,46.8-2.7c39.8,1.4,59.7,2.9,85.3,7.2c9.9,1.5,19.5,2.7,21.3,2.6c1.9,0,12.5,0.7,23.6,1.5
		c14.7,1.2,22.4,2.7,28.2,5.6l8,3.8l-0.7,60.6c-0.3,42.3-1.2,60.9-2.6,61.8c-2,1.4-31.9,0.3-42-1.4c-3.2-0.5-14.2-2.9-24.2-5.1
		c-19.8-4.4-53.4-8.9-76.5-10.2l-14.5-0.9l4.9,3.9c4.4,3.6,30.4,22.5,48.8,35.7l7.5,5.5l18.9-1.2c10.6-0.5,29.4-2.9,41.8-5.3
		c12.5-2.4,25.9-4.3,30-4.3h7.5l0.3,21c0.3,11.4,0.5,27,0.5,34.5v13.7l-6,2c-3.2,1.2-10.6,2-16.2,2c-5.6,0.2-17.2,1.4-25.8,2.7
		s-27,2.7-41,2.9c-24.7,0.5-25.6,0.3-34.8-4.1c-5.1-2.6-14.3-7.9-20.5-11.8s-19.3-11.3-29.2-16.2c-10.4-5.1-20-11.3-22.5-14.2
		c-4.1-4.9-11.4-21.7-11.4-26.1c0-1-1.9-0.2-4.3,2c-3.2,3.1-5.3,3.8-10.4,2.9l-6.3-1l7.2,6c3.8,3.4,7.2,7.7,7.2,9.7
		c0.2,2.2,0.7,1.5,1.4-2l1-5.6l3.9,3.1c2,1.9,5.8,8.2,8,14.3s4.1,9.4,4.1,7.3c0.2-2.2,0.7-3.9,1.5-3.9c2,0,18.4,9.6,51.9,30.2
		c17.7,10.9,27.3,14.2,43.5,14.3c11.6,0.2,20.8-0.9,62-6.3c9.9-1.4,21.8-2.4,26.6-2.4h8.7l1,21.7c0.5,11.9,0.3,22.5-0.5,23.6
		s-17.2,1.9-44.5,2.2l-43,0.5l-13.8,10.4c-17.4,13.1-19.6,14-45.4,19.1c-25.3,5.1-32.8,6-33.6,3.6c-0.2-0.9,5.1-8.2,11.9-16
		c6.7-7.9,13-15.2,13.8-16.2c1-1.4-2-5.5-9.2-12.3c-6-5.5-13-13.5-15.5-17.6c-4.3-6.7-11.6-26.1-14.2-37.9l-1-4.6l-7.5,7.5
		c-4.1,4.1-8.9,7.5-10.8,7.5c-2,0-4.6,1.2-5.8,2.7c-1.2,1.5-4.1,3.4-6.3,4.3c-2.2,0.9-3.6,2.2-2.9,3.2c0.5,0.9-4.6,7-11.4,13.8
		c-13.7,13.3-9.7,10.8,12.6-8.2c17.2-14.5,26.8-21.3,28.7-20.1c2.4,1.5,15.4,30.5,15.4,34.3c0,2-4.4,6.5-23.9,24.6
		c-3.2,2.9-0.5,1.2,6-3.8c19.8-15.4,20.7-15.9,25.3-12.8c2,1.5,6.7,5.5,10.2,8.7c8.2,7.7,7.7,10.2-5.8,24.1
		c-5.3,5.6-13.1,14.8-17.4,20.7c-4.1,5.6-9.7,11.9-12.3,14C1734.8,1684.3,1724.8,1684,1716.1,1678z M1697.8,1580.4
		c-1.5-1-5.3-4.6-8-8c-2.9-3.6-5.3-5.8-5.3-5.1c0,2,12.3,14.8,14.3,14.8C1699.8,1582.1,1699.3,1581.2,1697.8,1580.4z M1484.5,1371
		c3.2-4.1,8.9-9.7,12.6-12.6c7.5-5.3,7.5-6.5-0.2-2.4c-6.7,3.2-18.3,16.9-20.5,23.6c-1.4,4.4-1.4,4.9,0.3,2.2
		C1478,1380,1481.4,1375.2,1484.5,1371z"/>
	<path class="st2" d="M1570.6,1269.4c-31.7-25.8-45.4-38.1-51.9-46.1c-9-11.4-8.9-14.2,0.7-9.9c16.2,7.5,25.6,3.8,50.5-20.1
		c11.3-10.8,14.8-13.3,16.6-11.8c2.7,2.4-3.6,8.7-21.5,21.2c-18.3,12.8-23.9,18.9-23.9,26.1c0,14.2,21.5,35.8,35.8,35.8
		c9.2,0,16.2-4.6,41.6-27.6c2.9-2.7,5.8-4.8,6.5-4.8c3.6,0,0.2,3.9-12.6,14.3c-17.9,14.7-25.8,23.9-25.8,30.2c0,2.7-0.3,4.9-0.5,4.9
		S1579,1276.2,1570.6,1269.4z"/>
	<path class="st2" d="M1630.9,1229c-1.5-2.2,20.7-20.7,24.7-20.7c1.7,0,3.2,0.3,3.2,0.7c0,0.5-17.6,14.7-24.1,19.5
		C1633.1,1229.7,1631.4,1229.8,1630.9,1229z"/>
	<path class="st2" d="M1703.6,771.4c-17.9-9.4-28.7-16.9-44.4-30.4c-12.1-10.6-15.7-16.2-15.7-25.4c0-4.9-0.5-5.8-2-4.3
		c-3.8,3.8-9.7,2.2-23.4-5.6c-17.2-10.2-24.7-17.7-24.6-25.1c0.3-16.2,1.4-18.4,17.6-36.7c5.8-6.3,12.1-15,14.2-18.9
		c2-4.1,6.3-9.7,9.7-12.5c13.5-10.9,13.1-9.4,3.1-17.9c-16.2-13.8-39.8-40.8-46.3-53.1c-9.7-18.6-19.8-51.5-21.8-71.2
		c-1-10.9-1-17.6,0-18.6c1-1,4.3-0.2,9,2.6c4.1,2.4,10.4,6,14.2,8.2c3.8,2,10.8,6.3,15.4,9.4c4.8,3.1,15.9,9.6,24.7,14.5
		c8.9,4.9,23.7,13.7,32.9,19.5c27.5,17.2,28.5,17.7,46.3,22.7c21.2,6,41.5,6,81.2,0.5c14.5-1.9,34.3-4.3,43.7-5.1
		c9.6-1,22.9-2.9,29.7-4.3c6.7-1.4,16.6-2.6,21.8-2.6c5.3,0,14.7-0.9,20.7-1.7c17.4-2.4,16.6-4.8,17.9,42c0.9,32.3,0.7,40.8-1,41.8
		c-1.7,1.2-1.4,1.5,0.9,1.5c2.9,0,3.1,1.5,1.9,23.6c-0.7,12.8-1.4,23.6-1.5,23.9c-0.3,0.5-30.4-2.4-47.8-4.8
		c-60.1-7.7-69.1-7-93.2,8.5c-7.3,4.6-13.7,8.5-14.2,8.5c-0.5,0-9.2,4.9-19.6,11.1c-10.2,6.1-19.5,11.1-20.5,11.1
		c-1,0-1.9-1.7-1.9-3.8c-0.2-2.4-1.4-0.5-3.2,4.6c-5.5,15.5-10.6,21.8-14.2,18.3c-1.2-1.2-2.7-0.9-5.5,1.7c-1.9,1.9-5.8,4.9-8.7,6.7
		c-5.6,3.6-3.8,4.3,3.6,1.5c3.9-1.5,5.6-1.2,9.7,1.7c2.7,2,5.1,3.4,5.3,3.1c0.2-0.2,1.5-3.9,2.7-8c5.3-16.6,10.1-21.5,31.9-32.3
		c11.1-5.5,25.1-13.1,31.2-17.1c23.6-15.2,25.3-15.7,52.9-15.5c13.7,0,29,0.9,34.1,1.7s18.4,2.2,29.4,3.2c12.3,0.9,22,2.6,25.4,4.4
		l5.5,2.7l-1.2,20.7c-0.5,11.3-1,26.5-1,34v13.3h-10.2c-5.6,0-17.2-1.5-25.9-3.2c-18.9-3.9-43.5-7-55.6-7c-7.2,0-10.2,1-16,5.3
		c-29.4,21-40.3,28.7-56.8,39.8c-18.6,12.6-35.8,21.5-41.5,21.5C1720.8,779.9,1712.3,776,1703.6,771.4z M1711.3,684
		c-0.3-2.2-0.7-0.9-0.7,2.9c-0.2,3.8,0.2,5.5,0.7,3.9C1711.6,689.2,1711.6,686.1,1711.3,684z M1662.3,672.1c0-0.9-1.2-1.4-2.6-1.4
		c-1.4,0-5.3-1.9-8.7-4.3c-9.9-6.7-10.9-4.9-1.7,3.1c7,6.1,8.2,8,7.2,11.4c-0.9,3.1-0.2,2.6,2.2-1.7
		C1660.6,676,1662.1,672.8,1662.3,672.1z M1734.8,654.5c4.4-15,10.9-27.8,17.1-34c3.1-2.9,8-8.4,11.3-12.1l5.8-6.8l-7.7,6.5
		c-4.3,3.6-10.2,8-13.1,9.9c-3.1,2-5.6,4.9-5.6,6.7c0,4.8-12.3,33.1-15.2,34.8c-0.9,0.5-5.3-1.7-9.7-4.9c-4.6-3.2-9.4-6.5-10.6-7
		c-3.1-1.5-4.8,0.7-2.4,3.1c1.2,1.2,2.2,5.5,2.4,9.9c0.2,7.3,0.3,7.3,0.9,1.4c1-8.7,4.8-8.5,14.3,0.9
		C1730.6,670.7,1729.9,671.1,1734.8,654.5z"/>
	<path class="st2" d="M1520.5,698.2c-4.4-1.7-9-3.9-10.2-5.1c-1.4-1-4.4-3.4-7-5.3c-6.5-4.9-14-20.8-12.5-26.8
		c2.6-10.8,23-29.9,76.3-71.5c22.9-17.7,29.4-21.7,34-20.3c3.2,1,11.1,7.5,28.5,23.2c9.4,8.5,8,11.8-14.7,36.2
		c-6,6.5-18.3,21.8-27.5,34.1c-9.2,12.5-20.7,26.1-25.4,30.7l-8.7,8h-12.5C1532.9,701.3,1525.4,700.1,1520.5,698.2z"/>
	<path class="st2" d="M1474.6,648.7c-9.4-1.9-15.4-5.8-26.8-17.6c-11.6-11.8-14.2-16.7-14.2-27.5c0-6.3,1-8,10.8-17.4
		c5.8-5.8,15.2-13.5,20.8-17.4c5.6-3.8,14.8-11.1,20.5-16c9.6-8.5,22.9-20,38.2-33.3c13.5-11.4,32.4-24.6,36.2-24.9
		c3.4-0.5,4.9,1.4,10.4,12.3c13.1,25.8,20.8,46.3,19.5,51.7c-1.4,5.5-18.4,22.2-46.6,45.6c-2.9,2.4-13,11.3-22.5,19.8
		c-16,14.5-28.7,23-36.9,25.1C1482.1,649.4,1477.8,649.2,1474.6,648.7z"/>
	<path class="st2" d="M1404.8,585.2c-12.1-6.5-23.7-22.4-32.6-44.5l-3.9-9.6l3.6-5.8c4.1-6.5,12.5-13.3,44.4-36.4
		c12.6-9.2,23.9-16.2,25.4-15.9c1.7,0.3,6.3,6.8,10.8,15.4c9.6,18.4,20.3,28.7,31.2,29.7l7.2,0.7l-6-1.9
		c-14.5-4.4-27.1-20.3-42.8-53.9c-5.6-11.9-14.7-30.9-20.3-42c-12.5-24.4-13.3-31.7-5.1-47.1c6.5-11.9,11.1-16.9,27.8-30.5
		c41.6-34,94.7-65.2,110.9-65.2c6.8,0,23,6.1,38.1,14.3c16.4,9,66.7,42.8,74.9,50.3c6.3,5.8,29,22.4,30.5,22.4
		c0.7,0-0.3-2.2-2.2-4.9c-2-2.7-3.6-7.3-3.6-10.2c0-4.9-0.3-5.1-3.4-3.2c-2.9,1.9-4.8,1.4-13-2.9c-14.7-7.9-24.6-17.2-24.6-23.2
		c0-8.7,9-21.3,17.4-24.2c3.8-1.4,16.9,5.6,27.3,14.3c7.7,6.3,11.6,7.3,11.6,2.9c0-1-0.5-1.5-1-0.9c-2.7,2.7-33.1-21.5-33.1-26.3
		c0-5.5,8.2-20,13.1-23.2c2.4-1.7,7.3-3.1,10.9-3.1c5.6,0,6.1-0.3,4.8-3.1c-5.5-9.9,15.5-28.7,26.1-23.2c3.2,1.5,3.6,1.5,1.9-0.3
		c-7-7.2,3.2-22.4,16.4-24.6c8.9-1.5,11.9,0.5,21.7,13.3c4.4,5.8,11.8,14.8,16.2,20c4.3,5.1,8.2,10.8,8.5,12.3
		c0.5,2,1.4,2.6,3.1,1.5c1.9-1.2-0.2-4.4-8.9-14.5c-11.4-13-13.8-18.1-8.7-18.1c4.9,0,43.5,8.5,47.3,10.4c2,1,8.9,5.8,15,10.4
		c12.6,9.6,9.4,9,62.1,10.6c11.3,0.3,21,0.9,21.8,0.9c0.7,0.2,1.2,8.5,1.2,18.6c0,17.6-0.2,18.6-3.8,20.3l-3.9,1.7l3.9,1.2
		c3.8,1.2,3.8,1.4,3.4,29.7l-0.5,28.5l-6.1,0.5c-3.2,0.3-13.3-1-22.2-3.1c-8.9-1.9-24.4-3.9-34.8-4.4l-18.8-1.2l-14.5,9.9
		c-8,5.3-16,11.1-17.9,12.8c-1.9,1.7-11.1,8-20.5,14.3l-16.9,11.3h7.5c12.3,0,59.4-6.5,74.2-10.1c24.2-5.8,60.1-9.9,67.8-7.7
		c2.4,0.7,2.7,3.8,2.9,21.7c0.2,11.4,0.7,38.9,1.2,61.1l0.9,40.3l-4.1,2.7c-6.3,4.1-25.3,7.9-44.7,8.7c-19.6,1-28.3,2-48.6,5.5
		c-27.8,4.6-113,7.9-115.2,4.3c-0.5-0.9-3.4-2-6.5-2.7c-6-1.4-22.4-9.7-27.6-14.5c-7-6.1-54.4-32.9-72.5-41
		c-24.6-10.8-32.3-15.4-39.9-23.9c-8.5-9.4-23.2-41.5-23.2-50.3c0-3.9-2.6-3.1-5.1,1.9c-4.4,8-14.3,11.1-24.9,7.7
		c-2.7-0.9-7.2-2-10.1-2.6l-5.1-1l5.1,2.7c9.6,5.3,26.1,19.8,26.8,23.4c1,4.9-1.7,37.5-3.8,47.8c-0.9,4.4-2.2,14.7-2.7,22.5
		c-1.4,16.6-2.4,18.1-16.2,23c-5.5,1.9-7.7,3.2-5.3,3.4c7.2,0,3.9,5.8-10.1,17.9c-7.5,6.7-16.9,15.4-20.8,19.6
		c-10.4,11.1-30,27.5-36.5,30C1429.7,589.8,1411.9,589.1,1404.8,585.2z M1756.7,341.3c1.7-4.6,4.9-10.8,7.3-13.7
		c3.9-4.6,4.1-5.1,1.2-5.1c-2,0-3.9,2-5.3,5.8c-2.6,7-9,13.3-10.2,9.7c-0.3-1.2-1.2-1.5-1.9-0.7c-0.5,0.9-3.2,3.2-6.1,5.5l-5.1,3.9
		l5.5-1c3.8-0.9,6-0.5,7.7,1.4C1752.9,350.9,1753.4,350.7,1756.7,341.3z M1809.9,301.4l18.4-11.3l24.1-0.2l24.1-0.3l-16.2-2
		c-16-2-26.3-1.4-36.4,2.4c-5.1,2-35.7,20-51.7,30.4C1761.6,327.2,1794.7,310.6,1809.9,301.4z M1770.5,289.3
		c0.5-1.9-0.9,0.7-3.4,5.6c-2.4,4.8-5.5,8.9-6.7,8.9c-2.6,0-17.1-11.1-29-22c-3.8-3.6-8.4-7.3-10.2-8.5s1,2,6.5,7.2
		c5.6,5.3,9.6,10.4,8.9,11.3c-0.5,1,0,1.9,1.4,1.9s3.8,1.5,5.5,3.4c1.7,1.9,4.3,3.4,5.8,3.4c1.5,0,5.5,2.6,8.7,5.6l6,5.5l2.7-9.4
		C1768.1,297,1770,291.2,1770.5,289.3z M1909.8,293.5c-23.2-2.9-33.3-3.8-32.3-2.9c1.5,1.9,18.9,4.3,30.5,4.1h11.1L1909.8,293.5z
		 M1784.8,267.1c4.9-5.3,5.1-5.8,1-2c-6.1,5.6-7.9,5.6-15.9,0.9l-6.1-3.8l5.5,6.3c4.8,5.5,5.3,7,3.9,10.8c-2.7,6.8-2,7.2,1.9,0.7
		C1777.2,276.7,1781.4,270.8,1784.8,267.1z"/>
	<path class="st2" d="M1350,503.8c-22-14-34.1-41.5-25.8-57.9c3.9-7.9,17.7-20.8,29.2-27.3c4.3-2.4,14-8,21.7-12.6
		c27-16,29.2-15,48.1,22.9c7.5,15.4,13.8,29,13.8,30.4c0,5.8-29.7,29.9-51.4,41.5c-6.7,3.6-15,6.7-19.8,7.2
		C1358.8,508.8,1356.6,508.1,1350,503.8z"/>
	<path class="st2" d="M1528.1,499.2c-1-2.7,0.7-15.7,5.3-41c1.4-7.5,2.4-20,2.6-27.6c0-14,0-14.2,4.3-14.2c8,0,15,10.8,23.2,35.8
		c5.5,17.1,4.9,22.4-2.6,30.4C1546.2,498.2,1530.7,506,1528.1,499.2z"/>
</g>
<g id="layer104">
	<path d="M1716.1,1678c-3.8-2.6-8.2-7.3-9.7-10.6c-2.7-5.5-2.7-6.1-0.2-10.2c1.4-2.4,4.6-6.5,7.2-9.2l4.4-4.9l-7.5,5.5
		c-9.2,6.5-14.8,6.7-23.4,0.3c-7.5-5.3-11.9-11.1-13.7-17.9c-0.9-3.6,0.3-5.6,8.2-13.1l9-8.7l-9.2,6.1c-9.9,6.8-13,7.3-21.2,3.8
		c-9.7-3.9-23-24.6-20.8-31.7c1.5-4.6,34.3-29,38.9-29c2.2,0,2.2-0.9,0.7-5.1c-1.7-4.4-2-4.8-3.1-2c-2.4,6.5-31.6,25.9-38.7,25.9
		c-2.2,0-6.3-1.4-9-2.9c-4.8-2.9-5.1-2.7-21.7,5.3c-24.2,11.6-31.2,11.9-50.9,3.1c-29.7-13.3-58.7-32.1-90.5-58.5
		c-16.9-14-22.2-20.1-27.6-31.9c-4.1-9.2-4.6-18.9-1.4-28.5c0.7-1.9,0-1.4-1.5,1.2c-6.5,11.4-15.2,10.9-37-1.5
		c-24.7-14.3-40.3-25.9-46.4-34.3c-10.2-14.5-6.1-34.1,11.3-52.6c4.9-5.3,11.9-10.4,16.9-12.6c8.4-3.4,9-3.6,15.7-0.9
		c23.4,9.2,64.3,39.6,64.3,47.8c0,1.9-2,7.7-4.4,12.8c-5.8,12.3-7.7,17.1-6.5,17.1c0.3,0,2.2-3.2,3.9-7.2
		c3.1-7.2,13.5-29.7,18.4-39.8l2.4-5.1l-3.6,4.8c-5.8,7.3-4.3,8-37.4-16.4c-7.9-5.8-18.4-13.7-23.6-17.4c-9.4-7-15.9-15-15.9-19.6
		c0-3.6,6.8-20,12.3-29.4c7-11.8,12.5-17.6,21.5-22.9c10.6-6.3,25.3-6.7,36.4-0.9l7.3,3.9l-7.2-7.9c-5.6-6.1-7.2-9-7.2-13.8
		c0-9.4,4.4-17.9,15-28.7c15.2-15.5,28.3-20.7,40.1-15.7c6,2.4,18.8,12.6,41.8,32.9c6.3,5.6,16.9,14.7,23.4,20.1
		c21.2,17.6,35,32.3,35,37c0,8.4-22.5,60.1-27,61.8c-4.6,1.7-19.8-7.9-38.7-24.6c-3.9-3.4-11.4-9.9-16.9-14.7
		c-5.6-4.6-14.7-12.6-20.3-17.4c-5.5-4.9-14-11.8-18.9-15c-6.7-4.8-3.8-1.2,12.1,14.3c11.6,11.3,22.9,21.8,25.3,23.4
		c4.4,2.9,5.8,9.2,2.2,9.4c-1.2,0,1.7,1.9,6.3,4.3c11.3,5.5,12.8,7.9,13.1,20.1l0.2,10.4l1-8.5c0.9-7.5,1.5-8.5,5.5-9
		c3.1-0.3,7.5,1.9,15,7.5c12.1,9,18.8,17.9,19.1,25.4c0.2,2.7,0.9,0.2,1.5-6c1.5-13.5,12.1-48,19.1-62.3c7.7-16,16-26.5,21.2-26.5
		c7,0,13.8-6.5,32.4-30.7c9.7-12.6,22.4-28,28-34.1c10.2-11.1,11.8-14.5,8.5-20.7c-2.4-4.4-0.5-4.1,6.3,1.2c7.2,5.5,7,6-15.7,30.5
		c-19.6,21.3-22.9,25.9-18.9,27.5c3.2,1.2,22-1.5,46.3-7c10.4-2.2,21.5-4.4,24.7-4.9c3.2-0.5,10.8-3.2,16.7-6.1l10.8-5.1l6.7,4.9
		l6.7,4.8l36.4,1.2c20,0.5,55.6,1.5,79,2c49,1,47.8,0.7,46.3,15.2c-0.5,4.8-1.4,22.2-2,38.9c-0.9,21.7-1.7,30.7-3.2,31.2
		c-3.4,1.4-49.2-2.6-61.8-5.1c-6.3-1.4-20.8-3.2-31.9-4.4c-11.1-1-23.4-2.6-27.3-3.2c-12.8-2.9-52.6-5.8-64.9-4.8
		c-18.3,1.4-41,9.4-57.7,20.3c-7.7,5.1-24.6,15.2-37.4,22.4c-12.8,7.2-27.3,15.9-32.4,19.3c-13,8.7-32.3,18.1-34.8,17.1
		c-1.4-0.5-2.6-2.9-2.9-5.6c-0.5-3.9-1.4-2.6-4.4,7.2c-5.6,17.7-13.8,32.1-19.6,34.1c-6.5,2.2-7.2,0.5-7.7-17.6
		c-0.2-8.4-1.5-20-2.9-26.1l-2.6-10.9l0.9,10.2c0.5,5.6,1.4,16.9,2,25.3l0.9,14.8l-6.5,6.1c-3.8,3.2-10.1,8.2-14.2,11.1
		c-8.2,5.3-6.5,6.1,6,3.1c9.2-2.4,16.2,0,21.5,7.3l3.6,5.1l3.8-11.6c6-18.9,13.8-33.6,22.5-42.3c7.9-7.9,25.3-17.9,43.3-24.9
		c12.1-4.8,50.5-27,72.7-42c5.8-3.8,15.7-8.7,22-10.9c11.4-3.8,13-3.9,46.8-2.7c39.8,1.4,59.7,2.9,85.3,7.2
		c9.9,1.5,19.5,2.7,21.3,2.6c1.9,0,12.5,0.7,23.6,1.5c14.7,1.2,22.4,2.7,28.2,5.6l8,3.8l-0.7,60.6c-0.3,42.3-1.2,60.9-2.6,61.8
		c-2,1.4-31.9,0.3-42-1.4c-3.2-0.5-14.2-2.9-24.2-5.1c-19.8-4.4-53.4-8.9-76.5-10.2l-14.5-0.9l4.9,3.9c4.4,3.6,30.4,22.5,48.8,35.7
		l7.5,5.5l18.9-1.2c10.6-0.5,29.4-2.9,41.8-5.3c12.5-2.4,25.9-4.3,30-4.3h7.5l0.3,21c0.3,11.4,0.5,27,0.5,34.5v13.7l-6,2
		c-3.2,1.2-10.6,2-16.2,2c-5.6,0.2-17.2,1.4-25.8,2.7s-27,2.7-41,2.9c-24.7,0.5-25.6,0.3-34.8-4.1c-5.1-2.6-14.3-7.9-20.5-11.8
		s-19.3-11.3-29.2-16.2c-10.4-5.1-20-11.3-22.5-14.2c-4.1-4.9-11.4-21.7-11.4-26.1c0-1-1.9-0.2-4.3,2c-3.2,3.1-5.3,3.8-10.4,2.9
		l-6.3-1l7.2,6c3.8,3.4,7.2,7.7,7.2,9.7c0.2,2.2,0.7,1.5,1.4-2l1-5.6l3.9,3.1c2,1.9,5.8,8.2,8,14.3s4.1,9.4,4.1,7.3
		c0.2-2.2,0.7-3.9,1.5-3.9c2,0,18.4,9.6,51.9,30.2c17.7,10.9,27.3,14.2,43.5,14.3c11.6,0.2,20.8-0.9,62-6.3
		c9.9-1.4,21.8-2.4,26.6-2.4h8.7l1,21.7c0.5,11.9,0.3,22.5-0.5,23.6s-17.2,1.9-44.5,2.2l-43,0.5l-13.8,10.4
		c-17.4,13.1-19.6,14-45.4,19.1c-25.3,5.1-32.8,6-33.6,3.6c-0.3-1,5.6-8.9,13.1-17.4c7.5-8.7,13.7-16,13.7-16.6s-4.8-5.3-10.4-10.8
		c-5.8-5.5-12.8-13.3-15.4-17.4c-4.3-6.7-11.6-26.1-14.2-37.9l-1-4.6l-7.5,7.5c-4.1,4.1-8.9,7.5-10.8,7.5c-2,0-4.6,1.2-5.8,2.7
		c-1.2,1.5-4.1,3.4-6.3,4.3c-2.2,0.9-3.6,2.2-2.9,3.2c0.5,0.9-4.6,7-11.4,13.8c-13.7,13.3-9.7,10.8,12.6-8.2
		c17.2-14.5,26.8-21.3,28.7-20.1c1.5,1,6,10.1,12.1,24.4c4.6,11.3,3.9,13-12.5,26.8c-24.1,20.1-25.8,23-3.1,4.8
		c20.1-16,21.5-16.7,26.1-13.7c6.3,4.3,16.6,14.5,16.6,16.4c0,1-5.3,7.9-11.6,15c-6.3,7.3-14.5,17.2-17.9,22.2
		C1740.3,1684,1729.9,1687.4,1716.1,1678z M1697.8,1580.4c-1.5-1-5.3-4.6-8-8c-2.9-3.6-5.3-5.8-5.3-5.1c0,2,12.3,14.8,14.3,14.8
		C1699.8,1582.1,1699.3,1581.2,1697.8,1580.4z M1484.5,1371c3.2-4.1,8.9-9.7,12.6-12.6c7.5-5.3,7.5-6.5-0.2-2.4
		c-6.7,3.2-18.3,16.9-20.5,23.6c-1.4,4.4-1.4,4.9,0.3,2.2C1478,1380,1481.4,1375.2,1484.5,1371z"/>
	<path d="M1570.6,1269.4c-31.7-25.8-45.4-38.1-51.9-46.1c-9-11.4-8.9-14.2,0.7-9.9c16.2,7.3,26.3,3.4,50.5-19.6
		c7.9-7.5,14.5-12.6,15.5-11.9c2.7,1.7-1.9,6.5-17.1,17.6c-20.8,15.2-27.3,22.2-27.3,29.4c0,7,4.8,15.5,13.8,24.2
		c18.4,17.9,29.4,15.7,60.1-12.3c5.5-4.9,10.4-8.5,10.9-7.9c1.4,1.2,1.5,1-14.8,14.7c-17.1,14.2-24.4,23-24.4,29.2
		c0,2.7-0.3,4.9-0.5,4.9S1579,1276.2,1570.6,1269.4z"/>
	<path d="M1629.9,1228.3c0-2,24.4-20.1,26.6-19.6c1.5,0.3-2.2,4.3-10.2,10.4C1635.5,1227.3,1629.9,1230.5,1629.9,1228.3z"/>
	<path d="M1703.6,771.4c-17.9-9.4-28.7-16.9-44.4-30.4c-12.1-10.6-15.7-16.2-15.7-25.4c0-4.9-0.5-5.8-2-4.3
		c-3.6,3.6-9.9,2.2-22.4-5.1c-15-8.7-24.6-17.4-25.9-23.7c-2-9,9.4-26.8,19.5-30.2c3.9-1.4,6.5-0.9,15,3.4c5.6,2.7,14.5,8.4,20,12.6
		c8.7,6.8,9.7,8.4,8.9,12.3c-0.9,4.1-0.5,3.8,2.4-1.4c3.9-7.3,4.1-8.5,0.9-8.5s-19.8-11.4-31.4-21.8l-9-8l2-6.8
		c2.7-9,9.9-19.6,16.6-24.1c7-4.6,18.1-3.2,27,3.4c11.1,8.5,32.4,29.9,31.1,31.2c-0.7,0.7,1.2,2.4,4.3,3.9c4.9,2.2,5.8,3.6,6.7,11.1
		c0.9,7.7,1,7.9,1.2,2.2c0.5-8.9,4.4-8.5,14.7,0.9l7.9,7.5l1-4.4c5.1-23.4,12.6-37.4,28.3-53.4l13.3-13.7l-3.8-4.6
		c-2.2-2.7-8.7-10.4-14.7-17.2c-6-6.8-10.2-13-9.4-13.7c1.5-1.5,14.7,0.2,32.1,4.3c6.7,1.5,15.2,3.4,19.1,4.3
		c9.9,2.2,15.2,5.1,30,16.9l12.8,10.2l45.6,1.2l45.4,1.2l-1.2,23.2c-0.7,12.8-1.4,23.4-1.5,23.7c-0.3,0.5-30.4-2.4-47.8-4.8
		c-60.1-7.7-69.1-7-93.2,8.5c-7.3,4.6-13.7,8.5-14.2,8.5c-0.5,0-9.2,4.9-19.6,11.1c-10.2,6.1-19.5,11.1-20.5,11.1
		c-1,0-1.9-1.7-1.9-3.8c-0.2-2.4-1.4-0.5-3.2,4.6c-5.5,15.5-10.6,21.8-14.2,18.3c-1.2-1.2-2.7-0.9-5.5,1.7c-1.9,1.9-5.8,4.9-8.7,6.7
		c-5.6,3.6-3.8,4.3,3.6,1.5c3.9-1.5,5.6-1.2,9.7,1.7c2.7,2,5.1,3.4,5.3,3.1c0.2-0.2,1.5-3.9,2.7-8c5.3-16.6,10.1-21.5,31.9-32.3
		c11.1-5.5,25.1-13.1,31.2-17.1c23.6-15.2,25.3-15.7,52.9-15.5c13.7,0,29,0.9,34.1,1.7s18.4,2.2,29.4,3.2c12.3,0.9,22,2.6,25.4,4.4
		l5.5,2.7l-1.2,20.7c-0.5,11.3-1,26.5-1,34v13.3h-10.2c-5.6,0-17.2-1.5-25.9-3.2c-18.9-3.9-43.5-7-55.6-7c-7.2,0-10.2,1-16,5.3
		c-29.4,21-40.3,28.7-56.8,39.8c-18.6,12.6-35.8,21.5-41.5,21.5C1720.8,779.9,1712.3,776,1703.6,771.4z M1711.3,684
		c-0.3-2.2-0.7-0.9-0.7,2.9c-0.2,3.8,0.2,5.5,0.7,3.9C1711.6,689.2,1711.6,686.1,1711.3,684z M1677.1,650.8c2.6-2.2,3.9-3.9,2.9-3.9
		c-2.6,0-14.3,13-14.3,15.9c0,1,1.5-0.2,3.4-3.1C1671,656.9,1674.6,652.8,1677.1,650.8z"/>
	<path d="M1719.8,656.4c-3.4-2.4-13.1-10.2-21.8-17.6c-8.5-7.3-20.3-16.9-26.1-21.5c-13.3-10.4-16.4-14.2-16.4-20.1
		c0-5.6,9.6-17.2,17.2-21.3c7.5-3.8,12.6-2.9,21.5,3.8l8.2,6.1l-7-7.3c-3.9-4.1-7.7-9-8.2-11.1c-1.4-4.4,4.8-13.8,12.5-18.9
		c6.1-4.1,18.3-5.3,23.9-2.2c1.7,0.9,9,9,16,18.3c7.2,9.2,16,20.1,19.8,24.4c3.8,4.3,7,9.2,7,11.1c0,2-3.6,6.5-8.5,10.8
		c-6.8,5.8-9.6,7.3-12.8,6.5c-2.2-0.5-12.6-8-23.4-16.6c-18.6-15-13.8-9.4,9.4,10.9c6.3,5.5,11.4,11.3,11.4,13
		c0,4.9-12.3,33.3-15.2,35C1726.5,660,1723.1,658.6,1719.8,656.4z"/>
</g>
<g id="layer105">
	<path class="st3" d="M1716.1,1678c-3.8-2.6-8.2-7.3-9.7-10.6c-2.7-5.5-2.7-6.1-0.2-10.2c1.4-2.4,4.6-6.5,7.2-9.2l4.4-4.9l-7.5,5.5
		c-9.2,6.5-14.8,6.7-23.4,0.3c-7.5-5.3-11.9-11.1-13.7-17.9c-0.9-3.6,0.3-5.6,8.2-13.1l9-8.7l-9.2,6.1c-9.9,6.8-13,7.3-21.2,3.8
		c-9.7-3.9-23-24.6-20.8-31.7c1.5-4.6,34.3-29,38.9-29c2.2,0,2.2-0.9,0.7-5.1c-1.7-4.4-2-4.8-3.1-2c-2.4,6.5-31.6,25.9-38.7,25.9
		c-2.2,0-6.3-1.4-9-2.9c-4.8-2.9-5.1-2.7-21.7,5.3c-24.2,11.6-31.2,11.9-50.9,3.1c-29.7-13.3-58.7-32.1-90.5-58.5
		c-16.9-14-22.2-20.1-27.6-31.9c-4.1-9.2-4.6-18.9-1.4-28.5c0.7-1.9,0-1.4-1.5,1.2c-6.5,11.4-15.2,10.9-37-1.5
		c-24.7-14.3-40.3-25.9-46.4-34.3c-10.2-14.5-6.1-34.1,11.3-52.6c4.9-5.3,11.9-10.4,16.9-12.6c8.4-3.4,9-3.6,15.7-0.9
		c23.4,9.2,64.3,39.6,64.3,47.8c0,1.9-2,7.7-4.4,12.8c-5.8,12.3-7.7,17.1-6.5,17.1c0.3,0,2.2-3.2,3.9-7.2
		c3.1-7.2,13.5-29.7,18.4-39.8l2.4-5.1l-3.6,4.8c-5.8,7.3-4.3,8-37.4-16.4c-7.9-5.8-18.4-13.7-23.6-17.4c-9.4-7-15.9-15-15.9-19.6
		c0-3.6,6.8-20,12.3-29.4c7-11.8,12.5-17.6,21.5-22.9c10.6-6.3,25.3-6.7,36.4-0.9l7.3,3.9l-7.2-7.9c-5.6-6.1-7.2-9-7.2-13.8
		c0-9.4,4.4-17.9,15-28.7c15.2-15.5,28.3-20.7,40.1-15.7c6,2.4,18.8,12.6,41.8,32.9c6.3,5.6,16.9,14.7,23.4,20.1
		c21.2,17.6,35,32.3,35,37c0,8.4-22.5,60.1-27,61.8c-4.6,1.7-19.8-7.9-38.7-24.6c-3.9-3.4-11.4-9.9-16.9-14.7
		c-5.6-4.6-14.7-12.6-20.3-17.4c-5.5-4.9-14-11.8-18.9-15c-6.7-4.8-3.8-1.2,12.1,14.3c11.6,11.3,22.9,21.8,25.3,23.4
		c4.4,2.9,5.8,9.2,2.2,9.4c-1.2,0,1.7,1.9,6.3,4.3c11.3,5.5,12.8,7.9,13.1,20.1l0.2,10.4l1-8.5c0.9-7.5,1.5-8.5,5.5-9
		c3.1-0.3,7.5,1.9,15,7.5c12.1,9,18.8,17.9,19.1,25.4c0.2,2.7,0.9,0.2,1.5-6c1.5-13.5,12.1-48,19.1-62.3c7.7-16,16-26.5,21.2-26.5
		c7,0,13.8-6.5,32.4-30.7c9.7-12.6,22.4-28,28-34.1c10.2-11.1,11.8-14.5,8.5-20.7c-2.4-4.4-0.5-4.1,6.3,1.2c7.2,5.5,7,6-15.7,30.5
		c-19.6,21.3-22.9,25.9-18.9,27.5c3.2,1.2,22-1.5,46.3-7c10.4-2.2,21.5-4.4,24.7-4.9c3.2-0.5,10.8-3.2,16.7-6.1l10.8-5.1l6.7,4.9
		l6.7,4.8l36.4,1.2c20,0.5,55.6,1.5,79,2c49,1,47.8,0.7,46.3,15.2c-0.5,4.8-1.4,22.2-2,38.9c-0.9,21.7-1.7,30.7-3.2,31.2
		c-3.4,1.4-49.2-2.6-61.8-5.1c-6.3-1.4-20.8-3.2-31.9-4.4c-11.1-1-23.4-2.6-27.3-3.2c-12.8-2.9-52.6-5.8-64.9-4.8
		c-18.3,1.4-41,9.4-57.7,20.3c-7.7,5.1-24.6,15.2-37.4,22.4c-12.8,7.2-27.3,15.9-32.4,19.3c-13,8.7-32.3,18.1-34.8,17.1
		c-1.4-0.5-2.6-2.9-2.9-5.6c-0.5-3.9-1.4-2.6-4.4,7.2c-5.6,17.7-13.8,32.1-19.6,34.1c-6.5,2.2-7.2,0.5-7.7-17.6
		c-0.2-8.4-1.5-20-2.9-26.1l-2.6-10.9l0.9,10.2c0.5,5.6,1.4,16.9,2,25.3l0.9,14.8l-6.5,6.1c-3.8,3.2-10.1,8.2-14.2,11.1
		c-8.2,5.3-6.5,6.1,6,3.1c9.2-2.4,16.2,0,21.5,7.3l3.6,5.1l3.8-11.6c6-18.9,13.8-33.6,22.5-42.3c7.9-7.9,25.3-17.9,43.3-24.9
		c12.1-4.8,50.5-27,72.7-42c5.8-3.8,15.7-8.7,22-10.9c11.4-3.8,13-3.9,46.8-2.7c39.8,1.4,59.7,2.9,85.3,7.2
		c9.9,1.5,19.5,2.7,21.3,2.6c1.9,0,12.5,0.7,23.6,1.5c14.7,1.2,22.4,2.7,28.2,5.6l8,3.8l-0.7,60.6c-0.3,42.3-1.2,60.9-2.6,61.8
		c-2,1.4-31.9,0.3-42-1.4c-3.2-0.5-14.2-2.9-24.2-5.1c-19.8-4.4-53.4-8.9-76.5-10.2l-14.5-0.9l4.9,3.9c4.4,3.6,30.4,22.5,48.8,35.7
		l7.5,5.5l18.9-1.2c10.6-0.5,29.4-2.9,41.8-5.3c12.5-2.4,25.9-4.3,30-4.3h7.5l0.3,21c0.3,11.4,0.5,27,0.5,34.5v13.7l-6,2
		c-3.2,1.2-10.6,2-16.2,2c-5.6,0.2-17.2,1.4-25.8,2.7s-27,2.7-41,2.9c-24.7,0.5-25.6,0.3-34.8-4.1c-5.1-2.6-14.3-7.9-20.5-11.8
		s-19.3-11.3-29.2-16.2c-10.4-5.1-20-11.3-22.5-14.2c-4.1-4.9-11.4-21.7-11.4-26.1c0-1-1.9-0.2-4.3,2c-3.2,3.1-5.3,3.8-10.4,2.9
		l-6.3-1l7.2,6c3.8,3.4,7.2,7.7,7.2,9.7c0.2,2.2,0.7,1.5,1.4-2l1-5.6l3.9,3.1c2,1.9,5.8,8.2,8,14.3s4.1,9.4,4.1,7.3
		c0.2-2.2,0.7-3.9,1.5-3.9c2,0,18.4,9.6,51.9,30.2c17.7,10.9,27.3,14.2,43.5,14.3c11.6,0.2,20.8-0.9,62-6.3
		c9.9-1.4,21.8-2.4,26.6-2.4h8.7l1,21.7c0.5,11.9,0.3,22.5-0.5,23.6s-17.2,1.9-44.5,2.2l-43,0.5l-13.8,10.4
		c-17.4,13.1-19.6,14-45.4,19.1c-25.3,5.1-32.8,6-33.6,3.6c-0.3-1,5.6-8.9,13.1-17.4c7.5-8.5,13.7-16,13.7-16.4
		c0-0.5-4.8-5.5-10.4-10.9c-5.8-5.5-12.8-13.3-15.4-17.4c-4.3-6.7-11.6-26.1-14.2-37.9l-1-4.6l-7.5,7.5c-4.1,4.1-8.9,7.5-10.8,7.5
		c-2,0-4.6,1.2-5.8,2.7c-1.2,1.5-4.1,3.4-6.3,4.3c-2.2,0.9-3.6,2.2-2.9,3.2c0.5,0.9-4.6,7-11.4,13.8c-13.7,13.3-9.7,10.8,12.6-8.2
		c17.2-14.5,26.8-21.3,28.7-20.1c1.5,1,6,10.1,12.1,24.4c4.6,11.3,3.8,13.1-11.6,25.9c-12.3,10.2-25.1,22-21,19.3
		c1.4-1,9.4-7.2,17.6-14c19.5-15.7,21-16.4,25.6-13.1c6.1,4.1,16.6,14.3,16.6,16.2c0,1-5.3,7.7-11.6,15
		c-6.3,7.3-14.5,17.2-17.9,22.2C1740.5,1684,1729.9,1687.4,1716.1,1678z M1697.8,1580.4c-1.5-1-5.3-4.6-8-8
		c-2.9-3.6-5.3-5.8-5.3-5.1c0,2,12.3,14.8,14.3,14.8C1699.8,1582.1,1699.3,1581.2,1697.8,1580.4z M1484.5,1371
		c3.2-4.1,8.9-9.7,12.6-12.6c7.5-5.3,7.5-6.5-0.2-2.4c-6.7,3.2-18.3,16.9-20.5,23.6c-1.4,4.4-1.4,4.9,0.3,2.2
		C1478,1380,1481.4,1375.2,1484.5,1371z"/>
	<path class="st3" d="M1570.6,1269.4c-31.7-25.8-45.4-38.1-51.9-46.1c-9-11.4-8.9-14.2,0.7-9.9c16.2,7.3,26.3,3.4,50.5-19.6
		c7.9-7.5,14.5-12.6,15.5-11.9c2.7,1.7-1.9,6.5-17.1,17.6c-20.8,15.2-27.3,22.2-27.3,29.4c0,7,4.8,15.5,13.8,24.2
		c18.4,17.9,29.4,15.7,60.1-12.3c5.5-4.9,10.4-8.5,11.1-7.9c0.5,0.7-1.5,3.2-4.8,5.8c-22.2,17.4-34.6,31.1-34.6,38.1
		c0,2.7-0.3,4.9-0.5,4.9S1579,1276.2,1570.6,1269.4z"/>
	<path class="st3" d="M1629.9,1228.3c0-1.7,24.4-20.1,25.9-19.6c2.2,0.9-21,20.1-24.1,20.1
		C1630.7,1228.8,1629.9,1228.6,1629.9,1228.3z"/>
	<path class="st3" d="M1703.6,771.4c-17.9-9.4-28.7-16.9-44.4-30.4c-12.1-10.6-15.7-16.2-15.7-25.4c0-4.9-0.5-5.8-2-4.3
		c-3.6,3.6-9.9,2.2-22.4-5.1c-15.2-8.7-24.6-17.4-25.9-23.9c-2-8.7,9.7-26.6,19.6-30.2c5.8-1.9,20.1,4.8,34.8,16.2
		c8.7,6.8,9.7,8.4,8.9,12.3c-0.9,4.1-0.5,3.8,2.4-1.4c4.1-7.3,4.1-8.5,0.9-8.5c-2.4,0-6.7-2.6-16-9.7c-1.5-1-7.5-6-13.5-10.8
		c-12.1-9.9-12.3-10.9-5.1-24.7c6.8-13.5,13.8-18.8,24.4-18.1c8.7,0.5,12.1,2.7,31.7,21.2c12.5,11.6,15.5,15.4,13.5,16.6
		c-1.9,1.2-1.2,1.7,2.7,2.7c7.7,1.9,9.2,3.9,9.6,12.5c0.2,7.3,0.3,7.5,0.9,1.5c1-8.7,4.8-8.5,14.8,0.9l7.9,7.5l1-4.4
		c5.1-23.4,12.6-37.5,28.5-53.4c7.2-7.3,13.1-13.7,13.1-14.2c0-0.3-6.7-8.2-14.7-17.2s-14-17.1-13.1-17.7c1.5-1.5,14.7,0.2,32.1,4.3
		c6.7,1.5,15.2,3.4,19.1,4.3c9.9,2.2,15.2,5.1,30,16.9l12.8,10.2l45.6,1.2l45.4,1.2l-1.2,23.2c-0.7,12.8-1.4,23.4-1.5,23.7
		c-0.3,0.5-30.4-2.4-47.8-4.8c-60.1-7.7-69.1-7-93.2,8.5c-7.3,4.6-13.7,8.5-14.2,8.5c-0.5,0-9.2,4.9-19.6,11.1
		c-10.2,6.1-19.5,11.1-20.5,11.1c-1,0-1.9-1.7-1.9-3.8c-0.2-2.4-1.4-0.5-3.2,4.6c-5.5,15.5-10.6,21.8-14.2,18.3
		c-1.2-1.2-2.7-0.9-5.5,1.7c-1.9,1.9-5.8,4.9-8.7,6.7c-5.6,3.6-3.8,4.3,3.6,1.5c3.9-1.5,5.6-1.2,9.7,1.7c2.7,2,5.1,3.4,5.3,3.1
		c0.2-0.2,1.5-3.9,2.7-8c5.3-16.6,10.1-21.5,31.9-32.3c11.1-5.5,25.1-13.1,31.2-17.1c23.6-15.2,25.3-15.7,52.9-15.5
		c13.7,0,29,0.9,34.1,1.7s18.4,2.2,29.4,3.2c12.3,0.9,22,2.6,25.4,4.4l5.5,2.7l-1.2,20.7c-0.5,11.3-1,26.5-1,34v13.3h-10.2
		c-5.6,0-17.2-1.5-25.9-3.2c-18.9-3.9-43.5-7-55.6-7c-7.2,0-10.2,1-16,5.3c-29.4,21-40.3,28.7-56.8,39.8
		c-18.6,12.6-35.8,21.5-41.5,21.5C1720.8,779.9,1712.3,776,1703.6,771.4z M1711.3,684c-0.3-2.2-0.7-0.9-0.7,2.9
		c-0.2,3.8,0.2,5.5,0.7,3.9C1711.6,689.2,1711.6,686.1,1711.3,684z M1681.9,648c2.9-1.5,3.9-2.7,2.4-2.7
		c-3.4-0.2-13.7,7.5-16.4,12.3c-3.8,6.8-2.4,6.8,3.4-0.2C1674.2,653.7,1679.2,649.4,1681.9,648z"/>
	<path class="st3" d="M1719.3,656c-3.8-2.6-14.7-11.6-24.6-20.1s-22-18.6-27-22.2c-15.4-11.3-16.4-17.9-4.1-30.2
		c8.5-8.5,14.5-11.1,21.5-9.4c2.2,0.5,11.6,7.5,20.8,15.7c39.8,34.6,38.4,32.9,34.6,42.2c-4.4,11.4-11.8,26.6-13.3,27.5
		C1726.5,660,1722.9,658.4,1719.3,656z"/>
	<path class="st3" d="M1737.2,612.4c-22.5-16.4-48.6-39.8-50-45.1c-1.4-4.4,4.8-13.8,12.5-18.9c5.8-3.9,16.9-5.3,23.2-2.9
		c1.5,0.7,10.2,10.8,19.5,22.7c9.2,11.8,18.4,23,20.5,24.7c5.6,5.1,4.4,9.7-4.8,17.7c-4.8,3.9-9.6,7.2-10.9,7.2
		C1745.9,617.8,1741.3,615.3,1737.2,612.4z"/>
	<path class="st3" d="M1742,394.6c-16.2-8.5-40.4-26.6-45.2-33.8c-2-3.2-3.8-8-3.8-10.9c0-4.8-0.3-4.9-3.4-3.1
		c-2.9,1.9-4.8,1.4-13-2.9c-14.7-7.9-24.6-17.2-24.6-23.2c0-8.7,9-21.3,17.4-24.2c3.8-1.4,16.9,5.6,27.3,14.3
		c7.7,6.3,11.6,7.3,11.6,2.9c0-1-0.5-1.5-1-0.9c-2.7,2.7-33.1-21.5-33.1-26.3c0-5.5,8.2-20,13.1-23.2c2.4-1.7,7.3-3.1,10.9-3.1
		c5.6,0,6.1-0.3,4.8-3.1c-5.5-9.9,15.5-28.7,26.1-23.2c3.2,1.5,3.6,1.5,1.9-0.3c-7-7.2,3.2-22.4,16.4-24.6
		c8.9-1.5,11.9,0.5,21.7,13.3c4.4,5.8,11.8,14.8,16.2,20c4.3,5.1,8.2,10.8,8.5,12.3c0.5,2,1.4,2.6,3.1,1.5c1.9-1.2-0.2-4.4-8.9-14.5
		c-11.4-13-13.8-18.1-8.7-18.1c4.9,0,43.5,8.5,47.3,10.4c2,1,8.9,5.8,15,10.4c12.6,9.6,9.4,9,62.1,10.6c11.3,0.3,21,0.9,21.8,0.9
		c0.7,0.2,1.2,8.5,1.2,18.6c0,17.6-0.2,18.6-3.8,20.3l-3.9,1.7l3.9,1.2c3.8,1.2,3.8,1.4,3.4,29.7l-0.5,28.5l-6.1,0.5
		c-3.2,0.3-13.3-1-22.2-3.1c-8.9-1.9-24.4-3.9-34.8-4.4l-18.8-1.2l-14.5,9.9c-8,5.3-16,11.1-17.9,12.8
		c-13.3,11.8-46.8,30.7-54.6,30.7C1755.8,401.1,1749,398.2,1742,394.6z M1756.7,341.3c1.7-4.6,4.9-10.8,7.3-13.7
		c3.9-4.6,4.1-5.1,1.2-5.1c-2,0-3.9,2-5.3,5.8c-2.6,7-9,13.3-10.2,9.7c-0.3-1.2-1.2-1.5-1.9-0.7c-0.5,0.9-3.2,3.2-6.1,5.5l-5.1,3.9
		l5.5-1c3.8-0.9,6-0.5,7.7,1.4C1752.9,350.9,1753.4,350.7,1756.7,341.3z M1809.9,301.4l18.4-11.3l24.1-0.2l24.1-0.3l-16.2-2
		c-16-2-26.3-1.4-36.4,2.4c-5.1,2-35.7,20-51.7,30.4C1761.6,327.2,1794.7,310.6,1809.9,301.4z M1770.5,289.3
		c0.5-1.9-0.9,0.7-3.4,5.6c-2.4,4.8-5.5,8.9-6.7,8.9c-2.6,0-17.1-11.1-29-22c-3.8-3.6-8.4-7.3-10.2-8.5s1,2,6.5,7.2
		c5.6,5.3,9.6,10.4,8.9,11.3c-0.5,1,0,1.9,1.4,1.9s3.8,1.5,5.5,3.4c1.7,1.9,4.3,3.4,5.8,3.4c1.5,0,5.5,2.6,8.7,5.6l6,5.5l2.7-9.4
		C1768.1,297,1770,291.2,1770.5,289.3z M1909.8,293.5c-23.2-2.9-33.3-3.8-32.3-2.9c1.5,1.9,18.9,4.3,30.5,4.1h11.1L1909.8,293.5z
		 M1784.8,267.1c4.9-5.3,5.1-5.8,1-2c-6.1,5.6-7.9,5.6-15.9,0.9l-6.1-3.8l5.5,6.3c4.8,5.5,5.3,7,3.9,10.8c-2.7,6.8-2,7.2,1.9,0.7
		C1777.2,276.7,1781.4,270.8,1784.8,267.1z"/>
</g>
<g id="layer106">
	<path class="st4" d="M1716.1,1678c-3.8-2.6-8.2-7.3-9.7-10.4c-2.7-5.5-2.7-6.1,0-10.9c1.5-2.7,6.3-7.9,10.6-11.3
		c4.3-3.4,14.7-11.9,23.4-19.3c20-16.7,21.8-17.7,26.6-14.3c6.1,4.1,16.6,14.3,16.6,16.2c0,1-5.3,7.7-11.6,15
		c-6.3,7.3-14.5,17.2-17.9,22.2C1740.5,1684,1729.9,1687.4,1716.1,1678z"/>
	<path class="st4" d="M1762,1663.8c-1.2-1.9,0-3.2,16-21c5.8-6.3,10.6-12.3,10.6-13.1c0-0.7-4.8-5.8-10.4-11.3
		c-5.8-5.5-12.8-13.3-15.4-17.4c-4.3-6.7-11.6-26.1-14.2-37.9l-1-4.6l-7.5,7.5c-4.1,4.1-8.9,7.5-10.8,7.5c-2,0-4.6,1.2-5.8,2.7
		c-1.2,1.5-3.8,3.4-5.8,4.1c-1.9,0.7-3.4,2.2-3.4,3.6c0,1.4-5.8,7.9-13,14.3c-23.6,21.7-28.8,24.6-38.9,21.5
		c-10.8-3.1-25.8-24.4-23.2-32.6c1.5-4.6,34.3-29,38.9-29c2.2,0,2.2-0.9,0.7-5.1c-1.7-4.4-2-4.8-3.1-2c-2.4,6.5-31.6,25.9-38.7,25.9
		c-2.2,0-6.3-1.4-9-2.9c-4.8-2.9-5.1-2.7-21.7,5.3c-24.2,11.6-31.2,11.9-50.9,3.1c-29.7-13.3-58.7-32.1-90.5-58.5
		c-16.9-14-22.2-20.1-27.6-31.9c-4.1-9.2-4.6-18.9-1.4-28.5c0.7-1.9,0-1.4-1.5,1.2c-6.5,11.4-15.2,10.9-37-1.5
		c-24.7-14.3-40.3-25.9-46.4-34.3c-10.2-14.5-6.1-34.1,11.3-52.6c4.9-5.3,11.9-10.4,16.9-12.6c8.4-3.4,9-3.6,15.7-0.9
		c23.4,9.2,64.3,39.6,64.3,47.8c0,1.9-2,7.7-4.4,12.8c-5.8,12.3-7.7,17.1-6.5,17.1c0.3,0,2.2-3.2,3.9-7.2
		c3.1-7.2,13.5-29.7,18.4-39.8l2.4-5.1l-3.6,4.8c-5.8,7.3-4.3,8-37.4-16.4c-7.9-5.8-18.4-13.7-23.6-17.4c-9.4-7-15.9-15-15.9-19.6
		c0-3.6,6.8-20,12.3-29.4c7-11.8,12.5-17.6,21.5-22.9c10.6-6.3,25.3-6.7,36.4-0.9l7.3,3.9l-7.2-7.9c-5.6-6.1-7.2-9-7.2-13.8
		c0-9.4,4.4-17.9,15-28.7c15.2-15.5,28.3-20.7,40.1-15.7c6,2.4,18.8,12.6,41.8,32.9c6.3,5.6,16.9,14.7,23.4,20.1
		c21.2,17.6,35,32.3,35,37c0,8.4-22.5,60.1-27,61.8c-4.6,1.7-19.8-7.9-38.7-24.6c-3.9-3.4-11.4-9.9-16.9-14.7
		c-5.6-4.6-14.7-12.6-20.3-17.4c-5.5-4.9-14-11.8-18.9-15c-6.7-4.8-3.8-1.2,12.1,14.3c11.6,11.3,22.9,21.8,25.3,23.4
		c4.4,2.9,5.8,9.2,2.2,9.4c-1.2,0,1.7,1.9,6.3,4.3c11.3,5.5,12.8,7.9,13.1,20.1l0.2,10.4l1-8.5c0.9-7.5,1.5-8.5,5.5-9
		c3.1-0.3,7.5,1.9,15,7.5c12.1,9,18.8,17.9,19.1,25.4c0.2,2.7,0.9,0.2,1.5-6c1.5-13.5,12.1-48,19.1-62.3c7.7-16,16-26.5,21.2-26.5
		c6.7,0,13.7-6.3,27.6-24.7c11.1-14.7,22.2-27.8,39.3-46.9c4.1-4.6,4.8-8.7,2-13.8c-2.4-4.4-0.5-4.1,6.3,1.2
		c7.2,5.5,6.5,7-11.4,25.4c-17.1,17.6-26.3,29.9-24.1,32.1c1.9,1.9,23-0.9,44.4-6c8-1.9,18.6-4.1,23.7-4.9
		c5.1-0.7,14.3-3.8,20.3-6.5l10.9-5.1l6.7,4.8l6.7,4.8l36.4,1.2c20,0.5,55.6,1.5,79,2c49,1,47.8,0.7,46.3,15.2
		c-0.5,4.8-1.4,22.2-2,38.9c-0.9,21.7-1.7,30.7-3.2,31.2c-3.4,1.4-49.2-2.6-61.8-5.1c-6.3-1.4-20.8-3.2-31.9-4.4
		c-11.1-1-23.4-2.6-27.3-3.2c-12.8-2.9-52.6-5.8-64.9-4.8c-18.3,1.4-41,9.4-57.7,20.3c-7.7,5.1-24.6,15.2-37.4,22.4
		c-12.8,7.2-27.3,15.9-32.4,19.3c-13,8.7-32.3,18.1-34.8,17.1c-1.4-0.5-2.6-2.9-2.9-5.6c-0.5-3.9-1.4-2.6-4.4,7.2
		c-5.6,17.7-13.8,32.1-19.6,34.1c-6.5,2.2-7.2,0.5-7.7-17.6c-0.2-8.4-1.5-20-2.9-26.1l-2.6-10.9l0.9,10.2c0.5,5.6,1.4,16.9,2,25.3
		l0.9,14.8l-6.5,6.1c-3.8,3.2-10.1,8.2-14.2,11.1c-8.2,5.3-6.5,6.1,6,3.1c9.2-2.4,16.2,0,21.5,7.3l3.6,5.1l3.8-11.6
		c6-18.9,13.8-33.6,22.5-42.3c7.9-7.9,25.3-17.9,43.3-24.9c12.1-4.8,50.5-27,72.7-42c5.8-3.8,15.7-8.7,22-10.9
		c11.4-3.8,13-3.9,46.8-2.7c39.8,1.4,59.7,2.9,85.3,7.2c9.9,1.5,19.5,2.7,21.3,2.6c1.9,0,12.5,0.7,23.6,1.5
		c14.7,1.2,22.4,2.7,28.2,5.6l8,3.8l-0.7,60.6c-0.3,42.3-1.2,60.9-2.6,61.8c-2,1.4-31.9,0.3-42-1.4c-3.2-0.5-14.2-2.9-24.2-5.1
		c-19.8-4.4-53.4-8.9-76.5-10.2l-14.5-0.9l4.9,3.9c4.4,3.6,30.4,22.5,48.8,35.7l7.5,5.5l18.9-1.2c10.6-0.5,29.4-2.9,41.8-5.3
		c12.5-2.4,25.9-4.3,30-4.3h7.5l0.3,21c0.3,11.4,0.5,27,0.5,34.5v13.7l-6,2c-3.2,1.2-10.6,2-16.2,2c-5.6,0.2-17.2,1.4-25.8,2.7
		s-27,2.7-41,2.9c-24.7,0.5-25.6,0.3-34.8-4.1c-5.1-2.6-14.3-7.9-20.5-11.8s-19.3-11.3-29.2-16.2c-10.4-5.1-20-11.3-22.5-14.2
		c-4.1-4.9-11.4-21.7-11.4-26.1c0-1-1.9-0.2-4.3,2c-3.2,3.1-5.3,3.8-10.4,2.9l-6.3-1l7.2,6c3.8,3.4,7.2,7.7,7.2,9.7
		c0.2,2.2,0.7,1.5,1.4-2l1-5.6l3.9,3.1c2,1.9,5.8,8.2,8,14.3s4.1,9.4,4.1,7.3c0.2-2.2,0.7-3.9,1.5-3.9c2,0,18.4,9.6,51.9,30.2
		c17.7,10.9,27.3,14.2,43.5,14.3c11.6,0.2,20.8-0.9,62-6.3c9.9-1.4,21.8-2.4,26.6-2.4h8.7l1,21.7c0.5,11.9,0.3,22.5-0.5,23.6
		s-17.2,1.9-44.5,2.2l-43,0.5l-13.8,10.4c-17.4,13.1-19.6,14-45.4,19.1C1765,1665.5,1763.2,1665.7,1762,1663.8z M1697.8,1580.4
		c-1.5-1-5.3-4.6-8-8c-2.9-3.6-5.3-5.8-5.3-5.1c0,2,12.3,14.8,14.3,14.8C1699.8,1582.1,1699.3,1581.2,1697.8,1580.4z M1484.5,1371
		c3.2-4.1,8.9-9.7,12.6-12.6c7.5-5.3,7.5-6.5-0.2-2.4c-6.7,3.2-18.3,16.9-20.5,23.6c-1.4,4.4-1.4,4.9,0.3,2.2
		C1478,1380,1481.4,1375.2,1484.5,1371z"/>
	<path class="st4" d="M1686.9,1648.8c-7.5-5.3-11.9-11.1-13.5-17.7c-1.2-4.8,1.4-7.7,24.7-27.3c39.6-33.1,44.7-36.7,47.3-33.1
		c1.9,2.7,6.3,12.1,10.9,23c4.6,11.1,3.8,13.3-9.7,24.2c-5.3,4.3-13.8,11.6-19.1,16.4c-14.5,13-24.2,19.5-29.4,19.5
		C1695.6,1653.8,1690.5,1651.5,1686.9,1648.8z"/>
	<path class="st4" d="M1570.6,1269.4c-31.7-25.8-45.4-38.1-51.9-46.1c-9-11.4-8.9-14.2,0.7-9.9c10.8,4.9,19.5,4.4,29.5-1.9l8.4-5.3
		l-8,8.4c-6.7,6.7-8.2,9.4-8.2,14.2c0,7,4.8,15.5,13.8,24.2c15.2,14.8,25.6,15.2,43.7,1.7c6.5-4.8,13.3-10.4,15-12.3
		c1.9-2,5.8-5.5,8.5-7.3c8.5-6,1.9,1.2-10.4,11.1c-15,12.1-25.1,24.4-25.1,30.5c0,2.7-0.3,4.9-0.5,4.9S1579,1276.2,1570.6,1269.4z"
		/>
	<path class="st4" d="M1630,1228.1c17.7-15,24.2-20,25.8-19.5c2,0.7-22,20.1-24.7,20.1C1630,1228.8,1629.7,1228.5,1630,1228.1z"/>
	<path class="st4" d="M1570.6,1194c7.5-7.3,14.2-12.5,15.4-11.8c2,1.2-6.1,8.9-20.1,18.8C1558.2,1206.3,1558.7,1205.6,1570.6,1194z"
		/>
</g>
</svg>
